%TF.GenerationSoftware,KiCad,Pcbnew,10.0.1*%
%TF.CreationDate,2026-06-01T19:55:13+08:00*%
%TF.ProjectId,LED_RAM,4c45445f-5241-44d2-9e6b-696361645f70,rev?*%
%TF.SameCoordinates,Original*%
%TF.FileFunction,Component,L1,Top*%
%TF.FilePolarity,Positive*%
%FSLAX46Y46*%
G04 Gerber Fmt 4.6, Leading zero omitted, Abs format (unit mm)*
G04 Created by KiCad (PCBNEW 10.0.1) date 2026-06-01 19:55:13*
%MOMM*%
%LPD*%
G01*
G04 APERTURE LIST*
%TA.AperFunction,ComponentMain*%
%ADD10C,0.300000*%
%TD*%
%TA.AperFunction,ComponentOutline,Courtyard*%
%ADD11C,0.100000*%
%TD*%
%TA.AperFunction,ComponentPin*%
%ADD12P,0.360000X4X0.000000*%
%TD*%
%TA.AperFunction,ComponentPin*%
%ADD13C,0.100000*%
%TD*%
%TA.AperFunction,ComponentOutline,Footprint*%
%ADD14C,0.100000*%
%TD*%
G04 APERTURE END LIST*
D10*
%TO.C,J13*%
%TO.CFtp,PinHeader_1x22_P2.54mm_Vertical*%
%TO.CVal,Conn_01x22_Pin*%
%TO.CLbN,Connector_PinHeader_2.54mm*%
%TO.CMnt,TH*%
%TO.CRot,-90*%
X241450000Y-123850000D03*
D11*
X243225000Y-122085000D02*
X243225000Y-125615000D01*
X186335000Y-125615000D01*
X186335000Y-122085000D01*
X243225000Y-122085000D01*
D12*
%TO.P,J13,1,Pin_1_1*%
X241450000Y-123850000D03*
D13*
%TO.P,J13,2,Pin_2_2*%
X238910000Y-123850000D03*
%TO.P,J13,3,Pin_3_3*%
X236370000Y-123850000D03*
%TO.P,J13,4,Pin_4_4*%
X233830000Y-123850000D03*
%TO.P,J13,5,Pin_5_5*%
X231290000Y-123850000D03*
%TO.P,J13,6,Pin_6_6*%
X228750000Y-123850000D03*
%TO.P,J13,7,Pin_7_7*%
X226210000Y-123850000D03*
%TO.P,J13,8,Pin_8_8*%
X223670000Y-123850000D03*
%TO.P,J13,9,Pin_9_9*%
X221130000Y-123850000D03*
%TO.P,J13,10,Pin_10_10*%
X218590000Y-123850000D03*
%TO.P,J13,11,Pin_11_11*%
X216050000Y-123850000D03*
%TO.P,J13,12,Pin_12_12*%
X213510000Y-123850000D03*
%TO.P,J13,13,Pin_13_13*%
X210970000Y-123850000D03*
%TO.P,J13,14,Pin_14_14*%
X208430000Y-123850000D03*
%TO.P,J13,15,Pin_15_15*%
X205890000Y-123850000D03*
%TO.P,J13,16,Pin_16_16*%
X203350000Y-123850000D03*
%TO.P,J13,17,Pin_17_17*%
X200810000Y-123850000D03*
%TO.P,J13,18,Pin_18_18*%
X198270000Y-123850000D03*
%TO.P,J13,19,Pin_19_19*%
X195730000Y-123850000D03*
%TO.P,J13,20,Pin_20_20*%
X193190000Y-123850000D03*
%TO.P,J13,21,Pin_21_21*%
X190650000Y-123850000D03*
%TO.P,J13,22,Pin_22_22*%
X188110000Y-123850000D03*
%TD*%
D10*
%TO.C,J6*%
%TO.CFtp,PinHeader_1x10_P2.54mm_Vertical*%
%TO.CVal,Conn_01x10_Pin*%
%TO.CLbN,Connector_PinHeader_2.54mm*%
%TO.CMnt,TH*%
%TO.CRot,90*%
X206300000Y-216100000D03*
D11*
X230925000Y-214335000D02*
X230925000Y-217865000D01*
X204535000Y-217865000D01*
X204535000Y-214335000D01*
X230925000Y-214335000D01*
D12*
%TO.P,J6,1,Pin_1_1*%
X206300000Y-216100000D03*
D13*
%TO.P,J6,2,Pin_2_2*%
X208840000Y-216100000D03*
%TO.P,J6,3,Pin_3_3*%
X211380000Y-216100000D03*
%TO.P,J6,4,Pin_4_4*%
X213920000Y-216100000D03*
%TO.P,J6,5,Pin_5_5*%
X216460000Y-216100000D03*
%TO.P,J6,6,Pin_6_6*%
X219000000Y-216100000D03*
%TO.P,J6,7,Pin_7_7*%
X221540000Y-216100000D03*
%TO.P,J6,8,Pin_8_8*%
X224080000Y-216100000D03*
%TO.P,J6,9,Pin_9_9*%
X226620000Y-216100000D03*
%TO.P,J6,10,Pin_10_10*%
X229160000Y-216100000D03*
%TD*%
D10*
%TO.C,D4*%
%TO.CFtp,LED_WS2812B_PLCC4_5.0x5.0mm_P3.2mm*%
%TO.CVal,WS2812B*%
%TO.CLbN,LED_SMD*%
%TO.CMnt,SMD*%
%TO.CRot,0*%
X-133532976Y-100100000D03*
D11*
X-130087976Y-97355000D02*
X-130087976Y-102845000D01*
X-136977976Y-102845000D01*
X-136977976Y-97355000D01*
X-130087976Y-97355000D01*
D12*
%TO.P,D4,1,VDD_1*%
X-135982976Y-98450000D03*
D13*
%TO.P,D4,2,DOUT_2*%
X-135982976Y-101750000D03*
%TO.P,D4,3,VSS_3*%
X-131082976Y-101750000D03*
%TO.P,D4,4,DIN_4*%
X-131082976Y-98450000D03*
%TD*%
D10*
%TO.C,J2*%
%TO.CFtp,PinHeader_1x01_P2.54mm_Vertical*%
%TO.CVal,5V*%
%TO.CLbN,Connector_PinHeader_2.54mm*%
%TO.CMnt,TH*%
%TO.CRot,0*%
X46417024Y-200150000D03*
D11*
X48182024Y-198385000D02*
X48182024Y-201915000D01*
X44652024Y-201915000D01*
X44652024Y-198385000D01*
X48182024Y-198385000D01*
D12*
%TO.P,J2,1,Pin_1_1*%
X46417024Y-200150000D03*
%TD*%
D10*
%TO.C,D36*%
%TO.CFtp,LED_WS2812B_PLCC4_5.0x5.0mm_P3.2mm*%
%TO.CVal,WS2812B*%
%TO.CLbN,LED_SMD*%
%TO.CMnt,SMD*%
%TO.CRot,0*%
X-33732976Y-100300000D03*
D11*
X-30287976Y-97555000D02*
X-30287976Y-103045000D01*
X-37177976Y-103045000D01*
X-37177976Y-97555000D01*
X-30287976Y-97555000D01*
D12*
%TO.P,D36,1,VDD_1*%
X-36182976Y-98650000D03*
D13*
%TO.P,D36,2,DOUT_2*%
X-36182976Y-101950000D03*
%TO.P,D36,3,VSS_3*%
X-31282976Y-101950000D03*
%TO.P,D36,4,DIN_4*%
X-31282976Y-98650000D03*
%TD*%
D10*
%TO.C,D59*%
%TO.CFtp,LED_WS2812B_PLCC4_5.0x5.0mm_P3.2mm*%
%TO.CVal,WS2812B*%
%TO.CLbN,LED_SMD*%
%TO.CMnt,SMD*%
%TO.CRot,0*%
X41100000Y-75100000D03*
D11*
X44545000Y-72355000D02*
X44545000Y-77845000D01*
X37655000Y-77845000D01*
X37655000Y-72355000D01*
X44545000Y-72355000D01*
D12*
%TO.P,D59,1,VDD_1*%
X38650000Y-73450000D03*
D13*
%TO.P,D59,2,DOUT_2*%
X38650000Y-76750000D03*
%TO.P,D59,3,VSS_3*%
X43550000Y-76750000D03*
%TO.P,D59,4,DIN_4*%
X43550000Y-73450000D03*
%TD*%
D10*
%TO.C,D64*%
%TO.CFtp,LED_WS2812B_PLCC4_5.0x5.0mm_P3.2mm*%
%TO.CVal,WS2812B*%
%TO.CLbN,LED_SMD*%
%TO.CMnt,SMD*%
%TO.CRot,0*%
X41100000Y-200100000D03*
D11*
X44545000Y-197355000D02*
X44545000Y-202845000D01*
X37655000Y-202845000D01*
X37655000Y-197355000D01*
X44545000Y-197355000D01*
D12*
%TO.P,D64,1,VDD_1*%
X38650000Y-198450000D03*
D13*
%TO.P,D64,2,DOUT_2*%
X38650000Y-201750000D03*
%TO.P,D64,3,VSS_3*%
X43550000Y-201750000D03*
%TO.P,D64,4,DIN_4*%
X43550000Y-198450000D03*
%TD*%
D10*
%TO.C,U5*%
%TO.CFtp,TSSOP-20_4.4x6.5mm_P0.65mm*%
%TO.CVal,TXS0108EPW*%
%TO.CLbN,Package_SO*%
%TO.CMnt,SMD*%
%TO.CRot,-90*%
X221400000Y-177400000D03*
D11*
X224775000Y-173555000D02*
X224775000Y-174955000D01*
X224895000Y-174955000D01*
X224895000Y-179845000D01*
X224775000Y-179845000D01*
X224775000Y-181245000D01*
X218025000Y-181245000D01*
X218025000Y-179845000D01*
X217905000Y-179845000D01*
X217905000Y-174955000D01*
X218025000Y-174955000D01*
X218025000Y-173555000D01*
X224775000Y-173555000D01*
D12*
%TO.P,U5,1,A1_1*%
X224325000Y-174537500D03*
D13*
%TO.P,U5,2,VCCA_2*%
X223675000Y-174537500D03*
%TO.P,U5,3,A2_3*%
X223025000Y-174537500D03*
%TO.P,U5,4,A3_4*%
X222375000Y-174537500D03*
%TO.P,U5,5,A4_5*%
X221725000Y-174537500D03*
%TO.P,U5,6,A5_6*%
X221075000Y-174537500D03*
%TO.P,U5,7,A6_7*%
X220425000Y-174537500D03*
%TO.P,U5,8,A7_8*%
X219775000Y-174537500D03*
%TO.P,U5,9,A8_9*%
X219125000Y-174537500D03*
%TO.P,U5,10,OE_10*%
X218475000Y-174537500D03*
%TO.P,U5,11,GND_11*%
X218475000Y-180262500D03*
%TO.P,U5,12,B8_12*%
X219125000Y-180262500D03*
%TO.P,U5,13,B7_13*%
X219775000Y-180262500D03*
%TO.P,U5,14,B6_14*%
X220425000Y-180262500D03*
%TO.P,U5,15,B5_15*%
X221075000Y-180262500D03*
%TO.P,U5,16,B4_16*%
X221725000Y-180262500D03*
%TO.P,U5,17,B3_17*%
X222375000Y-180262500D03*
%TO.P,U5,18,B2_18*%
X223025000Y-180262500D03*
%TO.P,U5,19,VCCB_19*%
X223675000Y-180262500D03*
%TO.P,U5,20,B1_20*%
X224325000Y-180262500D03*
%TD*%
D10*
%TO.C,J16*%
%TO.CFtp,PinHeader_1x22_P2.54mm_Vertical*%
%TO.CVal,Conn_01x22_Pin*%
%TO.CLbN,Connector_PinHeader_2.54mm*%
%TO.CMnt,TH*%
%TO.CRot,90*%
X188090000Y-151340000D03*
D11*
X243205000Y-149575000D02*
X243205000Y-153105000D01*
X186315000Y-153105000D01*
X186315000Y-149575000D01*
X243205000Y-149575000D01*
D12*
%TO.P,J16,1,Pin_1_1*%
X188090000Y-151340000D03*
D13*
%TO.P,J16,2,Pin_2_2*%
X190630000Y-151340000D03*
%TO.P,J16,3,Pin_3_3*%
X193170000Y-151340000D03*
%TO.P,J16,4,Pin_4_4*%
X195710000Y-151340000D03*
%TO.P,J16,5,Pin_5_5*%
X198250000Y-151340000D03*
%TO.P,J16,6,Pin_6_6*%
X200790000Y-151340000D03*
%TO.P,J16,7,Pin_7_7*%
X203330000Y-151340000D03*
%TO.P,J16,8,Pin_8_8*%
X205870000Y-151340000D03*
%TO.P,J16,9,Pin_9_9*%
X208410000Y-151340000D03*
%TO.P,J16,10,Pin_10_10*%
X210950000Y-151340000D03*
%TO.P,J16,11,Pin_11_11*%
X213490000Y-151340000D03*
%TO.P,J16,12,Pin_12_12*%
X216030000Y-151340000D03*
%TO.P,J16,13,Pin_13_13*%
X218570000Y-151340000D03*
%TO.P,J16,14,Pin_14_14*%
X221110000Y-151340000D03*
%TO.P,J16,15,Pin_15_15*%
X223650000Y-151340000D03*
%TO.P,J16,16,Pin_16_16*%
X226190000Y-151340000D03*
%TO.P,J16,17,Pin_17_17*%
X228730000Y-151340000D03*
%TO.P,J16,18,Pin_18_18*%
X231270000Y-151340000D03*
%TO.P,J16,19,Pin_19_19*%
X233810000Y-151340000D03*
%TO.P,J16,20,Pin_20_20*%
X236350000Y-151340000D03*
%TO.P,J16,21,Pin_21_21*%
X238890000Y-151340000D03*
%TO.P,J16,22,Pin_22_22*%
X241430000Y-151340000D03*
%TD*%
D10*
%TO.C,J5*%
%TO.CFtp,PinHeader_1x05_P2.54mm_Vertical*%
%TO.CVal,Conn_01x05_Pin*%
%TO.CLbN,Connector_PinHeader_2.54mm*%
%TO.CMnt,TH*%
%TO.CRot,90*%
X232720000Y-216100000D03*
D11*
X244645000Y-214335000D02*
X244645000Y-217865000D01*
X230955000Y-217865000D01*
X230955000Y-214335000D01*
X244645000Y-214335000D01*
D12*
%TO.P,J5,1,Pin_1_1*%
X232720000Y-216100000D03*
D13*
%TO.P,J5,2,Pin_2_2*%
X235260000Y-216100000D03*
%TO.P,J5,3,Pin_3_3*%
X237800000Y-216100000D03*
%TO.P,J5,4,Pin_4_4*%
X240340000Y-216100000D03*
%TO.P,J5,5,Pin_5_5*%
X242880000Y-216100000D03*
%TD*%
D10*
%TO.C,D32*%
%TO.CFtp,LED_WS2812B_PLCC4_5.0x5.0mm_P3.2mm*%
%TO.CVal,WS2812B*%
%TO.CLbN,LED_SMD*%
%TO.CMnt,SMD*%
%TO.CRot,0*%
X-58900000Y-200100000D03*
D11*
X-55455000Y-197355000D02*
X-55455000Y-202845000D01*
X-62345000Y-202845000D01*
X-62345000Y-197355000D01*
X-55455000Y-197355000D01*
D12*
%TO.P,D32,1,VDD_1*%
X-61350000Y-198450000D03*
D13*
%TO.P,D32,2,DOUT_2*%
X-61350000Y-201750000D03*
%TO.P,D32,3,VSS_3*%
X-56450000Y-201750000D03*
%TO.P,D32,4,DIN_4*%
X-56450000Y-198450000D03*
%TD*%
D10*
%TO.C,D18*%
%TO.CFtp,LED_WS2812B_PLCC4_5.0x5.0mm_P3.2mm*%
%TO.CVal,WS2812B*%
%TO.CLbN,LED_SMD*%
%TO.CMnt,SMD*%
%TO.CRot,0*%
X-83682976Y-50100000D03*
D11*
X-80237976Y-47355000D02*
X-80237976Y-52845000D01*
X-87127976Y-52845000D01*
X-87127976Y-47355000D01*
X-80237976Y-47355000D01*
D12*
%TO.P,D18,1,VDD_1*%
X-86132976Y-48450000D03*
D13*
%TO.P,D18,2,DOUT_2*%
X-86132976Y-51750000D03*
%TO.P,D18,3,VSS_3*%
X-81232976Y-51750000D03*
%TO.P,D18,4,DIN_4*%
X-81232976Y-48450000D03*
%TD*%
D10*
%TO.C,D27*%
%TO.CFtp,LED_WS2812B_PLCC4_5.0x5.0mm_P3.2mm*%
%TO.CVal,WS2812B*%
%TO.CLbN,LED_SMD*%
%TO.CMnt,SMD*%
%TO.CRot,0*%
X-58900000Y-75100000D03*
D11*
X-55455000Y-72355000D02*
X-55455000Y-77845000D01*
X-62345000Y-77845000D01*
X-62345000Y-72355000D01*
X-55455000Y-72355000D01*
D12*
%TO.P,D27,1,VDD_1*%
X-61350000Y-73450000D03*
D13*
%TO.P,D27,2,DOUT_2*%
X-61350000Y-76750000D03*
%TO.P,D27,3,VSS_3*%
X-56450000Y-76750000D03*
%TO.P,D27,4,DIN_4*%
X-56450000Y-73450000D03*
%TD*%
D10*
%TO.C,J15*%
%TO.CFtp,PinHeader_1x22_P2.54mm_Vertical*%
%TO.CVal,Conn_01x22_Pin*%
%TO.CLbN,Connector_PinHeader_2.54mm*%
%TO.CMnt,TH*%
%TO.CRot,90*%
X188090000Y-155930000D03*
D11*
X243205000Y-154165000D02*
X243205000Y-157695000D01*
X186315000Y-157695000D01*
X186315000Y-154165000D01*
X243205000Y-154165000D01*
D12*
%TO.P,J15,1,Pin_1_1*%
X188090000Y-155930000D03*
D13*
%TO.P,J15,2,Pin_2_2*%
X190630000Y-155930000D03*
%TO.P,J15,3,Pin_3_3*%
X193170000Y-155930000D03*
%TO.P,J15,4,Pin_4_4*%
X195710000Y-155930000D03*
%TO.P,J15,5,Pin_5_5*%
X198250000Y-155930000D03*
%TO.P,J15,6,Pin_6_6*%
X200790000Y-155930000D03*
%TO.P,J15,7,Pin_7_7*%
X203330000Y-155930000D03*
%TO.P,J15,8,Pin_8_8*%
X205870000Y-155930000D03*
%TO.P,J15,9,Pin_9_9*%
X208410000Y-155930000D03*
%TO.P,J15,10,Pin_10_10*%
X210950000Y-155930000D03*
%TO.P,J15,11,Pin_11_11*%
X213490000Y-155930000D03*
%TO.P,J15,12,Pin_12_12*%
X216030000Y-155930000D03*
%TO.P,J15,13,Pin_13_13*%
X218570000Y-155930000D03*
%TO.P,J15,14,Pin_14_14*%
X221110000Y-155930000D03*
%TO.P,J15,15,Pin_15_15*%
X223650000Y-155930000D03*
%TO.P,J15,16,Pin_16_16*%
X226190000Y-155930000D03*
%TO.P,J15,17,Pin_17_17*%
X228730000Y-155930000D03*
%TO.P,J15,18,Pin_18_18*%
X231270000Y-155930000D03*
%TO.P,J15,19,Pin_19_19*%
X233810000Y-155930000D03*
%TO.P,J15,20,Pin_20_20*%
X236350000Y-155930000D03*
%TO.P,J15,21,Pin_21_21*%
X238890000Y-155930000D03*
%TO.P,J15,22,Pin_22_22*%
X241430000Y-155930000D03*
%TD*%
D10*
%TO.C,D24*%
%TO.CFtp,LED_WS2812B_PLCC4_5.0x5.0mm_P3.2mm*%
%TO.CVal,WS2812B*%
%TO.CLbN,LED_SMD*%
%TO.CMnt,SMD*%
%TO.CRot,0*%
X-83682976Y-200100000D03*
D11*
X-80237976Y-197355000D02*
X-80237976Y-202845000D01*
X-87127976Y-202845000D01*
X-87127976Y-197355000D01*
X-80237976Y-197355000D01*
D12*
%TO.P,D24,1,VDD_1*%
X-86132976Y-198450000D03*
D13*
%TO.P,D24,2,DOUT_2*%
X-86132976Y-201750000D03*
%TO.P,D24,3,VSS_3*%
X-81232976Y-201750000D03*
%TO.P,D24,4,DIN_4*%
X-81232976Y-198450000D03*
%TD*%
D10*
%TO.C,J10*%
%TO.CFtp,USB_C_Receptacle_GCT_USB4125-xx-x_6P_TopMnt_Horizontal*%
%TO.CVal,USB_C_Receptacle_PowerOnly_6P*%
%TO.CLbN,Connector_USB*%
%TO.CMnt,SMD*%
%TO.CRot,90*%
X255725000Y-182200000D03*
D11*
X259620000Y-176835000D02*
X259620000Y-187565000D01*
X251380000Y-187565000D01*
X251380000Y-176835000D01*
X259620000Y-176835000D01*
D13*
%TO.P,J10,A5,CC1_A5*%
X252645000Y-182700000D03*
%TO.P,J10,A9,VBUS_A9*%
X252645000Y-180680000D03*
%TO.P,J10,A12,GND_A12*%
X252645000Y-179450000D03*
%TO.P,J10,B5,CC2_B5*%
X252645000Y-181700000D03*
%TO.P,J10,B9,VBUS_B9*%
X252645000Y-183720000D03*
%TO.P,J10,B12,GND_B12*%
X252645000Y-184950000D03*
%TO.P,J10,SH,SHIELD_SH*%
X252725000Y-186520000D03*
X256525000Y-186520000D03*
X252725000Y-177880000D03*
X256525000Y-177880000D03*
%TD*%
D10*
%TO.C,D11*%
%TO.CFtp,LED_WS2812B_PLCC4_5.0x5.0mm_P3.2mm*%
%TO.CVal,WS2812B*%
%TO.CLbN,LED_SMD*%
%TO.CMnt,SMD*%
%TO.CRot,0*%
X-108900000Y-75100000D03*
D11*
X-105455000Y-72355000D02*
X-105455000Y-77845000D01*
X-112345000Y-77845000D01*
X-112345000Y-72355000D01*
X-105455000Y-72355000D01*
D12*
%TO.P,D11,1,VDD_1*%
X-111350000Y-73450000D03*
D13*
%TO.P,D11,2,DOUT_2*%
X-111350000Y-76750000D03*
%TO.P,D11,3,VSS_3*%
X-106450000Y-76750000D03*
%TO.P,D11,4,DIN_4*%
X-106450000Y-73450000D03*
%TD*%
D10*
%TO.C,D40*%
%TO.CFtp,LED_WS2812B_PLCC4_5.0x5.0mm_P3.2mm*%
%TO.CVal,WS2812B*%
%TO.CLbN,LED_SMD*%
%TO.CMnt,SMD*%
%TO.CRot,0*%
X-33732976Y-200300000D03*
D11*
X-30287976Y-197555000D02*
X-30287976Y-203045000D01*
X-37177976Y-203045000D01*
X-37177976Y-197555000D01*
X-30287976Y-197555000D01*
D12*
%TO.P,D40,1,VDD_1*%
X-36182976Y-198650000D03*
D13*
%TO.P,D40,2,DOUT_2*%
X-36182976Y-201950000D03*
%TO.P,D40,3,VSS_3*%
X-31282976Y-201950000D03*
%TO.P,D40,4,DIN_4*%
X-31282976Y-198650000D03*
%TD*%
D10*
%TO.C,D19*%
%TO.CFtp,LED_WS2812B_PLCC4_5.0x5.0mm_P3.2mm*%
%TO.CVal,WS2812B*%
%TO.CLbN,LED_SMD*%
%TO.CMnt,SMD*%
%TO.CRot,0*%
X-83682976Y-75100000D03*
D11*
X-80237976Y-72355000D02*
X-80237976Y-77845000D01*
X-87127976Y-77845000D01*
X-87127976Y-72355000D01*
X-80237976Y-72355000D01*
D12*
%TO.P,D19,1,VDD_1*%
X-86132976Y-73450000D03*
D13*
%TO.P,D19,2,DOUT_2*%
X-86132976Y-76750000D03*
%TO.P,D19,3,VSS_3*%
X-81232976Y-76750000D03*
%TO.P,D19,4,DIN_4*%
X-81232976Y-73450000D03*
%TD*%
D10*
%TO.C,J9*%
%TO.CFtp,PinHeader_1x01_P2.54mm_Vertical*%
%TO.CVal,5V*%
%TO.CLbN,Connector_PinHeader_2.54mm*%
%TO.CMnt,TH*%
%TO.CRot,0*%
X255359566Y-23829446D03*
D11*
X257124566Y-22064446D02*
X257124566Y-25594446D01*
X253594566Y-25594446D01*
X253594566Y-22064446D01*
X257124566Y-22064446D01*
D12*
%TO.P,J9,1,Pin_1_1*%
X255359566Y-23829446D03*
%TD*%
D10*
%TO.C,D43*%
%TO.CFtp,LED_WS2812B_PLCC4_5.0x5.0mm_P3.2mm*%
%TO.CVal,WS2812B*%
%TO.CLbN,LED_SMD*%
%TO.CMnt,SMD*%
%TO.CRot,0*%
X-8900000Y-75100000D03*
D11*
X-5455000Y-72355000D02*
X-5455000Y-77845000D01*
X-12345000Y-77845000D01*
X-12345000Y-72355000D01*
X-5455000Y-72355000D01*
D12*
%TO.P,D43,1,VDD_1*%
X-11350000Y-73450000D03*
D13*
%TO.P,D43,2,DOUT_2*%
X-11350000Y-76750000D03*
%TO.P,D43,3,VSS_3*%
X-6450000Y-76750000D03*
%TO.P,D43,4,DIN_4*%
X-6450000Y-73450000D03*
%TD*%
D10*
%TO.C,D44*%
%TO.CFtp,LED_WS2812B_PLCC4_5.0x5.0mm_P3.2mm*%
%TO.CVal,WS2812B*%
%TO.CLbN,LED_SMD*%
%TO.CMnt,SMD*%
%TO.CRot,0*%
X-8900000Y-100100000D03*
D11*
X-5455000Y-97355000D02*
X-5455000Y-102845000D01*
X-12345000Y-102845000D01*
X-12345000Y-97355000D01*
X-5455000Y-97355000D01*
D12*
%TO.P,D44,1,VDD_1*%
X-11350000Y-98450000D03*
D13*
%TO.P,D44,2,DOUT_2*%
X-11350000Y-101750000D03*
%TO.P,D44,3,VSS_3*%
X-6450000Y-101750000D03*
%TO.P,D44,4,DIN_4*%
X-6450000Y-98450000D03*
%TD*%
D10*
%TO.C,D48*%
%TO.CFtp,LED_WS2812B_PLCC4_5.0x5.0mm_P3.2mm*%
%TO.CVal,WS2812B*%
%TO.CLbN,LED_SMD*%
%TO.CMnt,SMD*%
%TO.CRot,0*%
X-8900000Y-200100000D03*
D11*
X-5455000Y-197355000D02*
X-5455000Y-202845000D01*
X-12345000Y-202845000D01*
X-12345000Y-197355000D01*
X-5455000Y-197355000D01*
D12*
%TO.P,D48,1,VDD_1*%
X-11350000Y-198450000D03*
D13*
%TO.P,D48,2,DOUT_2*%
X-11350000Y-201750000D03*
%TO.P,D48,3,VSS_3*%
X-6450000Y-201750000D03*
%TO.P,D48,4,DIN_4*%
X-6450000Y-198450000D03*
%TD*%
D10*
%TO.C,D47*%
%TO.CFtp,LED_WS2812B_PLCC4_5.0x5.0mm_P3.2mm*%
%TO.CVal,WS2812B*%
%TO.CLbN,LED_SMD*%
%TO.CMnt,SMD*%
%TO.CRot,0*%
X-8900000Y-175100000D03*
D11*
X-5455000Y-172355000D02*
X-5455000Y-177845000D01*
X-12345000Y-177845000D01*
X-12345000Y-172355000D01*
X-5455000Y-172355000D01*
D12*
%TO.P,D47,1,VDD_1*%
X-11350000Y-173450000D03*
D13*
%TO.P,D47,2,DOUT_2*%
X-11350000Y-176750000D03*
%TO.P,D47,3,VSS_3*%
X-6450000Y-176750000D03*
%TO.P,D47,4,DIN_4*%
X-6450000Y-173450000D03*
%TD*%
D10*
%TO.C,D54*%
%TO.CFtp,LED_WS2812B_PLCC4_5.0x5.0mm_P3.2mm*%
%TO.CVal,WS2812B*%
%TO.CLbN,LED_SMD*%
%TO.CMnt,SMD*%
%TO.CRot,0*%
X16100000Y-150100000D03*
D11*
X19545000Y-147355000D02*
X19545000Y-152845000D01*
X12655000Y-152845000D01*
X12655000Y-147355000D01*
X19545000Y-147355000D01*
D12*
%TO.P,D54,1,VDD_1*%
X13650000Y-148450000D03*
D13*
%TO.P,D54,2,DOUT_2*%
X13650000Y-151750000D03*
%TO.P,D54,3,VSS_3*%
X18550000Y-151750000D03*
%TO.P,D54,4,DIN_4*%
X18550000Y-148450000D03*
%TD*%
D10*
%TO.C,D21*%
%TO.CFtp,LED_WS2812B_PLCC4_5.0x5.0mm_P3.2mm*%
%TO.CVal,WS2812B*%
%TO.CLbN,LED_SMD*%
%TO.CMnt,SMD*%
%TO.CRot,0*%
X-83682976Y-125100000D03*
D11*
X-80237976Y-122355000D02*
X-80237976Y-127845000D01*
X-87127976Y-127845000D01*
X-87127976Y-122355000D01*
X-80237976Y-122355000D01*
D12*
%TO.P,D21,1,VDD_1*%
X-86132976Y-123450000D03*
D13*
%TO.P,D21,2,DOUT_2*%
X-86132976Y-126750000D03*
%TO.P,D21,3,VSS_3*%
X-81232976Y-126750000D03*
%TO.P,D21,4,DIN_4*%
X-81232976Y-123450000D03*
%TD*%
D10*
%TO.C,J1*%
%TO.CFtp,PinHeader_1x01_P2.54mm_Vertical*%
%TO.CVal,DIN*%
%TO.CLbN,Connector_PinHeader_2.54mm*%
%TO.CMnt,TH*%
%TO.CRot,0*%
X-46882976Y-204550000D03*
D11*
X-45117976Y-202785000D02*
X-45117976Y-206315000D01*
X-48647976Y-206315000D01*
X-48647976Y-202785000D01*
X-45117976Y-202785000D01*
D12*
%TO.P,J1,1,Pin_1_1*%
X-46882976Y-204550000D03*
%TD*%
D10*
%TO.C,J8*%
%TO.CFtp,PinHeader_1x01_P2.54mm_Vertical*%
%TO.CVal,GND*%
%TO.CLbN,Connector_PinHeader_2.54mm*%
%TO.CMnt,TH*%
%TO.CRot,0*%
X70459566Y-199129446D03*
D11*
X72224566Y-197364446D02*
X72224566Y-200894446D01*
X68694566Y-200894446D01*
X68694566Y-197364446D01*
X72224566Y-197364446D01*
D12*
%TO.P,J8,1,Pin_1_1*%
X70459566Y-199129446D03*
%TD*%
D10*
%TO.C,D9*%
%TO.CFtp,LED_WS2812B_PLCC4_5.0x5.0mm_P3.2mm*%
%TO.CVal,WS2812B*%
%TO.CLbN,LED_SMD*%
%TO.CMnt,SMD*%
%TO.CRot,0*%
X-108900000Y-25100000D03*
D11*
X-105455000Y-22355000D02*
X-105455000Y-27845000D01*
X-112345000Y-27845000D01*
X-112345000Y-22355000D01*
X-105455000Y-22355000D01*
D12*
%TO.P,D9,1,VDD_1*%
X-111350000Y-23450000D03*
D13*
%TO.P,D9,2,DOUT_2*%
X-111350000Y-26750000D03*
%TO.P,D9,3,VSS_3*%
X-106450000Y-26750000D03*
%TO.P,D9,4,DIN_4*%
X-106450000Y-23450000D03*
%TD*%
D10*
%TO.C,D50*%
%TO.CFtp,LED_WS2812B_PLCC4_5.0x5.0mm_P3.2mm*%
%TO.CVal,WS2812B*%
%TO.CLbN,LED_SMD*%
%TO.CMnt,SMD*%
%TO.CRot,0*%
X16100000Y-50100000D03*
D11*
X19545000Y-47355000D02*
X19545000Y-52845000D01*
X12655000Y-52845000D01*
X12655000Y-47355000D01*
X19545000Y-47355000D01*
D12*
%TO.P,D50,1,VDD_1*%
X13650000Y-48450000D03*
D13*
%TO.P,D50,2,DOUT_2*%
X13650000Y-51750000D03*
%TO.P,D50,3,VSS_3*%
X18550000Y-51750000D03*
%TO.P,D50,4,DIN_4*%
X18550000Y-48450000D03*
%TD*%
D10*
%TO.C,D35*%
%TO.CFtp,LED_WS2812B_PLCC4_5.0x5.0mm_P3.2mm*%
%TO.CVal,WS2812B*%
%TO.CLbN,LED_SMD*%
%TO.CMnt,SMD*%
%TO.CRot,0*%
X-33732976Y-75300000D03*
D11*
X-30287976Y-72555000D02*
X-30287976Y-78045000D01*
X-37177976Y-78045000D01*
X-37177976Y-72555000D01*
X-30287976Y-72555000D01*
D12*
%TO.P,D35,1,VDD_1*%
X-36182976Y-73650000D03*
D13*
%TO.P,D35,2,DOUT_2*%
X-36182976Y-76950000D03*
%TO.P,D35,3,VSS_3*%
X-31282976Y-76950000D03*
%TO.P,D35,4,DIN_4*%
X-31282976Y-73650000D03*
%TD*%
D10*
%TO.C,D42*%
%TO.CFtp,LED_WS2812B_PLCC4_5.0x5.0mm_P3.2mm*%
%TO.CVal,WS2812B*%
%TO.CLbN,LED_SMD*%
%TO.CMnt,SMD*%
%TO.CRot,0*%
X-8900000Y-50100000D03*
D11*
X-5455000Y-47355000D02*
X-5455000Y-52845000D01*
X-12345000Y-52845000D01*
X-12345000Y-47355000D01*
X-5455000Y-47355000D01*
D12*
%TO.P,D42,1,VDD_1*%
X-11350000Y-48450000D03*
D13*
%TO.P,D42,2,DOUT_2*%
X-11350000Y-51750000D03*
%TO.P,D42,3,VSS_3*%
X-6450000Y-51750000D03*
%TO.P,D42,4,DIN_4*%
X-6450000Y-48450000D03*
%TD*%
D10*
%TO.C,D60*%
%TO.CFtp,LED_WS2812B_PLCC4_5.0x5.0mm_P3.2mm*%
%TO.CVal,WS2812B*%
%TO.CLbN,LED_SMD*%
%TO.CMnt,SMD*%
%TO.CRot,0*%
X41100000Y-100100000D03*
D11*
X44545000Y-97355000D02*
X44545000Y-102845000D01*
X37655000Y-102845000D01*
X37655000Y-97355000D01*
X44545000Y-97355000D01*
D12*
%TO.P,D60,1,VDD_1*%
X38650000Y-98450000D03*
D13*
%TO.P,D60,2,DOUT_2*%
X38650000Y-101750000D03*
%TO.P,D60,3,VSS_3*%
X43550000Y-101750000D03*
%TO.P,D60,4,DIN_4*%
X43550000Y-98450000D03*
%TD*%
D10*
%TO.C,D3*%
%TO.CFtp,LED_WS2812B_PLCC4_5.0x5.0mm_P3.2mm*%
%TO.CVal,WS2812B*%
%TO.CLbN,LED_SMD*%
%TO.CMnt,SMD*%
%TO.CRot,0*%
X-133582976Y-75150000D03*
D11*
X-130137976Y-72405000D02*
X-130137976Y-77895000D01*
X-137027976Y-77895000D01*
X-137027976Y-72405000D01*
X-130137976Y-72405000D01*
D12*
%TO.P,D3,1,VDD_1*%
X-136032976Y-73500000D03*
D13*
%TO.P,D3,2,DOUT_2*%
X-136032976Y-76800000D03*
%TO.P,D3,3,VSS_3*%
X-131132976Y-76800000D03*
%TO.P,D3,4,DIN_4*%
X-131132976Y-73500000D03*
%TD*%
D10*
%TO.C,J3*%
%TO.CFtp,PinHeader_1x01_P2.54mm_Vertical*%
%TO.CVal,GND*%
%TO.CLbN,Connector_PinHeader_2.54mm*%
%TO.CMnt,TH*%
%TO.CRot,0*%
X-138682976Y-25250000D03*
D11*
X-136917976Y-23485000D02*
X-136917976Y-27015000D01*
X-140447976Y-27015000D01*
X-140447976Y-23485000D01*
X-136917976Y-23485000D01*
D12*
%TO.P,J3,1,Pin_1_1*%
X-138682976Y-25250000D03*
%TD*%
D10*
%TO.C,J2*%
%TO.CFtp,PinHeader_1x01_P2.54mm_Vertical*%
%TO.CVal,5V*%
%TO.CLbN,Connector_PinHeader_2.54mm*%
%TO.CMnt,TH*%
%TO.CRot,0*%
X46317024Y-25050000D03*
D11*
X48082024Y-23285000D02*
X48082024Y-26815000D01*
X44552024Y-26815000D01*
X44552024Y-23285000D01*
X48082024Y-23285000D01*
D12*
%TO.P,J2,1,Pin_1_1*%
X46317024Y-25050000D03*
%TD*%
D10*
%TO.C,J7*%
%TO.CFtp,PinHeader_1x01_P2.54mm_Vertical*%
%TO.CVal,DIN*%
%TO.CLbN,Connector_PinHeader_2.54mm*%
%TO.CMnt,TH*%
%TO.CRot,0*%
X162159566Y-203329446D03*
D11*
X163924566Y-201564446D02*
X163924566Y-205094446D01*
X160394566Y-205094446D01*
X160394566Y-201564446D01*
X163924566Y-201564446D01*
D12*
%TO.P,J7,1,Pin_1_1*%
X162159566Y-203329446D03*
%TD*%
D10*
%TO.C,U2*%
%TO.CFtp,ER_OLEDM0.91_1x-I2C*%
%TO.CVal,ER_OLEDM0.91_1x-I2C*%
%TO.CLbN,Display*%
%TO.CMnt,TH*%
%TO.CRot,90*%
X141400000Y-217700000D03*
D11*
X178145000Y-207645000D02*
X178145000Y-220135000D01*
X139655000Y-220135000D01*
X139655000Y-207645000D01*
X178145000Y-207645000D01*
D12*
%TO.P,U2,1,GND_1*%
X141400000Y-217700000D03*
D13*
%TO.P,U2,2,VCC_2*%
X141400000Y-215160000D03*
%TO.P,U2,3,SCL_3*%
X141400000Y-212620000D03*
%TO.P,U2,4,SDA_4*%
X141400000Y-210080000D03*
%TD*%
D10*
%TO.C,D45*%
%TO.CFtp,LED_WS2812B_PLCC4_5.0x5.0mm_P3.2mm*%
%TO.CVal,WS2812B*%
%TO.CLbN,LED_SMD*%
%TO.CMnt,SMD*%
%TO.CRot,0*%
X-8900000Y-125100000D03*
D11*
X-5455000Y-122355000D02*
X-5455000Y-127845000D01*
X-12345000Y-127845000D01*
X-12345000Y-122355000D01*
X-5455000Y-122355000D01*
D12*
%TO.P,D45,1,VDD_1*%
X-11350000Y-123450000D03*
D13*
%TO.P,D45,2,DOUT_2*%
X-11350000Y-126750000D03*
%TO.P,D45,3,VSS_3*%
X-6450000Y-126750000D03*
%TO.P,D45,4,DIN_4*%
X-6450000Y-123450000D03*
%TD*%
D10*
%TO.C,D30*%
%TO.CFtp,LED_WS2812B_PLCC4_5.0x5.0mm_P3.2mm*%
%TO.CVal,WS2812B*%
%TO.CLbN,LED_SMD*%
%TO.CMnt,SMD*%
%TO.CRot,0*%
X-58900000Y-150100000D03*
D11*
X-55455000Y-147355000D02*
X-55455000Y-152845000D01*
X-62345000Y-152845000D01*
X-62345000Y-147355000D01*
X-55455000Y-147355000D01*
D12*
%TO.P,D30,1,VDD_1*%
X-61350000Y-148450000D03*
D13*
%TO.P,D30,2,DOUT_2*%
X-61350000Y-151750000D03*
%TO.P,D30,3,VSS_3*%
X-56450000Y-151750000D03*
%TO.P,D30,4,DIN_4*%
X-56450000Y-148450000D03*
%TD*%
D10*
%TO.C,D23*%
%TO.CFtp,LED_WS2812B_PLCC4_5.0x5.0mm_P3.2mm*%
%TO.CVal,WS2812B*%
%TO.CLbN,LED_SMD*%
%TO.CMnt,SMD*%
%TO.CRot,0*%
X-83682976Y-175100000D03*
D11*
X-80237976Y-172355000D02*
X-80237976Y-177845000D01*
X-87127976Y-177845000D01*
X-87127976Y-172355000D01*
X-80237976Y-172355000D01*
D12*
%TO.P,D23,1,VDD_1*%
X-86132976Y-173450000D03*
D13*
%TO.P,D23,2,DOUT_2*%
X-86132976Y-176750000D03*
%TO.P,D23,3,VSS_3*%
X-81232976Y-176750000D03*
%TO.P,D23,4,DIN_4*%
X-81232976Y-173450000D03*
%TD*%
D10*
%TO.C,D12*%
%TO.CFtp,LED_WS2812B_PLCC4_5.0x5.0mm_P3.2mm*%
%TO.CVal,WS2812B*%
%TO.CLbN,LED_SMD*%
%TO.CMnt,SMD*%
%TO.CRot,0*%
X-108900000Y-100100000D03*
D11*
X-105455000Y-97355000D02*
X-105455000Y-102845000D01*
X-112345000Y-102845000D01*
X-112345000Y-97355000D01*
X-105455000Y-97355000D01*
D12*
%TO.P,D12,1,VDD_1*%
X-111350000Y-98450000D03*
D13*
%TO.P,D12,2,DOUT_2*%
X-111350000Y-101750000D03*
%TO.P,D12,3,VSS_3*%
X-106450000Y-101750000D03*
%TO.P,D12,4,DIN_4*%
X-106450000Y-98450000D03*
%TD*%
D10*
%TO.C,J12*%
%TO.CFtp,PinHeader_1x08_P2.54mm_Vertical*%
%TO.CVal,Conn_01x08_Pin*%
%TO.CLbN,Connector_PinHeader_2.54mm*%
%TO.CMnt,TH*%
%TO.CRot,90*%
X184980000Y-216100000D03*
D11*
X204525000Y-214335000D02*
X204525000Y-217865000D01*
X183215000Y-217865000D01*
X183215000Y-214335000D01*
X204525000Y-214335000D01*
D12*
%TO.P,J12,1,Pin_1_1*%
X184980000Y-216100000D03*
D13*
%TO.P,J12,2,Pin_2_2*%
X187520000Y-216100000D03*
%TO.P,J12,3,Pin_3_3*%
X190060000Y-216100000D03*
%TO.P,J12,4,Pin_4_4*%
X192600000Y-216100000D03*
%TO.P,J12,5,Pin_5_5*%
X195140000Y-216100000D03*
%TO.P,J12,6,Pin_6_6*%
X197680000Y-216100000D03*
%TO.P,J12,7,Pin_7_7*%
X200220000Y-216100000D03*
%TO.P,J12,8,Pin_8_8*%
X202760000Y-216100000D03*
%TD*%
D10*
%TO.C,D16*%
%TO.CFtp,LED_WS2812B_PLCC4_5.0x5.0mm_P3.2mm*%
%TO.CVal,WS2812B*%
%TO.CLbN,LED_SMD*%
%TO.CMnt,SMD*%
%TO.CRot,0*%
X-108900000Y-200100000D03*
D11*
X-105455000Y-197355000D02*
X-105455000Y-202845000D01*
X-112345000Y-202845000D01*
X-112345000Y-197355000D01*
X-105455000Y-197355000D01*
D12*
%TO.P,D16,1,VDD_1*%
X-111350000Y-198450000D03*
D13*
%TO.P,D16,2,DOUT_2*%
X-111350000Y-201750000D03*
%TO.P,D16,3,VSS_3*%
X-106450000Y-201750000D03*
%TO.P,D16,4,DIN_4*%
X-106450000Y-198450000D03*
%TD*%
D10*
%TO.C,D25*%
%TO.CFtp,LED_WS2812B_PLCC4_5.0x5.0mm_P3.2mm*%
%TO.CVal,WS2812B*%
%TO.CLbN,LED_SMD*%
%TO.CMnt,SMD*%
%TO.CRot,0*%
X-58900000Y-25100000D03*
D11*
X-55455000Y-22355000D02*
X-55455000Y-27845000D01*
X-62345000Y-27845000D01*
X-62345000Y-22355000D01*
X-55455000Y-22355000D01*
D12*
%TO.P,D25,1,VDD_1*%
X-61350000Y-23450000D03*
D13*
%TO.P,D25,2,DOUT_2*%
X-61350000Y-26750000D03*
%TO.P,D25,3,VSS_3*%
X-56450000Y-26750000D03*
%TO.P,D25,4,DIN_4*%
X-56450000Y-23450000D03*
%TD*%
D10*
%TO.C,D33*%
%TO.CFtp,LED_WS2812B_PLCC4_5.0x5.0mm_P3.2mm*%
%TO.CVal,WS2812B*%
%TO.CLbN,LED_SMD*%
%TO.CMnt,SMD*%
%TO.CRot,0*%
X-33732976Y-25300000D03*
D11*
X-30287976Y-22555000D02*
X-30287976Y-28045000D01*
X-37177976Y-28045000D01*
X-37177976Y-22555000D01*
X-30287976Y-22555000D01*
D12*
%TO.P,D33,1,VDD_1*%
X-36182976Y-23650000D03*
D13*
%TO.P,D33,2,DOUT_2*%
X-36182976Y-26950000D03*
%TO.P,D33,3,VSS_3*%
X-31282976Y-26950000D03*
%TO.P,D33,4,DIN_4*%
X-31282976Y-23650000D03*
%TD*%
D10*
%TO.C,U7*%
%TO.CFtp,TSSOP-20_4.4x6.5mm_P0.65mm*%
%TO.CVal,TXS0108EPW*%
%TO.CLbN,Package_SO*%
%TO.CMnt,SMD*%
%TO.CRot,-90*%
X207400000Y-177400000D03*
D11*
X210775000Y-173555000D02*
X210775000Y-174955000D01*
X210895000Y-174955000D01*
X210895000Y-179845000D01*
X210775000Y-179845000D01*
X210775000Y-181245000D01*
X204025000Y-181245000D01*
X204025000Y-179845000D01*
X203905000Y-179845000D01*
X203905000Y-174955000D01*
X204025000Y-174955000D01*
X204025000Y-173555000D01*
X210775000Y-173555000D01*
D12*
%TO.P,U7,1,A1_1*%
X210325000Y-174537500D03*
D13*
%TO.P,U7,2,VCCA_2*%
X209675000Y-174537500D03*
%TO.P,U7,3,A2_3*%
X209025000Y-174537500D03*
%TO.P,U7,4,A3_4*%
X208375000Y-174537500D03*
%TO.P,U7,5,A4_5*%
X207725000Y-174537500D03*
%TO.P,U7,6,A5_6*%
X207075000Y-174537500D03*
%TO.P,U7,7,A6_7*%
X206425000Y-174537500D03*
%TO.P,U7,8,A7_8*%
X205775000Y-174537500D03*
%TO.P,U7,9,A8_9*%
X205125000Y-174537500D03*
%TO.P,U7,10,OE_10*%
X204475000Y-174537500D03*
%TO.P,U7,11,GND_11*%
X204475000Y-180262500D03*
%TO.P,U7,12,B8_12*%
X205125000Y-180262500D03*
%TO.P,U7,13,B7_13*%
X205775000Y-180262500D03*
%TO.P,U7,14,B6_14*%
X206425000Y-180262500D03*
%TO.P,U7,15,B5_15*%
X207075000Y-180262500D03*
%TO.P,U7,16,B4_16*%
X207725000Y-180262500D03*
%TO.P,U7,17,B3_17*%
X208375000Y-180262500D03*
%TO.P,U7,18,B2_18*%
X209025000Y-180262500D03*
%TO.P,U7,19,VCCB_19*%
X209675000Y-180262500D03*
%TO.P,U7,20,B1_20*%
X210325000Y-180262500D03*
%TD*%
D10*
%TO.C,R1*%
%TO.CFtp,R_Axial_DIN0207_L6.3mm_D2.5mm_P7.62mm_Horizontal*%
%TO.CVal,5.1k 1\u0025*%
%TO.CLbN,Resistor_THT*%
%TO.CMnt,TH*%
%TO.CRot,0*%
X241025000Y-180500000D03*
D11*
X249690000Y-179005000D02*
X249690000Y-181995000D01*
X239980000Y-181995000D01*
X239980000Y-179005000D01*
X249690000Y-179005000D01*
D12*
%TO.P,R1,1*%
X241025000Y-180500000D03*
D13*
%TO.P,R1,2*%
X248645000Y-180500000D03*
%TD*%
D10*
%TO.C,D56*%
%TO.CFtp,LED_WS2812B_PLCC4_5.0x5.0mm_P3.2mm*%
%TO.CVal,WS2812B*%
%TO.CLbN,LED_SMD*%
%TO.CMnt,SMD*%
%TO.CRot,0*%
X16100000Y-200100000D03*
D11*
X19545000Y-197355000D02*
X19545000Y-202845000D01*
X12655000Y-202845000D01*
X12655000Y-197355000D01*
X19545000Y-197355000D01*
D12*
%TO.P,D56,1,VDD_1*%
X13650000Y-198450000D03*
D13*
%TO.P,D56,2,DOUT_2*%
X13650000Y-201750000D03*
%TO.P,D56,3,VSS_3*%
X18550000Y-201750000D03*
%TO.P,D56,4,DIN_4*%
X18550000Y-198450000D03*
%TD*%
D10*
%TO.C,D39*%
%TO.CFtp,LED_WS2812B_PLCC4_5.0x5.0mm_P3.2mm*%
%TO.CVal,WS2812B*%
%TO.CLbN,LED_SMD*%
%TO.CMnt,SMD*%
%TO.CRot,0*%
X-33732976Y-175300000D03*
D11*
X-30287976Y-172555000D02*
X-30287976Y-178045000D01*
X-37177976Y-178045000D01*
X-37177976Y-172555000D01*
X-30287976Y-172555000D01*
D12*
%TO.P,D39,1,VDD_1*%
X-36182976Y-173650000D03*
D13*
%TO.P,D39,2,DOUT_2*%
X-36182976Y-176950000D03*
%TO.P,D39,3,VSS_3*%
X-31282976Y-176950000D03*
%TO.P,D39,4,DIN_4*%
X-31282976Y-173650000D03*
%TD*%
D10*
%TO.C,D51*%
%TO.CFtp,LED_WS2812B_PLCC4_5.0x5.0mm_P3.2mm*%
%TO.CVal,WS2812B*%
%TO.CLbN,LED_SMD*%
%TO.CMnt,SMD*%
%TO.CRot,0*%
X16100000Y-75100000D03*
D11*
X19545000Y-72355000D02*
X19545000Y-77845000D01*
X12655000Y-77845000D01*
X12655000Y-72355000D01*
X19545000Y-72355000D01*
D12*
%TO.P,D51,1,VDD_1*%
X13650000Y-73450000D03*
D13*
%TO.P,D51,2,DOUT_2*%
X13650000Y-76750000D03*
%TO.P,D51,3,VSS_3*%
X18550000Y-76750000D03*
%TO.P,D51,4,DIN_4*%
X18550000Y-73450000D03*
%TD*%
D10*
%TO.C,*%
%TO.CMnt,Other*%
%TO.CRot,0*%
X70359566Y-24029446D03*
D14*
X69509566Y-23179446D02*
X69509566Y-24879446D01*
X71209566Y-24879446D01*
X71209566Y-23179446D01*
X69509566Y-23179446D01*
D12*
%TO.P,,1,Pin_1_1*%
X70359566Y-24029446D03*
%TD*%
D10*
%TO.C,J4*%
%TO.CFtp,PinHeader_1x01_P2.54mm_Vertical*%
%TO.CVal,DOUT*%
%TO.CLbN,Connector_PinHeader_2.54mm*%
%TO.CMnt,TH*%
%TO.CRot,0*%
X-50482976Y-204550000D03*
D11*
X-48717976Y-202785000D02*
X-48717976Y-206315000D01*
X-52247976Y-206315000D01*
X-52247976Y-202785000D01*
X-48717976Y-202785000D01*
D12*
%TO.P,J4,1,Pin_1_1*%
X-50482976Y-204550000D03*
%TD*%
D10*
%TO.C,J9*%
%TO.CFtp,PinHeader_1x01_P2.54mm_Vertical*%
%TO.CVal,5V*%
%TO.CLbN,Connector_PinHeader_2.54mm*%
%TO.CMnt,TH*%
%TO.CRot,0*%
X255459566Y-198929446D03*
D11*
X257224566Y-197164446D02*
X257224566Y-200694446D01*
X253694566Y-200694446D01*
X253694566Y-197164446D01*
X257224566Y-197164446D01*
D12*
%TO.P,J9,1,Pin_1_1*%
X255459566Y-198929446D03*
%TD*%
D10*
%TO.C,D6*%
%TO.CFtp,LED_WS2812B_PLCC4_5.0x5.0mm_P3.2mm*%
%TO.CVal,WS2812B*%
%TO.CLbN,LED_SMD*%
%TO.CMnt,SMD*%
%TO.CRot,0*%
X-133532976Y-150100000D03*
D11*
X-130087976Y-147355000D02*
X-130087976Y-152845000D01*
X-136977976Y-152845000D01*
X-136977976Y-147355000D01*
X-130087976Y-147355000D01*
D12*
%TO.P,D6,1,VDD_1*%
X-135982976Y-148450000D03*
D13*
%TO.P,D6,2,DOUT_2*%
X-135982976Y-151750000D03*
%TO.P,D6,3,VSS_3*%
X-131082976Y-151750000D03*
%TO.P,D6,4,DIN_4*%
X-131082976Y-148450000D03*
%TD*%
D10*
%TO.C,D55*%
%TO.CFtp,LED_WS2812B_PLCC4_5.0x5.0mm_P3.2mm*%
%TO.CVal,WS2812B*%
%TO.CLbN,LED_SMD*%
%TO.CMnt,SMD*%
%TO.CRot,0*%
X16100000Y-175100000D03*
D11*
X19545000Y-172355000D02*
X19545000Y-177845000D01*
X12655000Y-177845000D01*
X12655000Y-172355000D01*
X19545000Y-172355000D01*
D12*
%TO.P,D55,1,VDD_1*%
X13650000Y-173450000D03*
D13*
%TO.P,D55,2,DOUT_2*%
X13650000Y-176750000D03*
%TO.P,D55,3,VSS_3*%
X18550000Y-176750000D03*
%TO.P,D55,4,DIN_4*%
X18550000Y-173450000D03*
%TD*%
D10*
%TO.C,U1*%
%TO.CFtp,ER_OLEDM0.91_1x-I2C*%
%TO.CVal,ER_OLEDM0.91_1x-I2C*%
%TO.CLbN,Display*%
%TO.CMnt,TH*%
%TO.CRot,90*%
X81600000Y-218040000D03*
D11*
X118345000Y-207985000D02*
X118345000Y-220475000D01*
X79855000Y-220475000D01*
X79855000Y-207985000D01*
X118345000Y-207985000D01*
D12*
%TO.P,U1,1,GND_1*%
X81600000Y-218040000D03*
D13*
%TO.P,U1,2,VCC_2*%
X81600000Y-215500000D03*
%TO.P,U1,3,SCL_3*%
X81600000Y-212960000D03*
%TO.P,U1,4,SDA_4*%
X81600000Y-210420000D03*
%TD*%
D10*
%TO.C,D14*%
%TO.CFtp,LED_WS2812B_PLCC4_5.0x5.0mm_P3.2mm*%
%TO.CVal,WS2812B*%
%TO.CLbN,LED_SMD*%
%TO.CMnt,SMD*%
%TO.CRot,0*%
X-108900000Y-150100000D03*
D11*
X-105455000Y-147355000D02*
X-105455000Y-152845000D01*
X-112345000Y-152845000D01*
X-112345000Y-147355000D01*
X-105455000Y-147355000D01*
D12*
%TO.P,D14,1,VDD_1*%
X-111350000Y-148450000D03*
D13*
%TO.P,D14,2,DOUT_2*%
X-111350000Y-151750000D03*
%TO.P,D14,3,VSS_3*%
X-106450000Y-151750000D03*
%TO.P,D14,4,DIN_4*%
X-106450000Y-148450000D03*
%TD*%
D10*
%TO.C,D34*%
%TO.CFtp,LED_WS2812B_PLCC4_5.0x5.0mm_P3.2mm*%
%TO.CVal,WS2812B*%
%TO.CLbN,LED_SMD*%
%TO.CMnt,SMD*%
%TO.CRot,0*%
X-33732976Y-50300000D03*
D11*
X-30287976Y-47555000D02*
X-30287976Y-53045000D01*
X-37177976Y-53045000D01*
X-37177976Y-47555000D01*
X-30287976Y-47555000D01*
D12*
%TO.P,D34,1,VDD_1*%
X-36182976Y-48650000D03*
D13*
%TO.P,D34,2,DOUT_2*%
X-36182976Y-51950000D03*
%TO.P,D34,3,VSS_3*%
X-31282976Y-51950000D03*
%TO.P,D34,4,DIN_4*%
X-31282976Y-48650000D03*
%TD*%
D10*
%TO.C,D28*%
%TO.CFtp,LED_WS2812B_PLCC4_5.0x5.0mm_P3.2mm*%
%TO.CVal,WS2812B*%
%TO.CLbN,LED_SMD*%
%TO.CMnt,SMD*%
%TO.CRot,0*%
X-58900000Y-100100000D03*
D11*
X-55455000Y-97355000D02*
X-55455000Y-102845000D01*
X-62345000Y-102845000D01*
X-62345000Y-97355000D01*
X-55455000Y-97355000D01*
D12*
%TO.P,D28,1,VDD_1*%
X-61350000Y-98450000D03*
D13*
%TO.P,D28,2,DOUT_2*%
X-61350000Y-101750000D03*
%TO.P,D28,3,VSS_3*%
X-56450000Y-101750000D03*
%TO.P,D28,4,DIN_4*%
X-56450000Y-98450000D03*
%TD*%
D10*
%TO.C,D58*%
%TO.CFtp,LED_WS2812B_PLCC4_5.0x5.0mm_P3.2mm*%
%TO.CVal,WS2812B*%
%TO.CLbN,LED_SMD*%
%TO.CMnt,SMD*%
%TO.CRot,0*%
X41100000Y-50100000D03*
D11*
X44545000Y-47355000D02*
X44545000Y-52845000D01*
X37655000Y-52845000D01*
X37655000Y-47355000D01*
X44545000Y-47355000D01*
D12*
%TO.P,D58,1,VDD_1*%
X38650000Y-48450000D03*
D13*
%TO.P,D58,2,DOUT_2*%
X38650000Y-51750000D03*
%TO.P,D58,3,VSS_3*%
X43550000Y-51750000D03*
%TO.P,D58,4,DIN_4*%
X43550000Y-48450000D03*
%TD*%
D10*
%TO.C,D26*%
%TO.CFtp,LED_WS2812B_PLCC4_5.0x5.0mm_P3.2mm*%
%TO.CVal,WS2812B*%
%TO.CLbN,LED_SMD*%
%TO.CMnt,SMD*%
%TO.CRot,0*%
X-58900000Y-50100000D03*
D11*
X-55455000Y-47355000D02*
X-55455000Y-52845000D01*
X-62345000Y-52845000D01*
X-62345000Y-47355000D01*
X-55455000Y-47355000D01*
D12*
%TO.P,D26,1,VDD_1*%
X-61350000Y-48450000D03*
D13*
%TO.P,D26,2,DOUT_2*%
X-61350000Y-51750000D03*
%TO.P,D26,3,VSS_3*%
X-56450000Y-51750000D03*
%TO.P,D26,4,DIN_4*%
X-56450000Y-48450000D03*
%TD*%
D10*
%TO.C,D8*%
%TO.CFtp,LED_WS2812B_PLCC4_5.0x5.0mm_P3.2mm*%
%TO.CVal,WS2812B*%
%TO.CLbN,LED_SMD*%
%TO.CMnt,SMD*%
%TO.CRot,0*%
X-133532976Y-200100000D03*
D11*
X-130087976Y-197355000D02*
X-130087976Y-202845000D01*
X-136977976Y-202845000D01*
X-136977976Y-197355000D01*
X-130087976Y-197355000D01*
D12*
%TO.P,D8,1,VDD_1*%
X-135982976Y-198450000D03*
D13*
%TO.P,D8,2,DOUT_2*%
X-135982976Y-201750000D03*
%TO.P,D8,3,VSS_3*%
X-131082976Y-201750000D03*
%TO.P,D8,4,DIN_4*%
X-131082976Y-198450000D03*
%TD*%
D10*
%TO.C,D29*%
%TO.CFtp,LED_WS2812B_PLCC4_5.0x5.0mm_P3.2mm*%
%TO.CVal,WS2812B*%
%TO.CLbN,LED_SMD*%
%TO.CMnt,SMD*%
%TO.CRot,0*%
X-58900000Y-125100000D03*
D11*
X-55455000Y-122355000D02*
X-55455000Y-127845000D01*
X-62345000Y-127845000D01*
X-62345000Y-122355000D01*
X-55455000Y-122355000D01*
D12*
%TO.P,D29,1,VDD_1*%
X-61350000Y-123450000D03*
D13*
%TO.P,D29,2,DOUT_2*%
X-61350000Y-126750000D03*
%TO.P,D29,3,VSS_3*%
X-56450000Y-126750000D03*
%TO.P,D29,4,DIN_4*%
X-56450000Y-123450000D03*
%TD*%
D10*
%TO.C,D62*%
%TO.CFtp,LED_WS2812B_PLCC4_5.0x5.0mm_P3.2mm*%
%TO.CVal,WS2812B*%
%TO.CLbN,LED_SMD*%
%TO.CMnt,SMD*%
%TO.CRot,0*%
X41100000Y-150100000D03*
D11*
X44545000Y-147355000D02*
X44545000Y-152845000D01*
X37655000Y-152845000D01*
X37655000Y-147355000D01*
X44545000Y-147355000D01*
D12*
%TO.P,D62,1,VDD_1*%
X38650000Y-148450000D03*
D13*
%TO.P,D62,2,DOUT_2*%
X38650000Y-151750000D03*
%TO.P,D62,3,VSS_3*%
X43550000Y-151750000D03*
%TO.P,D62,4,DIN_4*%
X43550000Y-148450000D03*
%TD*%
D10*
%TO.C,D2*%
%TO.CFtp,LED_WS2812B_PLCC4_5.0x5.0mm_P3.2mm*%
%TO.CVal,WS2812B*%
%TO.CLbN,LED_SMD*%
%TO.CMnt,SMD*%
%TO.CRot,0*%
X-133482976Y-50100000D03*
D11*
X-130037976Y-47355000D02*
X-130037976Y-52845000D01*
X-136927976Y-52845000D01*
X-136927976Y-47355000D01*
X-130037976Y-47355000D01*
D12*
%TO.P,D2,1,VDD_1*%
X-135932976Y-48450000D03*
D13*
%TO.P,D2,2,DOUT_2*%
X-135932976Y-51750000D03*
%TO.P,D2,3,VSS_3*%
X-131032976Y-51750000D03*
%TO.P,D2,4,DIN_4*%
X-131032976Y-48450000D03*
%TD*%
D10*
%TO.C,D7*%
%TO.CFtp,LED_WS2812B_PLCC4_5.0x5.0mm_P3.2mm*%
%TO.CVal,WS2812B*%
%TO.CLbN,LED_SMD*%
%TO.CMnt,SMD*%
%TO.CRot,0*%
X-133532976Y-175100000D03*
D11*
X-130087976Y-172355000D02*
X-130087976Y-177845000D01*
X-136977976Y-177845000D01*
X-136977976Y-172355000D01*
X-130087976Y-172355000D01*
D12*
%TO.P,D7,1,VDD_1*%
X-135982976Y-173450000D03*
D13*
%TO.P,D7,2,DOUT_2*%
X-135982976Y-176750000D03*
%TO.P,D7,3,VSS_3*%
X-131082976Y-176750000D03*
%TO.P,D7,4,DIN_4*%
X-131082976Y-173450000D03*
%TD*%
D10*
%TO.C,D49*%
%TO.CFtp,LED_WS2812B_PLCC4_5.0x5.0mm_P3.2mm*%
%TO.CVal,WS2812B*%
%TO.CLbN,LED_SMD*%
%TO.CMnt,SMD*%
%TO.CRot,0*%
X16100000Y-25100000D03*
D11*
X19545000Y-22355000D02*
X19545000Y-27845000D01*
X12655000Y-27845000D01*
X12655000Y-22355000D01*
X19545000Y-22355000D01*
D12*
%TO.P,D49,1,VDD_1*%
X13650000Y-23450000D03*
D13*
%TO.P,D49,2,DOUT_2*%
X13650000Y-26750000D03*
%TO.P,D49,3,VSS_3*%
X18550000Y-26750000D03*
%TO.P,D49,4,DIN_4*%
X18550000Y-23450000D03*
%TD*%
D10*
%TO.C,U6*%
%TO.CFtp,TSSOP-20_4.4x6.5mm_P0.65mm*%
%TO.CVal,TXS0108EPW*%
%TO.CLbN,Package_SO*%
%TO.CMnt,SMD*%
%TO.CRot,-90*%
X214400000Y-177400000D03*
D11*
X217775000Y-173555000D02*
X217775000Y-174955000D01*
X217895000Y-174955000D01*
X217895000Y-179845000D01*
X217775000Y-179845000D01*
X217775000Y-181245000D01*
X211025000Y-181245000D01*
X211025000Y-179845000D01*
X210905000Y-179845000D01*
X210905000Y-174955000D01*
X211025000Y-174955000D01*
X211025000Y-173555000D01*
X217775000Y-173555000D01*
D12*
%TO.P,U6,1,A1_1*%
X217325000Y-174537500D03*
D13*
%TO.P,U6,2,VCCA_2*%
X216675000Y-174537500D03*
%TO.P,U6,3,A2_3*%
X216025000Y-174537500D03*
%TO.P,U6,4,A3_4*%
X215375000Y-174537500D03*
%TO.P,U6,5,A4_5*%
X214725000Y-174537500D03*
%TO.P,U6,6,A5_6*%
X214075000Y-174537500D03*
%TO.P,U6,7,A6_7*%
X213425000Y-174537500D03*
%TO.P,U6,8,A7_8*%
X212775000Y-174537500D03*
%TO.P,U6,9,A8_9*%
X212125000Y-174537500D03*
%TO.P,U6,10,OE_10*%
X211475000Y-174537500D03*
%TO.P,U6,11,GND_11*%
X211475000Y-180262500D03*
%TO.P,U6,12,B8_12*%
X212125000Y-180262500D03*
%TO.P,U6,13,B7_13*%
X212775000Y-180262500D03*
%TO.P,U6,14,B6_14*%
X213425000Y-180262500D03*
%TO.P,U6,15,B5_15*%
X214075000Y-180262500D03*
%TO.P,U6,16,B4_16*%
X214725000Y-180262500D03*
%TO.P,U6,17,B3_17*%
X215375000Y-180262500D03*
%TO.P,U6,18,B2_18*%
X216025000Y-180262500D03*
%TO.P,U6,19,VCCB_19*%
X216675000Y-180262500D03*
%TO.P,U6,20,B1_20*%
X217325000Y-180262500D03*
%TD*%
D10*
%TO.C,D5*%
%TO.CFtp,LED_WS2812B_PLCC4_5.0x5.0mm_P3.2mm*%
%TO.CVal,WS2812B*%
%TO.CLbN,LED_SMD*%
%TO.CMnt,SMD*%
%TO.CRot,0*%
X-133532976Y-125100000D03*
D11*
X-130087976Y-122355000D02*
X-130087976Y-127845000D01*
X-136977976Y-127845000D01*
X-136977976Y-122355000D01*
X-130087976Y-122355000D01*
D12*
%TO.P,D5,1,VDD_1*%
X-135982976Y-123450000D03*
D13*
%TO.P,D5,2,DOUT_2*%
X-135982976Y-126750000D03*
%TO.P,D5,3,VSS_3*%
X-131082976Y-126750000D03*
%TO.P,D5,4,DIN_4*%
X-131082976Y-123450000D03*
%TD*%
D10*
%TO.C,D38*%
%TO.CFtp,LED_WS2812B_PLCC4_5.0x5.0mm_P3.2mm*%
%TO.CVal,WS2812B*%
%TO.CLbN,LED_SMD*%
%TO.CMnt,SMD*%
%TO.CRot,0*%
X-33732976Y-150300000D03*
D11*
X-30287976Y-147555000D02*
X-30287976Y-153045000D01*
X-37177976Y-153045000D01*
X-37177976Y-147555000D01*
X-30287976Y-147555000D01*
D12*
%TO.P,D38,1,VDD_1*%
X-36182976Y-148650000D03*
D13*
%TO.P,D38,2,DOUT_2*%
X-36182976Y-151950000D03*
%TO.P,D38,3,VSS_3*%
X-31282976Y-151950000D03*
%TO.P,D38,4,DIN_4*%
X-31282976Y-148650000D03*
%TD*%
D10*
%TO.C,U3*%
%TO.CFtp,DIP-48_W15.24mm*%
%TO.CVal,~*%
%TO.CLbN,PCM_Package_DIP_AKL*%
%TO.CMnt,TH*%
%TO.CRot,-90*%
X245900000Y-193800000D03*
D11*
X248080000Y-192755000D02*
X248080000Y-210095000D01*
X185320000Y-210095000D01*
X185320000Y-192755000D01*
X248080000Y-192755000D01*
D12*
%TO.P,U3,1,~{CE_L}_1*%
X245900000Y-193800000D03*
D13*
%TO.P,U3,2,~{RW_L}_2*%
X243360000Y-193800000D03*
%TO.P,U3,3,~{BUSY_L}_3*%
X240820000Y-193800000D03*
%TO.P,U3,4,~{INT_L}_4*%
X238280000Y-193800000D03*
%TO.P,U3,5,~{OE_L}_5*%
X235740000Y-193800000D03*
%TO.P,U3,6,A0_L_6*%
X233200000Y-193800000D03*
%TO.P,U3,7,A1_L_7*%
X230660000Y-193800000D03*
%TO.P,U3,8,A2_L_8*%
X228120000Y-193800000D03*
%TO.P,U3,9,A3_L_9*%
X225580000Y-193800000D03*
%TO.P,U3,10,A4_L_10*%
X223040000Y-193800000D03*
%TO.P,U3,11,A5_L_11*%
X220500000Y-193800000D03*
%TO.P,U3,12,A6_L_12*%
X217960000Y-193800000D03*
%TO.P,U3,13,A7_L_13*%
X215420000Y-193800000D03*
%TO.P,U3,14,A8_L_14*%
X212880000Y-193800000D03*
%TO.P,U3,15,A9_L_15*%
X210340000Y-193800000D03*
%TO.P,U3,16,IO0_L_16*%
X207800000Y-193800000D03*
%TO.P,U3,17,IO1_L_17*%
X205260000Y-193800000D03*
%TO.P,U3,18,IO2_L_18*%
X202720000Y-193800000D03*
%TO.P,U3,19,IO3_L_19*%
X200180000Y-193800000D03*
%TO.P,U3,20,IO4_L_20*%
X197640000Y-193800000D03*
%TO.P,U3,21,IO5_L_21*%
X195100000Y-193800000D03*
%TO.P,U3,22,IO6_L_22*%
X192560000Y-193800000D03*
%TO.P,U3,23,IO7_L_23*%
X190020000Y-193800000D03*
%TO.P,U3,24,GND_24*%
X187480000Y-193800000D03*
%TO.P,U3,25,IO7_R_25*%
X187480000Y-209040000D03*
%TO.P,U3,26,IO6_R_26*%
X190020000Y-209040000D03*
%TO.P,U3,27,IO5_R_27*%
X192560000Y-209040000D03*
%TO.P,U3,28,IO4_R_28*%
X195100000Y-209040000D03*
%TO.P,U3,29,IO3_R_29*%
X197640000Y-209040000D03*
%TO.P,U3,30,IO2_R_30*%
X200180000Y-209040000D03*
%TO.P,U3,31,IO1_R_31*%
X202720000Y-209040000D03*
%TO.P,U3,32,IO0_R_32*%
X205260000Y-209040000D03*
%TO.P,U3,33,A9_R_33*%
X207800000Y-209040000D03*
%TO.P,U3,34,A8_R_34*%
X210340000Y-209040000D03*
%TO.P,U3,35,A7_R_35*%
X212880000Y-209040000D03*
%TO.P,U3,36,A6_R_36*%
X215420000Y-209040000D03*
%TO.P,U3,37,A5_R_37*%
X217960000Y-209040000D03*
%TO.P,U3,38,A4_R_38*%
X220500000Y-209040000D03*
%TO.P,U3,39,A3_R_39*%
X223040000Y-209040000D03*
%TO.P,U3,40,A2_R_40*%
X225580000Y-209040000D03*
%TO.P,U3,41,A1_R_41*%
X228120000Y-209040000D03*
%TO.P,U3,42,A0_R_42*%
X230660000Y-209040000D03*
%TO.P,U3,43,~{OE_R}_43*%
X233200000Y-209040000D03*
%TO.P,U3,44,~{INT_R}_44*%
X235740000Y-209040000D03*
%TO.P,U3,45,~{BUSY_R}_45*%
X238280000Y-209040000D03*
%TO.P,U3,46,~{RW_R}_46*%
X240820000Y-209040000D03*
%TO.P,U3,47,~{CE_R}_47*%
X243360000Y-209040000D03*
%TO.P,U3,48,VCC_48*%
X245900000Y-209040000D03*
%TD*%
D10*
%TO.C,D52*%
%TO.CFtp,LED_WS2812B_PLCC4_5.0x5.0mm_P3.2mm*%
%TO.CVal,WS2812B*%
%TO.CLbN,LED_SMD*%
%TO.CMnt,SMD*%
%TO.CRot,0*%
X16100000Y-100100000D03*
D11*
X19545000Y-97355000D02*
X19545000Y-102845000D01*
X12655000Y-102845000D01*
X12655000Y-97355000D01*
X19545000Y-97355000D01*
D12*
%TO.P,D52,1,VDD_1*%
X13650000Y-98450000D03*
D13*
%TO.P,D52,2,DOUT_2*%
X13650000Y-101750000D03*
%TO.P,D52,3,VSS_3*%
X18550000Y-101750000D03*
%TO.P,D52,4,DIN_4*%
X18550000Y-98450000D03*
%TD*%
D10*
%TO.C,D53*%
%TO.CFtp,LED_WS2812B_PLCC4_5.0x5.0mm_P3.2mm*%
%TO.CVal,WS2812B*%
%TO.CLbN,LED_SMD*%
%TO.CMnt,SMD*%
%TO.CRot,0*%
X16100000Y-125100000D03*
D11*
X19545000Y-122355000D02*
X19545000Y-127845000D01*
X12655000Y-127845000D01*
X12655000Y-122355000D01*
X19545000Y-122355000D01*
D12*
%TO.P,D53,1,VDD_1*%
X13650000Y-123450000D03*
D13*
%TO.P,D53,2,DOUT_2*%
X13650000Y-126750000D03*
%TO.P,D53,3,VSS_3*%
X18550000Y-126750000D03*
%TO.P,D53,4,DIN_4*%
X18550000Y-123450000D03*
%TD*%
D10*
%TO.C,D31*%
%TO.CFtp,LED_WS2812B_PLCC4_5.0x5.0mm_P3.2mm*%
%TO.CVal,WS2812B*%
%TO.CLbN,LED_SMD*%
%TO.CMnt,SMD*%
%TO.CRot,0*%
X-58900000Y-175100000D03*
D11*
X-55455000Y-172355000D02*
X-55455000Y-177845000D01*
X-62345000Y-177845000D01*
X-62345000Y-172355000D01*
X-55455000Y-172355000D01*
D12*
%TO.P,D31,1,VDD_1*%
X-61350000Y-173450000D03*
D13*
%TO.P,D31,2,DOUT_2*%
X-61350000Y-176750000D03*
%TO.P,D31,3,VSS_3*%
X-56450000Y-176750000D03*
%TO.P,D31,4,DIN_4*%
X-56450000Y-173450000D03*
%TD*%
D10*
%TO.C,D13*%
%TO.CFtp,LED_WS2812B_PLCC4_5.0x5.0mm_P3.2mm*%
%TO.CVal,WS2812B*%
%TO.CLbN,LED_SMD*%
%TO.CMnt,SMD*%
%TO.CRot,0*%
X-108900000Y-125100000D03*
D11*
X-105455000Y-122355000D02*
X-105455000Y-127845000D01*
X-112345000Y-127845000D01*
X-112345000Y-122355000D01*
X-105455000Y-122355000D01*
D12*
%TO.P,D13,1,VDD_1*%
X-111350000Y-123450000D03*
D13*
%TO.P,D13,2,DOUT_2*%
X-111350000Y-126750000D03*
%TO.P,D13,3,VSS_3*%
X-106450000Y-126750000D03*
%TO.P,D13,4,DIN_4*%
X-106450000Y-123450000D03*
%TD*%
D10*
%TO.C,D46*%
%TO.CFtp,LED_WS2812B_PLCC4_5.0x5.0mm_P3.2mm*%
%TO.CVal,WS2812B*%
%TO.CLbN,LED_SMD*%
%TO.CMnt,SMD*%
%TO.CRot,0*%
X-8900000Y-150100000D03*
D11*
X-5455000Y-147355000D02*
X-5455000Y-152845000D01*
X-12345000Y-152845000D01*
X-12345000Y-147355000D01*
X-5455000Y-147355000D01*
D12*
%TO.P,D46,1,VDD_1*%
X-11350000Y-148450000D03*
D13*
%TO.P,D46,2,DOUT_2*%
X-11350000Y-151750000D03*
%TO.P,D46,3,VSS_3*%
X-6450000Y-151750000D03*
%TO.P,D46,4,DIN_4*%
X-6450000Y-148450000D03*
%TD*%
D10*
%TO.C,J14*%
%TO.CFtp,PinHeader_1x22_P2.54mm_Vertical*%
%TO.CVal,Conn_01x22_Pin*%
%TO.CLbN,Connector_PinHeader_2.54mm*%
%TO.CMnt,TH*%
%TO.CRot,-90*%
X241450000Y-128440000D03*
D11*
X243225000Y-126675000D02*
X243225000Y-130205000D01*
X186335000Y-130205000D01*
X186335000Y-126675000D01*
X243225000Y-126675000D01*
D12*
%TO.P,J14,1,Pin_1_1*%
X241450000Y-128440000D03*
D13*
%TO.P,J14,2,Pin_2_2*%
X238910000Y-128440000D03*
%TO.P,J14,3,Pin_3_3*%
X236370000Y-128440000D03*
%TO.P,J14,4,Pin_4_4*%
X233830000Y-128440000D03*
%TO.P,J14,5,Pin_5_5*%
X231290000Y-128440000D03*
%TO.P,J14,6,Pin_6_6*%
X228750000Y-128440000D03*
%TO.P,J14,7,Pin_7_7*%
X226210000Y-128440000D03*
%TO.P,J14,8,Pin_8_8*%
X223670000Y-128440000D03*
%TO.P,J14,9,Pin_9_9*%
X221130000Y-128440000D03*
%TO.P,J14,10,Pin_10_10*%
X218590000Y-128440000D03*
%TO.P,J14,11,Pin_11_11*%
X216050000Y-128440000D03*
%TO.P,J14,12,Pin_12_12*%
X213510000Y-128440000D03*
%TO.P,J14,13,Pin_13_13*%
X210970000Y-128440000D03*
%TO.P,J14,14,Pin_14_14*%
X208430000Y-128440000D03*
%TO.P,J14,15,Pin_15_15*%
X205890000Y-128440000D03*
%TO.P,J14,16,Pin_16_16*%
X203350000Y-128440000D03*
%TO.P,J14,17,Pin_17_17*%
X200810000Y-128440000D03*
%TO.P,J14,18,Pin_18_18*%
X198270000Y-128440000D03*
%TO.P,J14,19,Pin_19_19*%
X195730000Y-128440000D03*
%TO.P,J14,20,Pin_20_20*%
X193190000Y-128440000D03*
%TO.P,J14,21,Pin_21_21*%
X190650000Y-128440000D03*
%TO.P,J14,22,Pin_22_22*%
X188110000Y-128440000D03*
%TD*%
D10*
%TO.C,D15*%
%TO.CFtp,LED_WS2812B_PLCC4_5.0x5.0mm_P3.2mm*%
%TO.CVal,WS2812B*%
%TO.CLbN,LED_SMD*%
%TO.CMnt,SMD*%
%TO.CRot,0*%
X-108900000Y-175100000D03*
D11*
X-105455000Y-172355000D02*
X-105455000Y-177845000D01*
X-112345000Y-177845000D01*
X-112345000Y-172355000D01*
X-105455000Y-172355000D01*
D12*
%TO.P,D15,1,VDD_1*%
X-111350000Y-173450000D03*
D13*
%TO.P,D15,2,DOUT_2*%
X-111350000Y-176750000D03*
%TO.P,D15,3,VSS_3*%
X-106450000Y-176750000D03*
%TO.P,D15,4,DIN_4*%
X-106450000Y-173450000D03*
%TD*%
D10*
%TO.C,D1*%
%TO.CFtp,LED_WS2812B_PLCC4_5.0x5.0mm_P3.2mm*%
%TO.CVal,WS2812B*%
%TO.CLbN,LED_SMD*%
%TO.CMnt,SMD*%
%TO.CRot,0*%
X-133450000Y-25250000D03*
D11*
X-130005000Y-22505000D02*
X-130005000Y-27995000D01*
X-136895000Y-27995000D01*
X-136895000Y-22505000D01*
X-130005000Y-22505000D01*
D12*
%TO.P,D1,1,VDD_1*%
X-135900000Y-23600000D03*
D13*
%TO.P,D1,2,DOUT_2*%
X-135900000Y-26900000D03*
%TO.P,D1,3,VSS_3*%
X-131000000Y-26900000D03*
%TO.P,D1,4,DIN_4*%
X-131000000Y-23600000D03*
%TD*%
D10*
%TO.C,D41*%
%TO.CFtp,LED_WS2812B_PLCC4_5.0x5.0mm_P3.2mm*%
%TO.CVal,WS2812B*%
%TO.CLbN,LED_SMD*%
%TO.CMnt,SMD*%
%TO.CRot,0*%
X-8900000Y-25100000D03*
D11*
X-5455000Y-22355000D02*
X-5455000Y-27845000D01*
X-12345000Y-27845000D01*
X-12345000Y-22355000D01*
X-5455000Y-22355000D01*
D12*
%TO.P,D41,1,VDD_1*%
X-11350000Y-23450000D03*
D13*
%TO.P,D41,2,DOUT_2*%
X-11350000Y-26750000D03*
%TO.P,D41,3,VSS_3*%
X-6450000Y-26750000D03*
%TO.P,D41,4,DIN_4*%
X-6450000Y-23450000D03*
%TD*%
D10*
%TO.C,D63*%
%TO.CFtp,LED_WS2812B_PLCC4_5.0x5.0mm_P3.2mm*%
%TO.CVal,WS2812B*%
%TO.CLbN,LED_SMD*%
%TO.CMnt,SMD*%
%TO.CRot,0*%
X41100000Y-175100000D03*
D11*
X44545000Y-172355000D02*
X44545000Y-177845000D01*
X37655000Y-177845000D01*
X37655000Y-172355000D01*
X44545000Y-172355000D01*
D12*
%TO.P,D63,1,VDD_1*%
X38650000Y-173450000D03*
D13*
%TO.P,D63,2,DOUT_2*%
X38650000Y-176750000D03*
%TO.P,D63,3,VSS_3*%
X43550000Y-176750000D03*
%TO.P,D63,4,DIN_4*%
X43550000Y-173450000D03*
%TD*%
D10*
%TO.C,D17*%
%TO.CFtp,LED_WS2812B_PLCC4_5.0x5.0mm_P3.2mm*%
%TO.CVal,WS2812B*%
%TO.CLbN,LED_SMD*%
%TO.CMnt,SMD*%
%TO.CRot,0*%
X-83682976Y-25100000D03*
D11*
X-80237976Y-22355000D02*
X-80237976Y-27845000D01*
X-87127976Y-27845000D01*
X-87127976Y-22355000D01*
X-80237976Y-22355000D01*
D12*
%TO.P,D17,1,VDD_1*%
X-86132976Y-23450000D03*
D13*
%TO.P,D17,2,DOUT_2*%
X-86132976Y-26750000D03*
%TO.P,D17,3,VSS_3*%
X-81232976Y-26750000D03*
%TO.P,D17,4,DIN_4*%
X-81232976Y-23450000D03*
%TD*%
D10*
%TO.C,D61*%
%TO.CFtp,LED_WS2812B_PLCC4_5.0x5.0mm_P3.2mm*%
%TO.CVal,WS2812B*%
%TO.CLbN,LED_SMD*%
%TO.CMnt,SMD*%
%TO.CRot,0*%
X41100000Y-125100000D03*
D11*
X44545000Y-122355000D02*
X44545000Y-127845000D01*
X37655000Y-127845000D01*
X37655000Y-122355000D01*
X44545000Y-122355000D01*
D12*
%TO.P,D61,1,VDD_1*%
X38650000Y-123450000D03*
D13*
%TO.P,D61,2,DOUT_2*%
X38650000Y-126750000D03*
%TO.P,D61,3,VSS_3*%
X43550000Y-126750000D03*
%TO.P,D61,4,DIN_4*%
X43550000Y-123450000D03*
%TD*%
D10*
%TO.C,D57*%
%TO.CFtp,LED_WS2812B_PLCC4_5.0x5.0mm_P3.2mm*%
%TO.CVal,WS2812B*%
%TO.CLbN,LED_SMD*%
%TO.CMnt,SMD*%
%TO.CRot,0*%
X41100000Y-25100000D03*
D11*
X44545000Y-22355000D02*
X44545000Y-27845000D01*
X37655000Y-27845000D01*
X37655000Y-22355000D01*
X44545000Y-22355000D01*
D12*
%TO.P,D57,1,VDD_1*%
X38650000Y-23450000D03*
D13*
%TO.P,D57,2,DOUT_2*%
X38650000Y-26750000D03*
%TO.P,D57,3,VSS_3*%
X43550000Y-26750000D03*
%TO.P,D57,4,DIN_4*%
X43550000Y-23450000D03*
%TD*%
D10*
%TO.C,R2*%
%TO.CFtp,R_Axial_DIN0207_L6.3mm_D2.5mm_P7.62mm_Horizontal*%
%TO.CVal,5.1k 1\u0025*%
%TO.CLbN,Resistor_THT*%
%TO.CMnt,TH*%
%TO.CRot,0*%
X241005000Y-183600000D03*
D11*
X249670000Y-182105000D02*
X249670000Y-185095000D01*
X239960000Y-185095000D01*
X239960000Y-182105000D01*
X249670000Y-182105000D01*
D12*
%TO.P,R2,1*%
X241005000Y-183600000D03*
D13*
%TO.P,R2,2*%
X248625000Y-183600000D03*
%TD*%
D10*
%TO.C,D20*%
%TO.CFtp,LED_WS2812B_PLCC4_5.0x5.0mm_P3.2mm*%
%TO.CVal,WS2812B*%
%TO.CLbN,LED_SMD*%
%TO.CMnt,SMD*%
%TO.CRot,0*%
X-83682976Y-100100000D03*
D11*
X-80237976Y-97355000D02*
X-80237976Y-102845000D01*
X-87127976Y-102845000D01*
X-87127976Y-97355000D01*
X-80237976Y-97355000D01*
D12*
%TO.P,D20,1,VDD_1*%
X-86132976Y-98450000D03*
D13*
%TO.P,D20,2,DOUT_2*%
X-86132976Y-101750000D03*
%TO.P,D20,3,VSS_3*%
X-81232976Y-101750000D03*
%TO.P,D20,4,DIN_4*%
X-81232976Y-98450000D03*
%TD*%
D10*
%TO.C,D22*%
%TO.CFtp,LED_WS2812B_PLCC4_5.0x5.0mm_P3.2mm*%
%TO.CVal,WS2812B*%
%TO.CLbN,LED_SMD*%
%TO.CMnt,SMD*%
%TO.CRot,0*%
X-83682976Y-150100000D03*
D11*
X-80237976Y-147355000D02*
X-80237976Y-152845000D01*
X-87127976Y-152845000D01*
X-87127976Y-147355000D01*
X-80237976Y-147355000D01*
D12*
%TO.P,D22,1,VDD_1*%
X-86132976Y-148450000D03*
D13*
%TO.P,D22,2,DOUT_2*%
X-86132976Y-151750000D03*
%TO.P,D22,3,VSS_3*%
X-81232976Y-151750000D03*
%TO.P,D22,4,DIN_4*%
X-81232976Y-148450000D03*
%TD*%
D10*
%TO.C,D10*%
%TO.CFtp,LED_WS2812B_PLCC4_5.0x5.0mm_P3.2mm*%
%TO.CVal,WS2812B*%
%TO.CLbN,LED_SMD*%
%TO.CMnt,SMD*%
%TO.CRot,0*%
X-108900000Y-50100000D03*
D11*
X-105455000Y-47355000D02*
X-105455000Y-52845000D01*
X-112345000Y-52845000D01*
X-112345000Y-47355000D01*
X-105455000Y-47355000D01*
D12*
%TO.P,D10,1,VDD_1*%
X-111350000Y-48450000D03*
D13*
%TO.P,D10,2,DOUT_2*%
X-111350000Y-51750000D03*
%TO.P,D10,3,VSS_3*%
X-106450000Y-51750000D03*
%TO.P,D10,4,DIN_4*%
X-106450000Y-48450000D03*
%TD*%
D10*
%TO.C,D37*%
%TO.CFtp,LED_WS2812B_PLCC4_5.0x5.0mm_P3.2mm*%
%TO.CVal,WS2812B*%
%TO.CLbN,LED_SMD*%
%TO.CMnt,SMD*%
%TO.CRot,0*%
X-33732976Y-125300000D03*
D11*
X-30287976Y-122555000D02*
X-30287976Y-128045000D01*
X-37177976Y-128045000D01*
X-37177976Y-122555000D01*
X-30287976Y-122555000D01*
D12*
%TO.P,D37,1,VDD_1*%
X-36182976Y-123650000D03*
D13*
%TO.P,D37,2,DOUT_2*%
X-36182976Y-126950000D03*
%TO.P,D37,3,VSS_3*%
X-31282976Y-126950000D03*
%TO.P,D37,4,DIN_4*%
X-31282976Y-123650000D03*
%TD*%
D10*
%TO.C,J3*%
%TO.CFtp,PinHeader_1x01_P2.54mm_Vertical*%
%TO.CVal,GND*%
%TO.CLbN,Connector_PinHeader_2.54mm*%
%TO.CMnt,TH*%
%TO.CRot,0*%
X-138582976Y-200350000D03*
D11*
X-136817976Y-198585000D02*
X-136817976Y-202115000D01*
X-140347976Y-202115000D01*
X-140347976Y-198585000D01*
X-136817976Y-198585000D01*
D12*
%TO.P,J3,1,Pin_1_1*%
X-138582976Y-200350000D03*
%TD*%
M02*
