%TF.GenerationSoftware,KiCad,Pcbnew,10.0.3*%
%TF.CreationDate,2026-06-16T09:32:00+08:00*%
%TF.ProjectId,LED_RAM,4c45445f-5241-44d2-9e6b-696361645f70,rev?*%
%TF.SameCoordinates,Original*%
%TF.FileFunction,Profile,NP*%
%FSLAX46Y46*%
G04 Gerber Fmt 4.6, Leading zero omitted, Abs format (unit mm)*
G04 Created by KiCad (PCBNEW 10.0.3) date 2026-06-16 09:32:00*
%MOMM*%
%LPD*%
G01*
G04 APERTURE LIST*
%TA.AperFunction,Profile*%
%ADD10C,0.050000*%
%TD*%
G04 APERTURE END LIST*
D10*
X65400000Y-76660000D02*
X258700000Y-76660000D01*
X258700000Y-176760000D01*
X65400000Y-176760000D01*
X65400000Y-76660000D01*
X-141382976Y-28000000D02*
X-141382976Y-22350000D01*
X-141382976Y-28000000D02*
X-137082976Y-28000000D01*
X-141315952Y-197350000D02*
X-141315952Y-203000000D01*
X-141315952Y-203000000D02*
X-136882976Y-203000000D01*
X-137082976Y-28000000D02*
X-137082976Y-197350000D01*
X-137082976Y-197350000D02*
X-141315952Y-197350000D01*
X-136882976Y-203000000D02*
X-52382976Y-203000000D01*
X-130050000Y-53000000D02*
X-112400000Y-53000000D01*
X-112400000Y-72350000D01*
X-130050000Y-72350000D01*
X-130050000Y-53000000D01*
X-130050000Y-103000000D02*
X-112400000Y-103000000D01*
X-112400000Y-122350000D01*
X-130050000Y-122350000D01*
X-130050000Y-103000000D01*
X-130032976Y-152900000D02*
X-112382976Y-152900000D01*
X-112382976Y-172250000D01*
X-130032976Y-172250000D01*
X-130032976Y-152900000D01*
X-130000000Y-28000000D02*
X-112350000Y-28000000D01*
X-112350000Y-47350000D01*
X-130000000Y-47350000D01*
X-130000000Y-28000000D01*
X-130000000Y-78000000D02*
X-112350000Y-78000000D01*
X-112350000Y-97350000D01*
X-130000000Y-97350000D01*
X-130000000Y-78000000D01*
X-129982976Y-127900000D02*
X-112332976Y-127900000D01*
X-112332976Y-147250000D01*
X-129982976Y-147250000D01*
X-129982976Y-127900000D01*
X-129982976Y-177900000D02*
X-112332976Y-177900000D01*
X-112332976Y-197250000D01*
X-129982976Y-197250000D01*
X-129982976Y-177900000D01*
X-105500000Y-52850000D02*
X-87450000Y-52850000D01*
X-87450000Y-72350000D01*
X-105500000Y-72350000D01*
X-105500000Y-52850000D01*
X-105500000Y-102850000D02*
X-87450000Y-102850000D01*
X-87450000Y-122350000D01*
X-105500000Y-122350000D01*
X-105500000Y-102850000D01*
X-105482976Y-152750000D02*
X-87432976Y-152750000D01*
X-87432976Y-172250000D01*
X-105482976Y-172250000D01*
X-105482976Y-152750000D01*
X-105450000Y-27850000D02*
X-87400000Y-27850000D01*
X-87400000Y-47350000D01*
X-105450000Y-47350000D01*
X-105450000Y-27850000D01*
X-105450000Y-77850000D02*
X-87400000Y-77850000D01*
X-87400000Y-97350000D01*
X-105450000Y-97350000D01*
X-105450000Y-77850000D01*
X-105432976Y-127750000D02*
X-87382976Y-127750000D01*
X-87382976Y-147250000D01*
X-105432976Y-147250000D01*
X-105432976Y-127750000D01*
X-105432976Y-177750000D02*
X-87382976Y-177750000D01*
X-87382976Y-197250000D01*
X-105432976Y-197250000D01*
X-105432976Y-177750000D01*
X-80067024Y-53100000D02*
X-62417024Y-53100000D01*
X-62417024Y-72450000D01*
X-80067024Y-72450000D01*
X-80067024Y-53100000D01*
X-80067024Y-103100000D02*
X-62417024Y-103100000D01*
X-62417024Y-122450000D01*
X-80067024Y-122450000D01*
X-80067024Y-103100000D01*
X-80050000Y-153000000D02*
X-62400000Y-153000000D01*
X-62400000Y-172350000D01*
X-80050000Y-172350000D01*
X-80050000Y-153000000D01*
X-80017024Y-28100000D02*
X-62367024Y-28100000D01*
X-62367024Y-47450000D01*
X-80017024Y-47450000D01*
X-80017024Y-28100000D01*
X-80017024Y-78100000D02*
X-62367024Y-78100000D01*
X-62367024Y-97450000D01*
X-80017024Y-97450000D01*
X-80017024Y-78100000D01*
X-80000000Y-128000000D02*
X-62350000Y-128000000D01*
X-62350000Y-147350000D01*
X-80000000Y-147350000D01*
X-80000000Y-128000000D01*
X-80000000Y-178000000D02*
X-62350000Y-178000000D01*
X-62350000Y-197350000D01*
X-80000000Y-197350000D01*
X-80000000Y-178000000D01*
X-55517024Y-52950000D02*
X-37467024Y-52950000D01*
X-37467024Y-72450000D01*
X-55517024Y-72450000D01*
X-55517024Y-52950000D01*
X-55517024Y-102950000D02*
X-37467024Y-102950000D01*
X-37467024Y-122450000D01*
X-55517024Y-122450000D01*
X-55517024Y-102950000D01*
X-55500000Y-152850000D02*
X-37450000Y-152850000D01*
X-37450000Y-172350000D01*
X-55500000Y-172350000D01*
X-55500000Y-152850000D01*
X-55467024Y-27950000D02*
X-37417024Y-27950000D01*
X-37417024Y-47450000D01*
X-55467024Y-47450000D01*
X-55467024Y-27950000D01*
X-55467024Y-77950000D02*
X-37417024Y-77950000D01*
X-37417024Y-97450000D01*
X-55467024Y-97450000D01*
X-55467024Y-77950000D01*
X-55450000Y-127850000D02*
X-37400000Y-127850000D01*
X-37400000Y-147350000D01*
X-55450000Y-147350000D01*
X-55450000Y-127850000D01*
X-55450000Y-177850000D02*
X-37400000Y-177850000D01*
X-37400000Y-197350000D01*
X-55450000Y-197350000D01*
X-55450000Y-177850000D01*
X-52382976Y-203000000D02*
X-52382976Y-206550000D01*
X-52382976Y-206550000D02*
X-44982976Y-206550000D01*
X-48782976Y-22350000D02*
X-141382976Y-22350000D01*
X-44982976Y-22350000D02*
X-48782976Y-22350000D01*
X-44982976Y-22350000D02*
X49017024Y-22350000D01*
X-44982976Y-202950000D02*
X49017024Y-202950000D01*
X-44982976Y-206550000D02*
X-44982976Y-202950000D01*
X-30067024Y-53100000D02*
X-12417024Y-53100000D01*
X-12417024Y-72450000D01*
X-30067024Y-72450000D01*
X-30067024Y-53100000D01*
X-30067024Y-103100000D02*
X-12417024Y-103100000D01*
X-12417024Y-122450000D01*
X-30067024Y-122450000D01*
X-30067024Y-103100000D01*
X-30050000Y-153000000D02*
X-12400000Y-153000000D01*
X-12400000Y-172350000D01*
X-30050000Y-172350000D01*
X-30050000Y-153000000D01*
X-30017024Y-28100000D02*
X-12367024Y-28100000D01*
X-12367024Y-47450000D01*
X-30017024Y-47450000D01*
X-30017024Y-28100000D01*
X-30017024Y-78100000D02*
X-12367024Y-78100000D01*
X-12367024Y-97450000D01*
X-30017024Y-97450000D01*
X-30017024Y-78100000D01*
X-30000000Y-128000000D02*
X-12350000Y-128000000D01*
X-12350000Y-147350000D01*
X-30000000Y-147350000D01*
X-30000000Y-128000000D01*
X-30000000Y-178000000D02*
X-12350000Y-178000000D01*
X-12350000Y-197350000D01*
X-30000000Y-197350000D01*
X-30000000Y-178000000D01*
X-5517024Y-52950000D02*
X12532976Y-52950000D01*
X12532976Y-72450000D01*
X-5517024Y-72450000D01*
X-5517024Y-52950000D01*
X-5517024Y-102950000D02*
X12532976Y-102950000D01*
X12532976Y-122450000D01*
X-5517024Y-122450000D01*
X-5517024Y-102950000D01*
X-5500000Y-152850000D02*
X12550000Y-152850000D01*
X12550000Y-172350000D01*
X-5500000Y-172350000D01*
X-5500000Y-152850000D01*
X-5467024Y-27950000D02*
X12582976Y-27950000D01*
X12582976Y-47450000D01*
X-5467024Y-47450000D01*
X-5467024Y-27950000D01*
X-5467024Y-77950000D02*
X12582976Y-77950000D01*
X12582976Y-97450000D01*
X-5467024Y-97450000D01*
X-5467024Y-77950000D01*
X-5450000Y-127850000D02*
X12600000Y-127850000D01*
X12600000Y-147350000D01*
X-5450000Y-147350000D01*
X-5450000Y-127850000D01*
X-5450000Y-177850000D02*
X12600000Y-177850000D01*
X12600000Y-197350000D01*
X-5450000Y-197350000D01*
X-5450000Y-177850000D01*
X19532976Y-52950000D02*
X37582976Y-52950000D01*
X37582976Y-72450000D01*
X19532976Y-72450000D01*
X19532976Y-52950000D01*
X19532976Y-102950000D02*
X37582976Y-102950000D01*
X37582976Y-122450000D01*
X19532976Y-122450000D01*
X19532976Y-102950000D01*
X19550000Y-152850000D02*
X37600000Y-152850000D01*
X37600000Y-172350000D01*
X19550000Y-172350000D01*
X19550000Y-152850000D01*
X19582976Y-27950000D02*
X37632976Y-27950000D01*
X37632976Y-47450000D01*
X19582976Y-47450000D01*
X19582976Y-27950000D01*
X19582976Y-77950000D02*
X37632976Y-77950000D01*
X37632976Y-97450000D01*
X19582976Y-97450000D01*
X19582976Y-77950000D01*
X19600000Y-127850000D02*
X37650000Y-127850000D01*
X37650000Y-147350000D01*
X19600000Y-147350000D01*
X19600000Y-127850000D01*
X19600000Y-177850000D02*
X37650000Y-177850000D01*
X37650000Y-197350000D01*
X19600000Y-197350000D01*
X19600000Y-177850000D01*
X44717024Y-27975000D02*
X49017024Y-27975000D01*
X44717024Y-197325000D02*
X44717024Y-27975000D01*
X49017024Y-27975000D02*
X49017024Y-22350000D01*
X49017024Y-197325000D02*
X44717024Y-197325000D01*
X49017024Y-202950000D02*
X49017024Y-197325000D01*
M02*
