M48
; DRILL file KiCad 10.0.1 date 2026-06-01T19:55:28
; FORMAT={-:-/ absolute / metric / decimal}
; #@! TF.CreationDate,2026-06-01T19:55:28+08:00
; #@! TF.GenerationSoftware,Kicad,Pcbnew,10.0.1
; #@! TF.FileFunction,Plated,1,2,PTH
FMAT,2
METRIC
; #@! TA.AperFunction,Plated,PTH,ViaDrill
T1C0.300
; #@! TA.AperFunction,Plated,PTH,ComponentDrill
T2C0.600
; #@! TA.AperFunction,Plated,PTH,ComponentDrill
T3C0.800
; #@! TA.AperFunction,Plated,PTH,ComponentDrill
T4C1.000
%
G90
G05
T1
X-134.083Y-23.55
X-133.583Y-201.75
X-108.883Y-201.6
X-106.45Y-23.45
X-83.683Y-201.75
X-81.233Y-23.45
X-58.883Y-201.75
X-56.45Y-23.45
X-49.583Y-202.35
X-33.683Y-201.45
X-31.283Y-23.65
X-8.883Y-201.6
X-6.45Y-23.45
X16.117Y-201.6
X18.55Y-23.45
X32.417Y-201.95
X38.617Y-25.05
X38.65Y-48.45
X38.65Y-73.45
X38.65Y-98.45
X38.65Y-123.45
X38.65Y-148.45
X38.65Y-173.45
X38.65Y-198.45
X43.517Y-28.45
X43.55Y-23.45
X43.55Y-51.75
X43.55Y-76.75
X43.55Y-101.75
X43.55Y-126.75
X43.55Y-151.75
X43.55Y-176.75
X43.55Y-201.75
X195.7Y-173.3
X198.2Y-172.8
X200.8Y-172.2
X203.3Y-171.8
X205.825Y-171.4
X207.5Y-170.8
X209.5Y-162.397
X209.7Y-181.9
X210.1Y-163.1
X212.8Y-170.8
X213.4Y-171.4
X214.1Y-168.3
X214.7Y-170.3
X215.4Y-170.8
X216.0Y-171.4
X216.7Y-181.9
X217.3Y-166.325
X219.1Y-166.325
X220.375Y-171.8
X221.085Y-172.2
X221.7Y-172.8
X222.4Y-173.4
X223.024Y-163.424
X223.611Y-161.989
X223.725Y-181.9
X226.2Y-161.5
X228.7Y-171.3
X231.2Y-170.6
X233.817Y-168.617
X236.3Y-166.925
T3
X187.48Y-193.8
X187.48Y-209.04
X190.02Y-193.8
X190.02Y-209.04
X192.56Y-193.8
X192.56Y-209.04
X195.1Y-193.8
X195.1Y-209.04
X197.64Y-193.8
X197.64Y-209.04
X200.18Y-193.8
X200.18Y-209.04
X202.72Y-193.8
X202.72Y-209.04
X205.26Y-193.8
X205.26Y-209.04
X207.8Y-193.8
X207.8Y-209.04
X210.34Y-193.8
X210.34Y-209.04
X212.88Y-193.8
X212.88Y-209.04
X215.42Y-193.8
X215.42Y-209.04
X217.96Y-193.8
X217.96Y-209.04
X220.5Y-193.8
X220.5Y-209.04
X223.04Y-193.8
X223.04Y-209.04
X225.58Y-193.8
X225.58Y-209.04
X228.12Y-193.8
X228.12Y-209.04
X230.66Y-193.8
X230.66Y-209.04
X233.2Y-193.8
X233.2Y-209.04
X235.74Y-193.8
X235.74Y-209.04
X238.28Y-193.8
X238.28Y-209.04
X240.82Y-193.8
X240.82Y-209.04
X241.005Y-183.6
X241.025Y-180.5
X243.36Y-193.8
X243.36Y-209.04
X245.9Y-193.8
X245.9Y-209.04
X248.625Y-183.6
X248.645Y-180.5
T4
X-138.683Y-25.25
X-138.583Y-200.35
X-50.483Y-204.55
X-46.883Y-204.55
X46.317Y-25.05
X46.417Y-200.15
X70.36Y-24.029
X70.46Y-199.129
X81.6Y-210.42
X81.6Y-212.96
X81.6Y-215.5
X81.6Y-218.04
X141.4Y-210.08
X141.4Y-212.62
X141.4Y-215.16
X141.4Y-217.7
X162.16Y-203.329
X184.98Y-216.1
X187.52Y-216.1
X188.09Y-151.34
X188.09Y-155.93
X188.11Y-123.85
X188.11Y-128.44
X190.06Y-216.1
X190.63Y-151.34
X190.63Y-155.93
X190.65Y-123.85
X190.65Y-128.44
X192.6Y-216.1
X193.17Y-151.34
X193.17Y-155.93
X193.19Y-123.85
X193.19Y-128.44
X195.14Y-216.1
X195.71Y-151.34
X195.71Y-155.93
X195.73Y-123.85
X195.73Y-128.44
X197.68Y-216.1
X198.25Y-151.34
X198.25Y-155.93
X198.27Y-123.85
X198.27Y-128.44
X200.22Y-216.1
X200.79Y-151.34
X200.79Y-155.93
X200.81Y-123.85
X200.81Y-128.44
X202.76Y-216.1
X203.33Y-151.34
X203.33Y-155.93
X203.35Y-123.85
X203.35Y-128.44
X205.87Y-151.34
X205.87Y-155.93
X205.89Y-123.85
X205.89Y-128.44
X206.3Y-216.1
X208.41Y-151.34
X208.41Y-155.93
X208.43Y-123.85
X208.43Y-128.44
X208.84Y-216.1
X210.95Y-151.34
X210.95Y-155.93
X210.97Y-123.85
X210.97Y-128.44
X211.38Y-216.1
X213.49Y-151.34
X213.49Y-155.93
X213.51Y-123.85
X213.51Y-128.44
X213.92Y-216.1
X216.03Y-151.34
X216.03Y-155.93
X216.05Y-123.85
X216.05Y-128.44
X216.46Y-216.1
X218.57Y-151.34
X218.57Y-155.93
X218.59Y-123.85
X218.59Y-128.44
X219.0Y-216.1
X221.11Y-151.34
X221.11Y-155.93
X221.13Y-123.85
X221.13Y-128.44
X221.54Y-216.1
X223.65Y-151.34
X223.65Y-155.93
X223.67Y-123.85
X223.67Y-128.44
X224.08Y-216.1
X226.19Y-151.34
X226.19Y-155.93
X226.21Y-123.85
X226.21Y-128.44
X226.62Y-216.1
X228.73Y-151.34
X228.73Y-155.93
X228.75Y-123.85
X228.75Y-128.44
X229.16Y-216.1
X231.27Y-151.34
X231.27Y-155.93
X231.29Y-123.85
X231.29Y-128.44
X232.72Y-216.1
X233.81Y-151.34
X233.81Y-155.93
X233.83Y-123.85
X233.83Y-128.44
X235.26Y-216.1
X236.35Y-151.34
X236.35Y-155.93
X236.37Y-123.85
X236.37Y-128.44
X237.8Y-216.1
X238.89Y-151.34
X238.89Y-155.93
X238.91Y-123.85
X238.91Y-128.44
X240.34Y-216.1
X241.43Y-151.34
X241.43Y-155.93
X241.45Y-123.85
X241.45Y-128.44
X242.88Y-216.1
X255.36Y-23.829
X255.46Y-198.929
T2
G00X252.425Y-177.88
M15
G01X253.025Y-177.88
M16
G05
G00X252.425Y-186.52
M15
G01X253.025Y-186.52
M16
G05
G00X256.225Y-177.88
M15
G01X256.825Y-177.88
M16
G05
G00X256.225Y-186.52
M15
G01X256.825Y-186.52
M16
G05
M30
