%TF.GenerationSoftware,KiCad,Pcbnew,10.0.1*%
%TF.CreationDate,2026-06-01T19:55:27+08:00*%
%TF.ProjectId,LED_RAM,4c45445f-5241-44d2-9e6b-696361645f70,rev?*%
%TF.SameCoordinates,Original*%
%TF.FileFunction,Soldermask,Top*%
%TF.FilePolarity,Negative*%
%FSLAX46Y46*%
G04 Gerber Fmt 4.6, Leading zero omitted, Abs format (unit mm)*
G04 Created by KiCad (PCBNEW 10.0.1) date 2026-06-01 19:55:27*
%MOMM*%
%LPD*%
G01*
G04 APERTURE LIST*
G04 Aperture macros list*
%AMRoundRect*
0 Rectangle with rounded corners*
0 $1 Rounding radius*
0 $2 $3 $4 $5 $6 $7 $8 $9 X,Y pos of 4 corners*
0 Add a 4 corners polygon primitive as box body*
4,1,4,$2,$3,$4,$5,$6,$7,$8,$9,$2,$3,0*
0 Add four circle primitives for the rounded corners*
1,1,$1+$1,$2,$3*
1,1,$1+$1,$4,$5*
1,1,$1+$1,$6,$7*
1,1,$1+$1,$8,$9*
0 Add four rect primitives between the rounded corners*
20,1,$1+$1,$2,$3,$4,$5,0*
20,1,$1+$1,$4,$5,$6,$7,0*
20,1,$1+$1,$6,$7,$8,$9,0*
20,1,$1+$1,$8,$9,$2,$3,0*%
G04 Aperture macros list end*
%ADD10R,1.700000X1.700000*%
%ADD11C,1.700000*%
%ADD12RoundRect,0.090000X-0.660000X-0.360000X0.660000X-0.360000X0.660000X0.360000X-0.660000X0.360000X0*%
%ADD13RoundRect,0.100000X-0.100000X0.637500X-0.100000X-0.637500X0.100000X-0.637500X0.100000X0.637500X0*%
%ADD14RoundRect,0.175000X0.425000X-0.175000X0.425000X0.175000X-0.425000X0.175000X-0.425000X-0.175000X0*%
%ADD15RoundRect,0.190000X-0.410000X0.190000X-0.410000X-0.190000X0.410000X-0.190000X0.410000X0.190000X0*%
%ADD16RoundRect,0.200000X-0.400000X0.200000X-0.400000X-0.200000X0.400000X-0.200000X0.400000X0.200000X0*%
%ADD17RoundRect,0.175000X-0.425000X0.175000X-0.425000X-0.175000X0.425000X-0.175000X0.425000X0.175000X0*%
%ADD18RoundRect,0.190000X0.410000X-0.190000X0.410000X0.190000X-0.410000X0.190000X-0.410000X-0.190000X0*%
%ADD19RoundRect,0.200000X0.400000X-0.200000X0.400000X0.200000X-0.400000X0.200000X-0.400000X-0.200000X0*%
%ADD20O,1.700000X1.100000*%
%ADD21RoundRect,0.170000X0.680000X-0.680000X0.680000X0.680000X-0.680000X0.680000X-0.680000X-0.680000X0*%
%ADD22C,1.600000*%
%ADD23R,1.600000X1.600000*%
%ADD24O,1.600000X1.600000*%
G04 APERTURE END LIST*
D10*
%TO.C,J13*%
X241450000Y-123850000D03*
D11*
X238910000Y-123850000D03*
X236370000Y-123850000D03*
X233830000Y-123850000D03*
X231290000Y-123850000D03*
X228750000Y-123850000D03*
X226210000Y-123850000D03*
X223670000Y-123850000D03*
X221130000Y-123850000D03*
X218590000Y-123850000D03*
X216050000Y-123850000D03*
X213510000Y-123850000D03*
X210970000Y-123850000D03*
X208430000Y-123850000D03*
X205890000Y-123850000D03*
X203350000Y-123850000D03*
X200810000Y-123850000D03*
X198270000Y-123850000D03*
X195730000Y-123850000D03*
X193190000Y-123850000D03*
X190650000Y-123850000D03*
X188110000Y-123850000D03*
%TD*%
D10*
%TO.C,J6*%
X206300000Y-216100000D03*
D11*
X208840000Y-216100000D03*
X211380000Y-216100000D03*
X213920000Y-216100000D03*
X216460000Y-216100000D03*
X219000000Y-216100000D03*
X221540000Y-216100000D03*
X224080000Y-216100000D03*
X226620000Y-216100000D03*
X229160000Y-216100000D03*
%TD*%
D12*
%TO.C,D4*%
X-135982976Y-98450000D03*
X-135982976Y-101750000D03*
X-131082976Y-101750000D03*
X-131082976Y-98450000D03*
%TD*%
D10*
%TO.C,J2*%
X46417024Y-200150000D03*
%TD*%
D12*
%TO.C,D36*%
X-36182976Y-98650000D03*
X-36182976Y-101950000D03*
X-31282976Y-101950000D03*
X-31282976Y-98650000D03*
%TD*%
%TO.C,D59*%
X38650000Y-73450000D03*
X38650000Y-76750000D03*
X43550000Y-76750000D03*
X43550000Y-73450000D03*
%TD*%
%TO.C,D64*%
X38650000Y-198450000D03*
X38650000Y-201750000D03*
X43550000Y-201750000D03*
X43550000Y-198450000D03*
%TD*%
D13*
%TO.C,U5*%
X224325000Y-174537500D03*
X223675000Y-174537500D03*
X223025000Y-174537500D03*
X222375000Y-174537500D03*
X221725000Y-174537500D03*
X221075000Y-174537500D03*
X220425000Y-174537500D03*
X219775000Y-174537500D03*
X219125000Y-174537500D03*
X218475000Y-174537500D03*
X218475000Y-180262500D03*
X219125000Y-180262500D03*
X219775000Y-180262500D03*
X220425000Y-180262500D03*
X221075000Y-180262500D03*
X221725000Y-180262500D03*
X222375000Y-180262500D03*
X223025000Y-180262500D03*
X223675000Y-180262500D03*
X224325000Y-180262500D03*
%TD*%
D10*
%TO.C,J16*%
X188090000Y-151340000D03*
D11*
X190630000Y-151340000D03*
X193170000Y-151340000D03*
X195710000Y-151340000D03*
X198250000Y-151340000D03*
X200790000Y-151340000D03*
X203330000Y-151340000D03*
X205870000Y-151340000D03*
X208410000Y-151340000D03*
X210950000Y-151340000D03*
X213490000Y-151340000D03*
X216030000Y-151340000D03*
X218570000Y-151340000D03*
X221110000Y-151340000D03*
X223650000Y-151340000D03*
X226190000Y-151340000D03*
X228730000Y-151340000D03*
X231270000Y-151340000D03*
X233810000Y-151340000D03*
X236350000Y-151340000D03*
X238890000Y-151340000D03*
X241430000Y-151340000D03*
%TD*%
D10*
%TO.C,J5*%
X232720000Y-216100000D03*
D11*
X235260000Y-216100000D03*
X237800000Y-216100000D03*
X240340000Y-216100000D03*
X242880000Y-216100000D03*
%TD*%
D12*
%TO.C,D32*%
X-61350000Y-198450000D03*
X-61350000Y-201750000D03*
X-56450000Y-201750000D03*
X-56450000Y-198450000D03*
%TD*%
%TO.C,D18*%
X-86132976Y-48450000D03*
X-86132976Y-51750000D03*
X-81232976Y-51750000D03*
X-81232976Y-48450000D03*
%TD*%
%TO.C,D27*%
X-61350000Y-73450000D03*
X-61350000Y-76750000D03*
X-56450000Y-76750000D03*
X-56450000Y-73450000D03*
%TD*%
D10*
%TO.C,J15*%
X188090000Y-155930000D03*
D11*
X190630000Y-155930000D03*
X193170000Y-155930000D03*
X195710000Y-155930000D03*
X198250000Y-155930000D03*
X200790000Y-155930000D03*
X203330000Y-155930000D03*
X205870000Y-155930000D03*
X208410000Y-155930000D03*
X210950000Y-155930000D03*
X213490000Y-155930000D03*
X216030000Y-155930000D03*
X218570000Y-155930000D03*
X221110000Y-155930000D03*
X223650000Y-155930000D03*
X226190000Y-155930000D03*
X228730000Y-155930000D03*
X231270000Y-155930000D03*
X233810000Y-155930000D03*
X236350000Y-155930000D03*
X238890000Y-155930000D03*
X241430000Y-155930000D03*
%TD*%
D12*
%TO.C,D24*%
X-86132976Y-198450000D03*
X-86132976Y-201750000D03*
X-81232976Y-201750000D03*
X-81232976Y-198450000D03*
%TD*%
D14*
%TO.C,J10*%
X252645000Y-182700000D03*
D15*
X252645000Y-180680000D03*
D16*
X252645000Y-179450000D03*
D17*
X252645000Y-181700000D03*
D18*
X252645000Y-183720000D03*
D19*
X252645000Y-184950000D03*
D20*
X252725000Y-186520000D03*
X256525000Y-186520000D03*
X252725000Y-177880000D03*
X256525000Y-177880000D03*
%TD*%
D12*
%TO.C,D11*%
X-111350000Y-73450000D03*
X-111350000Y-76750000D03*
X-106450000Y-76750000D03*
X-106450000Y-73450000D03*
%TD*%
%TO.C,D40*%
X-36182976Y-198650000D03*
X-36182976Y-201950000D03*
X-31282976Y-201950000D03*
X-31282976Y-198650000D03*
%TD*%
%TO.C,D19*%
X-86132976Y-73450000D03*
X-86132976Y-76750000D03*
X-81232976Y-76750000D03*
X-81232976Y-73450000D03*
%TD*%
D10*
%TO.C,J9*%
X255359566Y-23829446D03*
%TD*%
D12*
%TO.C,D43*%
X-11350000Y-73450000D03*
X-11350000Y-76750000D03*
X-6450000Y-76750000D03*
X-6450000Y-73450000D03*
%TD*%
%TO.C,D44*%
X-11350000Y-98450000D03*
X-11350000Y-101750000D03*
X-6450000Y-101750000D03*
X-6450000Y-98450000D03*
%TD*%
%TO.C,D48*%
X-11350000Y-198450000D03*
X-11350000Y-201750000D03*
X-6450000Y-201750000D03*
X-6450000Y-198450000D03*
%TD*%
%TO.C,D47*%
X-11350000Y-173450000D03*
X-11350000Y-176750000D03*
X-6450000Y-176750000D03*
X-6450000Y-173450000D03*
%TD*%
%TO.C,D54*%
X13650000Y-148450000D03*
X13650000Y-151750000D03*
X18550000Y-151750000D03*
X18550000Y-148450000D03*
%TD*%
%TO.C,D21*%
X-86132976Y-123450000D03*
X-86132976Y-126750000D03*
X-81232976Y-126750000D03*
X-81232976Y-123450000D03*
%TD*%
D10*
%TO.C,J1*%
X-46882976Y-204550000D03*
%TD*%
%TO.C,J8*%
X70459566Y-199129446D03*
%TD*%
D12*
%TO.C,D9*%
X-111350000Y-23450000D03*
X-111350000Y-26750000D03*
X-106450000Y-26750000D03*
X-106450000Y-23450000D03*
%TD*%
%TO.C,D50*%
X13650000Y-48450000D03*
X13650000Y-51750000D03*
X18550000Y-51750000D03*
X18550000Y-48450000D03*
%TD*%
%TO.C,D35*%
X-36182976Y-73650000D03*
X-36182976Y-76950000D03*
X-31282976Y-76950000D03*
X-31282976Y-73650000D03*
%TD*%
%TO.C,D42*%
X-11350000Y-48450000D03*
X-11350000Y-51750000D03*
X-6450000Y-51750000D03*
X-6450000Y-48450000D03*
%TD*%
%TO.C,D60*%
X38650000Y-98450000D03*
X38650000Y-101750000D03*
X43550000Y-101750000D03*
X43550000Y-98450000D03*
%TD*%
%TO.C,D3*%
X-136032976Y-73500000D03*
X-136032976Y-76800000D03*
X-131132976Y-76800000D03*
X-131132976Y-73500000D03*
%TD*%
D10*
%TO.C,J3*%
X-138682976Y-25250000D03*
%TD*%
%TO.C,J2*%
X46317024Y-25050000D03*
%TD*%
%TO.C,J7*%
X162159566Y-203329446D03*
%TD*%
D21*
%TO.C,U2*%
X141400000Y-217700000D03*
D11*
X141400000Y-215160000D03*
X141400000Y-212620000D03*
X141400000Y-210080000D03*
%TD*%
D12*
%TO.C,D45*%
X-11350000Y-123450000D03*
X-11350000Y-126750000D03*
X-6450000Y-126750000D03*
X-6450000Y-123450000D03*
%TD*%
%TO.C,D30*%
X-61350000Y-148450000D03*
X-61350000Y-151750000D03*
X-56450000Y-151750000D03*
X-56450000Y-148450000D03*
%TD*%
%TO.C,D23*%
X-86132976Y-173450000D03*
X-86132976Y-176750000D03*
X-81232976Y-176750000D03*
X-81232976Y-173450000D03*
%TD*%
%TO.C,D12*%
X-111350000Y-98450000D03*
X-111350000Y-101750000D03*
X-106450000Y-101750000D03*
X-106450000Y-98450000D03*
%TD*%
D10*
%TO.C,J12*%
X184980000Y-216100000D03*
D11*
X187520000Y-216100000D03*
X190060000Y-216100000D03*
X192600000Y-216100000D03*
X195140000Y-216100000D03*
X197680000Y-216100000D03*
X200220000Y-216100000D03*
X202760000Y-216100000D03*
%TD*%
D12*
%TO.C,D16*%
X-111350000Y-198450000D03*
X-111350000Y-201750000D03*
X-106450000Y-201750000D03*
X-106450000Y-198450000D03*
%TD*%
%TO.C,D25*%
X-61350000Y-23450000D03*
X-61350000Y-26750000D03*
X-56450000Y-26750000D03*
X-56450000Y-23450000D03*
%TD*%
%TO.C,D33*%
X-36182976Y-23650000D03*
X-36182976Y-26950000D03*
X-31282976Y-26950000D03*
X-31282976Y-23650000D03*
%TD*%
D13*
%TO.C,U7*%
X210325000Y-174537500D03*
X209675000Y-174537500D03*
X209025000Y-174537500D03*
X208375000Y-174537500D03*
X207725000Y-174537500D03*
X207075000Y-174537500D03*
X206425000Y-174537500D03*
X205775000Y-174537500D03*
X205125000Y-174537500D03*
X204475000Y-174537500D03*
X204475000Y-180262500D03*
X205125000Y-180262500D03*
X205775000Y-180262500D03*
X206425000Y-180262500D03*
X207075000Y-180262500D03*
X207725000Y-180262500D03*
X208375000Y-180262500D03*
X209025000Y-180262500D03*
X209675000Y-180262500D03*
X210325000Y-180262500D03*
%TD*%
D22*
%TO.C,R1*%
X241025000Y-180500000D03*
X248645000Y-180500000D03*
%TD*%
D12*
%TO.C,D56*%
X13650000Y-198450000D03*
X13650000Y-201750000D03*
X18550000Y-201750000D03*
X18550000Y-198450000D03*
%TD*%
%TO.C,D39*%
X-36182976Y-173650000D03*
X-36182976Y-176950000D03*
X-31282976Y-176950000D03*
X-31282976Y-173650000D03*
%TD*%
%TO.C,D51*%
X13650000Y-73450000D03*
X13650000Y-76750000D03*
X18550000Y-76750000D03*
X18550000Y-73450000D03*
%TD*%
D10*
%TO.C,*%
X70359566Y-24029446D03*
%TD*%
%TO.C,J4*%
X-50482976Y-204550000D03*
%TD*%
%TO.C,J9*%
X255459566Y-198929446D03*
%TD*%
D12*
%TO.C,D6*%
X-135982976Y-148450000D03*
X-135982976Y-151750000D03*
X-131082976Y-151750000D03*
X-131082976Y-148450000D03*
%TD*%
%TO.C,D55*%
X13650000Y-173450000D03*
X13650000Y-176750000D03*
X18550000Y-176750000D03*
X18550000Y-173450000D03*
%TD*%
D21*
%TO.C,U1*%
X81600000Y-218040000D03*
D11*
X81600000Y-215500000D03*
X81600000Y-212960000D03*
X81600000Y-210420000D03*
%TD*%
D12*
%TO.C,D14*%
X-111350000Y-148450000D03*
X-111350000Y-151750000D03*
X-106450000Y-151750000D03*
X-106450000Y-148450000D03*
%TD*%
%TO.C,D34*%
X-36182976Y-48650000D03*
X-36182976Y-51950000D03*
X-31282976Y-51950000D03*
X-31282976Y-48650000D03*
%TD*%
%TO.C,D28*%
X-61350000Y-98450000D03*
X-61350000Y-101750000D03*
X-56450000Y-101750000D03*
X-56450000Y-98450000D03*
%TD*%
%TO.C,D58*%
X38650000Y-48450000D03*
X38650000Y-51750000D03*
X43550000Y-51750000D03*
X43550000Y-48450000D03*
%TD*%
%TO.C,D26*%
X-61350000Y-48450000D03*
X-61350000Y-51750000D03*
X-56450000Y-51750000D03*
X-56450000Y-48450000D03*
%TD*%
%TO.C,D8*%
X-135982976Y-198450000D03*
X-135982976Y-201750000D03*
X-131082976Y-201750000D03*
X-131082976Y-198450000D03*
%TD*%
%TO.C,D29*%
X-61350000Y-123450000D03*
X-61350000Y-126750000D03*
X-56450000Y-126750000D03*
X-56450000Y-123450000D03*
%TD*%
%TO.C,D62*%
X38650000Y-148450000D03*
X38650000Y-151750000D03*
X43550000Y-151750000D03*
X43550000Y-148450000D03*
%TD*%
%TO.C,D2*%
X-135932976Y-48450000D03*
X-135932976Y-51750000D03*
X-131032976Y-51750000D03*
X-131032976Y-48450000D03*
%TD*%
%TO.C,D7*%
X-135982976Y-173450000D03*
X-135982976Y-176750000D03*
X-131082976Y-176750000D03*
X-131082976Y-173450000D03*
%TD*%
%TO.C,D49*%
X13650000Y-23450000D03*
X13650000Y-26750000D03*
X18550000Y-26750000D03*
X18550000Y-23450000D03*
%TD*%
D13*
%TO.C,U6*%
X217325000Y-174537500D03*
X216675000Y-174537500D03*
X216025000Y-174537500D03*
X215375000Y-174537500D03*
X214725000Y-174537500D03*
X214075000Y-174537500D03*
X213425000Y-174537500D03*
X212775000Y-174537500D03*
X212125000Y-174537500D03*
X211475000Y-174537500D03*
X211475000Y-180262500D03*
X212125000Y-180262500D03*
X212775000Y-180262500D03*
X213425000Y-180262500D03*
X214075000Y-180262500D03*
X214725000Y-180262500D03*
X215375000Y-180262500D03*
X216025000Y-180262500D03*
X216675000Y-180262500D03*
X217325000Y-180262500D03*
%TD*%
D12*
%TO.C,D5*%
X-135982976Y-123450000D03*
X-135982976Y-126750000D03*
X-131082976Y-126750000D03*
X-131082976Y-123450000D03*
%TD*%
%TO.C,D38*%
X-36182976Y-148650000D03*
X-36182976Y-151950000D03*
X-31282976Y-151950000D03*
X-31282976Y-148650000D03*
%TD*%
D23*
%TO.C,U3*%
X245900000Y-193800000D03*
D24*
X243360000Y-193800000D03*
X240820000Y-193800000D03*
X238280000Y-193800000D03*
X235740000Y-193800000D03*
X233200000Y-193800000D03*
X230660000Y-193800000D03*
X228120000Y-193800000D03*
X225580000Y-193800000D03*
X223040000Y-193800000D03*
X220500000Y-193800000D03*
X217960000Y-193800000D03*
X215420000Y-193800000D03*
X212880000Y-193800000D03*
X210340000Y-193800000D03*
X207800000Y-193800000D03*
X205260000Y-193800000D03*
X202720000Y-193800000D03*
X200180000Y-193800000D03*
X197640000Y-193800000D03*
X195100000Y-193800000D03*
X192560000Y-193800000D03*
X190020000Y-193800000D03*
X187480000Y-193800000D03*
X187480000Y-209040000D03*
X190020000Y-209040000D03*
X192560000Y-209040000D03*
X195100000Y-209040000D03*
X197640000Y-209040000D03*
X200180000Y-209040000D03*
X202720000Y-209040000D03*
X205260000Y-209040000D03*
X207800000Y-209040000D03*
X210340000Y-209040000D03*
X212880000Y-209040000D03*
X215420000Y-209040000D03*
X217960000Y-209040000D03*
X220500000Y-209040000D03*
X223040000Y-209040000D03*
X225580000Y-209040000D03*
X228120000Y-209040000D03*
X230660000Y-209040000D03*
X233200000Y-209040000D03*
X235740000Y-209040000D03*
X238280000Y-209040000D03*
X240820000Y-209040000D03*
X243360000Y-209040000D03*
X245900000Y-209040000D03*
%TD*%
D12*
%TO.C,D52*%
X13650000Y-98450000D03*
X13650000Y-101750000D03*
X18550000Y-101750000D03*
X18550000Y-98450000D03*
%TD*%
%TO.C,D53*%
X13650000Y-123450000D03*
X13650000Y-126750000D03*
X18550000Y-126750000D03*
X18550000Y-123450000D03*
%TD*%
%TO.C,D31*%
X-61350000Y-173450000D03*
X-61350000Y-176750000D03*
X-56450000Y-176750000D03*
X-56450000Y-173450000D03*
%TD*%
%TO.C,D13*%
X-111350000Y-123450000D03*
X-111350000Y-126750000D03*
X-106450000Y-126750000D03*
X-106450000Y-123450000D03*
%TD*%
%TO.C,D46*%
X-11350000Y-148450000D03*
X-11350000Y-151750000D03*
X-6450000Y-151750000D03*
X-6450000Y-148450000D03*
%TD*%
D10*
%TO.C,J14*%
X241450000Y-128440000D03*
D11*
X238910000Y-128440000D03*
X236370000Y-128440000D03*
X233830000Y-128440000D03*
X231290000Y-128440000D03*
X228750000Y-128440000D03*
X226210000Y-128440000D03*
X223670000Y-128440000D03*
X221130000Y-128440000D03*
X218590000Y-128440000D03*
X216050000Y-128440000D03*
X213510000Y-128440000D03*
X210970000Y-128440000D03*
X208430000Y-128440000D03*
X205890000Y-128440000D03*
X203350000Y-128440000D03*
X200810000Y-128440000D03*
X198270000Y-128440000D03*
X195730000Y-128440000D03*
X193190000Y-128440000D03*
X190650000Y-128440000D03*
X188110000Y-128440000D03*
%TD*%
D12*
%TO.C,D15*%
X-111350000Y-173450000D03*
X-111350000Y-176750000D03*
X-106450000Y-176750000D03*
X-106450000Y-173450000D03*
%TD*%
%TO.C,D1*%
X-135900000Y-23600000D03*
X-135900000Y-26900000D03*
X-131000000Y-26900000D03*
X-131000000Y-23600000D03*
%TD*%
%TO.C,D41*%
X-11350000Y-23450000D03*
X-11350000Y-26750000D03*
X-6450000Y-26750000D03*
X-6450000Y-23450000D03*
%TD*%
%TO.C,D63*%
X38650000Y-173450000D03*
X38650000Y-176750000D03*
X43550000Y-176750000D03*
X43550000Y-173450000D03*
%TD*%
%TO.C,D17*%
X-86132976Y-23450000D03*
X-86132976Y-26750000D03*
X-81232976Y-26750000D03*
X-81232976Y-23450000D03*
%TD*%
%TO.C,D61*%
X38650000Y-123450000D03*
X38650000Y-126750000D03*
X43550000Y-126750000D03*
X43550000Y-123450000D03*
%TD*%
%TO.C,D57*%
X38650000Y-23450000D03*
X38650000Y-26750000D03*
X43550000Y-26750000D03*
X43550000Y-23450000D03*
%TD*%
D22*
%TO.C,R2*%
X241005000Y-183600000D03*
X248625000Y-183600000D03*
%TD*%
D12*
%TO.C,D20*%
X-86132976Y-98450000D03*
X-86132976Y-101750000D03*
X-81232976Y-101750000D03*
X-81232976Y-98450000D03*
%TD*%
%TO.C,D22*%
X-86132976Y-148450000D03*
X-86132976Y-151750000D03*
X-81232976Y-151750000D03*
X-81232976Y-148450000D03*
%TD*%
%TO.C,D10*%
X-111350000Y-48450000D03*
X-111350000Y-51750000D03*
X-106450000Y-51750000D03*
X-106450000Y-48450000D03*
%TD*%
%TO.C,D37*%
X-36182976Y-123650000D03*
X-36182976Y-126950000D03*
X-31282976Y-126950000D03*
X-31282976Y-123650000D03*
%TD*%
D10*
%TO.C,J3*%
X-138582976Y-200350000D03*
%TD*%
M02*
