%TF.GenerationSoftware,KiCad,Pcbnew,10.0.1*%
%TF.CreationDate,2026-06-01T19:55:27+08:00*%
%TF.ProjectId,LED_RAM,4c45445f-5241-44d2-9e6b-696361645f70,rev?*%
%TF.SameCoordinates,Original*%
%TF.FileFunction,Soldermask,Bot*%
%TF.FilePolarity,Negative*%
%FSLAX46Y46*%
G04 Gerber Fmt 4.6, Leading zero omitted, Abs format (unit mm)*
G04 Created by KiCad (PCBNEW 10.0.1) date 2026-06-01 19:55:27*
%MOMM*%
%LPD*%
G01*
G04 APERTURE LIST*
G04 Aperture macros list*
%AMRoundRect*
0 Rectangle with rounded corners*
0 $1 Rounding radius*
0 $2 $3 $4 $5 $6 $7 $8 $9 X,Y pos of 4 corners*
0 Add a 4 corners polygon primitive as box body*
4,1,4,$2,$3,$4,$5,$6,$7,$8,$9,$2,$3,0*
0 Add four circle primitives for the rounded corners*
1,1,$1+$1,$2,$3*
1,1,$1+$1,$4,$5*
1,1,$1+$1,$6,$7*
1,1,$1+$1,$8,$9*
0 Add four rect primitives between the rounded corners*
20,1,$1+$1,$2,$3,$4,$5,0*
20,1,$1+$1,$4,$5,$6,$7,0*
20,1,$1+$1,$6,$7,$8,$9,0*
20,1,$1+$1,$8,$9,$2,$3,0*%
G04 Aperture macros list end*
%ADD10R,1.700000X1.700000*%
%ADD11C,1.700000*%
%ADD12O,1.700000X1.100000*%
%ADD13RoundRect,0.170000X0.680000X-0.680000X0.680000X0.680000X-0.680000X0.680000X-0.680000X-0.680000X0*%
%ADD14C,1.600000*%
%ADD15R,1.600000X1.600000*%
%ADD16O,1.600000X1.600000*%
G04 APERTURE END LIST*
D10*
%TO.C,J13*%
X241450000Y-123850000D03*
D11*
X238910000Y-123850000D03*
X236370000Y-123850000D03*
X233830000Y-123850000D03*
X231290000Y-123850000D03*
X228750000Y-123850000D03*
X226210000Y-123850000D03*
X223670000Y-123850000D03*
X221130000Y-123850000D03*
X218590000Y-123850000D03*
X216050000Y-123850000D03*
X213510000Y-123850000D03*
X210970000Y-123850000D03*
X208430000Y-123850000D03*
X205890000Y-123850000D03*
X203350000Y-123850000D03*
X200810000Y-123850000D03*
X198270000Y-123850000D03*
X195730000Y-123850000D03*
X193190000Y-123850000D03*
X190650000Y-123850000D03*
X188110000Y-123850000D03*
%TD*%
D10*
%TO.C,J6*%
X206300000Y-216100000D03*
D11*
X208840000Y-216100000D03*
X211380000Y-216100000D03*
X213920000Y-216100000D03*
X216460000Y-216100000D03*
X219000000Y-216100000D03*
X221540000Y-216100000D03*
X224080000Y-216100000D03*
X226620000Y-216100000D03*
X229160000Y-216100000D03*
%TD*%
D10*
%TO.C,J2*%
X46417024Y-200150000D03*
%TD*%
%TO.C,J16*%
X188090000Y-151340000D03*
D11*
X190630000Y-151340000D03*
X193170000Y-151340000D03*
X195710000Y-151340000D03*
X198250000Y-151340000D03*
X200790000Y-151340000D03*
X203330000Y-151340000D03*
X205870000Y-151340000D03*
X208410000Y-151340000D03*
X210950000Y-151340000D03*
X213490000Y-151340000D03*
X216030000Y-151340000D03*
X218570000Y-151340000D03*
X221110000Y-151340000D03*
X223650000Y-151340000D03*
X226190000Y-151340000D03*
X228730000Y-151340000D03*
X231270000Y-151340000D03*
X233810000Y-151340000D03*
X236350000Y-151340000D03*
X238890000Y-151340000D03*
X241430000Y-151340000D03*
%TD*%
D10*
%TO.C,J5*%
X232720000Y-216100000D03*
D11*
X235260000Y-216100000D03*
X237800000Y-216100000D03*
X240340000Y-216100000D03*
X242880000Y-216100000D03*
%TD*%
D10*
%TO.C,J15*%
X188090000Y-155930000D03*
D11*
X190630000Y-155930000D03*
X193170000Y-155930000D03*
X195710000Y-155930000D03*
X198250000Y-155930000D03*
X200790000Y-155930000D03*
X203330000Y-155930000D03*
X205870000Y-155930000D03*
X208410000Y-155930000D03*
X210950000Y-155930000D03*
X213490000Y-155930000D03*
X216030000Y-155930000D03*
X218570000Y-155930000D03*
X221110000Y-155930000D03*
X223650000Y-155930000D03*
X226190000Y-155930000D03*
X228730000Y-155930000D03*
X231270000Y-155930000D03*
X233810000Y-155930000D03*
X236350000Y-155930000D03*
X238890000Y-155930000D03*
X241430000Y-155930000D03*
%TD*%
D12*
%TO.C,J10*%
X252725000Y-186520000D03*
X256525000Y-186520000D03*
X252725000Y-177880000D03*
X256525000Y-177880000D03*
%TD*%
D10*
%TO.C,J9*%
X255359566Y-23829446D03*
%TD*%
%TO.C,J1*%
X-46882976Y-204550000D03*
%TD*%
%TO.C,J8*%
X70459566Y-199129446D03*
%TD*%
%TO.C,J3*%
X-138682976Y-25250000D03*
%TD*%
%TO.C,J2*%
X46317024Y-25050000D03*
%TD*%
%TO.C,J7*%
X162159566Y-203329446D03*
%TD*%
D13*
%TO.C,U2*%
X141400000Y-217700000D03*
D11*
X141400000Y-215160000D03*
X141400000Y-212620000D03*
X141400000Y-210080000D03*
%TD*%
D10*
%TO.C,J12*%
X184980000Y-216100000D03*
D11*
X187520000Y-216100000D03*
X190060000Y-216100000D03*
X192600000Y-216100000D03*
X195140000Y-216100000D03*
X197680000Y-216100000D03*
X200220000Y-216100000D03*
X202760000Y-216100000D03*
%TD*%
D14*
%TO.C,R1*%
X241025000Y-180500000D03*
X248645000Y-180500000D03*
%TD*%
D10*
%TO.C,*%
X70359566Y-24029446D03*
%TD*%
%TO.C,J4*%
X-50482976Y-204550000D03*
%TD*%
%TO.C,J9*%
X255459566Y-198929446D03*
%TD*%
D13*
%TO.C,U1*%
X81600000Y-218040000D03*
D11*
X81600000Y-215500000D03*
X81600000Y-212960000D03*
X81600000Y-210420000D03*
%TD*%
D15*
%TO.C,U3*%
X245900000Y-193800000D03*
D16*
X243360000Y-193800000D03*
X240820000Y-193800000D03*
X238280000Y-193800000D03*
X235740000Y-193800000D03*
X233200000Y-193800000D03*
X230660000Y-193800000D03*
X228120000Y-193800000D03*
X225580000Y-193800000D03*
X223040000Y-193800000D03*
X220500000Y-193800000D03*
X217960000Y-193800000D03*
X215420000Y-193800000D03*
X212880000Y-193800000D03*
X210340000Y-193800000D03*
X207800000Y-193800000D03*
X205260000Y-193800000D03*
X202720000Y-193800000D03*
X200180000Y-193800000D03*
X197640000Y-193800000D03*
X195100000Y-193800000D03*
X192560000Y-193800000D03*
X190020000Y-193800000D03*
X187480000Y-193800000D03*
X187480000Y-209040000D03*
X190020000Y-209040000D03*
X192560000Y-209040000D03*
X195100000Y-209040000D03*
X197640000Y-209040000D03*
X200180000Y-209040000D03*
X202720000Y-209040000D03*
X205260000Y-209040000D03*
X207800000Y-209040000D03*
X210340000Y-209040000D03*
X212880000Y-209040000D03*
X215420000Y-209040000D03*
X217960000Y-209040000D03*
X220500000Y-209040000D03*
X223040000Y-209040000D03*
X225580000Y-209040000D03*
X228120000Y-209040000D03*
X230660000Y-209040000D03*
X233200000Y-209040000D03*
X235740000Y-209040000D03*
X238280000Y-209040000D03*
X240820000Y-209040000D03*
X243360000Y-209040000D03*
X245900000Y-209040000D03*
%TD*%
D10*
%TO.C,J14*%
X241450000Y-128440000D03*
D11*
X238910000Y-128440000D03*
X236370000Y-128440000D03*
X233830000Y-128440000D03*
X231290000Y-128440000D03*
X228750000Y-128440000D03*
X226210000Y-128440000D03*
X223670000Y-128440000D03*
X221130000Y-128440000D03*
X218590000Y-128440000D03*
X216050000Y-128440000D03*
X213510000Y-128440000D03*
X210970000Y-128440000D03*
X208430000Y-128440000D03*
X205890000Y-128440000D03*
X203350000Y-128440000D03*
X200810000Y-128440000D03*
X198270000Y-128440000D03*
X195730000Y-128440000D03*
X193190000Y-128440000D03*
X190650000Y-128440000D03*
X188110000Y-128440000D03*
%TD*%
D14*
%TO.C,R2*%
X241005000Y-183600000D03*
X248625000Y-183600000D03*
%TD*%
D10*
%TO.C,J3*%
X-138582976Y-200350000D03*
%TD*%
M02*
