%TF.GenerationSoftware,KiCad,Pcbnew,10.0.3*%
%TF.CreationDate,2026-06-16T09:32:00+08:00*%
%TF.ProjectId,LED_RAM,4c45445f-5241-44d2-9e6b-696361645f70,rev?*%
%TF.SameCoordinates,Original*%
%TF.FileFunction,Paste,Top*%
%TF.FilePolarity,Positive*%
%FSLAX46Y46*%
G04 Gerber Fmt 4.6, Leading zero omitted, Abs format (unit mm)*
G04 Created by KiCad (PCBNEW 10.0.3) date 2026-06-16 09:32:00*
%MOMM*%
%LPD*%
G01*
G04 APERTURE LIST*
G04 Aperture macros list*
%AMRoundRect*
0 Rectangle with rounded corners*
0 $1 Rounding radius*
0 $2 $3 $4 $5 $6 $7 $8 $9 X,Y pos of 4 corners*
0 Add a 4 corners polygon primitive as box body*
4,1,4,$2,$3,$4,$5,$6,$7,$8,$9,$2,$3,0*
0 Add four circle primitives for the rounded corners*
1,1,$1+$1,$2,$3*
1,1,$1+$1,$4,$5*
1,1,$1+$1,$6,$7*
1,1,$1+$1,$8,$9*
0 Add four rect primitives between the rounded corners*
20,1,$1+$1,$2,$3,$4,$5,0*
20,1,$1+$1,$4,$5,$6,$7,0*
20,1,$1+$1,$6,$7,$8,$9,0*
20,1,$1+$1,$8,$9,$2,$3,0*%
G04 Aperture macros list end*
%ADD10RoundRect,0.090000X-0.660000X-0.360000X0.660000X-0.360000X0.660000X0.360000X-0.660000X0.360000X0*%
%ADD11RoundRect,0.100000X-0.100000X0.637500X-0.100000X-0.637500X0.100000X-0.637500X0.100000X0.637500X0*%
%ADD12RoundRect,0.175000X0.425000X-0.175000X0.425000X0.175000X-0.425000X0.175000X-0.425000X-0.175000X0*%
%ADD13RoundRect,0.190000X-0.410000X0.190000X-0.410000X-0.190000X0.410000X-0.190000X0.410000X0.190000X0*%
%ADD14RoundRect,0.200000X-0.400000X0.200000X-0.400000X-0.200000X0.400000X-0.200000X0.400000X0.200000X0*%
%ADD15RoundRect,0.175000X-0.425000X0.175000X-0.425000X-0.175000X0.425000X-0.175000X0.425000X0.175000X0*%
%ADD16RoundRect,0.190000X0.410000X-0.190000X0.410000X0.190000X-0.410000X0.190000X-0.410000X-0.190000X0*%
%ADD17RoundRect,0.200000X0.400000X-0.200000X0.400000X0.200000X-0.400000X0.200000X-0.400000X-0.200000X0*%
%ADD18O,1.700000X1.100000*%
G04 APERTURE END LIST*
D10*
%TO.C,D4*%
X-135982976Y-98450000D03*
X-135982976Y-101750000D03*
X-131082976Y-101750000D03*
X-131082976Y-98450000D03*
%TD*%
%TO.C,D36*%
X-36182976Y-98650000D03*
X-36182976Y-101950000D03*
X-31282976Y-101950000D03*
X-31282976Y-98650000D03*
%TD*%
%TO.C,D59*%
X38650000Y-73450000D03*
X38650000Y-76750000D03*
X43550000Y-76750000D03*
X43550000Y-73450000D03*
%TD*%
%TO.C,D64*%
X38650000Y-198450000D03*
X38650000Y-201750000D03*
X43550000Y-201750000D03*
X43550000Y-198450000D03*
%TD*%
D11*
%TO.C,U5*%
X223825000Y-130997500D03*
X223175000Y-130997500D03*
X222525000Y-130997500D03*
X221875000Y-130997500D03*
X221225000Y-130997500D03*
X220575000Y-130997500D03*
X219925000Y-130997500D03*
X219275000Y-130997500D03*
X218625000Y-130997500D03*
X217975000Y-130997500D03*
X217975000Y-136722500D03*
X218625000Y-136722500D03*
X219275000Y-136722500D03*
X219925000Y-136722500D03*
X220575000Y-136722500D03*
X221225000Y-136722500D03*
X221875000Y-136722500D03*
X222525000Y-136722500D03*
X223175000Y-136722500D03*
X223825000Y-136722500D03*
%TD*%
D10*
%TO.C,D32*%
X-61350000Y-198450000D03*
X-61350000Y-201750000D03*
X-56450000Y-201750000D03*
X-56450000Y-198450000D03*
%TD*%
%TO.C,D18*%
X-86132976Y-48450000D03*
X-86132976Y-51750000D03*
X-81232976Y-51750000D03*
X-81232976Y-48450000D03*
%TD*%
%TO.C,D27*%
X-61350000Y-73450000D03*
X-61350000Y-76750000D03*
X-56450000Y-76750000D03*
X-56450000Y-73450000D03*
%TD*%
%TO.C,D24*%
X-86132976Y-198450000D03*
X-86132976Y-201750000D03*
X-81232976Y-201750000D03*
X-81232976Y-198450000D03*
%TD*%
D12*
%TO.C,J10*%
X252145000Y-139160000D03*
D13*
X252145000Y-137140000D03*
D14*
X252145000Y-135910000D03*
D15*
X252145000Y-138160000D03*
D16*
X252145000Y-140180000D03*
D17*
X252145000Y-141410000D03*
D18*
X252225000Y-142980000D03*
X256025000Y-142980000D03*
X252225000Y-134340000D03*
X256025000Y-134340000D03*
%TD*%
D10*
%TO.C,D11*%
X-111350000Y-73450000D03*
X-111350000Y-76750000D03*
X-106450000Y-76750000D03*
X-106450000Y-73450000D03*
%TD*%
%TO.C,D40*%
X-36182976Y-198650000D03*
X-36182976Y-201950000D03*
X-31282976Y-201950000D03*
X-31282976Y-198650000D03*
%TD*%
%TO.C,D19*%
X-86132976Y-73450000D03*
X-86132976Y-76750000D03*
X-81232976Y-76750000D03*
X-81232976Y-73450000D03*
%TD*%
%TO.C,D43*%
X-11350000Y-73450000D03*
X-11350000Y-76750000D03*
X-6450000Y-76750000D03*
X-6450000Y-73450000D03*
%TD*%
%TO.C,D44*%
X-11350000Y-98450000D03*
X-11350000Y-101750000D03*
X-6450000Y-101750000D03*
X-6450000Y-98450000D03*
%TD*%
%TO.C,D48*%
X-11350000Y-198450000D03*
X-11350000Y-201750000D03*
X-6450000Y-201750000D03*
X-6450000Y-198450000D03*
%TD*%
%TO.C,D47*%
X-11350000Y-173450000D03*
X-11350000Y-176750000D03*
X-6450000Y-176750000D03*
X-6450000Y-173450000D03*
%TD*%
%TO.C,D54*%
X13650000Y-148450000D03*
X13650000Y-151750000D03*
X18550000Y-151750000D03*
X18550000Y-148450000D03*
%TD*%
%TO.C,D21*%
X-86132976Y-123450000D03*
X-86132976Y-126750000D03*
X-81232976Y-126750000D03*
X-81232976Y-123450000D03*
%TD*%
%TO.C,D9*%
X-111350000Y-23450000D03*
X-111350000Y-26750000D03*
X-106450000Y-26750000D03*
X-106450000Y-23450000D03*
%TD*%
%TO.C,D50*%
X13650000Y-48450000D03*
X13650000Y-51750000D03*
X18550000Y-51750000D03*
X18550000Y-48450000D03*
%TD*%
%TO.C,D35*%
X-36182976Y-73650000D03*
X-36182976Y-76950000D03*
X-31282976Y-76950000D03*
X-31282976Y-73650000D03*
%TD*%
%TO.C,D42*%
X-11350000Y-48450000D03*
X-11350000Y-51750000D03*
X-6450000Y-51750000D03*
X-6450000Y-48450000D03*
%TD*%
%TO.C,D60*%
X38650000Y-98450000D03*
X38650000Y-101750000D03*
X43550000Y-101750000D03*
X43550000Y-98450000D03*
%TD*%
%TO.C,D3*%
X-136032976Y-73500000D03*
X-136032976Y-76800000D03*
X-131132976Y-76800000D03*
X-131132976Y-73500000D03*
%TD*%
%TO.C,D45*%
X-11350000Y-123450000D03*
X-11350000Y-126750000D03*
X-6450000Y-126750000D03*
X-6450000Y-123450000D03*
%TD*%
%TO.C,D30*%
X-61350000Y-148450000D03*
X-61350000Y-151750000D03*
X-56450000Y-151750000D03*
X-56450000Y-148450000D03*
%TD*%
%TO.C,D23*%
X-86132976Y-173450000D03*
X-86132976Y-176750000D03*
X-81232976Y-176750000D03*
X-81232976Y-173450000D03*
%TD*%
%TO.C,D12*%
X-111350000Y-98450000D03*
X-111350000Y-101750000D03*
X-106450000Y-101750000D03*
X-106450000Y-98450000D03*
%TD*%
%TO.C,D16*%
X-111350000Y-198450000D03*
X-111350000Y-201750000D03*
X-106450000Y-201750000D03*
X-106450000Y-198450000D03*
%TD*%
%TO.C,D25*%
X-61350000Y-23450000D03*
X-61350000Y-26750000D03*
X-56450000Y-26750000D03*
X-56450000Y-23450000D03*
%TD*%
%TO.C,D33*%
X-36182976Y-23650000D03*
X-36182976Y-26950000D03*
X-31282976Y-26950000D03*
X-31282976Y-23650000D03*
%TD*%
D11*
%TO.C,U7*%
X209825000Y-130997500D03*
X209175000Y-130997500D03*
X208525000Y-130997500D03*
X207875000Y-130997500D03*
X207225000Y-130997500D03*
X206575000Y-130997500D03*
X205925000Y-130997500D03*
X205275000Y-130997500D03*
X204625000Y-130997500D03*
X203975000Y-130997500D03*
X203975000Y-136722500D03*
X204625000Y-136722500D03*
X205275000Y-136722500D03*
X205925000Y-136722500D03*
X206575000Y-136722500D03*
X207225000Y-136722500D03*
X207875000Y-136722500D03*
X208525000Y-136722500D03*
X209175000Y-136722500D03*
X209825000Y-136722500D03*
%TD*%
D10*
%TO.C,D56*%
X13650000Y-198450000D03*
X13650000Y-201750000D03*
X18550000Y-201750000D03*
X18550000Y-198450000D03*
%TD*%
%TO.C,D39*%
X-36182976Y-173650000D03*
X-36182976Y-176950000D03*
X-31282976Y-176950000D03*
X-31282976Y-173650000D03*
%TD*%
%TO.C,D51*%
X13650000Y-73450000D03*
X13650000Y-76750000D03*
X18550000Y-76750000D03*
X18550000Y-73450000D03*
%TD*%
%TO.C,D6*%
X-135982976Y-148450000D03*
X-135982976Y-151750000D03*
X-131082976Y-151750000D03*
X-131082976Y-148450000D03*
%TD*%
%TO.C,D55*%
X13650000Y-173450000D03*
X13650000Y-176750000D03*
X18550000Y-176750000D03*
X18550000Y-173450000D03*
%TD*%
%TO.C,D14*%
X-111350000Y-148450000D03*
X-111350000Y-151750000D03*
X-106450000Y-151750000D03*
X-106450000Y-148450000D03*
%TD*%
%TO.C,D34*%
X-36182976Y-48650000D03*
X-36182976Y-51950000D03*
X-31282976Y-51950000D03*
X-31282976Y-48650000D03*
%TD*%
%TO.C,D28*%
X-61350000Y-98450000D03*
X-61350000Y-101750000D03*
X-56450000Y-101750000D03*
X-56450000Y-98450000D03*
%TD*%
%TO.C,D58*%
X38650000Y-48450000D03*
X38650000Y-51750000D03*
X43550000Y-51750000D03*
X43550000Y-48450000D03*
%TD*%
%TO.C,D26*%
X-61350000Y-48450000D03*
X-61350000Y-51750000D03*
X-56450000Y-51750000D03*
X-56450000Y-48450000D03*
%TD*%
%TO.C,D8*%
X-135982976Y-198450000D03*
X-135982976Y-201750000D03*
X-131082976Y-201750000D03*
X-131082976Y-198450000D03*
%TD*%
%TO.C,D29*%
X-61350000Y-123450000D03*
X-61350000Y-126750000D03*
X-56450000Y-126750000D03*
X-56450000Y-123450000D03*
%TD*%
%TO.C,D62*%
X38650000Y-148450000D03*
X38650000Y-151750000D03*
X43550000Y-151750000D03*
X43550000Y-148450000D03*
%TD*%
%TO.C,D2*%
X-135932976Y-48450000D03*
X-135932976Y-51750000D03*
X-131032976Y-51750000D03*
X-131032976Y-48450000D03*
%TD*%
%TO.C,D7*%
X-135982976Y-173450000D03*
X-135982976Y-176750000D03*
X-131082976Y-176750000D03*
X-131082976Y-173450000D03*
%TD*%
%TO.C,D49*%
X13650000Y-23450000D03*
X13650000Y-26750000D03*
X18550000Y-26750000D03*
X18550000Y-23450000D03*
%TD*%
D11*
%TO.C,U6*%
X216825000Y-130997500D03*
X216175000Y-130997500D03*
X215525000Y-130997500D03*
X214875000Y-130997500D03*
X214225000Y-130997500D03*
X213575000Y-130997500D03*
X212925000Y-130997500D03*
X212275000Y-130997500D03*
X211625000Y-130997500D03*
X210975000Y-130997500D03*
X210975000Y-136722500D03*
X211625000Y-136722500D03*
X212275000Y-136722500D03*
X212925000Y-136722500D03*
X213575000Y-136722500D03*
X214225000Y-136722500D03*
X214875000Y-136722500D03*
X215525000Y-136722500D03*
X216175000Y-136722500D03*
X216825000Y-136722500D03*
%TD*%
D10*
%TO.C,D5*%
X-135982976Y-123450000D03*
X-135982976Y-126750000D03*
X-131082976Y-126750000D03*
X-131082976Y-123450000D03*
%TD*%
%TO.C,D38*%
X-36182976Y-148650000D03*
X-36182976Y-151950000D03*
X-31282976Y-151950000D03*
X-31282976Y-148650000D03*
%TD*%
%TO.C,D52*%
X13650000Y-98450000D03*
X13650000Y-101750000D03*
X18550000Y-101750000D03*
X18550000Y-98450000D03*
%TD*%
%TO.C,D53*%
X13650000Y-123450000D03*
X13650000Y-126750000D03*
X18550000Y-126750000D03*
X18550000Y-123450000D03*
%TD*%
%TO.C,D31*%
X-61350000Y-173450000D03*
X-61350000Y-176750000D03*
X-56450000Y-176750000D03*
X-56450000Y-173450000D03*
%TD*%
%TO.C,D13*%
X-111350000Y-123450000D03*
X-111350000Y-126750000D03*
X-106450000Y-126750000D03*
X-106450000Y-123450000D03*
%TD*%
%TO.C,D46*%
X-11350000Y-148450000D03*
X-11350000Y-151750000D03*
X-6450000Y-151750000D03*
X-6450000Y-148450000D03*
%TD*%
%TO.C,D15*%
X-111350000Y-173450000D03*
X-111350000Y-176750000D03*
X-106450000Y-176750000D03*
X-106450000Y-173450000D03*
%TD*%
%TO.C,D1*%
X-135900000Y-23600000D03*
X-135900000Y-26900000D03*
X-131000000Y-26900000D03*
X-131000000Y-23600000D03*
%TD*%
%TO.C,D41*%
X-11350000Y-23450000D03*
X-11350000Y-26750000D03*
X-6450000Y-26750000D03*
X-6450000Y-23450000D03*
%TD*%
%TO.C,D63*%
X38650000Y-173450000D03*
X38650000Y-176750000D03*
X43550000Y-176750000D03*
X43550000Y-173450000D03*
%TD*%
%TO.C,D17*%
X-86132976Y-23450000D03*
X-86132976Y-26750000D03*
X-81232976Y-26750000D03*
X-81232976Y-23450000D03*
%TD*%
%TO.C,D61*%
X38650000Y-123450000D03*
X38650000Y-126750000D03*
X43550000Y-126750000D03*
X43550000Y-123450000D03*
%TD*%
%TO.C,D57*%
X38650000Y-23450000D03*
X38650000Y-26750000D03*
X43550000Y-26750000D03*
X43550000Y-23450000D03*
%TD*%
%TO.C,D20*%
X-86132976Y-98450000D03*
X-86132976Y-101750000D03*
X-81232976Y-101750000D03*
X-81232976Y-98450000D03*
%TD*%
%TO.C,D22*%
X-86132976Y-148450000D03*
X-86132976Y-151750000D03*
X-81232976Y-151750000D03*
X-81232976Y-148450000D03*
%TD*%
%TO.C,D10*%
X-111350000Y-48450000D03*
X-111350000Y-51750000D03*
X-106450000Y-51750000D03*
X-106450000Y-48450000D03*
%TD*%
%TO.C,D37*%
X-36182976Y-123650000D03*
X-36182976Y-126950000D03*
X-31282976Y-126950000D03*
X-31282976Y-123650000D03*
%TD*%
M02*
