%TF.GenerationSoftware,KiCad,Pcbnew,10.0.1*%
%TF.CreationDate,2026-06-01T19:55:27+08:00*%
%TF.ProjectId,LED_RAM,4c45445f-5241-44d2-9e6b-696361645f70,rev?*%
%TF.SameCoordinates,Original*%
%TF.FileFunction,Copper,L2,Bot*%
%TF.FilePolarity,Positive*%
%FSLAX46Y46*%
G04 Gerber Fmt 4.6, Leading zero omitted, Abs format (unit mm)*
G04 Created by KiCad (PCBNEW 10.0.1) date 2026-06-01 19:55:27*
%MOMM*%
%LPD*%
G01*
G04 APERTURE LIST*
G04 Aperture macros list*
%AMRoundRect*
0 Rectangle with rounded corners*
0 $1 Rounding radius*
0 $2 $3 $4 $5 $6 $7 $8 $9 X,Y pos of 4 corners*
0 Add a 4 corners polygon primitive as box body*
4,1,4,$2,$3,$4,$5,$6,$7,$8,$9,$2,$3,0*
0 Add four circle primitives for the rounded corners*
1,1,$1+$1,$2,$3*
1,1,$1+$1,$4,$5*
1,1,$1+$1,$6,$7*
1,1,$1+$1,$8,$9*
0 Add four rect primitives between the rounded corners*
20,1,$1+$1,$2,$3,$4,$5,0*
20,1,$1+$1,$4,$5,$6,$7,0*
20,1,$1+$1,$6,$7,$8,$9,0*
20,1,$1+$1,$8,$9,$2,$3,0*%
G04 Aperture macros list end*
%TA.AperFunction,ComponentPad*%
%ADD10R,1.700000X1.700000*%
%TD*%
%TA.AperFunction,ComponentPad*%
%ADD11C,1.700000*%
%TD*%
%TA.AperFunction,ComponentPad*%
%ADD12O,1.700000X1.100000*%
%TD*%
%TA.AperFunction,ComponentPad*%
%ADD13RoundRect,0.170000X0.680000X-0.680000X0.680000X0.680000X-0.680000X0.680000X-0.680000X-0.680000X0*%
%TD*%
%TA.AperFunction,ComponentPad*%
%ADD14C,1.600000*%
%TD*%
%TA.AperFunction,ComponentPad*%
%ADD15R,1.600000X1.600000*%
%TD*%
%TA.AperFunction,ComponentPad*%
%ADD16O,1.600000X1.600000*%
%TD*%
%TA.AperFunction,ViaPad*%
%ADD17C,0.600000*%
%TD*%
%TA.AperFunction,Conductor*%
%ADD18C,0.200000*%
%TD*%
G04 APERTURE END LIST*
D10*
%TO.P,J13,1,Pin_1_1*%
%TO.N,Net-(J13-Pin_1)*%
X241450000Y-123850000D03*
D11*
%TO.P,J13,2,Pin_2_2*%
%TO.N,Net-(J13-Pin_2)*%
X238910000Y-123850000D03*
%TO.P,J13,3,Pin_3_3*%
%TO.N,Net-(J13-Pin_3)*%
X236370000Y-123850000D03*
%TO.P,J13,4,Pin_4_4*%
%TO.N,Net-(J13-Pin_4)*%
X233830000Y-123850000D03*
%TO.P,J13,5,Pin_5_5*%
%TO.N,Net-(J13-Pin_5)*%
X231290000Y-123850000D03*
%TO.P,J13,6,Pin_6_6*%
%TO.N,/IO7_L*%
X228750000Y-123850000D03*
%TO.P,J13,7,Pin_7_7*%
%TO.N,Net-(J13-Pin_7)*%
X226210000Y-123850000D03*
%TO.P,J13,8,Pin_8_8*%
%TO.N,/SDA*%
X223670000Y-123850000D03*
%TO.P,J13,9,Pin_9_9*%
%TO.N,Net-(J13-Pin_9)*%
X221130000Y-123850000D03*
%TO.P,J13,10,Pin_10_10*%
%TO.N,Net-(J13-Pin_10)*%
X218590000Y-123850000D03*
%TO.P,J13,11,Pin_11_11*%
%TO.N,Net-(J13-Pin_11)*%
X216050000Y-123850000D03*
%TO.P,J13,12,Pin_12_12*%
%TO.N,Net-(J13-Pin_12)*%
X213510000Y-123850000D03*
%TO.P,J13,13,Pin_13_13*%
%TO.N,/IO2_L*%
X210970000Y-123850000D03*
%TO.P,J13,14,Pin_14_14*%
%TO.N,/IO3_L*%
X208430000Y-123850000D03*
%TO.P,J13,15,Pin_15_15*%
%TO.N,/IO4_L*%
X205890000Y-123850000D03*
%TO.P,J13,16,Pin_16_16*%
%TO.N,/IO5_L*%
X203350000Y-123850000D03*
%TO.P,J13,17,Pin_17_17*%
%TO.N,/IO6_L*%
X200810000Y-123850000D03*
%TO.P,J13,18,Pin_18_18*%
%TO.N,/~{RW_L}*%
X198270000Y-123850000D03*
%TO.P,J13,19,Pin_19_19*%
%TO.N,/~{CE_L}*%
X195730000Y-123850000D03*
%TO.P,J13,20,Pin_20_20*%
%TO.N,Net-(J13-Pin_20)*%
X193190000Y-123850000D03*
%TO.P,J13,21,Pin_21_21*%
%TO.N,Net-(J13-Pin_21)*%
X190650000Y-123850000D03*
%TO.P,J13,22,Pin_22_22*%
%TO.N,Net-(J13-Pin_22)*%
X188110000Y-123850000D03*
%TD*%
D10*
%TO.P,J6,1,Pin_1_1*%
%TO.N,Net-(J6-Pin_1)*%
X206300000Y-216100000D03*
D11*
%TO.P,J6,2,Pin_2_2*%
%TO.N,Net-(J6-Pin_2)*%
X208840000Y-216100000D03*
%TO.P,J6,3,Pin_3_3*%
%TO.N,Net-(J6-Pin_3)*%
X211380000Y-216100000D03*
%TO.P,J6,4,Pin_4_4*%
%TO.N,Net-(J6-Pin_4)*%
X213920000Y-216100000D03*
%TO.P,J6,5,Pin_5_5*%
%TO.N,Net-(J6-Pin_5)*%
X216460000Y-216100000D03*
%TO.P,J6,6,Pin_6_6*%
%TO.N,Net-(J6-Pin_6)*%
X219000000Y-216100000D03*
%TO.P,J6,7,Pin_7_7*%
%TO.N,Net-(J6-Pin_7)*%
X221540000Y-216100000D03*
%TO.P,J6,8,Pin_8_8*%
%TO.N,Net-(J6-Pin_8)*%
X224080000Y-216100000D03*
%TO.P,J6,9,Pin_9_9*%
%TO.N,Net-(J6-Pin_9)*%
X226620000Y-216100000D03*
%TO.P,J6,10,Pin_10_10*%
%TO.N,Net-(J6-Pin_10)*%
X229160000Y-216100000D03*
%TD*%
D10*
%TO.P,J2,1,Pin_1_1*%
%TO.N,+5V*%
X46417024Y-200150000D03*
%TD*%
%TO.P,J16,1,Pin_1_1*%
%TO.N,/3.3v*%
X188090000Y-151340000D03*
D11*
%TO.P,J16,2,Pin_2_2*%
%TO.N,Net-(J15-Pin_2)*%
X190630000Y-151340000D03*
%TO.P,J16,3,Pin_3_3*%
%TO.N,Net-(J15-Pin_3)*%
X193170000Y-151340000D03*
%TO.P,J16,4,Pin_4_4*%
%TO.N,/~{BUSY_L}*%
X195710000Y-151340000D03*
%TO.P,J16,5,Pin_5_5*%
%TO.N,/~{INT_L}*%
X198250000Y-151340000D03*
%TO.P,J16,6,Pin_6_6*%
%TO.N,/~{OE_L}*%
X200790000Y-151340000D03*
%TO.P,J16,7,Pin_7_7*%
%TO.N,/A0_L*%
X203330000Y-151340000D03*
%TO.P,J16,8,Pin_8_8*%
%TO.N,/A8_L*%
X205870000Y-151340000D03*
%TO.P,J16,9,Pin_9_9*%
%TO.N,/A9_L*%
X208410000Y-151340000D03*
%TO.P,J16,10,Pin_10_10*%
%TO.N,/IO0_L*%
X210950000Y-151340000D03*
%TO.P,J16,11,Pin_11_11*%
%TO.N,/IO1_L*%
X213490000Y-151340000D03*
%TO.P,J16,12,Pin_12_12*%
%TO.N,/A1_L*%
X216030000Y-151340000D03*
%TO.P,J16,13,Pin_13_13*%
%TO.N,Net-(J15-Pin_13)*%
X218570000Y-151340000D03*
%TO.P,J16,14,Pin_14_14*%
%TO.N,/SCL*%
X221110000Y-151340000D03*
%TO.P,J16,15,Pin_15_15*%
%TO.N,/A2_L*%
X223650000Y-151340000D03*
%TO.P,J16,16,Pin_16_16*%
%TO.N,/A3_L*%
X226190000Y-151340000D03*
%TO.P,J16,17,Pin_17_17*%
%TO.N,/A4_L*%
X228730000Y-151340000D03*
%TO.P,J16,18,Pin_18_18*%
%TO.N,/A5_L*%
X231270000Y-151340000D03*
%TO.P,J16,19,Pin_19_19*%
%TO.N,/A6_L*%
X233810000Y-151340000D03*
%TO.P,J16,20,Pin_20_20*%
%TO.N,/A7_L*%
X236350000Y-151340000D03*
%TO.P,J16,21,Pin_21_21*%
%TO.N,/5V*%
X238890000Y-151340000D03*
%TO.P,J16,22,Pin_22_22*%
%TO.N,Net-(J15-Pin_22)*%
X241430000Y-151340000D03*
%TD*%
D10*
%TO.P,J5,1,Pin_1_1*%
%TO.N,Net-(J5-Pin_1)*%
X232720000Y-216100000D03*
D11*
%TO.P,J5,2,Pin_2_2*%
%TO.N,Net-(J5-Pin_2)*%
X235260000Y-216100000D03*
%TO.P,J5,3,Pin_3_3*%
%TO.N,Net-(J5-Pin_3)*%
X237800000Y-216100000D03*
%TO.P,J5,4,Pin_4_4*%
%TO.N,Net-(J5-Pin_4)*%
X240340000Y-216100000D03*
%TO.P,J5,5,Pin_5_5*%
%TO.N,Net-(J5-Pin_5)*%
X242880000Y-216100000D03*
%TD*%
D10*
%TO.P,J15,1,Pin_1_1*%
%TO.N,/3.3v*%
X188090000Y-155930000D03*
D11*
%TO.P,J15,2,Pin_2_2*%
%TO.N,Net-(J15-Pin_2)*%
X190630000Y-155930000D03*
%TO.P,J15,3,Pin_3_3*%
%TO.N,Net-(J15-Pin_3)*%
X193170000Y-155930000D03*
%TO.P,J15,4,Pin_4_4*%
%TO.N,/~{BUSY_L}*%
X195710000Y-155930000D03*
%TO.P,J15,5,Pin_5_5*%
%TO.N,/~{INT_L}*%
X198250000Y-155930000D03*
%TO.P,J15,6,Pin_6_6*%
%TO.N,/~{OE_L}*%
X200790000Y-155930000D03*
%TO.P,J15,7,Pin_7_7*%
%TO.N,/A0_L*%
X203330000Y-155930000D03*
%TO.P,J15,8,Pin_8_8*%
%TO.N,/A8_L*%
X205870000Y-155930000D03*
%TO.P,J15,9,Pin_9_9*%
%TO.N,/A9_L*%
X208410000Y-155930000D03*
%TO.P,J15,10,Pin_10_10*%
%TO.N,/IO0_L*%
X210950000Y-155930000D03*
%TO.P,J15,11,Pin_11_11*%
%TO.N,/IO1_L*%
X213490000Y-155930000D03*
%TO.P,J15,12,Pin_12_12*%
%TO.N,/A1_L*%
X216030000Y-155930000D03*
%TO.P,J15,13,Pin_13_13*%
%TO.N,Net-(J15-Pin_13)*%
X218570000Y-155930000D03*
%TO.P,J15,14,Pin_14_14*%
%TO.N,/SCL*%
X221110000Y-155930000D03*
%TO.P,J15,15,Pin_15_15*%
%TO.N,/A2_L*%
X223650000Y-155930000D03*
%TO.P,J15,16,Pin_16_16*%
%TO.N,/A3_L*%
X226190000Y-155930000D03*
%TO.P,J15,17,Pin_17_17*%
%TO.N,/A4_L*%
X228730000Y-155930000D03*
%TO.P,J15,18,Pin_18_18*%
%TO.N,/A5_L*%
X231270000Y-155930000D03*
%TO.P,J15,19,Pin_19_19*%
%TO.N,/A6_L*%
X233810000Y-155930000D03*
%TO.P,J15,20,Pin_20_20*%
%TO.N,/A7_L*%
X236350000Y-155930000D03*
%TO.P,J15,21,Pin_21_21*%
%TO.N,/5V*%
X238890000Y-155930000D03*
%TO.P,J15,22,Pin_22_22*%
%TO.N,Net-(J15-Pin_22)*%
X241430000Y-155930000D03*
%TD*%
D12*
%TO.P,J10,SH,SHIELD_SH*%
%TO.N,GND*%
X252725000Y-186520000D03*
X256525000Y-186520000D03*
X252725000Y-177880000D03*
X256525000Y-177880000D03*
%TD*%
D10*
%TO.P,J9,1,Pin_1_1*%
%TO.N,/5V*%
X255359566Y-23829446D03*
%TD*%
%TO.P,J1,1,Pin_1_1*%
%TO.N,Net-(D1-DIN)*%
X-46882976Y-204550000D03*
%TD*%
%TO.P,J8,1,Pin_1_1*%
%TO.N,GND*%
X70459566Y-199129446D03*
%TD*%
%TO.P,J3,1,Pin_1_1*%
%TO.N,GND*%
X-138682976Y-25250000D03*
%TD*%
%TO.P,J2,1,Pin_1_1*%
%TO.N,+5V*%
X46317024Y-25050000D03*
%TD*%
%TO.P,J7,1,Pin_1_1*%
%TO.N,Net-(J13-Pin_7)*%
X162159566Y-203329446D03*
%TD*%
D13*
%TO.P,U2,1,GND_1*%
%TO.N,GND*%
X141400000Y-217700000D03*
D11*
%TO.P,U2,2,VCC_2*%
%TO.N,/3.3v*%
X141400000Y-215160000D03*
%TO.P,U2,3,SCL_3*%
%TO.N,/SCL*%
X141400000Y-212620000D03*
%TO.P,U2,4,SDA_4*%
%TO.N,/SDA*%
X141400000Y-210080000D03*
%TD*%
D10*
%TO.P,J12,1,Pin_1_1*%
%TO.N,Net-(J12-Pin_1)*%
X184980000Y-216100000D03*
D11*
%TO.P,J12,2,Pin_2_2*%
%TO.N,Net-(J12-Pin_2)*%
X187520000Y-216100000D03*
%TO.P,J12,3,Pin_3_3*%
%TO.N,Net-(J12-Pin_3)*%
X190060000Y-216100000D03*
%TO.P,J12,4,Pin_4_4*%
%TO.N,Net-(J12-Pin_4)*%
X192600000Y-216100000D03*
%TO.P,J12,5,Pin_5_5*%
%TO.N,Net-(J12-Pin_5)*%
X195140000Y-216100000D03*
%TO.P,J12,6,Pin_6_6*%
%TO.N,Net-(J12-Pin_6)*%
X197680000Y-216100000D03*
%TO.P,J12,7,Pin_7_7*%
%TO.N,Net-(J12-Pin_7)*%
X200220000Y-216100000D03*
%TO.P,J12,8,Pin_8_8*%
%TO.N,Net-(J12-Pin_8)*%
X202760000Y-216100000D03*
%TD*%
D14*
%TO.P,R1,1*%
%TO.N,GND*%
X241025000Y-180500000D03*
%TO.P,R1,2*%
%TO.N,Net-(J10-CC2)*%
X248645000Y-180500000D03*
%TD*%
D10*
%TO.P,,1,Pin_1_1*%
%TO.N,GND*%
X70359566Y-24029446D03*
%TD*%
%TO.P,J4,1,Pin_1_1*%
%TO.N,Net-(D64-DOUT)*%
X-50482976Y-204550000D03*
%TD*%
%TO.P,J9,1,Pin_1_1*%
%TO.N,/5V*%
X255459566Y-198929446D03*
%TD*%
D13*
%TO.P,U1,1,GND_1*%
%TO.N,GND*%
X81600000Y-218040000D03*
D11*
%TO.P,U1,2,VCC_2*%
%TO.N,/3.3v*%
X81600000Y-215500000D03*
%TO.P,U1,3,SCL_3*%
%TO.N,/SCL*%
X81600000Y-212960000D03*
%TO.P,U1,4,SDA_4*%
%TO.N,/SDA*%
X81600000Y-210420000D03*
%TD*%
D15*
%TO.P,U3,1,~{CE_L}_1*%
%TO.N,Net-(U3-~{CE_L})*%
X245900000Y-193800000D03*
D16*
%TO.P,U3,2,~{RW_L}_2*%
%TO.N,Net-(U3-~{RW_L})*%
X243360000Y-193800000D03*
%TO.P,U3,3,~{BUSY_L}_3*%
%TO.N,Net-(U3-~{BUSY_L})*%
X240820000Y-193800000D03*
%TO.P,U3,4,~{INT_L}_4*%
%TO.N,Net-(U3-~{INT_L})*%
X238280000Y-193800000D03*
%TO.P,U3,5,~{OE_L}_5*%
%TO.N,Net-(U3-~{OE_L})*%
X235740000Y-193800000D03*
%TO.P,U3,6,A0_L_6*%
%TO.N,Net-(U3-A0_L)*%
X233200000Y-193800000D03*
%TO.P,U3,7,A1_L_7*%
%TO.N,Net-(U3-A1_L)*%
X230660000Y-193800000D03*
%TO.P,U3,8,A2_L_8*%
%TO.N,Net-(U3-A2_L)*%
X228120000Y-193800000D03*
%TO.P,U3,9,A3_L_9*%
%TO.N,Net-(U3-A3_L)*%
X225580000Y-193800000D03*
%TO.P,U3,10,A4_L_10*%
%TO.N,Net-(U3-A4_L)*%
X223040000Y-193800000D03*
%TO.P,U3,11,A5_L_11*%
%TO.N,Net-(U3-A5_L)*%
X220500000Y-193800000D03*
%TO.P,U3,12,A6_L_12*%
%TO.N,Net-(U3-A6_L)*%
X217960000Y-193800000D03*
%TO.P,U3,13,A7_L_13*%
%TO.N,Net-(U3-A7_L)*%
X215420000Y-193800000D03*
%TO.P,U3,14,A8_L_14*%
%TO.N,Net-(U3-A8_L)*%
X212880000Y-193800000D03*
%TO.P,U3,15,A9_L_15*%
%TO.N,Net-(U3-A9_L)*%
X210340000Y-193800000D03*
%TO.P,U3,16,IO0_L_16*%
%TO.N,Net-(U3-IO0_L)*%
X207800000Y-193800000D03*
%TO.P,U3,17,IO1_L_17*%
%TO.N,Net-(U3-IO1_L)*%
X205260000Y-193800000D03*
%TO.P,U3,18,IO2_L_18*%
%TO.N,Net-(U3-IO2_L)*%
X202720000Y-193800000D03*
%TO.P,U3,19,IO3_L_19*%
%TO.N,Net-(U3-IO3_L)*%
X200180000Y-193800000D03*
%TO.P,U3,20,IO4_L_20*%
%TO.N,Net-(U3-IO4_L)*%
X197640000Y-193800000D03*
%TO.P,U3,21,IO5_L_21*%
%TO.N,Net-(U3-IO5_L)*%
X195100000Y-193800000D03*
%TO.P,U3,22,IO6_L_22*%
%TO.N,Net-(U3-IO6_L)*%
X192560000Y-193800000D03*
%TO.P,U3,23,IO7_L_23*%
%TO.N,Net-(U3-IO7_L)*%
X190020000Y-193800000D03*
%TO.P,U3,24,GND_24*%
%TO.N,GND*%
X187480000Y-193800000D03*
%TO.P,U3,25,IO7_R_25*%
%TO.N,Net-(J12-Pin_1)*%
X187480000Y-209040000D03*
%TO.P,U3,26,IO6_R_26*%
%TO.N,Net-(J12-Pin_2)*%
X190020000Y-209040000D03*
%TO.P,U3,27,IO5_R_27*%
%TO.N,Net-(J12-Pin_3)*%
X192560000Y-209040000D03*
%TO.P,U3,28,IO4_R_28*%
%TO.N,Net-(J12-Pin_4)*%
X195100000Y-209040000D03*
%TO.P,U3,29,IO3_R_29*%
%TO.N,Net-(J12-Pin_5)*%
X197640000Y-209040000D03*
%TO.P,U3,30,IO2_R_30*%
%TO.N,Net-(J12-Pin_6)*%
X200180000Y-209040000D03*
%TO.P,U3,31,IO1_R_31*%
%TO.N,Net-(J12-Pin_7)*%
X202720000Y-209040000D03*
%TO.P,U3,32,IO0_R_32*%
%TO.N,Net-(J12-Pin_8)*%
X205260000Y-209040000D03*
%TO.P,U3,33,A9_R_33*%
%TO.N,Net-(J6-Pin_1)*%
X207800000Y-209040000D03*
%TO.P,U3,34,A8_R_34*%
%TO.N,Net-(J6-Pin_2)*%
X210340000Y-209040000D03*
%TO.P,U3,35,A7_R_35*%
%TO.N,Net-(J6-Pin_3)*%
X212880000Y-209040000D03*
%TO.P,U3,36,A6_R_36*%
%TO.N,Net-(J6-Pin_4)*%
X215420000Y-209040000D03*
%TO.P,U3,37,A5_R_37*%
%TO.N,Net-(J6-Pin_5)*%
X217960000Y-209040000D03*
%TO.P,U3,38,A4_R_38*%
%TO.N,Net-(J6-Pin_6)*%
X220500000Y-209040000D03*
%TO.P,U3,39,A3_R_39*%
%TO.N,Net-(J6-Pin_7)*%
X223040000Y-209040000D03*
%TO.P,U3,40,A2_R_40*%
%TO.N,Net-(J6-Pin_8)*%
X225580000Y-209040000D03*
%TO.P,U3,41,A1_R_41*%
%TO.N,Net-(J6-Pin_9)*%
X228120000Y-209040000D03*
%TO.P,U3,42,A0_R_42*%
%TO.N,Net-(J6-Pin_10)*%
X230660000Y-209040000D03*
%TO.P,U3,43,~{OE_R}_43*%
%TO.N,Net-(J5-Pin_1)*%
X233200000Y-209040000D03*
%TO.P,U3,44,~{INT_R}_44*%
%TO.N,Net-(J5-Pin_2)*%
X235740000Y-209040000D03*
%TO.P,U3,45,~{BUSY_R}_45*%
%TO.N,Net-(J5-Pin_3)*%
X238280000Y-209040000D03*
%TO.P,U3,46,~{RW_R}_46*%
%TO.N,Net-(J5-Pin_4)*%
X240820000Y-209040000D03*
%TO.P,U3,47,~{CE_R}_47*%
%TO.N,Net-(J5-Pin_5)*%
X243360000Y-209040000D03*
%TO.P,U3,48,VCC_48*%
%TO.N,/5V*%
X245900000Y-209040000D03*
%TD*%
D10*
%TO.P,J14,1,Pin_1_1*%
%TO.N,Net-(J13-Pin_1)*%
X241450000Y-128440000D03*
D11*
%TO.P,J14,2,Pin_2_2*%
%TO.N,Net-(J13-Pin_2)*%
X238910000Y-128440000D03*
%TO.P,J14,3,Pin_3_3*%
%TO.N,Net-(J13-Pin_3)*%
X236370000Y-128440000D03*
%TO.P,J14,4,Pin_4_4*%
%TO.N,Net-(J13-Pin_4)*%
X233830000Y-128440000D03*
%TO.P,J14,5,Pin_5_5*%
%TO.N,Net-(J13-Pin_5)*%
X231290000Y-128440000D03*
%TO.P,J14,6,Pin_6_6*%
%TO.N,/IO7_L*%
X228750000Y-128440000D03*
%TO.P,J14,7,Pin_7_7*%
%TO.N,Net-(J13-Pin_7)*%
X226210000Y-128440000D03*
%TO.P,J14,8,Pin_8_8*%
%TO.N,/SDA*%
X223670000Y-128440000D03*
%TO.P,J14,9,Pin_9_9*%
%TO.N,Net-(J13-Pin_9)*%
X221130000Y-128440000D03*
%TO.P,J14,10,Pin_10_10*%
%TO.N,Net-(J13-Pin_10)*%
X218590000Y-128440000D03*
%TO.P,J14,11,Pin_11_11*%
%TO.N,Net-(J13-Pin_11)*%
X216050000Y-128440000D03*
%TO.P,J14,12,Pin_12_12*%
%TO.N,Net-(J13-Pin_12)*%
X213510000Y-128440000D03*
%TO.P,J14,13,Pin_13_13*%
%TO.N,/IO2_L*%
X210970000Y-128440000D03*
%TO.P,J14,14,Pin_14_14*%
%TO.N,/IO3_L*%
X208430000Y-128440000D03*
%TO.P,J14,15,Pin_15_15*%
%TO.N,/IO4_L*%
X205890000Y-128440000D03*
%TO.P,J14,16,Pin_16_16*%
%TO.N,/IO5_L*%
X203350000Y-128440000D03*
%TO.P,J14,17,Pin_17_17*%
%TO.N,/IO6_L*%
X200810000Y-128440000D03*
%TO.P,J14,18,Pin_18_18*%
%TO.N,/~{RW_L}*%
X198270000Y-128440000D03*
%TO.P,J14,19,Pin_19_19*%
%TO.N,/~{CE_L}*%
X195730000Y-128440000D03*
%TO.P,J14,20,Pin_20_20*%
%TO.N,Net-(J13-Pin_20)*%
X193190000Y-128440000D03*
%TO.P,J14,21,Pin_21_21*%
%TO.N,Net-(J13-Pin_21)*%
X190650000Y-128440000D03*
%TO.P,J14,22,Pin_22_22*%
%TO.N,Net-(J13-Pin_22)*%
X188110000Y-128440000D03*
%TD*%
D14*
%TO.P,R2,1*%
%TO.N,GND*%
X241005000Y-183600000D03*
%TO.P,R2,2*%
%TO.N,Net-(J10-CC1)*%
X248625000Y-183600000D03*
%TD*%
D10*
%TO.P,J3,1,Pin_1_1*%
%TO.N,GND*%
X-138582976Y-200350000D03*
%TD*%
D17*
%TO.N,/~{RW_L}*%
X223024265Y-163424265D03*
%TO.N,+5V*%
X38650000Y-148450000D03*
X38650000Y-173450000D03*
X38650000Y-48450000D03*
X38617024Y-25050000D03*
X38650000Y-198450000D03*
X38650000Y-73450000D03*
X38650000Y-123450000D03*
X38650000Y-98450000D03*
%TO.N,GND*%
X43550000Y-51750000D03*
X43550000Y-151750000D03*
X43550000Y-126750000D03*
X43517024Y-28450000D03*
X43550000Y-76750000D03*
X43550000Y-101750000D03*
X43550000Y-176750000D03*
X43550000Y-201750000D03*
%TO.N,Net-(D64-DOUT)*%
X32417024Y-201950000D03*
%TO.N,/~{BUSY_L}*%
X195700000Y-173300000D03*
X222400000Y-173400000D03*
%TO.N,/~{INT_L}*%
X198200000Y-172800000D03*
X221700000Y-172800000D03*
%TO.N,/~{OE_L}*%
X200800000Y-172200000D03*
X221085421Y-172200000D03*
%TO.N,/A0_L*%
X220375000Y-171800000D03*
X203300000Y-171800000D03*
%TO.N,/A2_L*%
X219100000Y-166325000D03*
X223611092Y-161988908D03*
%TO.N,/5V*%
X216700000Y-181900000D03*
X209700000Y-181900000D03*
X223725000Y-181900000D03*
%TO.N,/A8_L*%
X213400000Y-171400000D03*
X205825000Y-171400000D03*
%TO.N,/A9_L*%
X212800000Y-170800000D03*
X207500000Y-170800000D03*
%TO.N,/IO0_L*%
X210100000Y-163100000D03*
%TO.N,/IO1_L*%
X209500000Y-162397438D03*
%TO.N,/A3_L*%
X217300000Y-166325000D03*
X226200000Y-161500000D03*
%TO.N,/A4_L*%
X228700000Y-171300000D03*
X216000000Y-171400000D03*
%TO.N,/A5_L*%
X231200000Y-170600000D03*
X215400000Y-170800000D03*
%TO.N,/A6_L*%
X214700000Y-170300000D03*
X233816507Y-168616507D03*
%TO.N,/A7_L*%
X236300000Y-166925000D03*
X214100000Y-168300000D03*
%TO.N,Net-(D32-DOUT)*%
X-58882976Y-201750000D03*
X-31282976Y-23650000D03*
%TO.N,Net-(D24-DOUT)*%
X-83682976Y-201750000D03*
X-56450000Y-23450000D03*
%TO.N,Net-(D40-DOUT)*%
X-33682976Y-201450000D03*
X-6450000Y-23450000D03*
%TO.N,Net-(D48-DOUT)*%
X-8882976Y-201600000D03*
X18550000Y-23450000D03*
%TO.N,Net-(D1-DIN)*%
X-134082976Y-23550000D03*
X-49582976Y-202350000D03*
%TO.N,Net-(D8-DOUT)*%
X-133582976Y-201750000D03*
X-106450000Y-23450000D03*
%TO.N,Net-(D16-DOUT)*%
X-81232976Y-23450000D03*
X-108882976Y-201600000D03*
%TO.N,Net-(D56-DOUT)*%
X43550000Y-23450000D03*
X16117024Y-201600000D03*
%TD*%
%TO.N,Net-(J13-Pin_1)*%
D18*
X241450000Y-123850000D02*
X241450000Y-128440000D01*
%TO.N,Net-(J13-Pin_2)*%
X238910000Y-123850000D02*
X238910000Y-128440000D01*
%TO.N,Net-(J13-Pin_3)*%
X236370000Y-123850000D02*
X236370000Y-128440000D01*
%TO.N,Net-(J13-Pin_4)*%
X233830000Y-123850000D02*
X233830000Y-128440000D01*
%TO.N,Net-(J13-Pin_5)*%
X231290000Y-123850000D02*
X231290000Y-128440000D01*
%TO.N,/IO7_L*%
X228750000Y-123850000D02*
X228750000Y-128440000D01*
%TO.N,Net-(J13-Pin_7)*%
X226210000Y-123850000D02*
X226210000Y-128440000D01*
%TO.N,/SDA*%
X141400000Y-210080000D02*
X81940000Y-210080000D01*
X179200000Y-145300000D02*
X206810000Y-145300000D01*
X141400000Y-210080000D02*
X141400000Y-183100000D01*
X206810000Y-145300000D02*
X223670000Y-128440000D01*
X81940000Y-210080000D02*
X81600000Y-210420000D01*
X141400000Y-183100000D02*
X179200000Y-145300000D01*
X223670000Y-123850000D02*
X223670000Y-128440000D01*
%TO.N,Net-(J13-Pin_9)*%
X221130000Y-123850000D02*
X221130000Y-128440000D01*
%TO.N,Net-(J13-Pin_10)*%
X218590000Y-123850000D02*
X218590000Y-128440000D01*
%TO.N,Net-(J13-Pin_11)*%
X216050000Y-123850000D02*
X216050000Y-128440000D01*
%TO.N,Net-(J13-Pin_12)*%
X213510000Y-123850000D02*
X213510000Y-128440000D01*
%TO.N,/IO2_L*%
X210970000Y-123850000D02*
X210970000Y-128440000D01*
%TO.N,/IO3_L*%
X208430000Y-123850000D02*
X208430000Y-128440000D01*
%TO.N,/IO4_L*%
X205890000Y-123850000D02*
X205890000Y-128440000D01*
%TO.N,/IO5_L*%
X203350000Y-123850000D02*
X203350000Y-128440000D01*
%TO.N,/IO6_L*%
X200810000Y-123850000D02*
X200810000Y-128440000D01*
%TO.N,/~{RW_L}*%
X223024265Y-163424265D02*
X225124264Y-163424265D01*
X225124264Y-163424265D02*
X227360000Y-161188529D01*
X199420000Y-122700000D02*
X198270000Y-123850000D01*
X198270000Y-123850000D02*
X198270000Y-128440000D01*
X227360000Y-161188529D02*
X227360000Y-123373654D01*
X226686346Y-122700000D02*
X199420000Y-122700000D01*
X227360000Y-123373654D02*
X226686346Y-122700000D01*
%TO.N,/~{CE_L}*%
X195730000Y-123850000D02*
X195730000Y-128440000D01*
%TO.N,Net-(J13-Pin_20)*%
X193190000Y-123850000D02*
X193190000Y-128440000D01*
%TO.N,Net-(J13-Pin_21)*%
X190650000Y-123850000D02*
X190650000Y-128440000D01*
%TO.N,Net-(J13-Pin_22)*%
X188110000Y-123850000D02*
X188110000Y-128440000D01*
%TO.N,+5V*%
X38650000Y-148450000D02*
X38650000Y-173450000D01*
X38617024Y-25050000D02*
X38617024Y-48417024D01*
X38617024Y-123482976D02*
X38617024Y-148417024D01*
X38650000Y-48450000D02*
X38650000Y-73450000D01*
X38650000Y-123450000D02*
X38617024Y-123482976D01*
X38650000Y-73450000D02*
X38650000Y-98450000D01*
X38650000Y-98450000D02*
X38650000Y-123450000D01*
X38617024Y-148417024D02*
X38650000Y-148450000D01*
X38617024Y-48417024D02*
X38650000Y-48450000D01*
X38650000Y-173450000D02*
X38650000Y-198450000D01*
%TO.N,GND*%
X43550000Y-51750000D02*
X43550000Y-76750000D01*
X70459566Y-206899566D02*
X81600000Y-218040000D01*
X81940000Y-217700000D02*
X81600000Y-218040000D01*
X141400000Y-217700000D02*
X81940000Y-217700000D01*
X43550000Y-176750000D02*
X43550000Y-201750000D01*
X43550000Y-126750000D02*
X43550000Y-151750000D01*
X43517024Y-28450000D02*
X43317024Y-28650000D01*
X70459566Y-199129446D02*
X70459566Y-206899566D01*
X43550000Y-101750000D02*
X43550000Y-126750000D01*
X43550000Y-151750000D02*
X43550000Y-176750000D01*
X241025000Y-180500000D02*
X243645000Y-177880000D01*
X43317024Y-51517024D02*
X43550000Y-51750000D01*
X43317024Y-28650000D02*
X43317024Y-51517024D01*
X43550000Y-76750000D02*
X43550000Y-101750000D01*
X243645000Y-177880000D02*
X252725000Y-177880000D01*
%TO.N,Net-(D64-DOUT)*%
X32417024Y-201950000D02*
X32167024Y-202200000D01*
X-48132976Y-202200000D02*
X-50482976Y-204550000D01*
X32167024Y-202200000D02*
X-48132976Y-202200000D01*
%TO.N,/3.3v*%
X81940000Y-215160000D02*
X81600000Y-215500000D01*
X188090000Y-151340000D02*
X188090000Y-155930000D01*
X141400000Y-215160000D02*
X81940000Y-215160000D01*
%TO.N,/~{BUSY_L}*%
X195710000Y-151340000D02*
X195710000Y-155930000D01*
X195800000Y-173400000D02*
X195700000Y-173300000D01*
X222400000Y-173400000D02*
X195800000Y-173400000D01*
%TO.N,/~{INT_L}*%
X221700000Y-172800000D02*
X198200000Y-172800000D01*
X198250000Y-151340000D02*
X198250000Y-155930000D01*
%TO.N,/~{OE_L}*%
X220885421Y-172400000D02*
X201000000Y-172400000D01*
X221085421Y-172200000D02*
X220885421Y-172400000D01*
X201000000Y-172400000D02*
X200800000Y-172200000D01*
X200790000Y-151340000D02*
X200790000Y-155930000D01*
%TO.N,/A0_L*%
X203330000Y-151340000D02*
X203330000Y-155930000D01*
X203500000Y-172000000D02*
X203300000Y-171800000D01*
X220375000Y-171800000D02*
X220175000Y-172000000D01*
X220175000Y-172000000D02*
X203500000Y-172000000D01*
%TO.N,/A1_L*%
X216030000Y-151340000D02*
X216030000Y-155930000D01*
%TO.N,/A2_L*%
X219100000Y-166325000D02*
X219275000Y-166325000D01*
X223650000Y-151340000D02*
X223650000Y-155930000D01*
X219275000Y-166325000D02*
X223611092Y-161988908D01*
%TO.N,/5V*%
X216700000Y-181900000D02*
X223725000Y-181900000D01*
X238890000Y-151340000D02*
X238890000Y-155930000D01*
X209700000Y-181900000D02*
X216700000Y-181900000D01*
%TO.N,Net-(J15-Pin_2)*%
X190630000Y-151340000D02*
X190630000Y-155930000D01*
%TO.N,Net-(J15-Pin_3)*%
X193170000Y-151340000D02*
X193170000Y-155930000D01*
%TO.N,/A8_L*%
X205870000Y-151340000D02*
X205870000Y-155930000D01*
X213400000Y-171400000D02*
X205825000Y-171400000D01*
%TO.N,/A9_L*%
X212800000Y-170800000D02*
X207500000Y-170800000D01*
X208410000Y-151340000D02*
X208410000Y-155930000D01*
%TO.N,/IO0_L*%
X210950000Y-151340000D02*
X210950000Y-155930000D01*
X208900000Y-162645967D02*
X208900000Y-157980000D01*
X209354033Y-163100000D02*
X208900000Y-162645967D01*
X208900000Y-157980000D02*
X210950000Y-155930000D01*
X210100000Y-163100000D02*
X209354033Y-163100000D01*
%TO.N,/IO1_L*%
X209500000Y-159920000D02*
X213490000Y-155930000D01*
X213490000Y-151340000D02*
X213490000Y-155930000D01*
X209500000Y-162397438D02*
X209500000Y-159920000D01*
%TO.N,Net-(J15-Pin_13)*%
X218570000Y-151340000D02*
X218570000Y-155930000D01*
%TO.N,/SCL*%
X219870000Y-150100000D02*
X221110000Y-151340000D01*
X142700000Y-211320000D02*
X142700000Y-183600000D01*
X141400000Y-212620000D02*
X81940000Y-212620000D01*
X221110000Y-151340000D02*
X221110000Y-155930000D01*
X142700000Y-183600000D02*
X176200000Y-150100000D01*
X81940000Y-212620000D02*
X81600000Y-212960000D01*
X141400000Y-212620000D02*
X142700000Y-211320000D01*
X176200000Y-150100000D02*
X219870000Y-150100000D01*
%TO.N,/A3_L*%
X226190000Y-151340000D02*
X226190000Y-155930000D01*
X217300000Y-166325000D02*
X222236092Y-161388908D01*
X226088908Y-161388908D02*
X226200000Y-161500000D01*
X222236092Y-161388908D02*
X226088908Y-161388908D01*
%TO.N,/A4_L*%
X228730000Y-151340000D02*
X228730000Y-155930000D01*
X228600000Y-171200000D02*
X228700000Y-171300000D01*
X216200000Y-171200000D02*
X228600000Y-171200000D01*
X216000000Y-171400000D02*
X216200000Y-171200000D01*
%TO.N,/A5_L*%
X231141051Y-170541051D02*
X231200000Y-170600000D01*
X215658949Y-170541051D02*
X231141051Y-170541051D01*
X231270000Y-151340000D02*
X231270000Y-155930000D01*
X215400000Y-170800000D02*
X215658949Y-170541051D01*
%TO.N,/A6_L*%
X216383493Y-168616507D02*
X233816507Y-168616507D01*
X233810000Y-151340000D02*
X233810000Y-155930000D01*
X214700000Y-170300000D02*
X216383493Y-168616507D01*
%TO.N,/A7_L*%
X214100000Y-168300000D02*
X215475000Y-166925000D01*
X215475000Y-166925000D02*
X236300000Y-166925000D01*
X236350000Y-151340000D02*
X236350000Y-155930000D01*
%TO.N,Net-(J15-Pin_22)*%
X241430000Y-151340000D02*
X241430000Y-155930000D01*
%TO.N,Net-(D32-DOUT)*%
X-58882976Y-30517424D02*
X-52015552Y-23650000D01*
X-58882976Y-201750000D02*
X-58882976Y-30517424D01*
X-52015552Y-23650000D02*
X-31282976Y-23650000D01*
%TO.N,Net-(D24-DOUT)*%
X-83682976Y-30917424D02*
X-76215552Y-23450000D01*
X-83682976Y-201750000D02*
X-83682976Y-30917424D01*
X-76215552Y-23450000D02*
X-56450000Y-23450000D01*
%TO.N,Net-(D40-DOUT)*%
X-33682976Y-30917424D02*
X-26215552Y-23450000D01*
X-33682976Y-201450000D02*
X-33682976Y-30917424D01*
X-26215552Y-23450000D02*
X-6450000Y-23450000D01*
%TO.N,Net-(D48-DOUT)*%
X-8882976Y-201600000D02*
X-8882976Y-30517424D01*
X-1815552Y-23450000D02*
X18550000Y-23450000D01*
X-8882976Y-30517424D02*
X-1815552Y-23450000D01*
%TO.N,Net-(D1-DIN)*%
X-49632976Y-202400000D02*
X-49582976Y-202350000D01*
X-134182976Y-23650000D02*
X-134182976Y-201998529D01*
X-134182976Y-201998529D02*
X-133781505Y-202400000D01*
X-134082976Y-23550000D02*
X-134182976Y-23650000D01*
X-133781505Y-202400000D02*
X-49632976Y-202400000D01*
%TO.N,Net-(D8-DOUT)*%
X-133582976Y-201750000D02*
X-133582976Y-28150000D01*
X-128882976Y-23450000D02*
X-106450000Y-23450000D01*
X-133582976Y-28150000D02*
X-128882976Y-23450000D01*
%TO.N,Net-(D16-DOUT)*%
X-108882976Y-27850000D02*
X-104482976Y-23450000D01*
X-108882976Y-201600000D02*
X-108882976Y-27850000D01*
X-104482976Y-23450000D02*
X-81232976Y-23450000D01*
%TO.N,Net-(D56-DOUT)*%
X16117024Y-30567424D02*
X23234448Y-23450000D01*
X23234448Y-23450000D02*
X43550000Y-23450000D01*
X16117024Y-201600000D02*
X16117024Y-30567424D01*
%TD*%
M02*
