%TF.GenerationSoftware,KiCad,Pcbnew,10.0.1*%
%TF.CreationDate,2026-06-01T19:55:27+08:00*%
%TF.ProjectId,LED_RAM,4c45445f-5241-44d2-9e6b-696361645f70,rev?*%
%TF.SameCoordinates,Original*%
%TF.FileFunction,Copper,L1,Top*%
%TF.FilePolarity,Positive*%
%FSLAX46Y46*%
G04 Gerber Fmt 4.6, Leading zero omitted, Abs format (unit mm)*
G04 Created by KiCad (PCBNEW 10.0.1) date 2026-06-01 19:55:27*
%MOMM*%
%LPD*%
G01*
G04 APERTURE LIST*
G04 Aperture macros list*
%AMRoundRect*
0 Rectangle with rounded corners*
0 $1 Rounding radius*
0 $2 $3 $4 $5 $6 $7 $8 $9 X,Y pos of 4 corners*
0 Add a 4 corners polygon primitive as box body*
4,1,4,$2,$3,$4,$5,$6,$7,$8,$9,$2,$3,0*
0 Add four circle primitives for the rounded corners*
1,1,$1+$1,$2,$3*
1,1,$1+$1,$4,$5*
1,1,$1+$1,$6,$7*
1,1,$1+$1,$8,$9*
0 Add four rect primitives between the rounded corners*
20,1,$1+$1,$2,$3,$4,$5,0*
20,1,$1+$1,$4,$5,$6,$7,0*
20,1,$1+$1,$6,$7,$8,$9,0*
20,1,$1+$1,$8,$9,$2,$3,0*%
G04 Aperture macros list end*
%TA.AperFunction,ComponentPad*%
%ADD10R,1.700000X1.700000*%
%TD*%
%TA.AperFunction,ComponentPad*%
%ADD11C,1.700000*%
%TD*%
%TA.AperFunction,SMDPad,CuDef*%
%ADD12RoundRect,0.090000X-0.660000X-0.360000X0.660000X-0.360000X0.660000X0.360000X-0.660000X0.360000X0*%
%TD*%
%TA.AperFunction,SMDPad,CuDef*%
%ADD13RoundRect,0.100000X-0.100000X0.637500X-0.100000X-0.637500X0.100000X-0.637500X0.100000X0.637500X0*%
%TD*%
%TA.AperFunction,SMDPad,CuDef*%
%ADD14RoundRect,0.175000X0.425000X-0.175000X0.425000X0.175000X-0.425000X0.175000X-0.425000X-0.175000X0*%
%TD*%
%TA.AperFunction,SMDPad,CuDef*%
%ADD15RoundRect,0.190000X-0.410000X0.190000X-0.410000X-0.190000X0.410000X-0.190000X0.410000X0.190000X0*%
%TD*%
%TA.AperFunction,SMDPad,CuDef*%
%ADD16RoundRect,0.200000X-0.400000X0.200000X-0.400000X-0.200000X0.400000X-0.200000X0.400000X0.200000X0*%
%TD*%
%TA.AperFunction,SMDPad,CuDef*%
%ADD17RoundRect,0.175000X-0.425000X0.175000X-0.425000X-0.175000X0.425000X-0.175000X0.425000X0.175000X0*%
%TD*%
%TA.AperFunction,SMDPad,CuDef*%
%ADD18RoundRect,0.190000X0.410000X-0.190000X0.410000X0.190000X-0.410000X0.190000X-0.410000X-0.190000X0*%
%TD*%
%TA.AperFunction,SMDPad,CuDef*%
%ADD19RoundRect,0.200000X0.400000X-0.200000X0.400000X0.200000X-0.400000X0.200000X-0.400000X-0.200000X0*%
%TD*%
%TA.AperFunction,ComponentPad*%
%ADD20O,1.700000X1.100000*%
%TD*%
%TA.AperFunction,ComponentPad*%
%ADD21RoundRect,0.170000X0.680000X-0.680000X0.680000X0.680000X-0.680000X0.680000X-0.680000X-0.680000X0*%
%TD*%
%TA.AperFunction,ComponentPad*%
%ADD22C,1.600000*%
%TD*%
%TA.AperFunction,ComponentPad*%
%ADD23R,1.600000X1.600000*%
%TD*%
%TA.AperFunction,ComponentPad*%
%ADD24O,1.600000X1.600000*%
%TD*%
%TA.AperFunction,ViaPad*%
%ADD25C,0.600000*%
%TD*%
%TA.AperFunction,Conductor*%
%ADD26C,0.200000*%
%TD*%
G04 APERTURE END LIST*
D10*
%TO.P,J13,1,Pin_1_1*%
%TO.N,Net-(J13-Pin_1)*%
X241450000Y-123850000D03*
D11*
%TO.P,J13,2,Pin_2_2*%
%TO.N,Net-(J13-Pin_2)*%
X238910000Y-123850000D03*
%TO.P,J13,3,Pin_3_3*%
%TO.N,Net-(J13-Pin_3)*%
X236370000Y-123850000D03*
%TO.P,J13,4,Pin_4_4*%
%TO.N,Net-(J13-Pin_4)*%
X233830000Y-123850000D03*
%TO.P,J13,5,Pin_5_5*%
%TO.N,Net-(J13-Pin_5)*%
X231290000Y-123850000D03*
%TO.P,J13,6,Pin_6_6*%
%TO.N,/IO7_L*%
X228750000Y-123850000D03*
%TO.P,J13,7,Pin_7_7*%
%TO.N,Net-(J13-Pin_7)*%
X226210000Y-123850000D03*
%TO.P,J13,8,Pin_8_8*%
%TO.N,/SDA*%
X223670000Y-123850000D03*
%TO.P,J13,9,Pin_9_9*%
%TO.N,Net-(J13-Pin_9)*%
X221130000Y-123850000D03*
%TO.P,J13,10,Pin_10_10*%
%TO.N,Net-(J13-Pin_10)*%
X218590000Y-123850000D03*
%TO.P,J13,11,Pin_11_11*%
%TO.N,Net-(J13-Pin_11)*%
X216050000Y-123850000D03*
%TO.P,J13,12,Pin_12_12*%
%TO.N,Net-(J13-Pin_12)*%
X213510000Y-123850000D03*
%TO.P,J13,13,Pin_13_13*%
%TO.N,/IO2_L*%
X210970000Y-123850000D03*
%TO.P,J13,14,Pin_14_14*%
%TO.N,/IO3_L*%
X208430000Y-123850000D03*
%TO.P,J13,15,Pin_15_15*%
%TO.N,/IO4_L*%
X205890000Y-123850000D03*
%TO.P,J13,16,Pin_16_16*%
%TO.N,/IO5_L*%
X203350000Y-123850000D03*
%TO.P,J13,17,Pin_17_17*%
%TO.N,/IO6_L*%
X200810000Y-123850000D03*
%TO.P,J13,18,Pin_18_18*%
%TO.N,/~{RW_L}*%
X198270000Y-123850000D03*
%TO.P,J13,19,Pin_19_19*%
%TO.N,/~{CE_L}*%
X195730000Y-123850000D03*
%TO.P,J13,20,Pin_20_20*%
%TO.N,Net-(J13-Pin_20)*%
X193190000Y-123850000D03*
%TO.P,J13,21,Pin_21_21*%
%TO.N,Net-(J13-Pin_21)*%
X190650000Y-123850000D03*
%TO.P,J13,22,Pin_22_22*%
%TO.N,Net-(J13-Pin_22)*%
X188110000Y-123850000D03*
%TD*%
D10*
%TO.P,J6,1,Pin_1_1*%
%TO.N,Net-(J6-Pin_1)*%
X206300000Y-216100000D03*
D11*
%TO.P,J6,2,Pin_2_2*%
%TO.N,Net-(J6-Pin_2)*%
X208840000Y-216100000D03*
%TO.P,J6,3,Pin_3_3*%
%TO.N,Net-(J6-Pin_3)*%
X211380000Y-216100000D03*
%TO.P,J6,4,Pin_4_4*%
%TO.N,Net-(J6-Pin_4)*%
X213920000Y-216100000D03*
%TO.P,J6,5,Pin_5_5*%
%TO.N,Net-(J6-Pin_5)*%
X216460000Y-216100000D03*
%TO.P,J6,6,Pin_6_6*%
%TO.N,Net-(J6-Pin_6)*%
X219000000Y-216100000D03*
%TO.P,J6,7,Pin_7_7*%
%TO.N,Net-(J6-Pin_7)*%
X221540000Y-216100000D03*
%TO.P,J6,8,Pin_8_8*%
%TO.N,Net-(J6-Pin_8)*%
X224080000Y-216100000D03*
%TO.P,J6,9,Pin_9_9*%
%TO.N,Net-(J6-Pin_9)*%
X226620000Y-216100000D03*
%TO.P,J6,10,Pin_10_10*%
%TO.N,Net-(J6-Pin_10)*%
X229160000Y-216100000D03*
%TD*%
D12*
%TO.P,D4,1,VDD_1*%
%TO.N,+5V*%
X-135982976Y-98450000D03*
%TO.P,D4,2,DOUT_2*%
%TO.N,Net-(D4-DOUT)*%
X-135982976Y-101750000D03*
%TO.P,D4,3,VSS_3*%
%TO.N,GND*%
X-131082976Y-101750000D03*
%TO.P,D4,4,DIN_4*%
%TO.N,Net-(D3-DOUT)*%
X-131082976Y-98450000D03*
%TD*%
D10*
%TO.P,J2,1,Pin_1_1*%
%TO.N,+5V*%
X46417024Y-200150000D03*
%TD*%
D12*
%TO.P,D36,1,VDD_1*%
%TO.N,+5V*%
X-36182976Y-98650000D03*
%TO.P,D36,2,DOUT_2*%
%TO.N,Net-(D36-DOUT)*%
X-36182976Y-101950000D03*
%TO.P,D36,3,VSS_3*%
%TO.N,GND*%
X-31282976Y-101950000D03*
%TO.P,D36,4,DIN_4*%
%TO.N,Net-(D35-DOUT)*%
X-31282976Y-98650000D03*
%TD*%
%TO.P,D59,1,VDD_1*%
%TO.N,+5V*%
X38650000Y-73450000D03*
%TO.P,D59,2,DOUT_2*%
%TO.N,Net-(D59-DOUT)*%
X38650000Y-76750000D03*
%TO.P,D59,3,VSS_3*%
%TO.N,GND*%
X43550000Y-76750000D03*
%TO.P,D59,4,DIN_4*%
%TO.N,Net-(D58-DOUT)*%
X43550000Y-73450000D03*
%TD*%
%TO.P,D64,1,VDD_1*%
%TO.N,+5V*%
X38650000Y-198450000D03*
%TO.P,D64,2,DOUT_2*%
%TO.N,Net-(D64-DOUT)*%
X38650000Y-201750000D03*
%TO.P,D64,3,VSS_3*%
%TO.N,GND*%
X43550000Y-201750000D03*
%TO.P,D64,4,DIN_4*%
%TO.N,Net-(D63-DOUT)*%
X43550000Y-198450000D03*
%TD*%
D13*
%TO.P,U5,1,A1_1*%
%TO.N,/~{CE_L}*%
X224325000Y-174537500D03*
%TO.P,U5,2,VCCA_2*%
%TO.N,/3.3v*%
X223675000Y-174537500D03*
%TO.P,U5,3,A2_3*%
%TO.N,/~{RW_L}*%
X223025000Y-174537500D03*
%TO.P,U5,4,A3_4*%
%TO.N,/~{BUSY_L}*%
X222375000Y-174537500D03*
%TO.P,U5,5,A4_5*%
%TO.N,/~{INT_L}*%
X221725000Y-174537500D03*
%TO.P,U5,6,A5_6*%
%TO.N,/~{OE_L}*%
X221075000Y-174537500D03*
%TO.P,U5,7,A6_7*%
%TO.N,/A0_L*%
X220425000Y-174537500D03*
%TO.P,U5,8,A7_8*%
%TO.N,/A1_L*%
X219775000Y-174537500D03*
%TO.P,U5,9,A8_9*%
%TO.N,/A2_L*%
X219125000Y-174537500D03*
%TO.P,U5,10,OE_10*%
%TO.N,/3.3v*%
X218475000Y-174537500D03*
%TO.P,U5,11,GND_11*%
%TO.N,GND*%
X218475000Y-180262500D03*
%TO.P,U5,12,B8_12*%
%TO.N,Net-(U3-A2_L)*%
X219125000Y-180262500D03*
%TO.P,U5,13,B7_13*%
%TO.N,Net-(U3-A1_L)*%
X219775000Y-180262500D03*
%TO.P,U5,14,B6_14*%
%TO.N,Net-(U3-A0_L)*%
X220425000Y-180262500D03*
%TO.P,U5,15,B5_15*%
%TO.N,Net-(U3-~{OE_L})*%
X221075000Y-180262500D03*
%TO.P,U5,16,B4_16*%
%TO.N,Net-(U3-~{INT_L})*%
X221725000Y-180262500D03*
%TO.P,U5,17,B3_17*%
%TO.N,Net-(U3-~{BUSY_L})*%
X222375000Y-180262500D03*
%TO.P,U5,18,B2_18*%
%TO.N,Net-(U3-~{RW_L})*%
X223025000Y-180262500D03*
%TO.P,U5,19,VCCB_19*%
%TO.N,/5V*%
X223675000Y-180262500D03*
%TO.P,U5,20,B1_20*%
%TO.N,Net-(U3-~{CE_L})*%
X224325000Y-180262500D03*
%TD*%
D10*
%TO.P,J16,1,Pin_1_1*%
%TO.N,/3.3v*%
X188090000Y-151340000D03*
D11*
%TO.P,J16,2,Pin_2_2*%
%TO.N,Net-(J15-Pin_2)*%
X190630000Y-151340000D03*
%TO.P,J16,3,Pin_3_3*%
%TO.N,Net-(J15-Pin_3)*%
X193170000Y-151340000D03*
%TO.P,J16,4,Pin_4_4*%
%TO.N,/~{BUSY_L}*%
X195710000Y-151340000D03*
%TO.P,J16,5,Pin_5_5*%
%TO.N,/~{INT_L}*%
X198250000Y-151340000D03*
%TO.P,J16,6,Pin_6_6*%
%TO.N,/~{OE_L}*%
X200790000Y-151340000D03*
%TO.P,J16,7,Pin_7_7*%
%TO.N,/A0_L*%
X203330000Y-151340000D03*
%TO.P,J16,8,Pin_8_8*%
%TO.N,/A8_L*%
X205870000Y-151340000D03*
%TO.P,J16,9,Pin_9_9*%
%TO.N,/A9_L*%
X208410000Y-151340000D03*
%TO.P,J16,10,Pin_10_10*%
%TO.N,/IO0_L*%
X210950000Y-151340000D03*
%TO.P,J16,11,Pin_11_11*%
%TO.N,/IO1_L*%
X213490000Y-151340000D03*
%TO.P,J16,12,Pin_12_12*%
%TO.N,/A1_L*%
X216030000Y-151340000D03*
%TO.P,J16,13,Pin_13_13*%
%TO.N,Net-(J15-Pin_13)*%
X218570000Y-151340000D03*
%TO.P,J16,14,Pin_14_14*%
%TO.N,/SCL*%
X221110000Y-151340000D03*
%TO.P,J16,15,Pin_15_15*%
%TO.N,/A2_L*%
X223650000Y-151340000D03*
%TO.P,J16,16,Pin_16_16*%
%TO.N,/A3_L*%
X226190000Y-151340000D03*
%TO.P,J16,17,Pin_17_17*%
%TO.N,/A4_L*%
X228730000Y-151340000D03*
%TO.P,J16,18,Pin_18_18*%
%TO.N,/A5_L*%
X231270000Y-151340000D03*
%TO.P,J16,19,Pin_19_19*%
%TO.N,/A6_L*%
X233810000Y-151340000D03*
%TO.P,J16,20,Pin_20_20*%
%TO.N,/A7_L*%
X236350000Y-151340000D03*
%TO.P,J16,21,Pin_21_21*%
%TO.N,/5V*%
X238890000Y-151340000D03*
%TO.P,J16,22,Pin_22_22*%
%TO.N,Net-(J15-Pin_22)*%
X241430000Y-151340000D03*
%TD*%
D10*
%TO.P,J5,1,Pin_1_1*%
%TO.N,Net-(J5-Pin_1)*%
X232720000Y-216100000D03*
D11*
%TO.P,J5,2,Pin_2_2*%
%TO.N,Net-(J5-Pin_2)*%
X235260000Y-216100000D03*
%TO.P,J5,3,Pin_3_3*%
%TO.N,Net-(J5-Pin_3)*%
X237800000Y-216100000D03*
%TO.P,J5,4,Pin_4_4*%
%TO.N,Net-(J5-Pin_4)*%
X240340000Y-216100000D03*
%TO.P,J5,5,Pin_5_5*%
%TO.N,Net-(J5-Pin_5)*%
X242880000Y-216100000D03*
%TD*%
D12*
%TO.P,D32,1,VDD_1*%
%TO.N,+5V*%
X-61350000Y-198450000D03*
%TO.P,D32,2,DOUT_2*%
%TO.N,Net-(D32-DOUT)*%
X-61350000Y-201750000D03*
%TO.P,D32,3,VSS_3*%
%TO.N,GND*%
X-56450000Y-201750000D03*
%TO.P,D32,4,DIN_4*%
%TO.N,Net-(D31-DOUT)*%
X-56450000Y-198450000D03*
%TD*%
%TO.P,D18,1,VDD_1*%
%TO.N,+5V*%
X-86132976Y-48450000D03*
%TO.P,D18,2,DOUT_2*%
%TO.N,Net-(D18-DOUT)*%
X-86132976Y-51750000D03*
%TO.P,D18,3,VSS_3*%
%TO.N,GND*%
X-81232976Y-51750000D03*
%TO.P,D18,4,DIN_4*%
%TO.N,Net-(D17-DOUT)*%
X-81232976Y-48450000D03*
%TD*%
%TO.P,D27,1,VDD_1*%
%TO.N,+5V*%
X-61350000Y-73450000D03*
%TO.P,D27,2,DOUT_2*%
%TO.N,Net-(D27-DOUT)*%
X-61350000Y-76750000D03*
%TO.P,D27,3,VSS_3*%
%TO.N,GND*%
X-56450000Y-76750000D03*
%TO.P,D27,4,DIN_4*%
%TO.N,Net-(D26-DOUT)*%
X-56450000Y-73450000D03*
%TD*%
D10*
%TO.P,J15,1,Pin_1_1*%
%TO.N,/3.3v*%
X188090000Y-155930000D03*
D11*
%TO.P,J15,2,Pin_2_2*%
%TO.N,Net-(J15-Pin_2)*%
X190630000Y-155930000D03*
%TO.P,J15,3,Pin_3_3*%
%TO.N,Net-(J15-Pin_3)*%
X193170000Y-155930000D03*
%TO.P,J15,4,Pin_4_4*%
%TO.N,/~{BUSY_L}*%
X195710000Y-155930000D03*
%TO.P,J15,5,Pin_5_5*%
%TO.N,/~{INT_L}*%
X198250000Y-155930000D03*
%TO.P,J15,6,Pin_6_6*%
%TO.N,/~{OE_L}*%
X200790000Y-155930000D03*
%TO.P,J15,7,Pin_7_7*%
%TO.N,/A0_L*%
X203330000Y-155930000D03*
%TO.P,J15,8,Pin_8_8*%
%TO.N,/A8_L*%
X205870000Y-155930000D03*
%TO.P,J15,9,Pin_9_9*%
%TO.N,/A9_L*%
X208410000Y-155930000D03*
%TO.P,J15,10,Pin_10_10*%
%TO.N,/IO0_L*%
X210950000Y-155930000D03*
%TO.P,J15,11,Pin_11_11*%
%TO.N,/IO1_L*%
X213490000Y-155930000D03*
%TO.P,J15,12,Pin_12_12*%
%TO.N,/A1_L*%
X216030000Y-155930000D03*
%TO.P,J15,13,Pin_13_13*%
%TO.N,Net-(J15-Pin_13)*%
X218570000Y-155930000D03*
%TO.P,J15,14,Pin_14_14*%
%TO.N,/SCL*%
X221110000Y-155930000D03*
%TO.P,J15,15,Pin_15_15*%
%TO.N,/A2_L*%
X223650000Y-155930000D03*
%TO.P,J15,16,Pin_16_16*%
%TO.N,/A3_L*%
X226190000Y-155930000D03*
%TO.P,J15,17,Pin_17_17*%
%TO.N,/A4_L*%
X228730000Y-155930000D03*
%TO.P,J15,18,Pin_18_18*%
%TO.N,/A5_L*%
X231270000Y-155930000D03*
%TO.P,J15,19,Pin_19_19*%
%TO.N,/A6_L*%
X233810000Y-155930000D03*
%TO.P,J15,20,Pin_20_20*%
%TO.N,/A7_L*%
X236350000Y-155930000D03*
%TO.P,J15,21,Pin_21_21*%
%TO.N,/5V*%
X238890000Y-155930000D03*
%TO.P,J15,22,Pin_22_22*%
%TO.N,Net-(J15-Pin_22)*%
X241430000Y-155930000D03*
%TD*%
D12*
%TO.P,D24,1,VDD_1*%
%TO.N,+5V*%
X-86132976Y-198450000D03*
%TO.P,D24,2,DOUT_2*%
%TO.N,Net-(D24-DOUT)*%
X-86132976Y-201750000D03*
%TO.P,D24,3,VSS_3*%
%TO.N,GND*%
X-81232976Y-201750000D03*
%TO.P,D24,4,DIN_4*%
%TO.N,Net-(D23-DOUT)*%
X-81232976Y-198450000D03*
%TD*%
D14*
%TO.P,J10,A5,CC1_A5*%
%TO.N,Net-(J10-CC1)*%
X252645000Y-182700000D03*
D15*
%TO.P,J10,A9,VBUS_A9*%
%TO.N,/5V*%
X252645000Y-180680000D03*
D16*
%TO.P,J10,A12,GND_A12*%
%TO.N,GND*%
X252645000Y-179450000D03*
D17*
%TO.P,J10,B5,CC2_B5*%
%TO.N,Net-(J10-CC2)*%
X252645000Y-181700000D03*
D18*
%TO.P,J10,B9,VBUS_B9*%
%TO.N,/5V*%
X252645000Y-183720000D03*
D19*
%TO.P,J10,B12,GND_B12*%
%TO.N,GND*%
X252645000Y-184950000D03*
D20*
%TO.P,J10,SH,SHIELD_SH*%
X252725000Y-186520000D03*
X256525000Y-186520000D03*
X252725000Y-177880000D03*
X256525000Y-177880000D03*
%TD*%
D12*
%TO.P,D11,1,VDD_1*%
%TO.N,+5V*%
X-111350000Y-73450000D03*
%TO.P,D11,2,DOUT_2*%
%TO.N,Net-(D11-DOUT)*%
X-111350000Y-76750000D03*
%TO.P,D11,3,VSS_3*%
%TO.N,GND*%
X-106450000Y-76750000D03*
%TO.P,D11,4,DIN_4*%
%TO.N,Net-(D10-DOUT)*%
X-106450000Y-73450000D03*
%TD*%
%TO.P,D40,1,VDD_1*%
%TO.N,+5V*%
X-36182976Y-198650000D03*
%TO.P,D40,2,DOUT_2*%
%TO.N,Net-(D40-DOUT)*%
X-36182976Y-201950000D03*
%TO.P,D40,3,VSS_3*%
%TO.N,GND*%
X-31282976Y-201950000D03*
%TO.P,D40,4,DIN_4*%
%TO.N,Net-(D39-DOUT)*%
X-31282976Y-198650000D03*
%TD*%
%TO.P,D19,1,VDD_1*%
%TO.N,+5V*%
X-86132976Y-73450000D03*
%TO.P,D19,2,DOUT_2*%
%TO.N,Net-(D19-DOUT)*%
X-86132976Y-76750000D03*
%TO.P,D19,3,VSS_3*%
%TO.N,GND*%
X-81232976Y-76750000D03*
%TO.P,D19,4,DIN_4*%
%TO.N,Net-(D18-DOUT)*%
X-81232976Y-73450000D03*
%TD*%
D10*
%TO.P,J9,1,Pin_1_1*%
%TO.N,/5V*%
X255359566Y-23829446D03*
%TD*%
D12*
%TO.P,D43,1,VDD_1*%
%TO.N,+5V*%
X-11350000Y-73450000D03*
%TO.P,D43,2,DOUT_2*%
%TO.N,Net-(D43-DOUT)*%
X-11350000Y-76750000D03*
%TO.P,D43,3,VSS_3*%
%TO.N,GND*%
X-6450000Y-76750000D03*
%TO.P,D43,4,DIN_4*%
%TO.N,Net-(D42-DOUT)*%
X-6450000Y-73450000D03*
%TD*%
%TO.P,D44,1,VDD_1*%
%TO.N,+5V*%
X-11350000Y-98450000D03*
%TO.P,D44,2,DOUT_2*%
%TO.N,Net-(D44-DOUT)*%
X-11350000Y-101750000D03*
%TO.P,D44,3,VSS_3*%
%TO.N,GND*%
X-6450000Y-101750000D03*
%TO.P,D44,4,DIN_4*%
%TO.N,Net-(D43-DOUT)*%
X-6450000Y-98450000D03*
%TD*%
%TO.P,D48,1,VDD_1*%
%TO.N,+5V*%
X-11350000Y-198450000D03*
%TO.P,D48,2,DOUT_2*%
%TO.N,Net-(D48-DOUT)*%
X-11350000Y-201750000D03*
%TO.P,D48,3,VSS_3*%
%TO.N,GND*%
X-6450000Y-201750000D03*
%TO.P,D48,4,DIN_4*%
%TO.N,Net-(D47-DOUT)*%
X-6450000Y-198450000D03*
%TD*%
%TO.P,D47,1,VDD_1*%
%TO.N,+5V*%
X-11350000Y-173450000D03*
%TO.P,D47,2,DOUT_2*%
%TO.N,Net-(D47-DOUT)*%
X-11350000Y-176750000D03*
%TO.P,D47,3,VSS_3*%
%TO.N,GND*%
X-6450000Y-176750000D03*
%TO.P,D47,4,DIN_4*%
%TO.N,Net-(D46-DOUT)*%
X-6450000Y-173450000D03*
%TD*%
%TO.P,D54,1,VDD_1*%
%TO.N,+5V*%
X13650000Y-148450000D03*
%TO.P,D54,2,DOUT_2*%
%TO.N,Net-(D54-DOUT)*%
X13650000Y-151750000D03*
%TO.P,D54,3,VSS_3*%
%TO.N,GND*%
X18550000Y-151750000D03*
%TO.P,D54,4,DIN_4*%
%TO.N,Net-(D53-DOUT)*%
X18550000Y-148450000D03*
%TD*%
%TO.P,D21,1,VDD_1*%
%TO.N,+5V*%
X-86132976Y-123450000D03*
%TO.P,D21,2,DOUT_2*%
%TO.N,Net-(D21-DOUT)*%
X-86132976Y-126750000D03*
%TO.P,D21,3,VSS_3*%
%TO.N,GND*%
X-81232976Y-126750000D03*
%TO.P,D21,4,DIN_4*%
%TO.N,Net-(D20-DOUT)*%
X-81232976Y-123450000D03*
%TD*%
D10*
%TO.P,J1,1,Pin_1_1*%
%TO.N,Net-(D1-DIN)*%
X-46882976Y-204550000D03*
%TD*%
%TO.P,J8,1,Pin_1_1*%
%TO.N,GND*%
X70459566Y-199129446D03*
%TD*%
D12*
%TO.P,D9,1,VDD_1*%
%TO.N,+5V*%
X-111350000Y-23450000D03*
%TO.P,D9,2,DOUT_2*%
%TO.N,Net-(D10-DIN)*%
X-111350000Y-26750000D03*
%TO.P,D9,3,VSS_3*%
%TO.N,GND*%
X-106450000Y-26750000D03*
%TO.P,D9,4,DIN_4*%
%TO.N,Net-(D8-DOUT)*%
X-106450000Y-23450000D03*
%TD*%
%TO.P,D50,1,VDD_1*%
%TO.N,+5V*%
X13650000Y-48450000D03*
%TO.P,D50,2,DOUT_2*%
%TO.N,Net-(D50-DOUT)*%
X13650000Y-51750000D03*
%TO.P,D50,3,VSS_3*%
%TO.N,GND*%
X18550000Y-51750000D03*
%TO.P,D50,4,DIN_4*%
%TO.N,Net-(D49-DOUT)*%
X18550000Y-48450000D03*
%TD*%
%TO.P,D35,1,VDD_1*%
%TO.N,+5V*%
X-36182976Y-73650000D03*
%TO.P,D35,2,DOUT_2*%
%TO.N,Net-(D35-DOUT)*%
X-36182976Y-76950000D03*
%TO.P,D35,3,VSS_3*%
%TO.N,GND*%
X-31282976Y-76950000D03*
%TO.P,D35,4,DIN_4*%
%TO.N,Net-(D34-DOUT)*%
X-31282976Y-73650000D03*
%TD*%
%TO.P,D42,1,VDD_1*%
%TO.N,+5V*%
X-11350000Y-48450000D03*
%TO.P,D42,2,DOUT_2*%
%TO.N,Net-(D42-DOUT)*%
X-11350000Y-51750000D03*
%TO.P,D42,3,VSS_3*%
%TO.N,GND*%
X-6450000Y-51750000D03*
%TO.P,D42,4,DIN_4*%
%TO.N,Net-(D41-DOUT)*%
X-6450000Y-48450000D03*
%TD*%
%TO.P,D60,1,VDD_1*%
%TO.N,+5V*%
X38650000Y-98450000D03*
%TO.P,D60,2,DOUT_2*%
%TO.N,Net-(D60-DOUT)*%
X38650000Y-101750000D03*
%TO.P,D60,3,VSS_3*%
%TO.N,GND*%
X43550000Y-101750000D03*
%TO.P,D60,4,DIN_4*%
%TO.N,Net-(D59-DOUT)*%
X43550000Y-98450000D03*
%TD*%
%TO.P,D3,1,VDD_1*%
%TO.N,+5V*%
X-136032976Y-73500000D03*
%TO.P,D3,2,DOUT_2*%
%TO.N,Net-(D3-DOUT)*%
X-136032976Y-76800000D03*
%TO.P,D3,3,VSS_3*%
%TO.N,GND*%
X-131132976Y-76800000D03*
%TO.P,D3,4,DIN_4*%
%TO.N,Net-(D2-DOUT)*%
X-131132976Y-73500000D03*
%TD*%
D10*
%TO.P,J3,1,Pin_1_1*%
%TO.N,GND*%
X-138682976Y-25250000D03*
%TD*%
%TO.P,J2,1,Pin_1_1*%
%TO.N,+5V*%
X46317024Y-25050000D03*
%TD*%
%TO.P,J7,1,Pin_1_1*%
%TO.N,Net-(J13-Pin_7)*%
X162159566Y-203329446D03*
%TD*%
D21*
%TO.P,U2,1,GND_1*%
%TO.N,GND*%
X141400000Y-217700000D03*
D11*
%TO.P,U2,2,VCC_2*%
%TO.N,/3.3v*%
X141400000Y-215160000D03*
%TO.P,U2,3,SCL_3*%
%TO.N,/SCL*%
X141400000Y-212620000D03*
%TO.P,U2,4,SDA_4*%
%TO.N,/SDA*%
X141400000Y-210080000D03*
%TD*%
D12*
%TO.P,D45,1,VDD_1*%
%TO.N,+5V*%
X-11350000Y-123450000D03*
%TO.P,D45,2,DOUT_2*%
%TO.N,Net-(D45-DOUT)*%
X-11350000Y-126750000D03*
%TO.P,D45,3,VSS_3*%
%TO.N,GND*%
X-6450000Y-126750000D03*
%TO.P,D45,4,DIN_4*%
%TO.N,Net-(D44-DOUT)*%
X-6450000Y-123450000D03*
%TD*%
%TO.P,D30,1,VDD_1*%
%TO.N,+5V*%
X-61350000Y-148450000D03*
%TO.P,D30,2,DOUT_2*%
%TO.N,Net-(D30-DOUT)*%
X-61350000Y-151750000D03*
%TO.P,D30,3,VSS_3*%
%TO.N,GND*%
X-56450000Y-151750000D03*
%TO.P,D30,4,DIN_4*%
%TO.N,Net-(D29-DOUT)*%
X-56450000Y-148450000D03*
%TD*%
%TO.P,D23,1,VDD_1*%
%TO.N,+5V*%
X-86132976Y-173450000D03*
%TO.P,D23,2,DOUT_2*%
%TO.N,Net-(D23-DOUT)*%
X-86132976Y-176750000D03*
%TO.P,D23,3,VSS_3*%
%TO.N,GND*%
X-81232976Y-176750000D03*
%TO.P,D23,4,DIN_4*%
%TO.N,Net-(D22-DOUT)*%
X-81232976Y-173450000D03*
%TD*%
%TO.P,D12,1,VDD_1*%
%TO.N,+5V*%
X-111350000Y-98450000D03*
%TO.P,D12,2,DOUT_2*%
%TO.N,Net-(D12-DOUT)*%
X-111350000Y-101750000D03*
%TO.P,D12,3,VSS_3*%
%TO.N,GND*%
X-106450000Y-101750000D03*
%TO.P,D12,4,DIN_4*%
%TO.N,Net-(D11-DOUT)*%
X-106450000Y-98450000D03*
%TD*%
D10*
%TO.P,J12,1,Pin_1_1*%
%TO.N,Net-(J12-Pin_1)*%
X184980000Y-216100000D03*
D11*
%TO.P,J12,2,Pin_2_2*%
%TO.N,Net-(J12-Pin_2)*%
X187520000Y-216100000D03*
%TO.P,J12,3,Pin_3_3*%
%TO.N,Net-(J12-Pin_3)*%
X190060000Y-216100000D03*
%TO.P,J12,4,Pin_4_4*%
%TO.N,Net-(J12-Pin_4)*%
X192600000Y-216100000D03*
%TO.P,J12,5,Pin_5_5*%
%TO.N,Net-(J12-Pin_5)*%
X195140000Y-216100000D03*
%TO.P,J12,6,Pin_6_6*%
%TO.N,Net-(J12-Pin_6)*%
X197680000Y-216100000D03*
%TO.P,J12,7,Pin_7_7*%
%TO.N,Net-(J12-Pin_7)*%
X200220000Y-216100000D03*
%TO.P,J12,8,Pin_8_8*%
%TO.N,Net-(J12-Pin_8)*%
X202760000Y-216100000D03*
%TD*%
D12*
%TO.P,D16,1,VDD_1*%
%TO.N,+5V*%
X-111350000Y-198450000D03*
%TO.P,D16,2,DOUT_2*%
%TO.N,Net-(D16-DOUT)*%
X-111350000Y-201750000D03*
%TO.P,D16,3,VSS_3*%
%TO.N,GND*%
X-106450000Y-201750000D03*
%TO.P,D16,4,DIN_4*%
%TO.N,Net-(D15-DOUT)*%
X-106450000Y-198450000D03*
%TD*%
%TO.P,D25,1,VDD_1*%
%TO.N,+5V*%
X-61350000Y-23450000D03*
%TO.P,D25,2,DOUT_2*%
%TO.N,Net-(D25-DOUT)*%
X-61350000Y-26750000D03*
%TO.P,D25,3,VSS_3*%
%TO.N,GND*%
X-56450000Y-26750000D03*
%TO.P,D25,4,DIN_4*%
%TO.N,Net-(D24-DOUT)*%
X-56450000Y-23450000D03*
%TD*%
%TO.P,D33,1,VDD_1*%
%TO.N,+5V*%
X-36182976Y-23650000D03*
%TO.P,D33,2,DOUT_2*%
%TO.N,Net-(D33-DOUT)*%
X-36182976Y-26950000D03*
%TO.P,D33,3,VSS_3*%
%TO.N,GND*%
X-31282976Y-26950000D03*
%TO.P,D33,4,DIN_4*%
%TO.N,Net-(D32-DOUT)*%
X-31282976Y-23650000D03*
%TD*%
D13*
%TO.P,U7,1,A1_1*%
%TO.N,/IO0_L*%
X210325000Y-174537500D03*
%TO.P,U7,2,VCCA_2*%
%TO.N,/3.3v*%
X209675000Y-174537500D03*
%TO.P,U7,3,A2_3*%
%TO.N,/IO1_L*%
X209025000Y-174537500D03*
%TO.P,U7,4,A3_4*%
%TO.N,/IO2_L*%
X208375000Y-174537500D03*
%TO.P,U7,5,A4_5*%
%TO.N,/IO3_L*%
X207725000Y-174537500D03*
%TO.P,U7,6,A5_6*%
%TO.N,/IO4_L*%
X207075000Y-174537500D03*
%TO.P,U7,7,A6_7*%
%TO.N,/IO5_L*%
X206425000Y-174537500D03*
%TO.P,U7,8,A7_8*%
%TO.N,/IO6_L*%
X205775000Y-174537500D03*
%TO.P,U7,9,A8_9*%
%TO.N,/IO7_L*%
X205125000Y-174537500D03*
%TO.P,U7,10,OE_10*%
%TO.N,/3.3v*%
X204475000Y-174537500D03*
%TO.P,U7,11,GND_11*%
%TO.N,GND*%
X204475000Y-180262500D03*
%TO.P,U7,12,B8_12*%
%TO.N,Net-(U3-IO7_L)*%
X205125000Y-180262500D03*
%TO.P,U7,13,B7_13*%
%TO.N,Net-(U3-IO6_L)*%
X205775000Y-180262500D03*
%TO.P,U7,14,B6_14*%
%TO.N,Net-(U3-IO5_L)*%
X206425000Y-180262500D03*
%TO.P,U7,15,B5_15*%
%TO.N,Net-(U3-IO4_L)*%
X207075000Y-180262500D03*
%TO.P,U7,16,B4_16*%
%TO.N,Net-(U3-IO3_L)*%
X207725000Y-180262500D03*
%TO.P,U7,17,B3_17*%
%TO.N,Net-(U3-IO2_L)*%
X208375000Y-180262500D03*
%TO.P,U7,18,B2_18*%
%TO.N,Net-(U3-IO1_L)*%
X209025000Y-180262500D03*
%TO.P,U7,19,VCCB_19*%
%TO.N,/5V*%
X209675000Y-180262500D03*
%TO.P,U7,20,B1_20*%
%TO.N,Net-(U3-IO0_L)*%
X210325000Y-180262500D03*
%TD*%
D22*
%TO.P,R1,1*%
%TO.N,GND*%
X241025000Y-180500000D03*
%TO.P,R1,2*%
%TO.N,Net-(J10-CC2)*%
X248645000Y-180500000D03*
%TD*%
D12*
%TO.P,D56,1,VDD_1*%
%TO.N,+5V*%
X13650000Y-198450000D03*
%TO.P,D56,2,DOUT_2*%
%TO.N,Net-(D56-DOUT)*%
X13650000Y-201750000D03*
%TO.P,D56,3,VSS_3*%
%TO.N,GND*%
X18550000Y-201750000D03*
%TO.P,D56,4,DIN_4*%
%TO.N,Net-(D55-DOUT)*%
X18550000Y-198450000D03*
%TD*%
%TO.P,D39,1,VDD_1*%
%TO.N,+5V*%
X-36182976Y-173650000D03*
%TO.P,D39,2,DOUT_2*%
%TO.N,Net-(D39-DOUT)*%
X-36182976Y-176950000D03*
%TO.P,D39,3,VSS_3*%
%TO.N,GND*%
X-31282976Y-176950000D03*
%TO.P,D39,4,DIN_4*%
%TO.N,Net-(D38-DOUT)*%
X-31282976Y-173650000D03*
%TD*%
%TO.P,D51,1,VDD_1*%
%TO.N,+5V*%
X13650000Y-73450000D03*
%TO.P,D51,2,DOUT_2*%
%TO.N,Net-(D51-DOUT)*%
X13650000Y-76750000D03*
%TO.P,D51,3,VSS_3*%
%TO.N,GND*%
X18550000Y-76750000D03*
%TO.P,D51,4,DIN_4*%
%TO.N,Net-(D50-DOUT)*%
X18550000Y-73450000D03*
%TD*%
D10*
%TO.P,,1,Pin_1_1*%
%TO.N,GND*%
X70359566Y-24029446D03*
%TD*%
%TO.P,J4,1,Pin_1_1*%
%TO.N,Net-(D64-DOUT)*%
X-50482976Y-204550000D03*
%TD*%
%TO.P,J9,1,Pin_1_1*%
%TO.N,/5V*%
X255459566Y-198929446D03*
%TD*%
D12*
%TO.P,D6,1,VDD_1*%
%TO.N,+5V*%
X-135982976Y-148450000D03*
%TO.P,D6,2,DOUT_2*%
%TO.N,Net-(D6-DOUT)*%
X-135982976Y-151750000D03*
%TO.P,D6,3,VSS_3*%
%TO.N,GND*%
X-131082976Y-151750000D03*
%TO.P,D6,4,DIN_4*%
%TO.N,Net-(D5-DOUT)*%
X-131082976Y-148450000D03*
%TD*%
%TO.P,D55,1,VDD_1*%
%TO.N,+5V*%
X13650000Y-173450000D03*
%TO.P,D55,2,DOUT_2*%
%TO.N,Net-(D55-DOUT)*%
X13650000Y-176750000D03*
%TO.P,D55,3,VSS_3*%
%TO.N,GND*%
X18550000Y-176750000D03*
%TO.P,D55,4,DIN_4*%
%TO.N,Net-(D54-DOUT)*%
X18550000Y-173450000D03*
%TD*%
D21*
%TO.P,U1,1,GND_1*%
%TO.N,GND*%
X81600000Y-218040000D03*
D11*
%TO.P,U1,2,VCC_2*%
%TO.N,/3.3v*%
X81600000Y-215500000D03*
%TO.P,U1,3,SCL_3*%
%TO.N,/SCL*%
X81600000Y-212960000D03*
%TO.P,U1,4,SDA_4*%
%TO.N,/SDA*%
X81600000Y-210420000D03*
%TD*%
D12*
%TO.P,D14,1,VDD_1*%
%TO.N,+5V*%
X-111350000Y-148450000D03*
%TO.P,D14,2,DOUT_2*%
%TO.N,Net-(D14-DOUT)*%
X-111350000Y-151750000D03*
%TO.P,D14,3,VSS_3*%
%TO.N,GND*%
X-106450000Y-151750000D03*
%TO.P,D14,4,DIN_4*%
%TO.N,Net-(D13-DOUT)*%
X-106450000Y-148450000D03*
%TD*%
%TO.P,D34,1,VDD_1*%
%TO.N,+5V*%
X-36182976Y-48650000D03*
%TO.P,D34,2,DOUT_2*%
%TO.N,Net-(D34-DOUT)*%
X-36182976Y-51950000D03*
%TO.P,D34,3,VSS_3*%
%TO.N,GND*%
X-31282976Y-51950000D03*
%TO.P,D34,4,DIN_4*%
%TO.N,Net-(D33-DOUT)*%
X-31282976Y-48650000D03*
%TD*%
%TO.P,D28,1,VDD_1*%
%TO.N,+5V*%
X-61350000Y-98450000D03*
%TO.P,D28,2,DOUT_2*%
%TO.N,Net-(D28-DOUT)*%
X-61350000Y-101750000D03*
%TO.P,D28,3,VSS_3*%
%TO.N,GND*%
X-56450000Y-101750000D03*
%TO.P,D28,4,DIN_4*%
%TO.N,Net-(D27-DOUT)*%
X-56450000Y-98450000D03*
%TD*%
%TO.P,D58,1,VDD_1*%
%TO.N,+5V*%
X38650000Y-48450000D03*
%TO.P,D58,2,DOUT_2*%
%TO.N,Net-(D58-DOUT)*%
X38650000Y-51750000D03*
%TO.P,D58,3,VSS_3*%
%TO.N,GND*%
X43550000Y-51750000D03*
%TO.P,D58,4,DIN_4*%
%TO.N,Net-(D57-DOUT)*%
X43550000Y-48450000D03*
%TD*%
%TO.P,D26,1,VDD_1*%
%TO.N,+5V*%
X-61350000Y-48450000D03*
%TO.P,D26,2,DOUT_2*%
%TO.N,Net-(D26-DOUT)*%
X-61350000Y-51750000D03*
%TO.P,D26,3,VSS_3*%
%TO.N,GND*%
X-56450000Y-51750000D03*
%TO.P,D26,4,DIN_4*%
%TO.N,Net-(D25-DOUT)*%
X-56450000Y-48450000D03*
%TD*%
%TO.P,D8,1,VDD_1*%
%TO.N,+5V*%
X-135982976Y-198450000D03*
%TO.P,D8,2,DOUT_2*%
%TO.N,Net-(D8-DOUT)*%
X-135982976Y-201750000D03*
%TO.P,D8,3,VSS_3*%
%TO.N,GND*%
X-131082976Y-201750000D03*
%TO.P,D8,4,DIN_4*%
%TO.N,Net-(D7-DOUT)*%
X-131082976Y-198450000D03*
%TD*%
%TO.P,D29,1,VDD_1*%
%TO.N,+5V*%
X-61350000Y-123450000D03*
%TO.P,D29,2,DOUT_2*%
%TO.N,Net-(D29-DOUT)*%
X-61350000Y-126750000D03*
%TO.P,D29,3,VSS_3*%
%TO.N,GND*%
X-56450000Y-126750000D03*
%TO.P,D29,4,DIN_4*%
%TO.N,Net-(D28-DOUT)*%
X-56450000Y-123450000D03*
%TD*%
%TO.P,D62,1,VDD_1*%
%TO.N,+5V*%
X38650000Y-148450000D03*
%TO.P,D62,2,DOUT_2*%
%TO.N,Net-(D62-DOUT)*%
X38650000Y-151750000D03*
%TO.P,D62,3,VSS_3*%
%TO.N,GND*%
X43550000Y-151750000D03*
%TO.P,D62,4,DIN_4*%
%TO.N,Net-(D61-DOUT)*%
X43550000Y-148450000D03*
%TD*%
%TO.P,D2,1,VDD_1*%
%TO.N,+5V*%
X-135932976Y-48450000D03*
%TO.P,D2,2,DOUT_2*%
%TO.N,Net-(D2-DOUT)*%
X-135932976Y-51750000D03*
%TO.P,D2,3,VSS_3*%
%TO.N,GND*%
X-131032976Y-51750000D03*
%TO.P,D2,4,DIN_4*%
%TO.N,Net-(D1-DOUT)*%
X-131032976Y-48450000D03*
%TD*%
%TO.P,D7,1,VDD_1*%
%TO.N,+5V*%
X-135982976Y-173450000D03*
%TO.P,D7,2,DOUT_2*%
%TO.N,Net-(D7-DOUT)*%
X-135982976Y-176750000D03*
%TO.P,D7,3,VSS_3*%
%TO.N,GND*%
X-131082976Y-176750000D03*
%TO.P,D7,4,DIN_4*%
%TO.N,Net-(D6-DOUT)*%
X-131082976Y-173450000D03*
%TD*%
%TO.P,D49,1,VDD_1*%
%TO.N,+5V*%
X13650000Y-23450000D03*
%TO.P,D49,2,DOUT_2*%
%TO.N,Net-(D49-DOUT)*%
X13650000Y-26750000D03*
%TO.P,D49,3,VSS_3*%
%TO.N,GND*%
X18550000Y-26750000D03*
%TO.P,D49,4,DIN_4*%
%TO.N,Net-(D48-DOUT)*%
X18550000Y-23450000D03*
%TD*%
D13*
%TO.P,U6,1,A1_1*%
%TO.N,/A3_L*%
X217325000Y-174537500D03*
%TO.P,U6,2,VCCA_2*%
%TO.N,/3.3v*%
X216675000Y-174537500D03*
%TO.P,U6,3,A2_3*%
%TO.N,/A4_L*%
X216025000Y-174537500D03*
%TO.P,U6,4,A3_4*%
%TO.N,/A5_L*%
X215375000Y-174537500D03*
%TO.P,U6,5,A4_5*%
%TO.N,/A6_L*%
X214725000Y-174537500D03*
%TO.P,U6,6,A5_6*%
%TO.N,/A7_L*%
X214075000Y-174537500D03*
%TO.P,U6,7,A6_7*%
%TO.N,/A8_L*%
X213425000Y-174537500D03*
%TO.P,U6,8,A7_8*%
%TO.N,/A9_L*%
X212775000Y-174537500D03*
%TO.P,U6,9,A8_9*%
%TO.N,unconnected-(U6-A8-Pad9)*%
X212125000Y-174537500D03*
%TO.P,U6,10,OE_10*%
%TO.N,/3.3v*%
X211475000Y-174537500D03*
%TO.P,U6,11,GND_11*%
%TO.N,GND*%
X211475000Y-180262500D03*
%TO.P,U6,12,B8_12*%
%TO.N,unconnected-(U6-B8-Pad12)*%
X212125000Y-180262500D03*
%TO.P,U6,13,B7_13*%
%TO.N,Net-(U3-A9_L)*%
X212775000Y-180262500D03*
%TO.P,U6,14,B6_14*%
%TO.N,Net-(U3-A8_L)*%
X213425000Y-180262500D03*
%TO.P,U6,15,B5_15*%
%TO.N,Net-(U3-A7_L)*%
X214075000Y-180262500D03*
%TO.P,U6,16,B4_16*%
%TO.N,Net-(U3-A6_L)*%
X214725000Y-180262500D03*
%TO.P,U6,17,B3_17*%
%TO.N,Net-(U3-A5_L)*%
X215375000Y-180262500D03*
%TO.P,U6,18,B2_18*%
%TO.N,Net-(U3-A4_L)*%
X216025000Y-180262500D03*
%TO.P,U6,19,VCCB_19*%
%TO.N,/5V*%
X216675000Y-180262500D03*
%TO.P,U6,20,B1_20*%
%TO.N,Net-(U3-A3_L)*%
X217325000Y-180262500D03*
%TD*%
D12*
%TO.P,D5,1,VDD_1*%
%TO.N,+5V*%
X-135982976Y-123450000D03*
%TO.P,D5,2,DOUT_2*%
%TO.N,Net-(D5-DOUT)*%
X-135982976Y-126750000D03*
%TO.P,D5,3,VSS_3*%
%TO.N,GND*%
X-131082976Y-126750000D03*
%TO.P,D5,4,DIN_4*%
%TO.N,Net-(D4-DOUT)*%
X-131082976Y-123450000D03*
%TD*%
%TO.P,D38,1,VDD_1*%
%TO.N,+5V*%
X-36182976Y-148650000D03*
%TO.P,D38,2,DOUT_2*%
%TO.N,Net-(D38-DOUT)*%
X-36182976Y-151950000D03*
%TO.P,D38,3,VSS_3*%
%TO.N,GND*%
X-31282976Y-151950000D03*
%TO.P,D38,4,DIN_4*%
%TO.N,Net-(D37-DOUT)*%
X-31282976Y-148650000D03*
%TD*%
D23*
%TO.P,U3,1,~{CE_L}_1*%
%TO.N,Net-(U3-~{CE_L})*%
X245900000Y-193800000D03*
D24*
%TO.P,U3,2,~{RW_L}_2*%
%TO.N,Net-(U3-~{RW_L})*%
X243360000Y-193800000D03*
%TO.P,U3,3,~{BUSY_L}_3*%
%TO.N,Net-(U3-~{BUSY_L})*%
X240820000Y-193800000D03*
%TO.P,U3,4,~{INT_L}_4*%
%TO.N,Net-(U3-~{INT_L})*%
X238280000Y-193800000D03*
%TO.P,U3,5,~{OE_L}_5*%
%TO.N,Net-(U3-~{OE_L})*%
X235740000Y-193800000D03*
%TO.P,U3,6,A0_L_6*%
%TO.N,Net-(U3-A0_L)*%
X233200000Y-193800000D03*
%TO.P,U3,7,A1_L_7*%
%TO.N,Net-(U3-A1_L)*%
X230660000Y-193800000D03*
%TO.P,U3,8,A2_L_8*%
%TO.N,Net-(U3-A2_L)*%
X228120000Y-193800000D03*
%TO.P,U3,9,A3_L_9*%
%TO.N,Net-(U3-A3_L)*%
X225580000Y-193800000D03*
%TO.P,U3,10,A4_L_10*%
%TO.N,Net-(U3-A4_L)*%
X223040000Y-193800000D03*
%TO.P,U3,11,A5_L_11*%
%TO.N,Net-(U3-A5_L)*%
X220500000Y-193800000D03*
%TO.P,U3,12,A6_L_12*%
%TO.N,Net-(U3-A6_L)*%
X217960000Y-193800000D03*
%TO.P,U3,13,A7_L_13*%
%TO.N,Net-(U3-A7_L)*%
X215420000Y-193800000D03*
%TO.P,U3,14,A8_L_14*%
%TO.N,Net-(U3-A8_L)*%
X212880000Y-193800000D03*
%TO.P,U3,15,A9_L_15*%
%TO.N,Net-(U3-A9_L)*%
X210340000Y-193800000D03*
%TO.P,U3,16,IO0_L_16*%
%TO.N,Net-(U3-IO0_L)*%
X207800000Y-193800000D03*
%TO.P,U3,17,IO1_L_17*%
%TO.N,Net-(U3-IO1_L)*%
X205260000Y-193800000D03*
%TO.P,U3,18,IO2_L_18*%
%TO.N,Net-(U3-IO2_L)*%
X202720000Y-193800000D03*
%TO.P,U3,19,IO3_L_19*%
%TO.N,Net-(U3-IO3_L)*%
X200180000Y-193800000D03*
%TO.P,U3,20,IO4_L_20*%
%TO.N,Net-(U3-IO4_L)*%
X197640000Y-193800000D03*
%TO.P,U3,21,IO5_L_21*%
%TO.N,Net-(U3-IO5_L)*%
X195100000Y-193800000D03*
%TO.P,U3,22,IO6_L_22*%
%TO.N,Net-(U3-IO6_L)*%
X192560000Y-193800000D03*
%TO.P,U3,23,IO7_L_23*%
%TO.N,Net-(U3-IO7_L)*%
X190020000Y-193800000D03*
%TO.P,U3,24,GND_24*%
%TO.N,GND*%
X187480000Y-193800000D03*
%TO.P,U3,25,IO7_R_25*%
%TO.N,Net-(J12-Pin_1)*%
X187480000Y-209040000D03*
%TO.P,U3,26,IO6_R_26*%
%TO.N,Net-(J12-Pin_2)*%
X190020000Y-209040000D03*
%TO.P,U3,27,IO5_R_27*%
%TO.N,Net-(J12-Pin_3)*%
X192560000Y-209040000D03*
%TO.P,U3,28,IO4_R_28*%
%TO.N,Net-(J12-Pin_4)*%
X195100000Y-209040000D03*
%TO.P,U3,29,IO3_R_29*%
%TO.N,Net-(J12-Pin_5)*%
X197640000Y-209040000D03*
%TO.P,U3,30,IO2_R_30*%
%TO.N,Net-(J12-Pin_6)*%
X200180000Y-209040000D03*
%TO.P,U3,31,IO1_R_31*%
%TO.N,Net-(J12-Pin_7)*%
X202720000Y-209040000D03*
%TO.P,U3,32,IO0_R_32*%
%TO.N,Net-(J12-Pin_8)*%
X205260000Y-209040000D03*
%TO.P,U3,33,A9_R_33*%
%TO.N,Net-(J6-Pin_1)*%
X207800000Y-209040000D03*
%TO.P,U3,34,A8_R_34*%
%TO.N,Net-(J6-Pin_2)*%
X210340000Y-209040000D03*
%TO.P,U3,35,A7_R_35*%
%TO.N,Net-(J6-Pin_3)*%
X212880000Y-209040000D03*
%TO.P,U3,36,A6_R_36*%
%TO.N,Net-(J6-Pin_4)*%
X215420000Y-209040000D03*
%TO.P,U3,37,A5_R_37*%
%TO.N,Net-(J6-Pin_5)*%
X217960000Y-209040000D03*
%TO.P,U3,38,A4_R_38*%
%TO.N,Net-(J6-Pin_6)*%
X220500000Y-209040000D03*
%TO.P,U3,39,A3_R_39*%
%TO.N,Net-(J6-Pin_7)*%
X223040000Y-209040000D03*
%TO.P,U3,40,A2_R_40*%
%TO.N,Net-(J6-Pin_8)*%
X225580000Y-209040000D03*
%TO.P,U3,41,A1_R_41*%
%TO.N,Net-(J6-Pin_9)*%
X228120000Y-209040000D03*
%TO.P,U3,42,A0_R_42*%
%TO.N,Net-(J6-Pin_10)*%
X230660000Y-209040000D03*
%TO.P,U3,43,~{OE_R}_43*%
%TO.N,Net-(J5-Pin_1)*%
X233200000Y-209040000D03*
%TO.P,U3,44,~{INT_R}_44*%
%TO.N,Net-(J5-Pin_2)*%
X235740000Y-209040000D03*
%TO.P,U3,45,~{BUSY_R}_45*%
%TO.N,Net-(J5-Pin_3)*%
X238280000Y-209040000D03*
%TO.P,U3,46,~{RW_R}_46*%
%TO.N,Net-(J5-Pin_4)*%
X240820000Y-209040000D03*
%TO.P,U3,47,~{CE_R}_47*%
%TO.N,Net-(J5-Pin_5)*%
X243360000Y-209040000D03*
%TO.P,U3,48,VCC_48*%
%TO.N,/5V*%
X245900000Y-209040000D03*
%TD*%
D12*
%TO.P,D52,1,VDD_1*%
%TO.N,+5V*%
X13650000Y-98450000D03*
%TO.P,D52,2,DOUT_2*%
%TO.N,Net-(D52-DOUT)*%
X13650000Y-101750000D03*
%TO.P,D52,3,VSS_3*%
%TO.N,GND*%
X18550000Y-101750000D03*
%TO.P,D52,4,DIN_4*%
%TO.N,Net-(D51-DOUT)*%
X18550000Y-98450000D03*
%TD*%
%TO.P,D53,1,VDD_1*%
%TO.N,+5V*%
X13650000Y-123450000D03*
%TO.P,D53,2,DOUT_2*%
%TO.N,Net-(D53-DOUT)*%
X13650000Y-126750000D03*
%TO.P,D53,3,VSS_3*%
%TO.N,GND*%
X18550000Y-126750000D03*
%TO.P,D53,4,DIN_4*%
%TO.N,Net-(D52-DOUT)*%
X18550000Y-123450000D03*
%TD*%
%TO.P,D31,1,VDD_1*%
%TO.N,+5V*%
X-61350000Y-173450000D03*
%TO.P,D31,2,DOUT_2*%
%TO.N,Net-(D31-DOUT)*%
X-61350000Y-176750000D03*
%TO.P,D31,3,VSS_3*%
%TO.N,GND*%
X-56450000Y-176750000D03*
%TO.P,D31,4,DIN_4*%
%TO.N,Net-(D30-DOUT)*%
X-56450000Y-173450000D03*
%TD*%
%TO.P,D13,1,VDD_1*%
%TO.N,+5V*%
X-111350000Y-123450000D03*
%TO.P,D13,2,DOUT_2*%
%TO.N,Net-(D13-DOUT)*%
X-111350000Y-126750000D03*
%TO.P,D13,3,VSS_3*%
%TO.N,GND*%
X-106450000Y-126750000D03*
%TO.P,D13,4,DIN_4*%
%TO.N,Net-(D12-DOUT)*%
X-106450000Y-123450000D03*
%TD*%
%TO.P,D46,1,VDD_1*%
%TO.N,+5V*%
X-11350000Y-148450000D03*
%TO.P,D46,2,DOUT_2*%
%TO.N,Net-(D46-DOUT)*%
X-11350000Y-151750000D03*
%TO.P,D46,3,VSS_3*%
%TO.N,GND*%
X-6450000Y-151750000D03*
%TO.P,D46,4,DIN_4*%
%TO.N,Net-(D45-DOUT)*%
X-6450000Y-148450000D03*
%TD*%
D10*
%TO.P,J14,1,Pin_1_1*%
%TO.N,Net-(J13-Pin_1)*%
X241450000Y-128440000D03*
D11*
%TO.P,J14,2,Pin_2_2*%
%TO.N,Net-(J13-Pin_2)*%
X238910000Y-128440000D03*
%TO.P,J14,3,Pin_3_3*%
%TO.N,Net-(J13-Pin_3)*%
X236370000Y-128440000D03*
%TO.P,J14,4,Pin_4_4*%
%TO.N,Net-(J13-Pin_4)*%
X233830000Y-128440000D03*
%TO.P,J14,5,Pin_5_5*%
%TO.N,Net-(J13-Pin_5)*%
X231290000Y-128440000D03*
%TO.P,J14,6,Pin_6_6*%
%TO.N,/IO7_L*%
X228750000Y-128440000D03*
%TO.P,J14,7,Pin_7_7*%
%TO.N,Net-(J13-Pin_7)*%
X226210000Y-128440000D03*
%TO.P,J14,8,Pin_8_8*%
%TO.N,/SDA*%
X223670000Y-128440000D03*
%TO.P,J14,9,Pin_9_9*%
%TO.N,Net-(J13-Pin_9)*%
X221130000Y-128440000D03*
%TO.P,J14,10,Pin_10_10*%
%TO.N,Net-(J13-Pin_10)*%
X218590000Y-128440000D03*
%TO.P,J14,11,Pin_11_11*%
%TO.N,Net-(J13-Pin_11)*%
X216050000Y-128440000D03*
%TO.P,J14,12,Pin_12_12*%
%TO.N,Net-(J13-Pin_12)*%
X213510000Y-128440000D03*
%TO.P,J14,13,Pin_13_13*%
%TO.N,/IO2_L*%
X210970000Y-128440000D03*
%TO.P,J14,14,Pin_14_14*%
%TO.N,/IO3_L*%
X208430000Y-128440000D03*
%TO.P,J14,15,Pin_15_15*%
%TO.N,/IO4_L*%
X205890000Y-128440000D03*
%TO.P,J14,16,Pin_16_16*%
%TO.N,/IO5_L*%
X203350000Y-128440000D03*
%TO.P,J14,17,Pin_17_17*%
%TO.N,/IO6_L*%
X200810000Y-128440000D03*
%TO.P,J14,18,Pin_18_18*%
%TO.N,/~{RW_L}*%
X198270000Y-128440000D03*
%TO.P,J14,19,Pin_19_19*%
%TO.N,/~{CE_L}*%
X195730000Y-128440000D03*
%TO.P,J14,20,Pin_20_20*%
%TO.N,Net-(J13-Pin_20)*%
X193190000Y-128440000D03*
%TO.P,J14,21,Pin_21_21*%
%TO.N,Net-(J13-Pin_21)*%
X190650000Y-128440000D03*
%TO.P,J14,22,Pin_22_22*%
%TO.N,Net-(J13-Pin_22)*%
X188110000Y-128440000D03*
%TD*%
D12*
%TO.P,D15,1,VDD_1*%
%TO.N,+5V*%
X-111350000Y-173450000D03*
%TO.P,D15,2,DOUT_2*%
%TO.N,Net-(D15-DOUT)*%
X-111350000Y-176750000D03*
%TO.P,D15,3,VSS_3*%
%TO.N,GND*%
X-106450000Y-176750000D03*
%TO.P,D15,4,DIN_4*%
%TO.N,Net-(D14-DOUT)*%
X-106450000Y-173450000D03*
%TD*%
%TO.P,D1,1,VDD_1*%
%TO.N,+5V*%
X-135900000Y-23600000D03*
%TO.P,D1,2,DOUT_2*%
%TO.N,Net-(D1-DOUT)*%
X-135900000Y-26900000D03*
%TO.P,D1,3,VSS_3*%
%TO.N,GND*%
X-131000000Y-26900000D03*
%TO.P,D1,4,DIN_4*%
%TO.N,Net-(D1-DIN)*%
X-131000000Y-23600000D03*
%TD*%
%TO.P,D41,1,VDD_1*%
%TO.N,+5V*%
X-11350000Y-23450000D03*
%TO.P,D41,2,DOUT_2*%
%TO.N,Net-(D41-DOUT)*%
X-11350000Y-26750000D03*
%TO.P,D41,3,VSS_3*%
%TO.N,GND*%
X-6450000Y-26750000D03*
%TO.P,D41,4,DIN_4*%
%TO.N,Net-(D40-DOUT)*%
X-6450000Y-23450000D03*
%TD*%
%TO.P,D63,1,VDD_1*%
%TO.N,+5V*%
X38650000Y-173450000D03*
%TO.P,D63,2,DOUT_2*%
%TO.N,Net-(D63-DOUT)*%
X38650000Y-176750000D03*
%TO.P,D63,3,VSS_3*%
%TO.N,GND*%
X43550000Y-176750000D03*
%TO.P,D63,4,DIN_4*%
%TO.N,Net-(D62-DOUT)*%
X43550000Y-173450000D03*
%TD*%
%TO.P,D17,1,VDD_1*%
%TO.N,+5V*%
X-86132976Y-23450000D03*
%TO.P,D17,2,DOUT_2*%
%TO.N,Net-(D17-DOUT)*%
X-86132976Y-26750000D03*
%TO.P,D17,3,VSS_3*%
%TO.N,GND*%
X-81232976Y-26750000D03*
%TO.P,D17,4,DIN_4*%
%TO.N,Net-(D16-DOUT)*%
X-81232976Y-23450000D03*
%TD*%
%TO.P,D61,1,VDD_1*%
%TO.N,+5V*%
X38650000Y-123450000D03*
%TO.P,D61,2,DOUT_2*%
%TO.N,Net-(D61-DOUT)*%
X38650000Y-126750000D03*
%TO.P,D61,3,VSS_3*%
%TO.N,GND*%
X43550000Y-126750000D03*
%TO.P,D61,4,DIN_4*%
%TO.N,Net-(D60-DOUT)*%
X43550000Y-123450000D03*
%TD*%
%TO.P,D57,1,VDD_1*%
%TO.N,+5V*%
X38650000Y-23450000D03*
%TO.P,D57,2,DOUT_2*%
%TO.N,Net-(D57-DOUT)*%
X38650000Y-26750000D03*
%TO.P,D57,3,VSS_3*%
%TO.N,GND*%
X43550000Y-26750000D03*
%TO.P,D57,4,DIN_4*%
%TO.N,Net-(D56-DOUT)*%
X43550000Y-23450000D03*
%TD*%
D22*
%TO.P,R2,1*%
%TO.N,GND*%
X241005000Y-183600000D03*
%TO.P,R2,2*%
%TO.N,Net-(J10-CC1)*%
X248625000Y-183600000D03*
%TD*%
D12*
%TO.P,D20,1,VDD_1*%
%TO.N,+5V*%
X-86132976Y-98450000D03*
%TO.P,D20,2,DOUT_2*%
%TO.N,Net-(D20-DOUT)*%
X-86132976Y-101750000D03*
%TO.P,D20,3,VSS_3*%
%TO.N,GND*%
X-81232976Y-101750000D03*
%TO.P,D20,4,DIN_4*%
%TO.N,Net-(D19-DOUT)*%
X-81232976Y-98450000D03*
%TD*%
%TO.P,D22,1,VDD_1*%
%TO.N,+5V*%
X-86132976Y-148450000D03*
%TO.P,D22,2,DOUT_2*%
%TO.N,Net-(D22-DOUT)*%
X-86132976Y-151750000D03*
%TO.P,D22,3,VSS_3*%
%TO.N,GND*%
X-81232976Y-151750000D03*
%TO.P,D22,4,DIN_4*%
%TO.N,Net-(D21-DOUT)*%
X-81232976Y-148450000D03*
%TD*%
%TO.P,D10,1,VDD_1*%
%TO.N,+5V*%
X-111350000Y-48450000D03*
%TO.P,D10,2,DOUT_2*%
%TO.N,Net-(D10-DOUT)*%
X-111350000Y-51750000D03*
%TO.P,D10,3,VSS_3*%
%TO.N,GND*%
X-106450000Y-51750000D03*
%TO.P,D10,4,DIN_4*%
%TO.N,Net-(D10-DIN)*%
X-106450000Y-48450000D03*
%TD*%
%TO.P,D37,1,VDD_1*%
%TO.N,+5V*%
X-36182976Y-123650000D03*
%TO.P,D37,2,DOUT_2*%
%TO.N,Net-(D37-DOUT)*%
X-36182976Y-126950000D03*
%TO.P,D37,3,VSS_3*%
%TO.N,GND*%
X-31282976Y-126950000D03*
%TO.P,D37,4,DIN_4*%
%TO.N,Net-(D36-DOUT)*%
X-31282976Y-123650000D03*
%TD*%
D10*
%TO.P,J3,1,Pin_1_1*%
%TO.N,GND*%
X-138582976Y-200350000D03*
%TD*%
D25*
%TO.N,/~{RW_L}*%
X223024265Y-163424265D03*
%TO.N,+5V*%
X38650000Y-148450000D03*
X38650000Y-173450000D03*
X38650000Y-48450000D03*
X38617024Y-25050000D03*
X38650000Y-198450000D03*
X38650000Y-73450000D03*
X38650000Y-123450000D03*
X38650000Y-98450000D03*
%TO.N,GND*%
X43550000Y-51750000D03*
X43550000Y-151750000D03*
X43550000Y-126750000D03*
X43517024Y-28450000D03*
X43550000Y-76750000D03*
X43550000Y-101750000D03*
X43550000Y-176750000D03*
X43550000Y-201750000D03*
%TO.N,Net-(D64-DOUT)*%
X32417024Y-201950000D03*
%TO.N,/~{BUSY_L}*%
X195700000Y-173300000D03*
X222400000Y-173400000D03*
%TO.N,/~{INT_L}*%
X198200000Y-172800000D03*
X221700000Y-172800000D03*
%TO.N,/~{OE_L}*%
X200800000Y-172200000D03*
X221085421Y-172200000D03*
%TO.N,/A0_L*%
X220375000Y-171800000D03*
X203300000Y-171800000D03*
%TO.N,/A2_L*%
X219100000Y-166325000D03*
X223611092Y-161988908D03*
%TO.N,/5V*%
X216700000Y-181900000D03*
X209700000Y-181900000D03*
X223725000Y-181900000D03*
%TO.N,/A8_L*%
X213400000Y-171400000D03*
X205825000Y-171400000D03*
%TO.N,/A9_L*%
X212800000Y-170800000D03*
X207500000Y-170800000D03*
%TO.N,/IO0_L*%
X210100000Y-163100000D03*
%TO.N,/IO1_L*%
X209500000Y-162397438D03*
%TO.N,/A3_L*%
X217300000Y-166325000D03*
X226200000Y-161500000D03*
%TO.N,/A4_L*%
X228700000Y-171300000D03*
X216000000Y-171400000D03*
%TO.N,/A5_L*%
X231200000Y-170600000D03*
X215400000Y-170800000D03*
%TO.N,/A6_L*%
X214700000Y-170300000D03*
X233816507Y-168616507D03*
%TO.N,/A7_L*%
X236300000Y-166925000D03*
X214100000Y-168300000D03*
%TO.N,Net-(D32-DOUT)*%
X-58882976Y-201750000D03*
X-31282976Y-23650000D03*
%TO.N,Net-(D24-DOUT)*%
X-83682976Y-201750000D03*
X-56450000Y-23450000D03*
%TO.N,Net-(D40-DOUT)*%
X-33682976Y-201450000D03*
X-6450000Y-23450000D03*
%TO.N,Net-(D48-DOUT)*%
X-8882976Y-201600000D03*
X18550000Y-23450000D03*
%TO.N,Net-(D1-DIN)*%
X-134082976Y-23550000D03*
X-49582976Y-202350000D03*
%TO.N,Net-(D8-DOUT)*%
X-133582976Y-201750000D03*
X-106450000Y-23450000D03*
%TO.N,Net-(D16-DOUT)*%
X-81232976Y-23450000D03*
X-108882976Y-201600000D03*
%TO.N,Net-(D56-DOUT)*%
X43550000Y-23450000D03*
X16117024Y-201600000D03*
%TD*%
%TO.N,/IO7_L*%
D26*
X201940000Y-137863654D02*
X194580000Y-130503654D01*
X203351471Y-172700000D02*
X201940000Y-171288529D01*
X195653654Y-126890000D02*
X227200000Y-126890000D01*
X205125000Y-173890685D02*
X204900000Y-173665685D01*
X227200000Y-126890000D02*
X228750000Y-128440000D01*
X194580000Y-127963654D02*
X195653654Y-126890000D01*
X201940000Y-171288529D02*
X201940000Y-137863654D01*
X194580000Y-130503654D02*
X194580000Y-127963654D01*
X205125000Y-174537500D02*
X205125000Y-173890685D01*
X204900000Y-172700000D02*
X203351471Y-172700000D01*
X204900000Y-173665685D02*
X204900000Y-172700000D01*
%TO.N,Net-(J13-Pin_7)*%
X165100000Y-114000000D02*
X216360000Y-114000000D01*
X216360000Y-114000000D02*
X226210000Y-123850000D01*
X165100000Y-200389012D02*
X165100000Y-114000000D01*
X162159566Y-203329446D02*
X165100000Y-200389012D01*
%TO.N,/IO2_L*%
X208300000Y-173500000D02*
X208300000Y-172731371D01*
X208375000Y-173500000D02*
X208300000Y-173500000D01*
X208300000Y-172731371D02*
X208900000Y-172131370D01*
X208900000Y-162146346D02*
X214640000Y-156406346D01*
X214640000Y-156406346D02*
X214640000Y-132110000D01*
X214640000Y-132110000D02*
X210970000Y-128440000D01*
X208375000Y-174537500D02*
X208375000Y-173500000D01*
X208900000Y-172131370D02*
X208900000Y-162146346D01*
%TO.N,/IO3_L*%
X208500000Y-160006346D02*
X212100000Y-156406346D01*
X207875000Y-172590686D02*
X208500000Y-171965685D01*
X207875000Y-174387500D02*
X207875000Y-172590686D01*
X212100000Y-156406346D02*
X212100000Y-132110000D01*
X212100000Y-132110000D02*
X208430000Y-128440000D01*
X208500000Y-171965685D02*
X208500000Y-160006346D01*
X207725000Y-174537500D02*
X207875000Y-174387500D01*
%TO.N,/IO4_L*%
X209560000Y-156406346D02*
X209560000Y-132110000D01*
X209560000Y-132110000D02*
X205890000Y-128440000D01*
X208100000Y-171800000D02*
X208100000Y-157866346D01*
X207075000Y-174537500D02*
X207200000Y-174412500D01*
X207200000Y-172700000D02*
X208100000Y-171800000D01*
X208100000Y-157866346D02*
X209560000Y-156406346D01*
X207200000Y-174412500D02*
X207200000Y-172700000D01*
%TO.N,/IO5_L*%
X206425000Y-174537500D02*
X206425000Y-157001346D01*
X207020000Y-156406346D02*
X207020000Y-132110000D01*
X207020000Y-132110000D02*
X203350000Y-128440000D01*
X206425000Y-157001346D02*
X207020000Y-156406346D01*
%TO.N,/IO6_L*%
X205225000Y-171151471D02*
X205300000Y-171076471D01*
X205300000Y-171723529D02*
X205225000Y-171648529D01*
X205300000Y-173500000D02*
X205300000Y-171723529D01*
X205625000Y-173731544D02*
X205393456Y-173500000D01*
X204480000Y-156406346D02*
X204480000Y-132110000D01*
X205775000Y-174537500D02*
X205625000Y-174387500D01*
X205300000Y-157226346D02*
X204480000Y-156406346D01*
X205625000Y-174387500D02*
X205625000Y-173731544D01*
X205225000Y-171648529D02*
X205225000Y-171151471D01*
X205300000Y-171076471D02*
X205300000Y-157226346D01*
X204480000Y-132110000D02*
X200810000Y-128440000D01*
X205393456Y-173500000D02*
X205300000Y-173500000D01*
%TO.N,/~{RW_L}*%
X223025000Y-163425000D02*
X223024265Y-163424265D01*
X223025000Y-174537500D02*
X223025000Y-163425000D01*
%TO.N,/~{CE_L}*%
X212120000Y-127963654D02*
X211446346Y-127290000D01*
X211446346Y-127290000D02*
X196880000Y-127290000D01*
X217180000Y-133976346D02*
X212120000Y-128916346D01*
X212120000Y-128916346D02*
X212120000Y-127963654D01*
X217180000Y-156406346D02*
X217180000Y-133976346D01*
X224325000Y-163551346D02*
X217180000Y-156406346D01*
X196880000Y-127290000D02*
X195730000Y-128440000D01*
X224325000Y-174537500D02*
X224325000Y-163551346D01*
%TO.N,Net-(J6-Pin_1)*%
X207800000Y-209040000D02*
X207800000Y-214600000D01*
X207800000Y-214600000D02*
X206300000Y-216100000D01*
%TO.N,Net-(J6-Pin_2)*%
X210340000Y-209040000D02*
X210340000Y-214600000D01*
X210340000Y-214600000D02*
X208840000Y-216100000D01*
%TO.N,Net-(J6-Pin_3)*%
X212880000Y-209040000D02*
X212880000Y-214600000D01*
X212880000Y-214600000D02*
X211380000Y-216100000D01*
%TO.N,Net-(J6-Pin_4)*%
X215420000Y-209040000D02*
X215420000Y-214600000D01*
X215420000Y-214600000D02*
X213920000Y-216100000D01*
%TO.N,Net-(J6-Pin_5)*%
X217960000Y-214600000D02*
X216460000Y-216100000D01*
X217960000Y-209040000D02*
X217960000Y-214600000D01*
%TO.N,Net-(J6-Pin_6)*%
X220500000Y-209040000D02*
X220500000Y-214600000D01*
X220500000Y-214600000D02*
X219000000Y-216100000D01*
%TO.N,Net-(J6-Pin_7)*%
X223040000Y-214600000D02*
X221540000Y-216100000D01*
X223040000Y-209040000D02*
X223040000Y-214600000D01*
%TO.N,Net-(J6-Pin_8)*%
X225580000Y-214600000D02*
X224080000Y-216100000D01*
X225580000Y-209040000D02*
X225580000Y-214600000D01*
%TO.N,Net-(J6-Pin_9)*%
X228120000Y-214600000D02*
X226620000Y-216100000D01*
X228120000Y-209040000D02*
X228120000Y-214600000D01*
%TO.N,Net-(J6-Pin_10)*%
X230660000Y-214600000D02*
X229160000Y-216100000D01*
X230660000Y-209040000D02*
X230660000Y-214600000D01*
%TO.N,+5V*%
X-85382976Y-74200000D02*
X-62100000Y-74200000D01*
X13650000Y-123450000D02*
X14400000Y-124200000D01*
X-61350000Y-23450000D02*
X-62100000Y-24200000D01*
X-112100000Y-124200000D02*
X-111350000Y-123450000D01*
X-62100000Y-24200000D02*
X-85382976Y-24200000D01*
X12900000Y-24200000D02*
X13650000Y-23450000D01*
X-109950000Y-24850000D02*
X-87532976Y-24850000D01*
X37900000Y-199200000D02*
X38650000Y-198450000D01*
X-112100000Y-99200000D02*
X-111350000Y-98450000D01*
X13650000Y-173450000D02*
X12900000Y-174200000D01*
X-86132976Y-73450000D02*
X-85382976Y-74200000D01*
X14400000Y-49200000D02*
X37900000Y-49200000D01*
X-112100000Y-149200000D02*
X-135232976Y-149200000D01*
X-36732976Y-49200000D02*
X-60600000Y-49200000D01*
X-135150000Y-24350000D02*
X-135900000Y-23600000D01*
X-10600000Y-199200000D02*
X12900000Y-199200000D01*
X-60600000Y-124200000D02*
X-61350000Y-123450000D01*
X-110600000Y-49200000D02*
X-111350000Y-48450000D01*
X13650000Y-23450000D02*
X14400000Y-24200000D01*
X-36182976Y-173650000D02*
X-35432976Y-174400000D01*
X-60600000Y-174200000D02*
X-61350000Y-173450000D01*
X-36732976Y-74200000D02*
X-36182976Y-73650000D01*
X-12300000Y-49400000D02*
X-35432976Y-49400000D01*
X-135982976Y-123450000D02*
X-135232976Y-124200000D01*
X-86132976Y-173450000D02*
X-86882976Y-174200000D01*
X-36732976Y-99200000D02*
X-60600000Y-99200000D01*
X-11350000Y-198450000D02*
X-10600000Y-199200000D01*
X-36732976Y-124200000D02*
X-60600000Y-124200000D01*
X-62100000Y-149200000D02*
X-85382976Y-149200000D01*
X13650000Y-198450000D02*
X14400000Y-199200000D01*
X-135232976Y-124200000D02*
X-112100000Y-124200000D01*
X-11350000Y-48450000D02*
X-12300000Y-49400000D01*
X-35432976Y-174400000D02*
X-12300000Y-174400000D01*
X-62100000Y-74200000D02*
X-61350000Y-73450000D01*
X-86882976Y-74200000D02*
X-86132976Y-73450000D01*
X37900000Y-99200000D02*
X38650000Y-98450000D01*
X-135232976Y-199200000D02*
X-112100000Y-199200000D01*
X12900000Y-99200000D02*
X-10600000Y-99200000D01*
X-111350000Y-148450000D02*
X-110600000Y-149200000D01*
X-86132976Y-98450000D02*
X-85382976Y-99200000D01*
X-112100000Y-174200000D02*
X-135232976Y-174200000D01*
X-86132976Y-198450000D02*
X-85382976Y-199200000D01*
X-35432976Y-99400000D02*
X-12300000Y-99400000D01*
X-62100000Y-174200000D02*
X-61350000Y-173450000D01*
X13650000Y-73450000D02*
X12900000Y-74200000D01*
X-35432976Y-149400000D02*
X-36182976Y-148650000D01*
X-86132976Y-123450000D02*
X-86882976Y-124200000D01*
X-11350000Y-23450000D02*
X-10600000Y-24200000D01*
X-110600000Y-149200000D02*
X-86882976Y-149200000D01*
X-135982976Y-198450000D02*
X-135232976Y-199200000D01*
X-10600000Y-49200000D02*
X12900000Y-49200000D01*
X-12300000Y-24400000D02*
X-35432976Y-24400000D01*
X14400000Y-199200000D02*
X37900000Y-199200000D01*
X-36182976Y-198650000D02*
X-35432976Y-199400000D01*
X-110600000Y-174200000D02*
X-111350000Y-173450000D01*
X-111350000Y-73450000D02*
X-110600000Y-74200000D01*
X-36182976Y-123650000D02*
X-35432976Y-124400000D01*
X12900000Y-124200000D02*
X-10600000Y-124200000D01*
X13650000Y-98450000D02*
X14400000Y-99200000D01*
X-135282976Y-74250000D02*
X-112150000Y-74250000D01*
X38650000Y-23450000D02*
X38650000Y-25017024D01*
X-36732976Y-149200000D02*
X-36182976Y-148650000D01*
X-135982976Y-98450000D02*
X-135232976Y-99200000D01*
X14400000Y-149200000D02*
X37900000Y-149200000D01*
X-135232976Y-149200000D02*
X-135982976Y-148450000D01*
X-10600000Y-149200000D02*
X12900000Y-149200000D01*
X13650000Y-173450000D02*
X14400000Y-174200000D01*
X-86882976Y-149200000D02*
X-86132976Y-148450000D01*
X38650000Y-198450000D02*
X40350000Y-200150000D01*
X37900000Y-124200000D02*
X38650000Y-123450000D01*
X-86882976Y-199200000D02*
X-86132976Y-198450000D01*
X37900000Y-174200000D02*
X38650000Y-173450000D01*
X-10600000Y-174200000D02*
X-11350000Y-173450000D01*
X-35432976Y-199400000D02*
X-12300000Y-199400000D01*
X-85382976Y-24200000D02*
X-86132976Y-23450000D01*
X-110600000Y-74200000D02*
X-86882976Y-74200000D01*
X14400000Y-99200000D02*
X37900000Y-99200000D01*
X13650000Y-148450000D02*
X14400000Y-149200000D01*
X-60600000Y-99200000D02*
X-61350000Y-98450000D01*
X-111350000Y-198450000D02*
X-110600000Y-199200000D01*
X-85382976Y-149200000D02*
X-86132976Y-148450000D01*
X-110600000Y-124200000D02*
X-111350000Y-123450000D01*
X-10600000Y-124200000D02*
X-11350000Y-123450000D01*
X-11350000Y-23450000D02*
X-12300000Y-24400000D01*
X-12300000Y-124400000D02*
X-11350000Y-123450000D01*
X-36182976Y-198650000D02*
X-36732976Y-199200000D01*
X-86882976Y-49200000D02*
X-110600000Y-49200000D01*
X-111350000Y-48450000D02*
X-112100000Y-49200000D01*
X12900000Y-174200000D02*
X-10600000Y-174200000D01*
X-111350000Y-148450000D02*
X-112100000Y-149200000D01*
X-60600000Y-49200000D02*
X-61350000Y-48450000D01*
X-37082976Y-24550000D02*
X-36182976Y-23650000D01*
X-135232976Y-174200000D02*
X-135982976Y-173450000D01*
X-35432976Y-24400000D02*
X-36182976Y-23650000D01*
X-85382976Y-99200000D02*
X-62100000Y-99200000D01*
X-86882976Y-124200000D02*
X-110600000Y-124200000D01*
X-35432976Y-124400000D02*
X-12300000Y-124400000D01*
X14400000Y-74200000D02*
X13650000Y-73450000D01*
X-36182976Y-123650000D02*
X-36732976Y-124200000D01*
X-62100000Y-99200000D02*
X-61350000Y-98450000D01*
X-35432976Y-49400000D02*
X-36182976Y-48650000D01*
X-12300000Y-74400000D02*
X-11350000Y-73450000D01*
X-36732976Y-174200000D02*
X-60600000Y-174200000D01*
X-62100000Y-199200000D02*
X-61350000Y-198450000D01*
X38650000Y-23450000D02*
X40250000Y-25050000D01*
X-86882976Y-99200000D02*
X-110600000Y-99200000D01*
X-10600000Y-74200000D02*
X-11350000Y-73450000D01*
X12900000Y-199200000D02*
X13650000Y-198450000D01*
X-85382976Y-49200000D02*
X-86132976Y-48450000D01*
X-35432976Y-74400000D02*
X-12300000Y-74400000D01*
X-36182976Y-48650000D02*
X-36732976Y-49200000D01*
X-62100000Y-49200000D02*
X-85382976Y-49200000D01*
X-86132976Y-98450000D02*
X-86882976Y-99200000D01*
X-86132976Y-48450000D02*
X-86882976Y-49200000D01*
X-112100000Y-49200000D02*
X-135182976Y-49200000D01*
X-112100000Y-199200000D02*
X-111350000Y-198450000D01*
X-87532976Y-24850000D02*
X-86132976Y-23450000D01*
X-110600000Y-99200000D02*
X-111350000Y-98450000D01*
X-61350000Y-48450000D02*
X-62100000Y-49200000D01*
X12900000Y-49200000D02*
X13650000Y-48450000D01*
X-85382976Y-174200000D02*
X-62100000Y-174200000D01*
X-86132976Y-173450000D02*
X-85382976Y-174200000D01*
X-12300000Y-199400000D02*
X-11350000Y-198450000D01*
X-11350000Y-148450000D02*
X-12300000Y-149400000D01*
X-36732976Y-199200000D02*
X-60600000Y-199200000D01*
X-136032976Y-73500000D02*
X-135282976Y-74250000D01*
X14400000Y-124200000D02*
X37900000Y-124200000D01*
X-12300000Y-99400000D02*
X-11350000Y-98450000D01*
X40350000Y-200150000D02*
X46417024Y-200150000D01*
X-86132976Y-123450000D02*
X-85382976Y-124200000D01*
X-61350000Y-148450000D02*
X-60600000Y-149200000D01*
X-111350000Y-23450000D02*
X-112250000Y-24350000D01*
X14400000Y-174200000D02*
X37900000Y-174200000D01*
X-111350000Y-173450000D02*
X-112100000Y-174200000D01*
X-36182976Y-73650000D02*
X-35432976Y-74400000D01*
X37900000Y-74200000D02*
X14400000Y-74200000D01*
X-60600000Y-74200000D02*
X-36732976Y-74200000D01*
X-135232976Y-99200000D02*
X-112100000Y-99200000D01*
X13650000Y-48450000D02*
X14400000Y-49200000D01*
X-111350000Y-23450000D02*
X-109950000Y-24850000D01*
X-112150000Y-74250000D02*
X-111350000Y-73450000D01*
X14400000Y-24200000D02*
X37900000Y-24200000D01*
X12900000Y-74200000D02*
X-10600000Y-74200000D01*
X37900000Y-49200000D02*
X38650000Y-48450000D01*
X-85382976Y-199200000D02*
X-62100000Y-199200000D01*
X13650000Y-98450000D02*
X12900000Y-99200000D01*
X37900000Y-24200000D02*
X38650000Y-23450000D01*
X-11350000Y-48450000D02*
X-10600000Y-49200000D01*
X-61350000Y-73450000D02*
X-60600000Y-74200000D01*
X40250000Y-25050000D02*
X46317024Y-25050000D01*
X-112250000Y-24350000D02*
X-135150000Y-24350000D01*
X-60600000Y-149200000D02*
X-36732976Y-149200000D01*
X-36182976Y-173650000D02*
X-36732976Y-174200000D01*
X38650000Y-25017024D02*
X38617024Y-25050000D01*
X12900000Y-149200000D02*
X13650000Y-148450000D01*
X-11350000Y-148450000D02*
X-10600000Y-149200000D01*
X-10600000Y-24200000D02*
X12900000Y-24200000D01*
X38650000Y-73450000D02*
X37900000Y-74200000D01*
X13650000Y-123450000D02*
X12900000Y-124200000D01*
X37900000Y-149200000D02*
X38650000Y-148450000D01*
X-61350000Y-148450000D02*
X-62100000Y-149200000D01*
X-12300000Y-174400000D02*
X-11350000Y-173450000D01*
X-10600000Y-99200000D02*
X-11350000Y-98450000D01*
X-86882976Y-174200000D02*
X-110600000Y-174200000D01*
X-60600000Y-199200000D02*
X-61350000Y-198450000D01*
X-36182976Y-98650000D02*
X-35432976Y-99400000D01*
X-61350000Y-23450000D02*
X-60250000Y-24550000D01*
X-135182976Y-49200000D02*
X-135932976Y-48450000D01*
X-12300000Y-149400000D02*
X-35432976Y-149400000D01*
X-85382976Y-124200000D02*
X-62100000Y-124200000D01*
X-36182976Y-98650000D02*
X-36732976Y-99200000D01*
X-110600000Y-199200000D02*
X-86882976Y-199200000D01*
X-60250000Y-24550000D02*
X-37082976Y-24550000D01*
X-62100000Y-124200000D02*
X-61350000Y-123450000D01*
%TO.N,Net-(D4-DOUT)*%
X-135982976Y-118550000D02*
X-135982976Y-101750000D01*
X-131082976Y-123450000D02*
X-135982976Y-118550000D01*
%TO.N,GND*%
X-32032976Y-126200000D02*
X-55900000Y-126200000D01*
X218475000Y-179525001D02*
X218475000Y-180262500D01*
X247000000Y-194900000D02*
X188580000Y-194900000D01*
X-30332976Y-101000000D02*
X-7200000Y-101000000D01*
X-6450000Y-26750000D02*
X-5700000Y-26000000D01*
X17800000Y-201000000D02*
X18550000Y-201750000D01*
X218174999Y-179225000D02*
X218475000Y-179525001D01*
X18550000Y-126750000D02*
X19300000Y-126000000D01*
X-107200000Y-201000000D02*
X-106450000Y-201750000D01*
X43550000Y-26750000D02*
X43550000Y-28417024D01*
X42800000Y-126000000D02*
X43550000Y-126750000D01*
X19300000Y-176000000D02*
X42800000Y-176000000D01*
X19300000Y-26000000D02*
X42800000Y-26000000D01*
X18550000Y-176750000D02*
X19300000Y-176000000D01*
X-5700000Y-126000000D02*
X-6450000Y-126750000D01*
X43550000Y-101750000D02*
X42800000Y-101000000D01*
X-134232976Y-26900000D02*
X-131000000Y-26900000D01*
X-131082976Y-126750000D02*
X-130332976Y-126000000D01*
X17800000Y-151000000D02*
X18550000Y-151750000D01*
X-56450000Y-101750000D02*
X-55900000Y-101200000D01*
X-81982976Y-151000000D02*
X-81232976Y-151750000D01*
X-106450000Y-151750000D02*
X-105700000Y-151000000D01*
X211775001Y-179225000D02*
X218174999Y-179225000D01*
X18550000Y-101750000D02*
X17800000Y-101000000D01*
X-105700000Y-151000000D02*
X-81982976Y-151000000D01*
X211475000Y-180262500D02*
X211475000Y-179525001D01*
X-130332976Y-101000000D02*
X-131082976Y-101750000D01*
X-29882976Y-25550000D02*
X-7650000Y-25550000D01*
X70459566Y-199129446D02*
X70459566Y-25859566D01*
X-32032976Y-176200000D02*
X-31282976Y-176950000D01*
X187480000Y-193800000D02*
X188080002Y-193800000D01*
X-80482976Y-151000000D02*
X-57200000Y-151000000D01*
X19300000Y-201000000D02*
X42800000Y-201000000D01*
X43550000Y-28417024D02*
X43517024Y-28450000D01*
X19300000Y-101000000D02*
X18550000Y-101750000D01*
X-7200000Y-201000000D02*
X-6450000Y-201750000D01*
X252725000Y-185030000D02*
X252645000Y-184950000D01*
X-5700000Y-201000000D02*
X17800000Y-201000000D01*
X188580000Y-194900000D02*
X187480000Y-193800000D01*
X252725000Y-177880000D02*
X256525000Y-177880000D01*
X-106450000Y-176750000D02*
X-105700000Y-176000000D01*
X-57200000Y-51000000D02*
X-80482976Y-51000000D01*
X-131082976Y-151750000D02*
X-130332976Y-151000000D01*
X-55550000Y-200850000D02*
X-32382976Y-200850000D01*
X211393456Y-179225000D02*
X211475000Y-179306544D01*
X-6450000Y-201750000D02*
X-5700000Y-201000000D01*
X-6450000Y-151750000D02*
X-5700000Y-151000000D01*
X-30332976Y-76000000D02*
X-31282976Y-76950000D01*
X-81232976Y-101750000D02*
X-80482976Y-101000000D01*
X-31282976Y-126950000D02*
X-32032976Y-126200000D01*
X-81982976Y-126000000D02*
X-81232976Y-126750000D01*
X42800000Y-176000000D02*
X43550000Y-176750000D01*
X42800000Y-51000000D02*
X19300000Y-51000000D01*
X-131132976Y-76800000D02*
X-130332976Y-76000000D01*
X-55900000Y-101200000D02*
X-32032976Y-101200000D01*
X17800000Y-176000000D02*
X18550000Y-176750000D01*
X204475000Y-179525001D02*
X204775001Y-179225000D01*
X-55900000Y-76200000D02*
X-32032976Y-76200000D01*
X-81232976Y-51750000D02*
X-81982976Y-51000000D01*
X42800000Y-26000000D02*
X43550000Y-26750000D01*
X18550000Y-76750000D02*
X19300000Y-76000000D01*
X-106450000Y-26750000D02*
X-105700000Y-26000000D01*
X-130332976Y-151000000D02*
X-107200000Y-151000000D01*
X18550000Y-201750000D02*
X19300000Y-201000000D01*
X-55900000Y-51200000D02*
X-56450000Y-51750000D01*
X-31282976Y-201950000D02*
X-30332976Y-201000000D01*
X204775001Y-179225000D02*
X211393456Y-179225000D01*
X-106450000Y-101750000D02*
X-107200000Y-101000000D01*
X-130100000Y-26000000D02*
X-107200000Y-26000000D01*
X-107200000Y-101000000D02*
X-130332976Y-101000000D01*
X-30332976Y-201000000D02*
X-7200000Y-201000000D01*
X-5700000Y-176000000D02*
X17800000Y-176000000D01*
X-81232976Y-176750000D02*
X-80482976Y-176000000D01*
X42800000Y-201000000D02*
X43550000Y-201750000D01*
X-81232976Y-151750000D02*
X-80482976Y-151000000D01*
X-105700000Y-101000000D02*
X-106450000Y-101750000D01*
X188080002Y-193800000D02*
X201617502Y-180262500D01*
X-105700000Y-126000000D02*
X-81982976Y-126000000D01*
X-131082976Y-201750000D02*
X-132482976Y-200350000D01*
X247000000Y-186475000D02*
X247000000Y-194900000D01*
X-31282976Y-26950000D02*
X-29882976Y-25550000D01*
X42800000Y-151000000D02*
X43550000Y-151750000D01*
X-81982976Y-51000000D02*
X-105700000Y-51000000D01*
X19300000Y-51000000D02*
X18550000Y-51750000D01*
X-56450000Y-51750000D02*
X-57200000Y-51000000D01*
X42800000Y-101000000D02*
X19300000Y-101000000D01*
X-32382976Y-200850000D02*
X-31282976Y-201950000D01*
X-81982976Y-101000000D02*
X-105700000Y-101000000D01*
X-32032976Y-51200000D02*
X-55900000Y-51200000D01*
X-106450000Y-76750000D02*
X-105700000Y-76000000D01*
X-105700000Y-76000000D02*
X-81982976Y-76000000D01*
X-81982976Y-201000000D02*
X-81232976Y-201750000D01*
X-107200000Y-51000000D02*
X-130282976Y-51000000D01*
X-138682976Y-25250000D02*
X-135882976Y-25250000D01*
X-56450000Y-26750000D02*
X-55900000Y-26200000D01*
X-6450000Y-51750000D02*
X-7200000Y-51000000D01*
X-30332976Y-126000000D02*
X-7200000Y-126000000D01*
X-80482976Y-201000000D02*
X-57200000Y-201000000D01*
X-80482976Y-51000000D02*
X-81232976Y-51750000D01*
X-5700000Y-76000000D02*
X17800000Y-76000000D01*
X-81232976Y-201750000D02*
X-80482976Y-201000000D01*
X-130332976Y-76000000D02*
X-107200000Y-76000000D01*
X241025000Y-180500000D02*
X241025000Y-183580000D01*
X141400000Y-217700000D02*
X163580000Y-217700000D01*
X-81232976Y-26750000D02*
X-80482976Y-26000000D01*
X-131000000Y-26900000D02*
X-130100000Y-26000000D01*
X211475000Y-179525001D02*
X211775001Y-179225000D01*
X-32032976Y-101200000D02*
X-31282976Y-101950000D01*
X42800000Y-76000000D02*
X43550000Y-76750000D01*
X163580000Y-217700000D02*
X187480000Y-193800000D01*
X-105700000Y-176000000D02*
X-81982976Y-176000000D01*
X-7200000Y-51000000D02*
X-30332976Y-51000000D01*
X256525000Y-177880000D02*
X256525000Y-186520000D01*
X18550000Y-126750000D02*
X17800000Y-126000000D01*
X-57200000Y-126000000D02*
X-56450000Y-126750000D01*
X-107200000Y-126000000D02*
X-106450000Y-126750000D01*
X-31282976Y-126950000D02*
X-30332976Y-126000000D01*
X18550000Y-151750000D02*
X19300000Y-151000000D01*
X-32032976Y-151200000D02*
X-31282976Y-151950000D01*
X-55900000Y-126200000D02*
X-56450000Y-126750000D01*
X-105700000Y-26000000D02*
X-81982976Y-26000000D01*
X-56450000Y-76750000D02*
X-55900000Y-76200000D01*
X-55900000Y-151200000D02*
X-32032976Y-151200000D01*
X-7200000Y-176000000D02*
X-6450000Y-176750000D01*
X-7200000Y-151000000D02*
X-6450000Y-151750000D01*
X-56450000Y-151750000D02*
X-55900000Y-151200000D01*
X-107200000Y-151000000D02*
X-106450000Y-151750000D01*
X-55900000Y-26200000D02*
X-32032976Y-26200000D01*
X19300000Y-76000000D02*
X42800000Y-76000000D01*
X-6450000Y-76750000D02*
X-5700000Y-76000000D01*
X-6450000Y-76750000D02*
X-7200000Y-76000000D01*
X-130332976Y-176000000D02*
X-107200000Y-176000000D01*
X-5700000Y-51000000D02*
X-6450000Y-51750000D01*
X-81232976Y-76750000D02*
X-80482976Y-76000000D01*
X252725000Y-186520000D02*
X252725000Y-185030000D01*
X43550000Y-51750000D02*
X42800000Y-51000000D01*
X-107200000Y-26000000D02*
X-106450000Y-26750000D01*
X-30332976Y-51000000D02*
X-31282976Y-51950000D01*
X70359566Y-25759566D02*
X70359566Y-24029446D01*
X-57200000Y-201000000D02*
X-56450000Y-201750000D01*
X-6450000Y-176750000D02*
X-5700000Y-176000000D01*
X241025000Y-180500000D02*
X247000000Y-186475000D01*
X252645000Y-179450000D02*
X252645000Y-177960000D01*
X-32032976Y-76200000D02*
X-31282976Y-76950000D01*
X17800000Y-26000000D02*
X18550000Y-26750000D01*
X256525000Y-186520000D02*
X252725000Y-186520000D01*
X-80482976Y-176000000D02*
X-57200000Y-176000000D01*
X-80482976Y-76000000D02*
X-57200000Y-76000000D01*
X-106450000Y-126750000D02*
X-105700000Y-126000000D01*
X-130332976Y-126000000D02*
X-107200000Y-126000000D01*
X17800000Y-76000000D02*
X18550000Y-76750000D01*
X-105700000Y-201000000D02*
X-81982976Y-201000000D01*
X-130282976Y-51000000D02*
X-131032976Y-51750000D01*
X18550000Y-51750000D02*
X17800000Y-51000000D01*
X204475000Y-180262500D02*
X204475000Y-179525001D01*
X-5700000Y-26000000D02*
X17800000Y-26000000D01*
X17800000Y-126000000D02*
X-5700000Y-126000000D01*
X-81982976Y-26000000D02*
X-81232976Y-26750000D01*
X-32032976Y-26200000D02*
X-31282976Y-26950000D01*
X70459566Y-25859566D02*
X70359566Y-25759566D01*
X-57200000Y-26000000D02*
X-56450000Y-26750000D01*
X-7200000Y-101000000D02*
X-6450000Y-101750000D01*
X-107200000Y-176000000D02*
X-106450000Y-176750000D01*
X201617502Y-180262500D02*
X204475000Y-180262500D01*
X17800000Y-101000000D02*
X-5700000Y-101000000D01*
X-7200000Y-126000000D02*
X-6450000Y-126750000D01*
X-105700000Y-51000000D02*
X-106450000Y-51750000D01*
X-57200000Y-101000000D02*
X-56450000Y-101750000D01*
X-106450000Y-201750000D02*
X-105700000Y-201000000D01*
X-31282976Y-176950000D02*
X-30332976Y-176000000D01*
X19300000Y-151000000D02*
X42800000Y-151000000D01*
X241025000Y-183580000D02*
X241005000Y-183600000D01*
X-81232976Y-126750000D02*
X-80482976Y-126000000D01*
X-131082976Y-176750000D02*
X-130332976Y-176000000D01*
X-7650000Y-25550000D02*
X-6450000Y-26750000D01*
X211475000Y-179306544D02*
X211475000Y-180262500D01*
X-30332976Y-151000000D02*
X-7200000Y-151000000D01*
X-57200000Y-176000000D02*
X-56450000Y-176750000D01*
X-130332976Y-201000000D02*
X-107200000Y-201000000D01*
X17800000Y-51000000D02*
X-5700000Y-51000000D01*
X-5700000Y-151000000D02*
X17800000Y-151000000D01*
X-56450000Y-201750000D02*
X-55550000Y-200850000D01*
X-81232976Y-101750000D02*
X-81982976Y-101000000D01*
X-80482976Y-126000000D02*
X-57200000Y-126000000D01*
X-55900000Y-176200000D02*
X-32032976Y-176200000D01*
X18550000Y-26750000D02*
X19300000Y-26000000D01*
X-107200000Y-76000000D02*
X-106450000Y-76750000D01*
X252645000Y-177960000D02*
X252725000Y-177880000D01*
X-81982976Y-176000000D02*
X-81232976Y-176750000D01*
X-7200000Y-76000000D02*
X-30332976Y-76000000D01*
X-57200000Y-151000000D02*
X-56450000Y-151750000D01*
X-31282976Y-151950000D02*
X-30332976Y-151000000D01*
X-31282976Y-51950000D02*
X-32032976Y-51200000D01*
X-80482976Y-26000000D02*
X-57200000Y-26000000D01*
X-81982976Y-76000000D02*
X-81232976Y-76750000D01*
X-30332976Y-176000000D02*
X-7200000Y-176000000D01*
X-5700000Y-101000000D02*
X-6450000Y-101750000D01*
X-31282976Y-101950000D02*
X-30332976Y-101000000D01*
X-131082976Y-201750000D02*
X-130332976Y-201000000D01*
X-135882976Y-25250000D02*
X-134232976Y-26900000D01*
X19300000Y-126000000D02*
X42800000Y-126000000D01*
X-106450000Y-51750000D02*
X-107200000Y-51000000D01*
X-56450000Y-176750000D02*
X-55900000Y-176200000D01*
X-132482976Y-200350000D02*
X-138582976Y-200350000D01*
X-57200000Y-76000000D02*
X-56450000Y-76750000D01*
X-80482976Y-101000000D02*
X-57200000Y-101000000D01*
%TO.N,Net-(D3-DOUT)*%
X-136032976Y-76800000D02*
X-131082976Y-81750000D01*
X-131082976Y-81750000D02*
X-131082976Y-98450000D01*
%TO.N,Net-(D36-DOUT)*%
X-31282976Y-123650000D02*
X-36182976Y-118750000D01*
X-36182976Y-118750000D02*
X-36182976Y-101950000D01*
%TO.N,Net-(D35-DOUT)*%
X-36182976Y-76950000D02*
X-31282976Y-81850000D01*
X-31282976Y-81850000D02*
X-31282976Y-98650000D01*
%TO.N,Net-(D59-DOUT)*%
X43550000Y-81650000D02*
X43550000Y-98450000D01*
X38650000Y-76750000D02*
X43550000Y-81650000D01*
%TO.N,Net-(D58-DOUT)*%
X38650000Y-68550000D02*
X38650000Y-51750000D01*
X43550000Y-73450000D02*
X38650000Y-68550000D01*
%TO.N,Net-(D64-DOUT)*%
X38650000Y-201750000D02*
X32617024Y-201750000D01*
X32617024Y-201750000D02*
X32417024Y-201950000D01*
%TO.N,Net-(D63-DOUT)*%
X43550000Y-181650000D02*
X43550000Y-198450000D01*
X38650000Y-176750000D02*
X43550000Y-181650000D01*
%TO.N,/3.3v*%
X210056544Y-175575000D02*
X211225000Y-175575000D01*
X223293456Y-175575000D02*
X223675000Y-175193456D01*
X218775001Y-175575000D02*
X223293456Y-175575000D01*
X204775001Y-175575000D02*
X209293456Y-175575000D01*
X218475000Y-175274999D02*
X218775001Y-175575000D01*
X211475000Y-175274999D02*
X211775001Y-175575000D01*
X209293456Y-175575000D02*
X209675000Y-175193456D01*
X216293456Y-175575000D02*
X216675000Y-175193456D01*
X211475000Y-174537500D02*
X211475000Y-175274999D01*
X218475000Y-174537500D02*
X218475000Y-175274999D01*
X165554314Y-215160000D02*
X166207157Y-214507157D01*
X211475000Y-175325000D02*
X211475000Y-174537500D01*
X217056544Y-175575000D02*
X216675000Y-175193456D01*
X211775001Y-175575000D02*
X216293456Y-175575000D01*
X204475000Y-174537500D02*
X204475000Y-175274999D01*
X218475000Y-175274999D02*
X218174999Y-175575000D01*
X141400000Y-215160000D02*
X165554314Y-215160000D01*
X166207157Y-214507157D02*
X166207157Y-212805343D01*
X216675000Y-175193456D02*
X216675000Y-174537500D01*
X223675000Y-175193456D02*
X223675000Y-174537500D01*
X211225000Y-175575000D02*
X211475000Y-175325000D01*
X166207157Y-212805343D02*
X204475000Y-174537500D01*
X188090000Y-155930000D02*
X188090000Y-174537500D01*
X209675000Y-174537500D02*
X209675000Y-175193456D01*
X204475000Y-175274999D02*
X204775001Y-175575000D01*
X209675000Y-175193456D02*
X210056544Y-175575000D01*
X218174999Y-175575000D02*
X217056544Y-175575000D01*
X188090000Y-174537500D02*
X204475000Y-174537500D01*
%TO.N,/~{BUSY_L}*%
X222375000Y-173425000D02*
X222400000Y-173400000D01*
X195710000Y-173290000D02*
X195710000Y-155930000D01*
X195700000Y-173300000D02*
X195710000Y-173290000D01*
X222375000Y-174537500D02*
X222375000Y-173425000D01*
%TO.N,/~{INT_L}*%
X198250000Y-172550000D02*
X198250000Y-155930000D01*
X221725000Y-172825000D02*
X221700000Y-172800000D01*
X198200000Y-172800000D02*
X198200000Y-172600000D01*
X221725000Y-174537500D02*
X221725000Y-172825000D01*
X198200000Y-172600000D02*
X198250000Y-172550000D01*
%TO.N,/~{OE_L}*%
X221075000Y-172210421D02*
X221085421Y-172200000D01*
X221075000Y-174537500D02*
X221075000Y-172210421D01*
X200790000Y-172190000D02*
X200790000Y-155930000D01*
X200800000Y-172200000D02*
X200790000Y-172190000D01*
%TO.N,/A0_L*%
X203330000Y-171770000D02*
X203330000Y-155930000D01*
X220425000Y-174537500D02*
X220425000Y-171850000D01*
X203300000Y-171800000D02*
X203330000Y-171770000D01*
X220425000Y-171850000D02*
X220375000Y-171800000D01*
%TO.N,/A1_L*%
X219775000Y-159675000D02*
X216030000Y-155930000D01*
X219775000Y-174537500D02*
X219775000Y-159675000D01*
%TO.N,/A2_L*%
X223650000Y-161950000D02*
X223650000Y-155930000D01*
X219125000Y-174537500D02*
X219125000Y-166350000D01*
X219125000Y-166350000D02*
X219100000Y-166325000D01*
X223611092Y-161988908D02*
X223650000Y-161950000D01*
%TO.N,Net-(U3-A2_L)*%
X219125000Y-185725000D02*
X227200000Y-193800000D01*
X227200000Y-193800000D02*
X228120000Y-193800000D01*
X219125000Y-180262500D02*
X219125000Y-185725000D01*
%TO.N,Net-(U3-A1_L)*%
X229800000Y-193800000D02*
X230660000Y-193800000D01*
X219775000Y-183775000D02*
X229800000Y-193800000D01*
X219775000Y-180262500D02*
X219775000Y-183775000D01*
%TO.N,Net-(U3-A0_L)*%
X229282843Y-192717157D02*
X229300000Y-192700000D01*
X232100000Y-192700000D02*
X233200000Y-193800000D01*
X220425000Y-183859314D02*
X229282843Y-192717157D01*
X229300000Y-192700000D02*
X232100000Y-192700000D01*
X220425000Y-180262500D02*
X220425000Y-183859314D01*
%TO.N,Net-(U3-~{OE_L})*%
X233974314Y-192034314D02*
X235740000Y-193800000D01*
X221075000Y-183943628D02*
X229165686Y-192034314D01*
X221075000Y-180262500D02*
X221075000Y-183943628D01*
X229165686Y-192034314D02*
X233974314Y-192034314D01*
%TO.N,Net-(U3-~{INT_L})*%
X236114314Y-191634314D02*
X238280000Y-193800000D01*
X221725000Y-180262500D02*
X221725000Y-184027942D01*
X221725000Y-184027942D02*
X229331372Y-191634314D01*
X229331372Y-191634314D02*
X236114314Y-191634314D01*
%TO.N,Net-(U3-~{BUSY_L})*%
X222375000Y-180262500D02*
X222375000Y-184112256D01*
X238254314Y-191234314D02*
X240820000Y-193800000D01*
X222375000Y-184112256D02*
X229497058Y-191234314D01*
X229497058Y-191234314D02*
X238254314Y-191234314D01*
%TO.N,Net-(U3-~{RW_L})*%
X229662744Y-190834314D02*
X240394314Y-190834314D01*
X223025000Y-180262500D02*
X223025000Y-184196570D01*
X223025000Y-184196570D02*
X229662744Y-190834314D01*
X240394314Y-190834314D02*
X243360000Y-193800000D01*
%TO.N,/5V*%
X209675000Y-181875000D02*
X209700000Y-181900000D01*
X253545000Y-183420000D02*
X253545000Y-180980000D01*
X238890000Y-167525000D02*
X238890000Y-155930000D01*
X253245000Y-180680000D02*
X252645000Y-180680000D01*
X253245000Y-183720000D02*
X253545000Y-183420000D01*
X255359566Y-23829446D02*
X255359566Y-134870434D01*
X216700000Y-180287500D02*
X216675000Y-180262500D01*
X223725000Y-180312500D02*
X223675000Y-180262500D01*
X253545000Y-180980000D02*
X253245000Y-180680000D01*
X252045000Y-180680000D02*
X238890000Y-167525000D01*
X251575000Y-195044880D02*
X251575000Y-184190000D01*
X252645000Y-183720000D02*
X253245000Y-183720000D01*
X252045000Y-183720000D02*
X252645000Y-183720000D01*
X255359566Y-134870434D02*
X238890000Y-151340000D01*
X251575000Y-184190000D02*
X252045000Y-183720000D01*
X238890000Y-167525000D02*
X235756544Y-167525000D01*
X255459566Y-198929446D02*
X251575000Y-195044880D01*
X252645000Y-180680000D02*
X252045000Y-180680000D01*
X235756544Y-167525000D02*
X223675000Y-179606544D01*
X209675000Y-180262500D02*
X209675000Y-181875000D01*
X255459566Y-199480434D02*
X245900000Y-209040000D01*
X223725000Y-181900000D02*
X223725000Y-180312500D01*
X223675000Y-179606544D02*
X223675000Y-180262500D01*
X216700000Y-181900000D02*
X216700000Y-180287500D01*
X255459566Y-198929446D02*
X255459566Y-199480434D01*
%TO.N,Net-(U3-~{CE_L})*%
X224325000Y-184930884D02*
X229828430Y-190434314D01*
X242534314Y-190434314D02*
X245900000Y-193800000D01*
X224325000Y-180262500D02*
X224325000Y-184930884D01*
X229828430Y-190434314D02*
X242534314Y-190434314D01*
%TO.N,/A8_L*%
X205825000Y-171400000D02*
X205825000Y-171175000D01*
X205870000Y-171130000D02*
X205870000Y-155930000D01*
X205825000Y-171175000D02*
X205870000Y-171130000D01*
X213425000Y-171425000D02*
X213400000Y-171400000D01*
X213425000Y-174537500D02*
X213425000Y-171425000D01*
%TO.N,/A9_L*%
X212775000Y-174537500D02*
X212775000Y-170825000D01*
X212775000Y-170825000D02*
X212800000Y-170800000D01*
X207500000Y-170800000D02*
X207500000Y-156840000D01*
X207500000Y-156840000D02*
X208410000Y-155930000D01*
%TO.N,/IO0_L*%
X210325000Y-174537500D02*
X210325000Y-163325000D01*
X210325000Y-163325000D02*
X210100000Y-163100000D01*
%TO.N,/IO1_L*%
X209025000Y-174537500D02*
X209025000Y-172572055D01*
X209025000Y-172572055D02*
X209500000Y-172097055D01*
X209500000Y-172097055D02*
X209500000Y-162397438D01*
%TO.N,/A3_L*%
X217325000Y-174537500D02*
X217325000Y-166350000D01*
X217325000Y-166350000D02*
X217300000Y-166325000D01*
X226190000Y-161490000D02*
X226190000Y-155930000D01*
X226200000Y-161500000D02*
X226190000Y-161490000D01*
%TO.N,/A4_L*%
X228730000Y-171270000D02*
X228730000Y-155930000D01*
X216025000Y-171425000D02*
X216000000Y-171400000D01*
X228700000Y-171300000D02*
X228730000Y-171270000D01*
X216025000Y-174537500D02*
X216025000Y-171425000D01*
%TO.N,/A5_L*%
X215375000Y-174537500D02*
X215375000Y-170825000D01*
X231200000Y-170600000D02*
X231270000Y-170530000D01*
X231270000Y-170530000D02*
X231270000Y-155930000D01*
X215375000Y-170825000D02*
X215400000Y-170800000D01*
%TO.N,/A6_L*%
X214725000Y-174537500D02*
X214725000Y-170325000D01*
X233816507Y-168616507D02*
X233810000Y-168610000D01*
X214725000Y-170325000D02*
X214700000Y-170300000D01*
X233810000Y-168610000D02*
X233810000Y-155930000D01*
%TO.N,/A7_L*%
X236350000Y-166875000D02*
X236350000Y-155930000D01*
X214100000Y-174512500D02*
X214100000Y-168300000D01*
X236300000Y-166925000D02*
X236350000Y-166875000D01*
X214075000Y-174537500D02*
X214100000Y-174512500D01*
%TO.N,Net-(J5-Pin_1)*%
X233200000Y-215620000D02*
X232720000Y-216100000D01*
X233200000Y-209040000D02*
X233200000Y-215620000D01*
%TO.N,Net-(J5-Pin_2)*%
X235740000Y-209040000D02*
X235740000Y-215620000D01*
X235740000Y-215620000D02*
X235260000Y-216100000D01*
%TO.N,Net-(J5-Pin_3)*%
X238280000Y-209040000D02*
X238280000Y-215620000D01*
X238280000Y-215620000D02*
X237800000Y-216100000D01*
%TO.N,Net-(J5-Pin_4)*%
X240820000Y-209040000D02*
X240820000Y-215620000D01*
X240820000Y-215620000D02*
X240340000Y-216100000D01*
%TO.N,Net-(J5-Pin_5)*%
X243360000Y-215620000D02*
X242880000Y-216100000D01*
X243360000Y-209040000D02*
X243360000Y-215620000D01*
%TO.N,Net-(D32-DOUT)*%
X-61350000Y-201750000D02*
X-58882976Y-201750000D01*
%TO.N,Net-(D31-DOUT)*%
X-56450000Y-181650000D02*
X-56450000Y-198450000D01*
X-61350000Y-176750000D02*
X-56450000Y-181650000D01*
%TO.N,Net-(D18-DOUT)*%
X-81232976Y-73450000D02*
X-86132976Y-68550000D01*
X-86132976Y-68550000D02*
X-86132976Y-51750000D01*
%TO.N,Net-(D17-DOUT)*%
X-81232976Y-31650000D02*
X-81232976Y-48450000D01*
X-86132976Y-26750000D02*
X-81232976Y-31650000D01*
%TO.N,Net-(D27-DOUT)*%
X-56450000Y-81650000D02*
X-56450000Y-98450000D01*
X-61350000Y-76750000D02*
X-56450000Y-81650000D01*
%TO.N,Net-(D26-DOUT)*%
X-61350000Y-68550000D02*
X-61350000Y-51750000D01*
X-56450000Y-73450000D02*
X-61350000Y-68550000D01*
%TO.N,Net-(D24-DOUT)*%
X-86132976Y-201750000D02*
X-83682976Y-201750000D01*
%TO.N,Net-(D23-DOUT)*%
X-81232976Y-181650000D02*
X-81232976Y-198450000D01*
X-86132976Y-176750000D02*
X-81232976Y-181650000D01*
%TO.N,Net-(J10-CC1)*%
X249525000Y-182700000D02*
X252645000Y-182700000D01*
X248625000Y-183600000D02*
X249525000Y-182700000D01*
%TO.N,Net-(J10-CC2)*%
X249845000Y-181700000D02*
X248645000Y-180500000D01*
X252645000Y-181700000D02*
X249845000Y-181700000D01*
%TO.N,Net-(D11-DOUT)*%
X-106450000Y-81650000D02*
X-106450000Y-98450000D01*
X-111350000Y-76750000D02*
X-106450000Y-81650000D01*
%TO.N,Net-(D10-DOUT)*%
X-111350000Y-68550000D02*
X-111350000Y-51750000D01*
X-106450000Y-73450000D02*
X-111350000Y-68550000D01*
%TO.N,Net-(D40-DOUT)*%
X-33682976Y-201800000D02*
X-33832976Y-201950000D01*
X-33832976Y-201950000D02*
X-36182976Y-201950000D01*
X-33682976Y-201450000D02*
X-33682976Y-201800000D01*
%TO.N,Net-(D39-DOUT)*%
X-36182976Y-176950000D02*
X-31282976Y-181850000D01*
X-31282976Y-181850000D02*
X-31282976Y-198650000D01*
%TO.N,Net-(D19-DOUT)*%
X-81232976Y-81650000D02*
X-81232976Y-98450000D01*
X-86132976Y-76750000D02*
X-81232976Y-81650000D01*
%TO.N,Net-(D43-DOUT)*%
X-11350000Y-76750000D02*
X-6450000Y-81650000D01*
X-6450000Y-81650000D02*
X-6450000Y-98450000D01*
%TO.N,Net-(D42-DOUT)*%
X-11350000Y-68550000D02*
X-11350000Y-51750000D01*
X-6450000Y-73450000D02*
X-11350000Y-68550000D01*
%TO.N,Net-(D44-DOUT)*%
X-6450000Y-123450000D02*
X-11350000Y-118550000D01*
X-11350000Y-118550000D02*
X-11350000Y-101750000D01*
%TO.N,Net-(D48-DOUT)*%
X-8982976Y-201750000D02*
X-11350000Y-201750000D01*
X-8882976Y-201600000D02*
X-8882976Y-201650000D01*
X-8882976Y-201650000D02*
X-8982976Y-201750000D01*
%TO.N,Net-(D47-DOUT)*%
X-11350000Y-176750000D02*
X-6450000Y-181650000D01*
X-6450000Y-181650000D02*
X-6450000Y-198450000D01*
%TO.N,Net-(D46-DOUT)*%
X-11350000Y-168550000D02*
X-11350000Y-151750000D01*
X-6450000Y-173450000D02*
X-11350000Y-168550000D01*
%TO.N,Net-(D54-DOUT)*%
X18550000Y-173450000D02*
X13650000Y-168550000D01*
X13650000Y-168550000D02*
X13650000Y-151750000D01*
%TO.N,Net-(D53-DOUT)*%
X18550000Y-131650000D02*
X18550000Y-148450000D01*
X13650000Y-126750000D02*
X18550000Y-131650000D01*
%TO.N,Net-(D21-DOUT)*%
X-81232976Y-131650000D02*
X-81232976Y-148450000D01*
X-86132976Y-126750000D02*
X-81232976Y-131650000D01*
%TO.N,Net-(D20-DOUT)*%
X-86132976Y-118550000D02*
X-86132976Y-101750000D01*
X-81232976Y-123450000D02*
X-86132976Y-118550000D01*
%TO.N,Net-(D1-DIN)*%
X-131000000Y-23600000D02*
X-134032976Y-23600000D01*
X-49082976Y-202350000D02*
X-46882976Y-204550000D01*
X-134032976Y-23600000D02*
X-134082976Y-23550000D01*
X-49582976Y-202350000D02*
X-49082976Y-202350000D01*
%TO.N,Net-(D10-DIN)*%
X-106450000Y-31650000D02*
X-106450000Y-48450000D01*
X-111350000Y-26750000D02*
X-106450000Y-31650000D01*
%TO.N,Net-(D8-DOUT)*%
X-135982976Y-201750000D02*
X-133582976Y-201750000D01*
%TO.N,Net-(D50-DOUT)*%
X18550000Y-73450000D02*
X13650000Y-68550000D01*
X13650000Y-68550000D02*
X13650000Y-51750000D01*
%TO.N,Net-(D49-DOUT)*%
X13650000Y-26750000D02*
X18550000Y-31650000D01*
X18550000Y-31650000D02*
X18550000Y-48450000D01*
%TO.N,Net-(D34-DOUT)*%
X-36182976Y-68750000D02*
X-36182976Y-51950000D01*
X-31282976Y-73650000D02*
X-36182976Y-68750000D01*
%TO.N,Net-(D41-DOUT)*%
X-6450000Y-31650000D02*
X-6450000Y-48450000D01*
X-11350000Y-26750000D02*
X-6450000Y-31650000D01*
%TO.N,Net-(D60-DOUT)*%
X38650000Y-118550000D02*
X38650000Y-101750000D01*
X43550000Y-123450000D02*
X38650000Y-118550000D01*
%TO.N,Net-(D2-DOUT)*%
X-135932976Y-68700000D02*
X-135932976Y-51750000D01*
X-131132976Y-73500000D02*
X-135932976Y-68700000D01*
%TO.N,Net-(D45-DOUT)*%
X-6450000Y-131650000D02*
X-6450000Y-148450000D01*
X-11350000Y-126750000D02*
X-6450000Y-131650000D01*
%TO.N,Net-(D30-DOUT)*%
X-61350000Y-168550000D02*
X-61350000Y-151750000D01*
X-56450000Y-173450000D02*
X-61350000Y-168550000D01*
%TO.N,Net-(D29-DOUT)*%
X-56450000Y-131650000D02*
X-56450000Y-148450000D01*
X-61350000Y-126750000D02*
X-56450000Y-131650000D01*
%TO.N,Net-(D22-DOUT)*%
X-81232976Y-173450000D02*
X-86132976Y-168550000D01*
X-86132976Y-168550000D02*
X-86132976Y-151750000D01*
%TO.N,Net-(D12-DOUT)*%
X-106450000Y-123450000D02*
X-111350000Y-118550000D01*
X-111350000Y-118550000D02*
X-111350000Y-101750000D01*
%TO.N,Net-(J12-Pin_1)*%
X187480000Y-209040000D02*
X187480000Y-213600000D01*
X187480000Y-213600000D02*
X184980000Y-216100000D01*
%TO.N,Net-(J12-Pin_2)*%
X190020000Y-213600000D02*
X187520000Y-216100000D01*
X190020000Y-209040000D02*
X190020000Y-213600000D01*
%TO.N,Net-(J12-Pin_3)*%
X192560000Y-213600000D02*
X190060000Y-216100000D01*
X192560000Y-209040000D02*
X192560000Y-213600000D01*
%TO.N,Net-(J12-Pin_4)*%
X195100000Y-209040000D02*
X195100000Y-213600000D01*
X195100000Y-213600000D02*
X192600000Y-216100000D01*
%TO.N,Net-(J12-Pin_5)*%
X197640000Y-213600000D02*
X195140000Y-216100000D01*
X197640000Y-209040000D02*
X197640000Y-213600000D01*
%TO.N,Net-(J12-Pin_6)*%
X200180000Y-209040000D02*
X200180000Y-213600000D01*
X200180000Y-213600000D02*
X197680000Y-216100000D01*
%TO.N,Net-(J12-Pin_7)*%
X202720000Y-213600000D02*
X200220000Y-216100000D01*
X202720000Y-209040000D02*
X202720000Y-213600000D01*
%TO.N,Net-(J12-Pin_8)*%
X205260000Y-209040000D02*
X205260000Y-213600000D01*
X205260000Y-213600000D02*
X202760000Y-216100000D01*
%TO.N,Net-(D16-DOUT)*%
X-108982976Y-201750000D02*
X-111350000Y-201750000D01*
X-108882976Y-201600000D02*
X-108882976Y-201650000D01*
X-108882976Y-201650000D02*
X-108982976Y-201750000D01*
%TO.N,Net-(D15-DOUT)*%
X-106450000Y-181650000D02*
X-106450000Y-198450000D01*
X-111350000Y-176750000D02*
X-106450000Y-181650000D01*
%TO.N,Net-(D25-DOUT)*%
X-56450000Y-31650000D02*
X-56450000Y-48450000D01*
X-61350000Y-26750000D02*
X-56450000Y-31650000D01*
%TO.N,Net-(D33-DOUT)*%
X-36182976Y-26950000D02*
X-31282976Y-31850000D01*
X-31282976Y-31850000D02*
X-31282976Y-48650000D01*
%TO.N,Net-(U3-IO7_L)*%
X203120000Y-181300000D02*
X204824999Y-181300000D01*
X190620000Y-193800000D02*
X203120000Y-181300000D01*
X205125000Y-180999999D02*
X205125000Y-180262500D01*
X204824999Y-181300000D02*
X205125000Y-180999999D01*
X190020000Y-193800000D02*
X190620000Y-193800000D01*
%TO.N,Net-(U3-IO6_L)*%
X193575000Y-193800000D02*
X194000000Y-193375000D01*
X194644365Y-192700000D02*
X194675000Y-192700000D01*
X194000000Y-193344365D02*
X194644365Y-192700000D01*
X192560000Y-193800000D02*
X193575000Y-193800000D01*
X205775000Y-181600000D02*
X205775000Y-180262500D01*
X194675000Y-192700000D02*
X205775000Y-181600000D01*
X194000000Y-193375000D02*
X194000000Y-193344365D01*
%TO.N,Net-(U3-IO5_L)*%
X195100000Y-193800000D02*
X195700000Y-193800000D01*
X195700000Y-193800000D02*
X206425000Y-183075000D01*
X206425000Y-183075000D02*
X206425000Y-180262500D01*
%TO.N,Net-(U3-IO4_L)*%
X197640000Y-193800000D02*
X198240002Y-193800000D01*
X198240002Y-193800000D02*
X207075000Y-184965002D01*
X207075000Y-184965002D02*
X207075000Y-180262500D01*
%TO.N,Net-(U3-IO3_L)*%
X207725000Y-186855000D02*
X207725000Y-180262500D01*
X200180000Y-193800000D02*
X200780000Y-193800000D01*
X200780000Y-193800000D02*
X207725000Y-186855000D01*
%TO.N,Net-(U3-IO2_L)*%
X202720000Y-193800000D02*
X203320000Y-193800000D01*
X208375000Y-188745000D02*
X208375000Y-180262500D01*
X203320000Y-193800000D02*
X208375000Y-188745000D01*
%TO.N,Net-(U3-IO1_L)*%
X209025000Y-180262500D02*
X209025000Y-190635000D01*
X205860000Y-193800000D02*
X205260000Y-193800000D01*
X209025000Y-190635000D02*
X205860000Y-193800000D01*
%TO.N,Net-(U3-IO0_L)*%
X210325000Y-191875000D02*
X208400000Y-193800000D01*
X208400000Y-193800000D02*
X207800000Y-193800000D01*
X210325000Y-180262500D02*
X210325000Y-191875000D01*
%TO.N,Net-(D56-DOUT)*%
X16117024Y-201650000D02*
X16017024Y-201750000D01*
X16117024Y-201600000D02*
X16117024Y-201650000D01*
X16017024Y-201750000D02*
X13650000Y-201750000D01*
%TO.N,Net-(D55-DOUT)*%
X18550000Y-181650000D02*
X18550000Y-198450000D01*
X13650000Y-176750000D02*
X18550000Y-181650000D01*
%TO.N,Net-(D38-DOUT)*%
X-36182976Y-168750000D02*
X-36182976Y-151950000D01*
X-31282976Y-173650000D02*
X-36182976Y-168750000D01*
%TO.N,Net-(D51-DOUT)*%
X18550000Y-81650000D02*
X18550000Y-98450000D01*
X13650000Y-76750000D02*
X18550000Y-81650000D01*
%TO.N,Net-(D6-DOUT)*%
X-131082976Y-173450000D02*
X-135982976Y-168550000D01*
X-135982976Y-168550000D02*
X-135982976Y-151750000D01*
%TO.N,Net-(D5-DOUT)*%
X-135982976Y-126750000D02*
X-131082976Y-131650000D01*
X-131082976Y-131650000D02*
X-131082976Y-148450000D01*
%TO.N,Net-(D14-DOUT)*%
X-106450000Y-173450000D02*
X-111350000Y-168550000D01*
X-111350000Y-168550000D02*
X-111350000Y-151750000D01*
%TO.N,Net-(D13-DOUT)*%
X-106450000Y-131650000D02*
X-106450000Y-148450000D01*
X-111350000Y-126750000D02*
X-106450000Y-131650000D01*
%TO.N,Net-(D28-DOUT)*%
X-61350000Y-118550000D02*
X-61350000Y-101750000D01*
X-56450000Y-123450000D02*
X-61350000Y-118550000D01*
%TO.N,Net-(D57-DOUT)*%
X38650000Y-26750000D02*
X41317024Y-29417024D01*
X41317024Y-29417024D02*
X41317024Y-46217024D01*
X41317024Y-46217024D02*
X43550000Y-48450000D01*
%TO.N,Net-(D7-DOUT)*%
X-135982976Y-176750000D02*
X-131082976Y-181650000D01*
X-131082976Y-181650000D02*
X-131082976Y-198450000D01*
%TO.N,Net-(D62-DOUT)*%
X43550000Y-173450000D02*
X38650000Y-168550000D01*
X38650000Y-168550000D02*
X38650000Y-151750000D01*
%TO.N,Net-(D61-DOUT)*%
X43550000Y-131650000D02*
X43550000Y-148450000D01*
X38650000Y-126750000D02*
X43550000Y-131650000D01*
%TO.N,Net-(D1-DOUT)*%
X-135900000Y-26900000D02*
X-131032976Y-31767024D01*
X-131032976Y-31767024D02*
X-131032976Y-48450000D01*
%TO.N,Net-(U3-A9_L)*%
X212775000Y-191365000D02*
X210340000Y-193800000D01*
X212775000Y-180262500D02*
X212775000Y-191365000D01*
%TO.N,Net-(U3-A8_L)*%
X213425000Y-193255000D02*
X213425000Y-180262500D01*
X212880000Y-193800000D02*
X213425000Y-193255000D01*
%TO.N,Net-(U3-A7_L)*%
X214075000Y-192455000D02*
X214075000Y-180262500D01*
X215420000Y-193800000D02*
X214075000Y-192455000D01*
%TO.N,Net-(U3-A6_L)*%
X214725000Y-190565000D02*
X214725000Y-180262500D01*
X217960000Y-193800000D02*
X214725000Y-190565000D01*
%TO.N,Net-(U3-A5_L)*%
X220500000Y-193800000D02*
X215375000Y-188675000D01*
X215375000Y-188675000D02*
X215375000Y-180262500D01*
%TO.N,Net-(U3-A4_L)*%
X216025000Y-186785000D02*
X216025000Y-180262500D01*
X223040000Y-193800000D02*
X216025000Y-186785000D01*
%TO.N,Net-(U3-A3_L)*%
X224700000Y-193800000D02*
X217325000Y-186425000D01*
X217325000Y-186425000D02*
X217325000Y-180262500D01*
X225580000Y-193800000D02*
X224700000Y-193800000D01*
%TO.N,Net-(D37-DOUT)*%
X-36182976Y-126950000D02*
X-31282976Y-131850000D01*
X-31282976Y-131850000D02*
X-31282976Y-148650000D01*
%TO.N,Net-(D52-DOUT)*%
X18550000Y-123450000D02*
X13650000Y-118550000D01*
X13650000Y-118550000D02*
X13650000Y-101750000D01*
%TD*%
M02*
