M48
; DRILL file KiCad 10.0.3 date 2026-06-16T09:31:58
; FORMAT={-:-/ absolute / metric / decimal}
; #@! TF.CreationDate,2026-06-16T09:31:58+08:00
; #@! TF.GenerationSoftware,Kicad,Pcbnew,10.0.3
; #@! TF.FileFunction,Plated,1,2,PTH
FMAT,2
METRIC
; #@! TA.AperFunction,Plated,PTH,ViaDrill
T1C0.300
; #@! TA.AperFunction,Plated,PTH,ComponentDrill
T2C0.600
; #@! TA.AperFunction,Plated,PTH,ComponentDrill
T3C0.800
; #@! TA.AperFunction,Plated,PTH,ComponentDrill
T4C1.000
%
G90
G05
T1
X-134.083Y-23.55
X-133.583Y-201.75
X-108.883Y-201.6
X-106.45Y-23.45
X-83.683Y-201.75
X-81.233Y-23.45
X-58.883Y-201.75
X-56.45Y-23.45
X-49.583Y-202.35
X-33.683Y-201.45
X-31.283Y-23.65
X-8.883Y-201.6
X-6.45Y-23.45
X16.117Y-201.6
X18.55Y-23.45
X32.417Y-201.95
X38.617Y-25.05
X38.65Y-48.45
X38.65Y-73.45
X38.65Y-98.45
X38.65Y-123.45
X38.65Y-148.45
X38.65Y-173.45
X38.65Y-198.45
X43.517Y-28.45
X43.55Y-23.45
X43.55Y-51.75
X43.55Y-76.75
X43.55Y-101.75
X43.55Y-126.75
X43.55Y-151.75
X43.55Y-176.75
X43.55Y-201.75
X195.2Y-129.76
X197.7Y-129.26
X200.3Y-128.66
X202.8Y-128.26
X205.325Y-127.86
X207.0Y-127.26
X209.0Y-118.857
X209.2Y-138.36
X209.6Y-119.56
X212.3Y-127.26
X212.9Y-127.86
X213.6Y-124.76
X214.2Y-126.76
X214.9Y-127.26
X215.5Y-127.86
X216.2Y-138.36
X216.8Y-122.785
X218.6Y-122.785
X219.875Y-128.26
X220.585Y-128.66
X221.2Y-129.26
X221.9Y-129.86
X222.524Y-119.884
X223.111Y-118.449
X223.225Y-138.36
X225.7Y-117.96
X228.2Y-127.76
X230.7Y-127.06
X233.317Y-125.077
X235.8Y-123.385
T3
X186.98Y-150.26
X186.98Y-165.5
X189.52Y-150.26
X189.52Y-165.5
X192.06Y-150.26
X192.06Y-165.5
X194.6Y-150.26
X194.6Y-165.5
X197.14Y-150.26
X197.14Y-165.5
X199.68Y-150.26
X199.68Y-165.5
X202.22Y-150.26
X202.22Y-165.5
X204.76Y-150.26
X204.76Y-165.5
X207.3Y-150.26
X207.3Y-165.5
X209.84Y-150.26
X209.84Y-165.5
X212.38Y-150.26
X212.38Y-165.5
X214.92Y-150.26
X214.92Y-165.5
X217.46Y-150.26
X217.46Y-165.5
X220.0Y-150.26
X220.0Y-165.5
X222.54Y-150.26
X222.54Y-165.5
X225.08Y-150.26
X225.08Y-165.5
X227.62Y-150.26
X227.62Y-165.5
X230.16Y-150.26
X230.16Y-165.5
X232.7Y-150.26
X232.7Y-165.5
X235.24Y-150.26
X235.24Y-165.5
X237.78Y-150.26
X237.78Y-165.5
X240.32Y-150.26
X240.32Y-165.5
X240.505Y-140.06
X240.525Y-136.96
X242.86Y-150.26
X242.86Y-165.5
X245.4Y-150.26
X245.4Y-165.5
X248.125Y-140.06
X248.145Y-136.96
T4
X-138.683Y-25.25
X-138.583Y-200.35
X-50.483Y-204.55
X-46.883Y-204.55
X46.317Y-25.05
X46.417Y-200.15
X69.96Y-155.589
X70.0Y-79.96
X81.1Y-166.88
X81.1Y-169.42
X81.1Y-171.96
X81.1Y-174.5
X140.9Y-166.54
X140.9Y-169.08
X140.9Y-171.62
X140.9Y-174.16
X161.66Y-159.789
X184.48Y-172.56
X187.02Y-172.56
X187.59Y-107.8
X187.59Y-112.39
X187.61Y-80.31
X187.61Y-84.9
X189.56Y-172.56
X190.13Y-107.8
X190.13Y-112.39
X190.15Y-80.31
X190.15Y-84.9
X192.1Y-172.56
X192.67Y-107.8
X192.67Y-112.39
X192.69Y-80.31
X192.69Y-84.9
X194.64Y-172.56
X195.21Y-107.8
X195.21Y-112.39
X195.23Y-80.31
X195.23Y-84.9
X197.18Y-172.56
X197.75Y-107.8
X197.75Y-112.39
X197.77Y-80.31
X197.77Y-84.9
X199.72Y-172.56
X200.29Y-107.8
X200.29Y-112.39
X200.31Y-80.31
X200.31Y-84.9
X202.26Y-172.56
X202.83Y-107.8
X202.83Y-112.39
X202.85Y-80.31
X202.85Y-84.9
X205.37Y-107.8
X205.37Y-112.39
X205.39Y-80.31
X205.39Y-84.9
X205.8Y-172.56
X207.91Y-107.8
X207.91Y-112.39
X207.93Y-80.31
X207.93Y-84.9
X208.34Y-172.56
X210.45Y-107.8
X210.45Y-112.39
X210.47Y-80.31
X210.47Y-84.9
X210.88Y-172.56
X212.99Y-107.8
X212.99Y-112.39
X213.01Y-80.31
X213.01Y-84.9
X213.42Y-172.56
X215.53Y-107.8
X215.53Y-112.39
X215.55Y-80.31
X215.55Y-84.9
X215.96Y-172.56
X218.07Y-107.8
X218.07Y-112.39
X218.09Y-80.31
X218.09Y-84.9
X218.5Y-172.56
X220.61Y-107.8
X220.61Y-112.39
X220.63Y-80.31
X220.63Y-84.9
X221.04Y-172.56
X223.15Y-107.8
X223.15Y-112.39
X223.17Y-80.31
X223.17Y-84.9
X223.58Y-172.56
X225.69Y-107.8
X225.69Y-112.39
X225.71Y-80.31
X225.71Y-84.9
X226.12Y-172.56
X228.23Y-107.8
X228.23Y-112.39
X228.25Y-80.31
X228.25Y-84.9
X228.66Y-172.56
X230.77Y-107.8
X230.77Y-112.39
X230.79Y-80.31
X230.79Y-84.9
X232.22Y-172.56
X233.31Y-107.8
X233.31Y-112.39
X233.33Y-80.31
X233.33Y-84.9
X234.76Y-172.56
X235.85Y-107.8
X235.85Y-112.39
X235.87Y-80.31
X235.87Y-84.9
X237.3Y-172.56
X238.39Y-107.8
X238.39Y-112.39
X238.41Y-80.31
X238.41Y-84.9
X239.84Y-172.56
X240.93Y-107.8
X240.93Y-112.39
X240.95Y-80.31
X240.95Y-84.9
X242.38Y-172.56
X254.96Y-155.389
X255.0Y-79.76
T2
G00X251.925Y-134.34
M15
G01X252.525Y-134.34
M16
G05
G00X251.925Y-142.98
M15
G01X252.525Y-142.98
M16
G05
G00X255.725Y-134.34
M15
G01X256.325Y-134.34
M16
G05
G00X255.725Y-142.98
M15
G01X256.325Y-142.98
M16
G05
M30
