%TF.GenerationSoftware,KiCad,Pcbnew,10.0.3*%
%TF.CreationDate,2026-06-16T09:32:00+08:00*%
%TF.ProjectId,LED_RAM,4c45445f-5241-44d2-9e6b-696361645f70,rev?*%
%TF.SameCoordinates,Original*%
%TF.FileFunction,Copper,L1,Top*%
%TF.FilePolarity,Positive*%
%FSLAX46Y46*%
G04 Gerber Fmt 4.6, Leading zero omitted, Abs format (unit mm)*
G04 Created by KiCad (PCBNEW 10.0.3) date 2026-06-16 09:32:00*
%MOMM*%
%LPD*%
G01*
G04 APERTURE LIST*
G04 Aperture macros list*
%AMRoundRect*
0 Rectangle with rounded corners*
0 $1 Rounding radius*
0 $2 $3 $4 $5 $6 $7 $8 $9 X,Y pos of 4 corners*
0 Add a 4 corners polygon primitive as box body*
4,1,4,$2,$3,$4,$5,$6,$7,$8,$9,$2,$3,0*
0 Add four circle primitives for the rounded corners*
1,1,$1+$1,$2,$3*
1,1,$1+$1,$4,$5*
1,1,$1+$1,$6,$7*
1,1,$1+$1,$8,$9*
0 Add four rect primitives between the rounded corners*
20,1,$1+$1,$2,$3,$4,$5,0*
20,1,$1+$1,$4,$5,$6,$7,0*
20,1,$1+$1,$6,$7,$8,$9,0*
20,1,$1+$1,$8,$9,$2,$3,0*%
G04 Aperture macros list end*
%TA.AperFunction,ComponentPad*%
%ADD10R,1.700000X1.700000*%
%TD*%
%TA.AperFunction,ComponentPad*%
%ADD11C,1.700000*%
%TD*%
%TA.AperFunction,SMDPad,CuDef*%
%ADD12RoundRect,0.090000X-0.660000X-0.360000X0.660000X-0.360000X0.660000X0.360000X-0.660000X0.360000X0*%
%TD*%
%TA.AperFunction,SMDPad,CuDef*%
%ADD13RoundRect,0.100000X-0.100000X0.637500X-0.100000X-0.637500X0.100000X-0.637500X0.100000X0.637500X0*%
%TD*%
%TA.AperFunction,SMDPad,CuDef*%
%ADD14RoundRect,0.175000X0.425000X-0.175000X0.425000X0.175000X-0.425000X0.175000X-0.425000X-0.175000X0*%
%TD*%
%TA.AperFunction,SMDPad,CuDef*%
%ADD15RoundRect,0.190000X-0.410000X0.190000X-0.410000X-0.190000X0.410000X-0.190000X0.410000X0.190000X0*%
%TD*%
%TA.AperFunction,SMDPad,CuDef*%
%ADD16RoundRect,0.200000X-0.400000X0.200000X-0.400000X-0.200000X0.400000X-0.200000X0.400000X0.200000X0*%
%TD*%
%TA.AperFunction,SMDPad,CuDef*%
%ADD17RoundRect,0.175000X-0.425000X0.175000X-0.425000X-0.175000X0.425000X-0.175000X0.425000X0.175000X0*%
%TD*%
%TA.AperFunction,SMDPad,CuDef*%
%ADD18RoundRect,0.190000X0.410000X-0.190000X0.410000X0.190000X-0.410000X0.190000X-0.410000X-0.190000X0*%
%TD*%
%TA.AperFunction,SMDPad,CuDef*%
%ADD19RoundRect,0.200000X0.400000X-0.200000X0.400000X0.200000X-0.400000X0.200000X-0.400000X-0.200000X0*%
%TD*%
%TA.AperFunction,ComponentPad*%
%ADD20O,1.700000X1.100000*%
%TD*%
%TA.AperFunction,ComponentPad*%
%ADD21RoundRect,0.170000X0.680000X-0.680000X0.680000X0.680000X-0.680000X0.680000X-0.680000X-0.680000X0*%
%TD*%
%TA.AperFunction,ComponentPad*%
%ADD22C,1.600000*%
%TD*%
%TA.AperFunction,ComponentPad*%
%ADD23R,1.600000X1.600000*%
%TD*%
%TA.AperFunction,ComponentPad*%
%ADD24O,1.600000X1.600000*%
%TD*%
%TA.AperFunction,ViaPad*%
%ADD25C,0.600000*%
%TD*%
%TA.AperFunction,Conductor*%
%ADD26C,0.200000*%
%TD*%
G04 APERTURE END LIST*
D10*
%TO.P,,1,Pin_1_1*%
%TO.N,GND*%
X70000000Y-79960000D03*
%TD*%
%TO.P,J9,1,Pin_1_1*%
%TO.N,/5V*%
X255000000Y-79760000D03*
%TD*%
%TO.P,J13,1,Pin_1_1*%
%TO.N,Net-(J13-Pin_1)*%
X240950000Y-80310000D03*
D11*
%TO.P,J13,2,Pin_2_2*%
%TO.N,Net-(J13-Pin_2)*%
X238410000Y-80310000D03*
%TO.P,J13,3,Pin_3_3*%
%TO.N,Net-(J13-Pin_3)*%
X235870000Y-80310000D03*
%TO.P,J13,4,Pin_4_4*%
%TO.N,Net-(J13-Pin_4)*%
X233330000Y-80310000D03*
%TO.P,J13,5,Pin_5_5*%
%TO.N,Net-(J13-Pin_5)*%
X230790000Y-80310000D03*
%TO.P,J13,6,Pin_6_6*%
%TO.N,/IO7_L*%
X228250000Y-80310000D03*
%TO.P,J13,7,Pin_7_7*%
%TO.N,Net-(J13-Pin_7)*%
X225710000Y-80310000D03*
%TO.P,J13,8,Pin_8_8*%
%TO.N,/SDA*%
X223170000Y-80310000D03*
%TO.P,J13,9,Pin_9_9*%
%TO.N,Net-(J13-Pin_9)*%
X220630000Y-80310000D03*
%TO.P,J13,10,Pin_10_10*%
%TO.N,Net-(J13-Pin_10)*%
X218090000Y-80310000D03*
%TO.P,J13,11,Pin_11_11*%
%TO.N,Net-(J13-Pin_11)*%
X215550000Y-80310000D03*
%TO.P,J13,12,Pin_12_12*%
%TO.N,Net-(J13-Pin_12)*%
X213010000Y-80310000D03*
%TO.P,J13,13,Pin_13_13*%
%TO.N,/IO2_L*%
X210470000Y-80310000D03*
%TO.P,J13,14,Pin_14_14*%
%TO.N,/IO3_L*%
X207930000Y-80310000D03*
%TO.P,J13,15,Pin_15_15*%
%TO.N,/IO4_L*%
X205390000Y-80310000D03*
%TO.P,J13,16,Pin_16_16*%
%TO.N,/IO5_L*%
X202850000Y-80310000D03*
%TO.P,J13,17,Pin_17_17*%
%TO.N,/IO6_L*%
X200310000Y-80310000D03*
%TO.P,J13,18,Pin_18_18*%
%TO.N,/~{RW_L}*%
X197770000Y-80310000D03*
%TO.P,J13,19,Pin_19_19*%
%TO.N,/~{CE_L}*%
X195230000Y-80310000D03*
%TO.P,J13,20,Pin_20_20*%
%TO.N,Net-(J13-Pin_20)*%
X192690000Y-80310000D03*
%TO.P,J13,21,Pin_21_21*%
%TO.N,Net-(J13-Pin_21)*%
X190150000Y-80310000D03*
%TO.P,J13,22,Pin_22_22*%
%TO.N,Net-(J13-Pin_22)*%
X187610000Y-80310000D03*
%TD*%
D10*
%TO.P,J6,1,Pin_1_1*%
%TO.N,Net-(J6-Pin_1)*%
X205800000Y-172560000D03*
D11*
%TO.P,J6,2,Pin_2_2*%
%TO.N,Net-(J6-Pin_2)*%
X208340000Y-172560000D03*
%TO.P,J6,3,Pin_3_3*%
%TO.N,Net-(J6-Pin_3)*%
X210880000Y-172560000D03*
%TO.P,J6,4,Pin_4_4*%
%TO.N,Net-(J6-Pin_4)*%
X213420000Y-172560000D03*
%TO.P,J6,5,Pin_5_5*%
%TO.N,Net-(J6-Pin_5)*%
X215960000Y-172560000D03*
%TO.P,J6,6,Pin_6_6*%
%TO.N,Net-(J6-Pin_6)*%
X218500000Y-172560000D03*
%TO.P,J6,7,Pin_7_7*%
%TO.N,Net-(J6-Pin_7)*%
X221040000Y-172560000D03*
%TO.P,J6,8,Pin_8_8*%
%TO.N,Net-(J6-Pin_8)*%
X223580000Y-172560000D03*
%TO.P,J6,9,Pin_9_9*%
%TO.N,Net-(J6-Pin_9)*%
X226120000Y-172560000D03*
%TO.P,J6,10,Pin_10_10*%
%TO.N,Net-(J6-Pin_10)*%
X228660000Y-172560000D03*
%TD*%
D12*
%TO.P,D4,1,VDD_1*%
%TO.N,+5V*%
X-135982976Y-98450000D03*
%TO.P,D4,2,DOUT_2*%
%TO.N,Net-(D4-DOUT)*%
X-135982976Y-101750000D03*
%TO.P,D4,3,VSS_3*%
%TO.N,GND*%
X-131082976Y-101750000D03*
%TO.P,D4,4,DIN_4*%
%TO.N,Net-(D3-DOUT)*%
X-131082976Y-98450000D03*
%TD*%
D10*
%TO.P,J2,1,Pin_1_1*%
%TO.N,+5V*%
X46417024Y-200150000D03*
%TD*%
D12*
%TO.P,D36,1,VDD_1*%
%TO.N,+5V*%
X-36182976Y-98650000D03*
%TO.P,D36,2,DOUT_2*%
%TO.N,Net-(D36-DOUT)*%
X-36182976Y-101950000D03*
%TO.P,D36,3,VSS_3*%
%TO.N,GND*%
X-31282976Y-101950000D03*
%TO.P,D36,4,DIN_4*%
%TO.N,Net-(D35-DOUT)*%
X-31282976Y-98650000D03*
%TD*%
%TO.P,D59,1,VDD_1*%
%TO.N,+5V*%
X38650000Y-73450000D03*
%TO.P,D59,2,DOUT_2*%
%TO.N,Net-(D59-DOUT)*%
X38650000Y-76750000D03*
%TO.P,D59,3,VSS_3*%
%TO.N,GND*%
X43550000Y-76750000D03*
%TO.P,D59,4,DIN_4*%
%TO.N,Net-(D58-DOUT)*%
X43550000Y-73450000D03*
%TD*%
%TO.P,D64,1,VDD_1*%
%TO.N,+5V*%
X38650000Y-198450000D03*
%TO.P,D64,2,DOUT_2*%
%TO.N,Net-(D64-DOUT)*%
X38650000Y-201750000D03*
%TO.P,D64,3,VSS_3*%
%TO.N,GND*%
X43550000Y-201750000D03*
%TO.P,D64,4,DIN_4*%
%TO.N,Net-(D63-DOUT)*%
X43550000Y-198450000D03*
%TD*%
D13*
%TO.P,U5,1,A1_1*%
%TO.N,/~{CE_L}*%
X223825000Y-130997500D03*
%TO.P,U5,2,VCCA_2*%
%TO.N,/3.3v*%
X223175000Y-130997500D03*
%TO.P,U5,3,A2_3*%
%TO.N,/~{RW_L}*%
X222525000Y-130997500D03*
%TO.P,U5,4,A3_4*%
%TO.N,/~{BUSY_L}*%
X221875000Y-130997500D03*
%TO.P,U5,5,A4_5*%
%TO.N,/~{INT_L}*%
X221225000Y-130997500D03*
%TO.P,U5,6,A5_6*%
%TO.N,/~{OE_L}*%
X220575000Y-130997500D03*
%TO.P,U5,7,A6_7*%
%TO.N,/A0_L*%
X219925000Y-130997500D03*
%TO.P,U5,8,A7_8*%
%TO.N,/A1_L*%
X219275000Y-130997500D03*
%TO.P,U5,9,A8_9*%
%TO.N,/A2_L*%
X218625000Y-130997500D03*
%TO.P,U5,10,OE_10*%
%TO.N,/3.3v*%
X217975000Y-130997500D03*
%TO.P,U5,11,GND_11*%
%TO.N,GND*%
X217975000Y-136722500D03*
%TO.P,U5,12,B8_12*%
%TO.N,Net-(U3-A2_L)*%
X218625000Y-136722500D03*
%TO.P,U5,13,B7_13*%
%TO.N,Net-(U3-A1_L)*%
X219275000Y-136722500D03*
%TO.P,U5,14,B6_14*%
%TO.N,Net-(U3-A0_L)*%
X219925000Y-136722500D03*
%TO.P,U5,15,B5_15*%
%TO.N,Net-(U3-~{OE_L})*%
X220575000Y-136722500D03*
%TO.P,U5,16,B4_16*%
%TO.N,Net-(U3-~{INT_L})*%
X221225000Y-136722500D03*
%TO.P,U5,17,B3_17*%
%TO.N,Net-(U3-~{BUSY_L})*%
X221875000Y-136722500D03*
%TO.P,U5,18,B2_18*%
%TO.N,Net-(U3-~{RW_L})*%
X222525000Y-136722500D03*
%TO.P,U5,19,VCCB_19*%
%TO.N,/5V*%
X223175000Y-136722500D03*
%TO.P,U5,20,B1_20*%
%TO.N,Net-(U3-~{CE_L})*%
X223825000Y-136722500D03*
%TD*%
D10*
%TO.P,J16,1,Pin_1_1*%
%TO.N,/3.3v*%
X187590000Y-107800000D03*
D11*
%TO.P,J16,2,Pin_2_2*%
%TO.N,Net-(J15-Pin_2)*%
X190130000Y-107800000D03*
%TO.P,J16,3,Pin_3_3*%
%TO.N,Net-(J15-Pin_3)*%
X192670000Y-107800000D03*
%TO.P,J16,4,Pin_4_4*%
%TO.N,/~{BUSY_L}*%
X195210000Y-107800000D03*
%TO.P,J16,5,Pin_5_5*%
%TO.N,/~{INT_L}*%
X197750000Y-107800000D03*
%TO.P,J16,6,Pin_6_6*%
%TO.N,/~{OE_L}*%
X200290000Y-107800000D03*
%TO.P,J16,7,Pin_7_7*%
%TO.N,/A0_L*%
X202830000Y-107800000D03*
%TO.P,J16,8,Pin_8_8*%
%TO.N,/A8_L*%
X205370000Y-107800000D03*
%TO.P,J16,9,Pin_9_9*%
%TO.N,/A9_L*%
X207910000Y-107800000D03*
%TO.P,J16,10,Pin_10_10*%
%TO.N,/IO0_L*%
X210450000Y-107800000D03*
%TO.P,J16,11,Pin_11_11*%
%TO.N,/IO1_L*%
X212990000Y-107800000D03*
%TO.P,J16,12,Pin_12_12*%
%TO.N,/A1_L*%
X215530000Y-107800000D03*
%TO.P,J16,13,Pin_13_13*%
%TO.N,Net-(J15-Pin_13)*%
X218070000Y-107800000D03*
%TO.P,J16,14,Pin_14_14*%
%TO.N,/SCL*%
X220610000Y-107800000D03*
%TO.P,J16,15,Pin_15_15*%
%TO.N,/A2_L*%
X223150000Y-107800000D03*
%TO.P,J16,16,Pin_16_16*%
%TO.N,/A3_L*%
X225690000Y-107800000D03*
%TO.P,J16,17,Pin_17_17*%
%TO.N,/A4_L*%
X228230000Y-107800000D03*
%TO.P,J16,18,Pin_18_18*%
%TO.N,/A5_L*%
X230770000Y-107800000D03*
%TO.P,J16,19,Pin_19_19*%
%TO.N,/A6_L*%
X233310000Y-107800000D03*
%TO.P,J16,20,Pin_20_20*%
%TO.N,/A7_L*%
X235850000Y-107800000D03*
%TO.P,J16,21,Pin_21_21*%
%TO.N,/5V*%
X238390000Y-107800000D03*
%TO.P,J16,22,Pin_22_22*%
%TO.N,Net-(J15-Pin_22)*%
X240930000Y-107800000D03*
%TD*%
D10*
%TO.P,J5,1,Pin_1_1*%
%TO.N,Net-(J5-Pin_1)*%
X232220000Y-172560000D03*
D11*
%TO.P,J5,2,Pin_2_2*%
%TO.N,Net-(J5-Pin_2)*%
X234760000Y-172560000D03*
%TO.P,J5,3,Pin_3_3*%
%TO.N,Net-(J5-Pin_3)*%
X237300000Y-172560000D03*
%TO.P,J5,4,Pin_4_4*%
%TO.N,Net-(J5-Pin_4)*%
X239840000Y-172560000D03*
%TO.P,J5,5,Pin_5_5*%
%TO.N,Net-(J5-Pin_5)*%
X242380000Y-172560000D03*
%TD*%
D12*
%TO.P,D32,1,VDD_1*%
%TO.N,+5V*%
X-61350000Y-198450000D03*
%TO.P,D32,2,DOUT_2*%
%TO.N,Net-(D32-DOUT)*%
X-61350000Y-201750000D03*
%TO.P,D32,3,VSS_3*%
%TO.N,GND*%
X-56450000Y-201750000D03*
%TO.P,D32,4,DIN_4*%
%TO.N,Net-(D31-DOUT)*%
X-56450000Y-198450000D03*
%TD*%
%TO.P,D18,1,VDD_1*%
%TO.N,+5V*%
X-86132976Y-48450000D03*
%TO.P,D18,2,DOUT_2*%
%TO.N,Net-(D18-DOUT)*%
X-86132976Y-51750000D03*
%TO.P,D18,3,VSS_3*%
%TO.N,GND*%
X-81232976Y-51750000D03*
%TO.P,D18,4,DIN_4*%
%TO.N,Net-(D17-DOUT)*%
X-81232976Y-48450000D03*
%TD*%
%TO.P,D27,1,VDD_1*%
%TO.N,+5V*%
X-61350000Y-73450000D03*
%TO.P,D27,2,DOUT_2*%
%TO.N,Net-(D27-DOUT)*%
X-61350000Y-76750000D03*
%TO.P,D27,3,VSS_3*%
%TO.N,GND*%
X-56450000Y-76750000D03*
%TO.P,D27,4,DIN_4*%
%TO.N,Net-(D26-DOUT)*%
X-56450000Y-73450000D03*
%TD*%
D10*
%TO.P,J15,1,Pin_1_1*%
%TO.N,/3.3v*%
X187590000Y-112390000D03*
D11*
%TO.P,J15,2,Pin_2_2*%
%TO.N,Net-(J15-Pin_2)*%
X190130000Y-112390000D03*
%TO.P,J15,3,Pin_3_3*%
%TO.N,Net-(J15-Pin_3)*%
X192670000Y-112390000D03*
%TO.P,J15,4,Pin_4_4*%
%TO.N,/~{BUSY_L}*%
X195210000Y-112390000D03*
%TO.P,J15,5,Pin_5_5*%
%TO.N,/~{INT_L}*%
X197750000Y-112390000D03*
%TO.P,J15,6,Pin_6_6*%
%TO.N,/~{OE_L}*%
X200290000Y-112390000D03*
%TO.P,J15,7,Pin_7_7*%
%TO.N,/A0_L*%
X202830000Y-112390000D03*
%TO.P,J15,8,Pin_8_8*%
%TO.N,/A8_L*%
X205370000Y-112390000D03*
%TO.P,J15,9,Pin_9_9*%
%TO.N,/A9_L*%
X207910000Y-112390000D03*
%TO.P,J15,10,Pin_10_10*%
%TO.N,/IO0_L*%
X210450000Y-112390000D03*
%TO.P,J15,11,Pin_11_11*%
%TO.N,/IO1_L*%
X212990000Y-112390000D03*
%TO.P,J15,12,Pin_12_12*%
%TO.N,/A1_L*%
X215530000Y-112390000D03*
%TO.P,J15,13,Pin_13_13*%
%TO.N,Net-(J15-Pin_13)*%
X218070000Y-112390000D03*
%TO.P,J15,14,Pin_14_14*%
%TO.N,/SCL*%
X220610000Y-112390000D03*
%TO.P,J15,15,Pin_15_15*%
%TO.N,/A2_L*%
X223150000Y-112390000D03*
%TO.P,J15,16,Pin_16_16*%
%TO.N,/A3_L*%
X225690000Y-112390000D03*
%TO.P,J15,17,Pin_17_17*%
%TO.N,/A4_L*%
X228230000Y-112390000D03*
%TO.P,J15,18,Pin_18_18*%
%TO.N,/A5_L*%
X230770000Y-112390000D03*
%TO.P,J15,19,Pin_19_19*%
%TO.N,/A6_L*%
X233310000Y-112390000D03*
%TO.P,J15,20,Pin_20_20*%
%TO.N,/A7_L*%
X235850000Y-112390000D03*
%TO.P,J15,21,Pin_21_21*%
%TO.N,/5V*%
X238390000Y-112390000D03*
%TO.P,J15,22,Pin_22_22*%
%TO.N,Net-(J15-Pin_22)*%
X240930000Y-112390000D03*
%TD*%
D12*
%TO.P,D24,1,VDD_1*%
%TO.N,+5V*%
X-86132976Y-198450000D03*
%TO.P,D24,2,DOUT_2*%
%TO.N,Net-(D24-DOUT)*%
X-86132976Y-201750000D03*
%TO.P,D24,3,VSS_3*%
%TO.N,GND*%
X-81232976Y-201750000D03*
%TO.P,D24,4,DIN_4*%
%TO.N,Net-(D23-DOUT)*%
X-81232976Y-198450000D03*
%TD*%
D14*
%TO.P,J10,A5,CC1_A5*%
%TO.N,Net-(J10-CC1)*%
X252145000Y-139160000D03*
D15*
%TO.P,J10,A9,VBUS_A9*%
%TO.N,/5V*%
X252145000Y-137140000D03*
D16*
%TO.P,J10,A12,GND_A12*%
%TO.N,GND*%
X252145000Y-135910000D03*
D17*
%TO.P,J10,B5,CC2_B5*%
%TO.N,Net-(J10-CC2)*%
X252145000Y-138160000D03*
D18*
%TO.P,J10,B9,VBUS_B9*%
%TO.N,/5V*%
X252145000Y-140180000D03*
D19*
%TO.P,J10,B12,GND_B12*%
%TO.N,GND*%
X252145000Y-141410000D03*
D20*
%TO.P,J10,SH,SHIELD_SH*%
X252225000Y-142980000D03*
X256025000Y-142980000D03*
X252225000Y-134340000D03*
X256025000Y-134340000D03*
%TD*%
D12*
%TO.P,D11,1,VDD_1*%
%TO.N,+5V*%
X-111350000Y-73450000D03*
%TO.P,D11,2,DOUT_2*%
%TO.N,Net-(D11-DOUT)*%
X-111350000Y-76750000D03*
%TO.P,D11,3,VSS_3*%
%TO.N,GND*%
X-106450000Y-76750000D03*
%TO.P,D11,4,DIN_4*%
%TO.N,Net-(D10-DOUT)*%
X-106450000Y-73450000D03*
%TD*%
%TO.P,D40,1,VDD_1*%
%TO.N,+5V*%
X-36182976Y-198650000D03*
%TO.P,D40,2,DOUT_2*%
%TO.N,Net-(D40-DOUT)*%
X-36182976Y-201950000D03*
%TO.P,D40,3,VSS_3*%
%TO.N,GND*%
X-31282976Y-201950000D03*
%TO.P,D40,4,DIN_4*%
%TO.N,Net-(D39-DOUT)*%
X-31282976Y-198650000D03*
%TD*%
%TO.P,D19,1,VDD_1*%
%TO.N,+5V*%
X-86132976Y-73450000D03*
%TO.P,D19,2,DOUT_2*%
%TO.N,Net-(D19-DOUT)*%
X-86132976Y-76750000D03*
%TO.P,D19,3,VSS_3*%
%TO.N,GND*%
X-81232976Y-76750000D03*
%TO.P,D19,4,DIN_4*%
%TO.N,Net-(D18-DOUT)*%
X-81232976Y-73450000D03*
%TD*%
%TO.P,D43,1,VDD_1*%
%TO.N,+5V*%
X-11350000Y-73450000D03*
%TO.P,D43,2,DOUT_2*%
%TO.N,Net-(D43-DOUT)*%
X-11350000Y-76750000D03*
%TO.P,D43,3,VSS_3*%
%TO.N,GND*%
X-6450000Y-76750000D03*
%TO.P,D43,4,DIN_4*%
%TO.N,Net-(D42-DOUT)*%
X-6450000Y-73450000D03*
%TD*%
%TO.P,D44,1,VDD_1*%
%TO.N,+5V*%
X-11350000Y-98450000D03*
%TO.P,D44,2,DOUT_2*%
%TO.N,Net-(D44-DOUT)*%
X-11350000Y-101750000D03*
%TO.P,D44,3,VSS_3*%
%TO.N,GND*%
X-6450000Y-101750000D03*
%TO.P,D44,4,DIN_4*%
%TO.N,Net-(D43-DOUT)*%
X-6450000Y-98450000D03*
%TD*%
%TO.P,D48,1,VDD_1*%
%TO.N,+5V*%
X-11350000Y-198450000D03*
%TO.P,D48,2,DOUT_2*%
%TO.N,Net-(D48-DOUT)*%
X-11350000Y-201750000D03*
%TO.P,D48,3,VSS_3*%
%TO.N,GND*%
X-6450000Y-201750000D03*
%TO.P,D48,4,DIN_4*%
%TO.N,Net-(D47-DOUT)*%
X-6450000Y-198450000D03*
%TD*%
%TO.P,D47,1,VDD_1*%
%TO.N,+5V*%
X-11350000Y-173450000D03*
%TO.P,D47,2,DOUT_2*%
%TO.N,Net-(D47-DOUT)*%
X-11350000Y-176750000D03*
%TO.P,D47,3,VSS_3*%
%TO.N,GND*%
X-6450000Y-176750000D03*
%TO.P,D47,4,DIN_4*%
%TO.N,Net-(D46-DOUT)*%
X-6450000Y-173450000D03*
%TD*%
%TO.P,D54,1,VDD_1*%
%TO.N,+5V*%
X13650000Y-148450000D03*
%TO.P,D54,2,DOUT_2*%
%TO.N,Net-(D54-DOUT)*%
X13650000Y-151750000D03*
%TO.P,D54,3,VSS_3*%
%TO.N,GND*%
X18550000Y-151750000D03*
%TO.P,D54,4,DIN_4*%
%TO.N,Net-(D53-DOUT)*%
X18550000Y-148450000D03*
%TD*%
%TO.P,D21,1,VDD_1*%
%TO.N,+5V*%
X-86132976Y-123450000D03*
%TO.P,D21,2,DOUT_2*%
%TO.N,Net-(D21-DOUT)*%
X-86132976Y-126750000D03*
%TO.P,D21,3,VSS_3*%
%TO.N,GND*%
X-81232976Y-126750000D03*
%TO.P,D21,4,DIN_4*%
%TO.N,Net-(D20-DOUT)*%
X-81232976Y-123450000D03*
%TD*%
D10*
%TO.P,J1,1,Pin_1_1*%
%TO.N,Net-(D1-DIN)*%
X-46882976Y-204550000D03*
%TD*%
%TO.P,J8,1,Pin_1_1*%
%TO.N,GND*%
X69959566Y-155589446D03*
%TD*%
D12*
%TO.P,D9,1,VDD_1*%
%TO.N,+5V*%
X-111350000Y-23450000D03*
%TO.P,D9,2,DOUT_2*%
%TO.N,Net-(D10-DIN)*%
X-111350000Y-26750000D03*
%TO.P,D9,3,VSS_3*%
%TO.N,GND*%
X-106450000Y-26750000D03*
%TO.P,D9,4,DIN_4*%
%TO.N,Net-(D8-DOUT)*%
X-106450000Y-23450000D03*
%TD*%
%TO.P,D50,1,VDD_1*%
%TO.N,+5V*%
X13650000Y-48450000D03*
%TO.P,D50,2,DOUT_2*%
%TO.N,Net-(D50-DOUT)*%
X13650000Y-51750000D03*
%TO.P,D50,3,VSS_3*%
%TO.N,GND*%
X18550000Y-51750000D03*
%TO.P,D50,4,DIN_4*%
%TO.N,Net-(D49-DOUT)*%
X18550000Y-48450000D03*
%TD*%
%TO.P,D35,1,VDD_1*%
%TO.N,+5V*%
X-36182976Y-73650000D03*
%TO.P,D35,2,DOUT_2*%
%TO.N,Net-(D35-DOUT)*%
X-36182976Y-76950000D03*
%TO.P,D35,3,VSS_3*%
%TO.N,GND*%
X-31282976Y-76950000D03*
%TO.P,D35,4,DIN_4*%
%TO.N,Net-(D34-DOUT)*%
X-31282976Y-73650000D03*
%TD*%
%TO.P,D42,1,VDD_1*%
%TO.N,+5V*%
X-11350000Y-48450000D03*
%TO.P,D42,2,DOUT_2*%
%TO.N,Net-(D42-DOUT)*%
X-11350000Y-51750000D03*
%TO.P,D42,3,VSS_3*%
%TO.N,GND*%
X-6450000Y-51750000D03*
%TO.P,D42,4,DIN_4*%
%TO.N,Net-(D41-DOUT)*%
X-6450000Y-48450000D03*
%TD*%
%TO.P,D60,1,VDD_1*%
%TO.N,+5V*%
X38650000Y-98450000D03*
%TO.P,D60,2,DOUT_2*%
%TO.N,Net-(D60-DOUT)*%
X38650000Y-101750000D03*
%TO.P,D60,3,VSS_3*%
%TO.N,GND*%
X43550000Y-101750000D03*
%TO.P,D60,4,DIN_4*%
%TO.N,Net-(D59-DOUT)*%
X43550000Y-98450000D03*
%TD*%
%TO.P,D3,1,VDD_1*%
%TO.N,+5V*%
X-136032976Y-73500000D03*
%TO.P,D3,2,DOUT_2*%
%TO.N,Net-(D3-DOUT)*%
X-136032976Y-76800000D03*
%TO.P,D3,3,VSS_3*%
%TO.N,GND*%
X-131132976Y-76800000D03*
%TO.P,D3,4,DIN_4*%
%TO.N,Net-(D2-DOUT)*%
X-131132976Y-73500000D03*
%TD*%
D10*
%TO.P,J3,1,Pin_1_1*%
%TO.N,GND*%
X-138682976Y-25250000D03*
%TD*%
%TO.P,J2,1,Pin_1_1*%
%TO.N,+5V*%
X46317024Y-25050000D03*
%TD*%
%TO.P,J7,1,Pin_1_1*%
%TO.N,Net-(J13-Pin_7)*%
X161659566Y-159789446D03*
%TD*%
D21*
%TO.P,U2,1,GND_1*%
%TO.N,GND*%
X140900000Y-174160000D03*
D11*
%TO.P,U2,2,VCC_2*%
%TO.N,/3.3v*%
X140900000Y-171620000D03*
%TO.P,U2,3,SCL_3*%
%TO.N,/SCL*%
X140900000Y-169080000D03*
%TO.P,U2,4,SDA_4*%
%TO.N,/SDA*%
X140900000Y-166540000D03*
%TD*%
D12*
%TO.P,D45,1,VDD_1*%
%TO.N,+5V*%
X-11350000Y-123450000D03*
%TO.P,D45,2,DOUT_2*%
%TO.N,Net-(D45-DOUT)*%
X-11350000Y-126750000D03*
%TO.P,D45,3,VSS_3*%
%TO.N,GND*%
X-6450000Y-126750000D03*
%TO.P,D45,4,DIN_4*%
%TO.N,Net-(D44-DOUT)*%
X-6450000Y-123450000D03*
%TD*%
%TO.P,D30,1,VDD_1*%
%TO.N,+5V*%
X-61350000Y-148450000D03*
%TO.P,D30,2,DOUT_2*%
%TO.N,Net-(D30-DOUT)*%
X-61350000Y-151750000D03*
%TO.P,D30,3,VSS_3*%
%TO.N,GND*%
X-56450000Y-151750000D03*
%TO.P,D30,4,DIN_4*%
%TO.N,Net-(D29-DOUT)*%
X-56450000Y-148450000D03*
%TD*%
%TO.P,D23,1,VDD_1*%
%TO.N,+5V*%
X-86132976Y-173450000D03*
%TO.P,D23,2,DOUT_2*%
%TO.N,Net-(D23-DOUT)*%
X-86132976Y-176750000D03*
%TO.P,D23,3,VSS_3*%
%TO.N,GND*%
X-81232976Y-176750000D03*
%TO.P,D23,4,DIN_4*%
%TO.N,Net-(D22-DOUT)*%
X-81232976Y-173450000D03*
%TD*%
%TO.P,D12,1,VDD_1*%
%TO.N,+5V*%
X-111350000Y-98450000D03*
%TO.P,D12,2,DOUT_2*%
%TO.N,Net-(D12-DOUT)*%
X-111350000Y-101750000D03*
%TO.P,D12,3,VSS_3*%
%TO.N,GND*%
X-106450000Y-101750000D03*
%TO.P,D12,4,DIN_4*%
%TO.N,Net-(D11-DOUT)*%
X-106450000Y-98450000D03*
%TD*%
D10*
%TO.P,J12,1,Pin_1_1*%
%TO.N,Net-(J12-Pin_1)*%
X184480000Y-172560000D03*
D11*
%TO.P,J12,2,Pin_2_2*%
%TO.N,Net-(J12-Pin_2)*%
X187020000Y-172560000D03*
%TO.P,J12,3,Pin_3_3*%
%TO.N,Net-(J12-Pin_3)*%
X189560000Y-172560000D03*
%TO.P,J12,4,Pin_4_4*%
%TO.N,Net-(J12-Pin_4)*%
X192100000Y-172560000D03*
%TO.P,J12,5,Pin_5_5*%
%TO.N,Net-(J12-Pin_5)*%
X194640000Y-172560000D03*
%TO.P,J12,6,Pin_6_6*%
%TO.N,Net-(J12-Pin_6)*%
X197180000Y-172560000D03*
%TO.P,J12,7,Pin_7_7*%
%TO.N,Net-(J12-Pin_7)*%
X199720000Y-172560000D03*
%TO.P,J12,8,Pin_8_8*%
%TO.N,Net-(J12-Pin_8)*%
X202260000Y-172560000D03*
%TD*%
D12*
%TO.P,D16,1,VDD_1*%
%TO.N,+5V*%
X-111350000Y-198450000D03*
%TO.P,D16,2,DOUT_2*%
%TO.N,Net-(D16-DOUT)*%
X-111350000Y-201750000D03*
%TO.P,D16,3,VSS_3*%
%TO.N,GND*%
X-106450000Y-201750000D03*
%TO.P,D16,4,DIN_4*%
%TO.N,Net-(D15-DOUT)*%
X-106450000Y-198450000D03*
%TD*%
%TO.P,D25,1,VDD_1*%
%TO.N,+5V*%
X-61350000Y-23450000D03*
%TO.P,D25,2,DOUT_2*%
%TO.N,Net-(D25-DOUT)*%
X-61350000Y-26750000D03*
%TO.P,D25,3,VSS_3*%
%TO.N,GND*%
X-56450000Y-26750000D03*
%TO.P,D25,4,DIN_4*%
%TO.N,Net-(D24-DOUT)*%
X-56450000Y-23450000D03*
%TD*%
%TO.P,D33,1,VDD_1*%
%TO.N,+5V*%
X-36182976Y-23650000D03*
%TO.P,D33,2,DOUT_2*%
%TO.N,Net-(D33-DOUT)*%
X-36182976Y-26950000D03*
%TO.P,D33,3,VSS_3*%
%TO.N,GND*%
X-31282976Y-26950000D03*
%TO.P,D33,4,DIN_4*%
%TO.N,Net-(D32-DOUT)*%
X-31282976Y-23650000D03*
%TD*%
D13*
%TO.P,U7,1,A1_1*%
%TO.N,/IO0_L*%
X209825000Y-130997500D03*
%TO.P,U7,2,VCCA_2*%
%TO.N,/3.3v*%
X209175000Y-130997500D03*
%TO.P,U7,3,A2_3*%
%TO.N,/IO1_L*%
X208525000Y-130997500D03*
%TO.P,U7,4,A3_4*%
%TO.N,/IO2_L*%
X207875000Y-130997500D03*
%TO.P,U7,5,A4_5*%
%TO.N,/IO3_L*%
X207225000Y-130997500D03*
%TO.P,U7,6,A5_6*%
%TO.N,/IO4_L*%
X206575000Y-130997500D03*
%TO.P,U7,7,A6_7*%
%TO.N,/IO5_L*%
X205925000Y-130997500D03*
%TO.P,U7,8,A7_8*%
%TO.N,/IO6_L*%
X205275000Y-130997500D03*
%TO.P,U7,9,A8_9*%
%TO.N,/IO7_L*%
X204625000Y-130997500D03*
%TO.P,U7,10,OE_10*%
%TO.N,/3.3v*%
X203975000Y-130997500D03*
%TO.P,U7,11,GND_11*%
%TO.N,GND*%
X203975000Y-136722500D03*
%TO.P,U7,12,B8_12*%
%TO.N,Net-(U3-IO7_L)*%
X204625000Y-136722500D03*
%TO.P,U7,13,B7_13*%
%TO.N,Net-(U3-IO6_L)*%
X205275000Y-136722500D03*
%TO.P,U7,14,B6_14*%
%TO.N,Net-(U3-IO5_L)*%
X205925000Y-136722500D03*
%TO.P,U7,15,B5_15*%
%TO.N,Net-(U3-IO4_L)*%
X206575000Y-136722500D03*
%TO.P,U7,16,B4_16*%
%TO.N,Net-(U3-IO3_L)*%
X207225000Y-136722500D03*
%TO.P,U7,17,B3_17*%
%TO.N,Net-(U3-IO2_L)*%
X207875000Y-136722500D03*
%TO.P,U7,18,B2_18*%
%TO.N,Net-(U3-IO1_L)*%
X208525000Y-136722500D03*
%TO.P,U7,19,VCCB_19*%
%TO.N,/5V*%
X209175000Y-136722500D03*
%TO.P,U7,20,B1_20*%
%TO.N,Net-(U3-IO0_L)*%
X209825000Y-136722500D03*
%TD*%
D22*
%TO.P,R1,1*%
%TO.N,GND*%
X240525000Y-136960000D03*
%TO.P,R1,2*%
%TO.N,Net-(J10-CC2)*%
X248145000Y-136960000D03*
%TD*%
D12*
%TO.P,D56,1,VDD_1*%
%TO.N,+5V*%
X13650000Y-198450000D03*
%TO.P,D56,2,DOUT_2*%
%TO.N,Net-(D56-DOUT)*%
X13650000Y-201750000D03*
%TO.P,D56,3,VSS_3*%
%TO.N,GND*%
X18550000Y-201750000D03*
%TO.P,D56,4,DIN_4*%
%TO.N,Net-(D55-DOUT)*%
X18550000Y-198450000D03*
%TD*%
%TO.P,D39,1,VDD_1*%
%TO.N,+5V*%
X-36182976Y-173650000D03*
%TO.P,D39,2,DOUT_2*%
%TO.N,Net-(D39-DOUT)*%
X-36182976Y-176950000D03*
%TO.P,D39,3,VSS_3*%
%TO.N,GND*%
X-31282976Y-176950000D03*
%TO.P,D39,4,DIN_4*%
%TO.N,Net-(D38-DOUT)*%
X-31282976Y-173650000D03*
%TD*%
%TO.P,D51,1,VDD_1*%
%TO.N,+5V*%
X13650000Y-73450000D03*
%TO.P,D51,2,DOUT_2*%
%TO.N,Net-(D51-DOUT)*%
X13650000Y-76750000D03*
%TO.P,D51,3,VSS_3*%
%TO.N,GND*%
X18550000Y-76750000D03*
%TO.P,D51,4,DIN_4*%
%TO.N,Net-(D50-DOUT)*%
X18550000Y-73450000D03*
%TD*%
D10*
%TO.P,J4,1,Pin_1_1*%
%TO.N,Net-(D64-DOUT)*%
X-50482976Y-204550000D03*
%TD*%
%TO.P,J9,1,Pin_1_1*%
%TO.N,/5V*%
X254959566Y-155389446D03*
%TD*%
D12*
%TO.P,D6,1,VDD_1*%
%TO.N,+5V*%
X-135982976Y-148450000D03*
%TO.P,D6,2,DOUT_2*%
%TO.N,Net-(D6-DOUT)*%
X-135982976Y-151750000D03*
%TO.P,D6,3,VSS_3*%
%TO.N,GND*%
X-131082976Y-151750000D03*
%TO.P,D6,4,DIN_4*%
%TO.N,Net-(D5-DOUT)*%
X-131082976Y-148450000D03*
%TD*%
%TO.P,D55,1,VDD_1*%
%TO.N,+5V*%
X13650000Y-173450000D03*
%TO.P,D55,2,DOUT_2*%
%TO.N,Net-(D55-DOUT)*%
X13650000Y-176750000D03*
%TO.P,D55,3,VSS_3*%
%TO.N,GND*%
X18550000Y-176750000D03*
%TO.P,D55,4,DIN_4*%
%TO.N,Net-(D54-DOUT)*%
X18550000Y-173450000D03*
%TD*%
D21*
%TO.P,U1,1,GND_1*%
%TO.N,GND*%
X81100000Y-174500000D03*
D11*
%TO.P,U1,2,VCC_2*%
%TO.N,/3.3v*%
X81100000Y-171960000D03*
%TO.P,U1,3,SCL_3*%
%TO.N,/SCL*%
X81100000Y-169420000D03*
%TO.P,U1,4,SDA_4*%
%TO.N,/SDA*%
X81100000Y-166880000D03*
%TD*%
D12*
%TO.P,D14,1,VDD_1*%
%TO.N,+5V*%
X-111350000Y-148450000D03*
%TO.P,D14,2,DOUT_2*%
%TO.N,Net-(D14-DOUT)*%
X-111350000Y-151750000D03*
%TO.P,D14,3,VSS_3*%
%TO.N,GND*%
X-106450000Y-151750000D03*
%TO.P,D14,4,DIN_4*%
%TO.N,Net-(D13-DOUT)*%
X-106450000Y-148450000D03*
%TD*%
%TO.P,D34,1,VDD_1*%
%TO.N,+5V*%
X-36182976Y-48650000D03*
%TO.P,D34,2,DOUT_2*%
%TO.N,Net-(D34-DOUT)*%
X-36182976Y-51950000D03*
%TO.P,D34,3,VSS_3*%
%TO.N,GND*%
X-31282976Y-51950000D03*
%TO.P,D34,4,DIN_4*%
%TO.N,Net-(D33-DOUT)*%
X-31282976Y-48650000D03*
%TD*%
%TO.P,D28,1,VDD_1*%
%TO.N,+5V*%
X-61350000Y-98450000D03*
%TO.P,D28,2,DOUT_2*%
%TO.N,Net-(D28-DOUT)*%
X-61350000Y-101750000D03*
%TO.P,D28,3,VSS_3*%
%TO.N,GND*%
X-56450000Y-101750000D03*
%TO.P,D28,4,DIN_4*%
%TO.N,Net-(D27-DOUT)*%
X-56450000Y-98450000D03*
%TD*%
%TO.P,D58,1,VDD_1*%
%TO.N,+5V*%
X38650000Y-48450000D03*
%TO.P,D58,2,DOUT_2*%
%TO.N,Net-(D58-DOUT)*%
X38650000Y-51750000D03*
%TO.P,D58,3,VSS_3*%
%TO.N,GND*%
X43550000Y-51750000D03*
%TO.P,D58,4,DIN_4*%
%TO.N,Net-(D57-DOUT)*%
X43550000Y-48450000D03*
%TD*%
%TO.P,D26,1,VDD_1*%
%TO.N,+5V*%
X-61350000Y-48450000D03*
%TO.P,D26,2,DOUT_2*%
%TO.N,Net-(D26-DOUT)*%
X-61350000Y-51750000D03*
%TO.P,D26,3,VSS_3*%
%TO.N,GND*%
X-56450000Y-51750000D03*
%TO.P,D26,4,DIN_4*%
%TO.N,Net-(D25-DOUT)*%
X-56450000Y-48450000D03*
%TD*%
%TO.P,D8,1,VDD_1*%
%TO.N,+5V*%
X-135982976Y-198450000D03*
%TO.P,D8,2,DOUT_2*%
%TO.N,Net-(D8-DOUT)*%
X-135982976Y-201750000D03*
%TO.P,D8,3,VSS_3*%
%TO.N,GND*%
X-131082976Y-201750000D03*
%TO.P,D8,4,DIN_4*%
%TO.N,Net-(D7-DOUT)*%
X-131082976Y-198450000D03*
%TD*%
%TO.P,D29,1,VDD_1*%
%TO.N,+5V*%
X-61350000Y-123450000D03*
%TO.P,D29,2,DOUT_2*%
%TO.N,Net-(D29-DOUT)*%
X-61350000Y-126750000D03*
%TO.P,D29,3,VSS_3*%
%TO.N,GND*%
X-56450000Y-126750000D03*
%TO.P,D29,4,DIN_4*%
%TO.N,Net-(D28-DOUT)*%
X-56450000Y-123450000D03*
%TD*%
%TO.P,D62,1,VDD_1*%
%TO.N,+5V*%
X38650000Y-148450000D03*
%TO.P,D62,2,DOUT_2*%
%TO.N,Net-(D62-DOUT)*%
X38650000Y-151750000D03*
%TO.P,D62,3,VSS_3*%
%TO.N,GND*%
X43550000Y-151750000D03*
%TO.P,D62,4,DIN_4*%
%TO.N,Net-(D61-DOUT)*%
X43550000Y-148450000D03*
%TD*%
%TO.P,D2,1,VDD_1*%
%TO.N,+5V*%
X-135932976Y-48450000D03*
%TO.P,D2,2,DOUT_2*%
%TO.N,Net-(D2-DOUT)*%
X-135932976Y-51750000D03*
%TO.P,D2,3,VSS_3*%
%TO.N,GND*%
X-131032976Y-51750000D03*
%TO.P,D2,4,DIN_4*%
%TO.N,Net-(D1-DOUT)*%
X-131032976Y-48450000D03*
%TD*%
%TO.P,D7,1,VDD_1*%
%TO.N,+5V*%
X-135982976Y-173450000D03*
%TO.P,D7,2,DOUT_2*%
%TO.N,Net-(D7-DOUT)*%
X-135982976Y-176750000D03*
%TO.P,D7,3,VSS_3*%
%TO.N,GND*%
X-131082976Y-176750000D03*
%TO.P,D7,4,DIN_4*%
%TO.N,Net-(D6-DOUT)*%
X-131082976Y-173450000D03*
%TD*%
%TO.P,D49,1,VDD_1*%
%TO.N,+5V*%
X13650000Y-23450000D03*
%TO.P,D49,2,DOUT_2*%
%TO.N,Net-(D49-DOUT)*%
X13650000Y-26750000D03*
%TO.P,D49,3,VSS_3*%
%TO.N,GND*%
X18550000Y-26750000D03*
%TO.P,D49,4,DIN_4*%
%TO.N,Net-(D48-DOUT)*%
X18550000Y-23450000D03*
%TD*%
D13*
%TO.P,U6,1,A1_1*%
%TO.N,/A3_L*%
X216825000Y-130997500D03*
%TO.P,U6,2,VCCA_2*%
%TO.N,/3.3v*%
X216175000Y-130997500D03*
%TO.P,U6,3,A2_3*%
%TO.N,/A4_L*%
X215525000Y-130997500D03*
%TO.P,U6,4,A3_4*%
%TO.N,/A5_L*%
X214875000Y-130997500D03*
%TO.P,U6,5,A4_5*%
%TO.N,/A6_L*%
X214225000Y-130997500D03*
%TO.P,U6,6,A5_6*%
%TO.N,/A7_L*%
X213575000Y-130997500D03*
%TO.P,U6,7,A6_7*%
%TO.N,/A8_L*%
X212925000Y-130997500D03*
%TO.P,U6,8,A7_8*%
%TO.N,/A9_L*%
X212275000Y-130997500D03*
%TO.P,U6,9,A8_9*%
%TO.N,unconnected-(U6-A8-Pad9)*%
X211625000Y-130997500D03*
%TO.P,U6,10,OE_10*%
%TO.N,/3.3v*%
X210975000Y-130997500D03*
%TO.P,U6,11,GND_11*%
%TO.N,GND*%
X210975000Y-136722500D03*
%TO.P,U6,12,B8_12*%
%TO.N,unconnected-(U6-B8-Pad12)*%
X211625000Y-136722500D03*
%TO.P,U6,13,B7_13*%
%TO.N,Net-(U3-A9_L)*%
X212275000Y-136722500D03*
%TO.P,U6,14,B6_14*%
%TO.N,Net-(U3-A8_L)*%
X212925000Y-136722500D03*
%TO.P,U6,15,B5_15*%
%TO.N,Net-(U3-A7_L)*%
X213575000Y-136722500D03*
%TO.P,U6,16,B4_16*%
%TO.N,Net-(U3-A6_L)*%
X214225000Y-136722500D03*
%TO.P,U6,17,B3_17*%
%TO.N,Net-(U3-A5_L)*%
X214875000Y-136722500D03*
%TO.P,U6,18,B2_18*%
%TO.N,Net-(U3-A4_L)*%
X215525000Y-136722500D03*
%TO.P,U6,19,VCCB_19*%
%TO.N,/5V*%
X216175000Y-136722500D03*
%TO.P,U6,20,B1_20*%
%TO.N,Net-(U3-A3_L)*%
X216825000Y-136722500D03*
%TD*%
D12*
%TO.P,D5,1,VDD_1*%
%TO.N,+5V*%
X-135982976Y-123450000D03*
%TO.P,D5,2,DOUT_2*%
%TO.N,Net-(D5-DOUT)*%
X-135982976Y-126750000D03*
%TO.P,D5,3,VSS_3*%
%TO.N,GND*%
X-131082976Y-126750000D03*
%TO.P,D5,4,DIN_4*%
%TO.N,Net-(D4-DOUT)*%
X-131082976Y-123450000D03*
%TD*%
%TO.P,D38,1,VDD_1*%
%TO.N,+5V*%
X-36182976Y-148650000D03*
%TO.P,D38,2,DOUT_2*%
%TO.N,Net-(D38-DOUT)*%
X-36182976Y-151950000D03*
%TO.P,D38,3,VSS_3*%
%TO.N,GND*%
X-31282976Y-151950000D03*
%TO.P,D38,4,DIN_4*%
%TO.N,Net-(D37-DOUT)*%
X-31282976Y-148650000D03*
%TD*%
D23*
%TO.P,U3,1,~{CE_L}_1*%
%TO.N,Net-(U3-~{CE_L})*%
X245400000Y-150260000D03*
D24*
%TO.P,U3,2,~{RW_L}_2*%
%TO.N,Net-(U3-~{RW_L})*%
X242860000Y-150260000D03*
%TO.P,U3,3,~{BUSY_L}_3*%
%TO.N,Net-(U3-~{BUSY_L})*%
X240320000Y-150260000D03*
%TO.P,U3,4,~{INT_L}_4*%
%TO.N,Net-(U3-~{INT_L})*%
X237780000Y-150260000D03*
%TO.P,U3,5,~{OE_L}_5*%
%TO.N,Net-(U3-~{OE_L})*%
X235240000Y-150260000D03*
%TO.P,U3,6,A0_L_6*%
%TO.N,Net-(U3-A0_L)*%
X232700000Y-150260000D03*
%TO.P,U3,7,A1_L_7*%
%TO.N,Net-(U3-A1_L)*%
X230160000Y-150260000D03*
%TO.P,U3,8,A2_L_8*%
%TO.N,Net-(U3-A2_L)*%
X227620000Y-150260000D03*
%TO.P,U3,9,A3_L_9*%
%TO.N,Net-(U3-A3_L)*%
X225080000Y-150260000D03*
%TO.P,U3,10,A4_L_10*%
%TO.N,Net-(U3-A4_L)*%
X222540000Y-150260000D03*
%TO.P,U3,11,A5_L_11*%
%TO.N,Net-(U3-A5_L)*%
X220000000Y-150260000D03*
%TO.P,U3,12,A6_L_12*%
%TO.N,Net-(U3-A6_L)*%
X217460000Y-150260000D03*
%TO.P,U3,13,A7_L_13*%
%TO.N,Net-(U3-A7_L)*%
X214920000Y-150260000D03*
%TO.P,U3,14,A8_L_14*%
%TO.N,Net-(U3-A8_L)*%
X212380000Y-150260000D03*
%TO.P,U3,15,A9_L_15*%
%TO.N,Net-(U3-A9_L)*%
X209840000Y-150260000D03*
%TO.P,U3,16,IO0_L_16*%
%TO.N,Net-(U3-IO0_L)*%
X207300000Y-150260000D03*
%TO.P,U3,17,IO1_L_17*%
%TO.N,Net-(U3-IO1_L)*%
X204760000Y-150260000D03*
%TO.P,U3,18,IO2_L_18*%
%TO.N,Net-(U3-IO2_L)*%
X202220000Y-150260000D03*
%TO.P,U3,19,IO3_L_19*%
%TO.N,Net-(U3-IO3_L)*%
X199680000Y-150260000D03*
%TO.P,U3,20,IO4_L_20*%
%TO.N,Net-(U3-IO4_L)*%
X197140000Y-150260000D03*
%TO.P,U3,21,IO5_L_21*%
%TO.N,Net-(U3-IO5_L)*%
X194600000Y-150260000D03*
%TO.P,U3,22,IO6_L_22*%
%TO.N,Net-(U3-IO6_L)*%
X192060000Y-150260000D03*
%TO.P,U3,23,IO7_L_23*%
%TO.N,Net-(U3-IO7_L)*%
X189520000Y-150260000D03*
%TO.P,U3,24,GND_24*%
%TO.N,GND*%
X186980000Y-150260000D03*
%TO.P,U3,25,IO7_R_25*%
%TO.N,Net-(J12-Pin_1)*%
X186980000Y-165500000D03*
%TO.P,U3,26,IO6_R_26*%
%TO.N,Net-(J12-Pin_2)*%
X189520000Y-165500000D03*
%TO.P,U3,27,IO5_R_27*%
%TO.N,Net-(J12-Pin_3)*%
X192060000Y-165500000D03*
%TO.P,U3,28,IO4_R_28*%
%TO.N,Net-(J12-Pin_4)*%
X194600000Y-165500000D03*
%TO.P,U3,29,IO3_R_29*%
%TO.N,Net-(J12-Pin_5)*%
X197140000Y-165500000D03*
%TO.P,U3,30,IO2_R_30*%
%TO.N,Net-(J12-Pin_6)*%
X199680000Y-165500000D03*
%TO.P,U3,31,IO1_R_31*%
%TO.N,Net-(J12-Pin_7)*%
X202220000Y-165500000D03*
%TO.P,U3,32,IO0_R_32*%
%TO.N,Net-(J12-Pin_8)*%
X204760000Y-165500000D03*
%TO.P,U3,33,A9_R_33*%
%TO.N,Net-(J6-Pin_1)*%
X207300000Y-165500000D03*
%TO.P,U3,34,A8_R_34*%
%TO.N,Net-(J6-Pin_2)*%
X209840000Y-165500000D03*
%TO.P,U3,35,A7_R_35*%
%TO.N,Net-(J6-Pin_3)*%
X212380000Y-165500000D03*
%TO.P,U3,36,A6_R_36*%
%TO.N,Net-(J6-Pin_4)*%
X214920000Y-165500000D03*
%TO.P,U3,37,A5_R_37*%
%TO.N,Net-(J6-Pin_5)*%
X217460000Y-165500000D03*
%TO.P,U3,38,A4_R_38*%
%TO.N,Net-(J6-Pin_6)*%
X220000000Y-165500000D03*
%TO.P,U3,39,A3_R_39*%
%TO.N,Net-(J6-Pin_7)*%
X222540000Y-165500000D03*
%TO.P,U3,40,A2_R_40*%
%TO.N,Net-(J6-Pin_8)*%
X225080000Y-165500000D03*
%TO.P,U3,41,A1_R_41*%
%TO.N,Net-(J6-Pin_9)*%
X227620000Y-165500000D03*
%TO.P,U3,42,A0_R_42*%
%TO.N,Net-(J6-Pin_10)*%
X230160000Y-165500000D03*
%TO.P,U3,43,~{OE_R}_43*%
%TO.N,Net-(J5-Pin_1)*%
X232700000Y-165500000D03*
%TO.P,U3,44,~{INT_R}_44*%
%TO.N,Net-(J5-Pin_2)*%
X235240000Y-165500000D03*
%TO.P,U3,45,~{BUSY_R}_45*%
%TO.N,Net-(J5-Pin_3)*%
X237780000Y-165500000D03*
%TO.P,U3,46,~{RW_R}_46*%
%TO.N,Net-(J5-Pin_4)*%
X240320000Y-165500000D03*
%TO.P,U3,47,~{CE_R}_47*%
%TO.N,Net-(J5-Pin_5)*%
X242860000Y-165500000D03*
%TO.P,U3,48,VCC_48*%
%TO.N,/5V*%
X245400000Y-165500000D03*
%TD*%
D12*
%TO.P,D52,1,VDD_1*%
%TO.N,+5V*%
X13650000Y-98450000D03*
%TO.P,D52,2,DOUT_2*%
%TO.N,Net-(D52-DOUT)*%
X13650000Y-101750000D03*
%TO.P,D52,3,VSS_3*%
%TO.N,GND*%
X18550000Y-101750000D03*
%TO.P,D52,4,DIN_4*%
%TO.N,Net-(D51-DOUT)*%
X18550000Y-98450000D03*
%TD*%
%TO.P,D53,1,VDD_1*%
%TO.N,+5V*%
X13650000Y-123450000D03*
%TO.P,D53,2,DOUT_2*%
%TO.N,Net-(D53-DOUT)*%
X13650000Y-126750000D03*
%TO.P,D53,3,VSS_3*%
%TO.N,GND*%
X18550000Y-126750000D03*
%TO.P,D53,4,DIN_4*%
%TO.N,Net-(D52-DOUT)*%
X18550000Y-123450000D03*
%TD*%
%TO.P,D31,1,VDD_1*%
%TO.N,+5V*%
X-61350000Y-173450000D03*
%TO.P,D31,2,DOUT_2*%
%TO.N,Net-(D31-DOUT)*%
X-61350000Y-176750000D03*
%TO.P,D31,3,VSS_3*%
%TO.N,GND*%
X-56450000Y-176750000D03*
%TO.P,D31,4,DIN_4*%
%TO.N,Net-(D30-DOUT)*%
X-56450000Y-173450000D03*
%TD*%
%TO.P,D13,1,VDD_1*%
%TO.N,+5V*%
X-111350000Y-123450000D03*
%TO.P,D13,2,DOUT_2*%
%TO.N,Net-(D13-DOUT)*%
X-111350000Y-126750000D03*
%TO.P,D13,3,VSS_3*%
%TO.N,GND*%
X-106450000Y-126750000D03*
%TO.P,D13,4,DIN_4*%
%TO.N,Net-(D12-DOUT)*%
X-106450000Y-123450000D03*
%TD*%
%TO.P,D46,1,VDD_1*%
%TO.N,+5V*%
X-11350000Y-148450000D03*
%TO.P,D46,2,DOUT_2*%
%TO.N,Net-(D46-DOUT)*%
X-11350000Y-151750000D03*
%TO.P,D46,3,VSS_3*%
%TO.N,GND*%
X-6450000Y-151750000D03*
%TO.P,D46,4,DIN_4*%
%TO.N,Net-(D45-DOUT)*%
X-6450000Y-148450000D03*
%TD*%
D10*
%TO.P,J14,1,Pin_1_1*%
%TO.N,Net-(J13-Pin_1)*%
X240950000Y-84900000D03*
D11*
%TO.P,J14,2,Pin_2_2*%
%TO.N,Net-(J13-Pin_2)*%
X238410000Y-84900000D03*
%TO.P,J14,3,Pin_3_3*%
%TO.N,Net-(J13-Pin_3)*%
X235870000Y-84900000D03*
%TO.P,J14,4,Pin_4_4*%
%TO.N,Net-(J13-Pin_4)*%
X233330000Y-84900000D03*
%TO.P,J14,5,Pin_5_5*%
%TO.N,Net-(J13-Pin_5)*%
X230790000Y-84900000D03*
%TO.P,J14,6,Pin_6_6*%
%TO.N,/IO7_L*%
X228250000Y-84900000D03*
%TO.P,J14,7,Pin_7_7*%
%TO.N,Net-(J13-Pin_7)*%
X225710000Y-84900000D03*
%TO.P,J14,8,Pin_8_8*%
%TO.N,/SDA*%
X223170000Y-84900000D03*
%TO.P,J14,9,Pin_9_9*%
%TO.N,Net-(J13-Pin_9)*%
X220630000Y-84900000D03*
%TO.P,J14,10,Pin_10_10*%
%TO.N,Net-(J13-Pin_10)*%
X218090000Y-84900000D03*
%TO.P,J14,11,Pin_11_11*%
%TO.N,Net-(J13-Pin_11)*%
X215550000Y-84900000D03*
%TO.P,J14,12,Pin_12_12*%
%TO.N,Net-(J13-Pin_12)*%
X213010000Y-84900000D03*
%TO.P,J14,13,Pin_13_13*%
%TO.N,/IO2_L*%
X210470000Y-84900000D03*
%TO.P,J14,14,Pin_14_14*%
%TO.N,/IO3_L*%
X207930000Y-84900000D03*
%TO.P,J14,15,Pin_15_15*%
%TO.N,/IO4_L*%
X205390000Y-84900000D03*
%TO.P,J14,16,Pin_16_16*%
%TO.N,/IO5_L*%
X202850000Y-84900000D03*
%TO.P,J14,17,Pin_17_17*%
%TO.N,/IO6_L*%
X200310000Y-84900000D03*
%TO.P,J14,18,Pin_18_18*%
%TO.N,/~{RW_L}*%
X197770000Y-84900000D03*
%TO.P,J14,19,Pin_19_19*%
%TO.N,/~{CE_L}*%
X195230000Y-84900000D03*
%TO.P,J14,20,Pin_20_20*%
%TO.N,Net-(J13-Pin_20)*%
X192690000Y-84900000D03*
%TO.P,J14,21,Pin_21_21*%
%TO.N,Net-(J13-Pin_21)*%
X190150000Y-84900000D03*
%TO.P,J14,22,Pin_22_22*%
%TO.N,Net-(J13-Pin_22)*%
X187610000Y-84900000D03*
%TD*%
D12*
%TO.P,D15,1,VDD_1*%
%TO.N,+5V*%
X-111350000Y-173450000D03*
%TO.P,D15,2,DOUT_2*%
%TO.N,Net-(D15-DOUT)*%
X-111350000Y-176750000D03*
%TO.P,D15,3,VSS_3*%
%TO.N,GND*%
X-106450000Y-176750000D03*
%TO.P,D15,4,DIN_4*%
%TO.N,Net-(D14-DOUT)*%
X-106450000Y-173450000D03*
%TD*%
%TO.P,D1,1,VDD_1*%
%TO.N,+5V*%
X-135900000Y-23600000D03*
%TO.P,D1,2,DOUT_2*%
%TO.N,Net-(D1-DOUT)*%
X-135900000Y-26900000D03*
%TO.P,D1,3,VSS_3*%
%TO.N,GND*%
X-131000000Y-26900000D03*
%TO.P,D1,4,DIN_4*%
%TO.N,Net-(D1-DIN)*%
X-131000000Y-23600000D03*
%TD*%
%TO.P,D41,1,VDD_1*%
%TO.N,+5V*%
X-11350000Y-23450000D03*
%TO.P,D41,2,DOUT_2*%
%TO.N,Net-(D41-DOUT)*%
X-11350000Y-26750000D03*
%TO.P,D41,3,VSS_3*%
%TO.N,GND*%
X-6450000Y-26750000D03*
%TO.P,D41,4,DIN_4*%
%TO.N,Net-(D40-DOUT)*%
X-6450000Y-23450000D03*
%TD*%
%TO.P,D63,1,VDD_1*%
%TO.N,+5V*%
X38650000Y-173450000D03*
%TO.P,D63,2,DOUT_2*%
%TO.N,Net-(D63-DOUT)*%
X38650000Y-176750000D03*
%TO.P,D63,3,VSS_3*%
%TO.N,GND*%
X43550000Y-176750000D03*
%TO.P,D63,4,DIN_4*%
%TO.N,Net-(D62-DOUT)*%
X43550000Y-173450000D03*
%TD*%
%TO.P,D17,1,VDD_1*%
%TO.N,+5V*%
X-86132976Y-23450000D03*
%TO.P,D17,2,DOUT_2*%
%TO.N,Net-(D17-DOUT)*%
X-86132976Y-26750000D03*
%TO.P,D17,3,VSS_3*%
%TO.N,GND*%
X-81232976Y-26750000D03*
%TO.P,D17,4,DIN_4*%
%TO.N,Net-(D16-DOUT)*%
X-81232976Y-23450000D03*
%TD*%
%TO.P,D61,1,VDD_1*%
%TO.N,+5V*%
X38650000Y-123450000D03*
%TO.P,D61,2,DOUT_2*%
%TO.N,Net-(D61-DOUT)*%
X38650000Y-126750000D03*
%TO.P,D61,3,VSS_3*%
%TO.N,GND*%
X43550000Y-126750000D03*
%TO.P,D61,4,DIN_4*%
%TO.N,Net-(D60-DOUT)*%
X43550000Y-123450000D03*
%TD*%
%TO.P,D57,1,VDD_1*%
%TO.N,+5V*%
X38650000Y-23450000D03*
%TO.P,D57,2,DOUT_2*%
%TO.N,Net-(D57-DOUT)*%
X38650000Y-26750000D03*
%TO.P,D57,3,VSS_3*%
%TO.N,GND*%
X43550000Y-26750000D03*
%TO.P,D57,4,DIN_4*%
%TO.N,Net-(D56-DOUT)*%
X43550000Y-23450000D03*
%TD*%
D22*
%TO.P,R2,1*%
%TO.N,GND*%
X240505000Y-140060000D03*
%TO.P,R2,2*%
%TO.N,Net-(J10-CC1)*%
X248125000Y-140060000D03*
%TD*%
D12*
%TO.P,D20,1,VDD_1*%
%TO.N,+5V*%
X-86132976Y-98450000D03*
%TO.P,D20,2,DOUT_2*%
%TO.N,Net-(D20-DOUT)*%
X-86132976Y-101750000D03*
%TO.P,D20,3,VSS_3*%
%TO.N,GND*%
X-81232976Y-101750000D03*
%TO.P,D20,4,DIN_4*%
%TO.N,Net-(D19-DOUT)*%
X-81232976Y-98450000D03*
%TD*%
%TO.P,D22,1,VDD_1*%
%TO.N,+5V*%
X-86132976Y-148450000D03*
%TO.P,D22,2,DOUT_2*%
%TO.N,Net-(D22-DOUT)*%
X-86132976Y-151750000D03*
%TO.P,D22,3,VSS_3*%
%TO.N,GND*%
X-81232976Y-151750000D03*
%TO.P,D22,4,DIN_4*%
%TO.N,Net-(D21-DOUT)*%
X-81232976Y-148450000D03*
%TD*%
%TO.P,D10,1,VDD_1*%
%TO.N,+5V*%
X-111350000Y-48450000D03*
%TO.P,D10,2,DOUT_2*%
%TO.N,Net-(D10-DOUT)*%
X-111350000Y-51750000D03*
%TO.P,D10,3,VSS_3*%
%TO.N,GND*%
X-106450000Y-51750000D03*
%TO.P,D10,4,DIN_4*%
%TO.N,Net-(D10-DIN)*%
X-106450000Y-48450000D03*
%TD*%
%TO.P,D37,1,VDD_1*%
%TO.N,+5V*%
X-36182976Y-123650000D03*
%TO.P,D37,2,DOUT_2*%
%TO.N,Net-(D37-DOUT)*%
X-36182976Y-126950000D03*
%TO.P,D37,3,VSS_3*%
%TO.N,GND*%
X-31282976Y-126950000D03*
%TO.P,D37,4,DIN_4*%
%TO.N,Net-(D36-DOUT)*%
X-31282976Y-123650000D03*
%TD*%
D10*
%TO.P,J3,1,Pin_1_1*%
%TO.N,GND*%
X-138582976Y-200350000D03*
%TD*%
D25*
%TO.N,/~{RW_L}*%
X222524265Y-119884265D03*
%TO.N,+5V*%
X38650000Y-148450000D03*
X38650000Y-173450000D03*
X38650000Y-48450000D03*
X38617024Y-25050000D03*
X38650000Y-198450000D03*
X38650000Y-73450000D03*
X38650000Y-123450000D03*
X38650000Y-98450000D03*
%TO.N,GND*%
X43550000Y-51750000D03*
X43550000Y-151750000D03*
X43550000Y-126750000D03*
X43517024Y-28450000D03*
X43550000Y-76750000D03*
X43550000Y-101750000D03*
X43550000Y-176750000D03*
X43550000Y-201750000D03*
%TO.N,Net-(D64-DOUT)*%
X32417024Y-201950000D03*
%TO.N,/~{BUSY_L}*%
X195200000Y-129760000D03*
X221900000Y-129860000D03*
%TO.N,/~{INT_L}*%
X197700000Y-129260000D03*
X221200000Y-129260000D03*
%TO.N,/~{OE_L}*%
X200300000Y-128660000D03*
X220585421Y-128660000D03*
%TO.N,/A0_L*%
X219875000Y-128260000D03*
X202800000Y-128260000D03*
%TO.N,/A2_L*%
X218600000Y-122785000D03*
X223111092Y-118448908D03*
%TO.N,/5V*%
X216200000Y-138360000D03*
X209200000Y-138360000D03*
X223225000Y-138360000D03*
%TO.N,/A8_L*%
X212900000Y-127860000D03*
X205325000Y-127860000D03*
%TO.N,/A9_L*%
X212300000Y-127260000D03*
X207000000Y-127260000D03*
%TO.N,/IO0_L*%
X209600000Y-119560000D03*
%TO.N,/IO1_L*%
X209000000Y-118857438D03*
%TO.N,/A3_L*%
X216800000Y-122785000D03*
X225700000Y-117960000D03*
%TO.N,/A4_L*%
X228200000Y-127760000D03*
X215500000Y-127860000D03*
%TO.N,/A5_L*%
X230700000Y-127060000D03*
X214900000Y-127260000D03*
%TO.N,/A6_L*%
X214200000Y-126760000D03*
X233316507Y-125076507D03*
%TO.N,/A7_L*%
X235800000Y-123385000D03*
X213600000Y-124760000D03*
%TO.N,Net-(D32-DOUT)*%
X-58882976Y-201750000D03*
X-31282976Y-23650000D03*
%TO.N,Net-(D24-DOUT)*%
X-83682976Y-201750000D03*
X-56450000Y-23450000D03*
%TO.N,Net-(D40-DOUT)*%
X-33682976Y-201450000D03*
X-6450000Y-23450000D03*
%TO.N,Net-(D48-DOUT)*%
X-8882976Y-201600000D03*
X18550000Y-23450000D03*
%TO.N,Net-(D1-DIN)*%
X-134082976Y-23550000D03*
X-49582976Y-202350000D03*
%TO.N,Net-(D8-DOUT)*%
X-133582976Y-201750000D03*
X-106450000Y-23450000D03*
%TO.N,Net-(D16-DOUT)*%
X-81232976Y-23450000D03*
X-108882976Y-201600000D03*
%TO.N,Net-(D56-DOUT)*%
X43550000Y-23450000D03*
X16117024Y-201600000D03*
%TD*%
%TO.N,/5V*%
D26*
X255000000Y-91190000D02*
X238390000Y-107800000D01*
X255000000Y-79760000D02*
X255000000Y-91190000D01*
%TO.N,GND*%
X69959566Y-80000434D02*
X69959566Y-155589446D01*
X70000000Y-79960000D02*
X69959566Y-80000434D01*
%TO.N,Net-(J13-Pin_7)*%
X223860000Y-78460000D02*
X225710000Y-80310000D01*
X164600000Y-78460000D02*
X223860000Y-78460000D01*
X164600000Y-156849012D02*
X164600000Y-78460000D01*
X161659566Y-159789446D02*
X164600000Y-156849012D01*
%TO.N,/IO7_L*%
X201440000Y-94323654D02*
X194080000Y-86963654D01*
X202851471Y-129160000D02*
X201440000Y-127748529D01*
X195153654Y-83350000D02*
X226700000Y-83350000D01*
X204625000Y-130350685D02*
X204400000Y-130125685D01*
X226700000Y-83350000D02*
X228250000Y-84900000D01*
X194080000Y-84423654D02*
X195153654Y-83350000D01*
X201440000Y-127748529D02*
X201440000Y-94323654D01*
X194080000Y-86963654D02*
X194080000Y-84423654D01*
X204625000Y-130997500D02*
X204625000Y-130350685D01*
X204400000Y-129160000D02*
X202851471Y-129160000D01*
X204400000Y-130125685D02*
X204400000Y-129160000D01*
%TO.N,/IO2_L*%
X207800000Y-129960000D02*
X207800000Y-129191371D01*
X207875000Y-129960000D02*
X207800000Y-129960000D01*
X207800000Y-129191371D02*
X208400000Y-128591370D01*
X208400000Y-118606346D02*
X214140000Y-112866346D01*
X214140000Y-112866346D02*
X214140000Y-88570000D01*
X214140000Y-88570000D02*
X210470000Y-84900000D01*
X207875000Y-130997500D02*
X207875000Y-129960000D01*
X208400000Y-128591370D02*
X208400000Y-118606346D01*
%TO.N,/IO3_L*%
X208000000Y-116466346D02*
X211600000Y-112866346D01*
X207375000Y-129050686D02*
X208000000Y-128425685D01*
X207375000Y-130847500D02*
X207375000Y-129050686D01*
X211600000Y-112866346D02*
X211600000Y-88570000D01*
X211600000Y-88570000D02*
X207930000Y-84900000D01*
X208000000Y-128425685D02*
X208000000Y-116466346D01*
X207225000Y-130997500D02*
X207375000Y-130847500D01*
%TO.N,/IO4_L*%
X209060000Y-112866346D02*
X209060000Y-88570000D01*
X209060000Y-88570000D02*
X205390000Y-84900000D01*
X207600000Y-128260000D02*
X207600000Y-114326346D01*
X206575000Y-130997500D02*
X206700000Y-130872500D01*
X206700000Y-129160000D02*
X207600000Y-128260000D01*
X207600000Y-114326346D02*
X209060000Y-112866346D01*
X206700000Y-130872500D02*
X206700000Y-129160000D01*
%TO.N,/IO5_L*%
X205925000Y-130997500D02*
X205925000Y-113461346D01*
X206520000Y-112866346D02*
X206520000Y-88570000D01*
X206520000Y-88570000D02*
X202850000Y-84900000D01*
X205925000Y-113461346D02*
X206520000Y-112866346D01*
%TO.N,/IO6_L*%
X204725000Y-127611471D02*
X204800000Y-127536471D01*
X204800000Y-128183529D02*
X204725000Y-128108529D01*
X204800000Y-129960000D02*
X204800000Y-128183529D01*
X205125000Y-130191544D02*
X204893456Y-129960000D01*
X203980000Y-112866346D02*
X203980000Y-88570000D01*
X205275000Y-130997500D02*
X205125000Y-130847500D01*
X204800000Y-113686346D02*
X203980000Y-112866346D01*
X205125000Y-130847500D02*
X205125000Y-130191544D01*
X204725000Y-128108529D02*
X204725000Y-127611471D01*
X204800000Y-127536471D02*
X204800000Y-113686346D01*
X203980000Y-88570000D02*
X200310000Y-84900000D01*
X204893456Y-129960000D02*
X204800000Y-129960000D01*
%TO.N,/~{RW_L}*%
X222525000Y-119885000D02*
X222524265Y-119884265D01*
X222525000Y-130997500D02*
X222525000Y-119885000D01*
%TO.N,/~{CE_L}*%
X211620000Y-84423654D02*
X210946346Y-83750000D01*
X210946346Y-83750000D02*
X196380000Y-83750000D01*
X216680000Y-90436346D02*
X211620000Y-85376346D01*
X211620000Y-85376346D02*
X211620000Y-84423654D01*
X216680000Y-112866346D02*
X216680000Y-90436346D01*
X223825000Y-120011346D02*
X216680000Y-112866346D01*
X196380000Y-83750000D02*
X195230000Y-84900000D01*
X223825000Y-130997500D02*
X223825000Y-120011346D01*
%TO.N,Net-(J6-Pin_1)*%
X207300000Y-165500000D02*
X207300000Y-171060000D01*
X207300000Y-171060000D02*
X205800000Y-172560000D01*
%TO.N,Net-(J6-Pin_2)*%
X209840000Y-165500000D02*
X209840000Y-171060000D01*
X209840000Y-171060000D02*
X208340000Y-172560000D01*
%TO.N,Net-(J6-Pin_3)*%
X212380000Y-165500000D02*
X212380000Y-171060000D01*
X212380000Y-171060000D02*
X210880000Y-172560000D01*
%TO.N,Net-(J6-Pin_4)*%
X214920000Y-165500000D02*
X214920000Y-171060000D01*
X214920000Y-171060000D02*
X213420000Y-172560000D01*
%TO.N,Net-(J6-Pin_5)*%
X217460000Y-171060000D02*
X215960000Y-172560000D01*
X217460000Y-165500000D02*
X217460000Y-171060000D01*
%TO.N,Net-(J6-Pin_6)*%
X220000000Y-165500000D02*
X220000000Y-171060000D01*
X220000000Y-171060000D02*
X218500000Y-172560000D01*
%TO.N,Net-(J6-Pin_7)*%
X222540000Y-171060000D02*
X221040000Y-172560000D01*
X222540000Y-165500000D02*
X222540000Y-171060000D01*
%TO.N,Net-(J6-Pin_8)*%
X225080000Y-171060000D02*
X223580000Y-172560000D01*
X225080000Y-165500000D02*
X225080000Y-171060000D01*
%TO.N,Net-(J6-Pin_9)*%
X227620000Y-171060000D02*
X226120000Y-172560000D01*
X227620000Y-165500000D02*
X227620000Y-171060000D01*
%TO.N,Net-(J6-Pin_10)*%
X230160000Y-171060000D02*
X228660000Y-172560000D01*
X230160000Y-165500000D02*
X230160000Y-171060000D01*
%TO.N,+5V*%
X-85382976Y-74200000D02*
X-62100000Y-74200000D01*
X13650000Y-123450000D02*
X14400000Y-124200000D01*
X-61350000Y-23450000D02*
X-62100000Y-24200000D01*
X-112100000Y-124200000D02*
X-111350000Y-123450000D01*
X-62100000Y-24200000D02*
X-85382976Y-24200000D01*
X12900000Y-24200000D02*
X13650000Y-23450000D01*
X-109950000Y-24850000D02*
X-87532976Y-24850000D01*
X37900000Y-199200000D02*
X38650000Y-198450000D01*
X-112100000Y-99200000D02*
X-111350000Y-98450000D01*
X13650000Y-173450000D02*
X12900000Y-174200000D01*
X-86132976Y-73450000D02*
X-85382976Y-74200000D01*
X14400000Y-49200000D02*
X37900000Y-49200000D01*
X-112100000Y-149200000D02*
X-135232976Y-149200000D01*
X-36732976Y-49200000D02*
X-60600000Y-49200000D01*
X-135150000Y-24350000D02*
X-135900000Y-23600000D01*
X-10600000Y-199200000D02*
X12900000Y-199200000D01*
X-60600000Y-124200000D02*
X-61350000Y-123450000D01*
X-110600000Y-49200000D02*
X-111350000Y-48450000D01*
X13650000Y-23450000D02*
X14400000Y-24200000D01*
X-36182976Y-173650000D02*
X-35432976Y-174400000D01*
X-60600000Y-174200000D02*
X-61350000Y-173450000D01*
X-36732976Y-74200000D02*
X-36182976Y-73650000D01*
X-12300000Y-49400000D02*
X-35432976Y-49400000D01*
X-135982976Y-123450000D02*
X-135232976Y-124200000D01*
X-86132976Y-173450000D02*
X-86882976Y-174200000D01*
X-36732976Y-99200000D02*
X-60600000Y-99200000D01*
X-11350000Y-198450000D02*
X-10600000Y-199200000D01*
X-36732976Y-124200000D02*
X-60600000Y-124200000D01*
X-62100000Y-149200000D02*
X-85382976Y-149200000D01*
X13650000Y-198450000D02*
X14400000Y-199200000D01*
X-135232976Y-124200000D02*
X-112100000Y-124200000D01*
X-11350000Y-48450000D02*
X-12300000Y-49400000D01*
X-35432976Y-174400000D02*
X-12300000Y-174400000D01*
X-62100000Y-74200000D02*
X-61350000Y-73450000D01*
X-86882976Y-74200000D02*
X-86132976Y-73450000D01*
X37900000Y-99200000D02*
X38650000Y-98450000D01*
X-135232976Y-199200000D02*
X-112100000Y-199200000D01*
X12900000Y-99200000D02*
X-10600000Y-99200000D01*
X-111350000Y-148450000D02*
X-110600000Y-149200000D01*
X-86132976Y-98450000D02*
X-85382976Y-99200000D01*
X-112100000Y-174200000D02*
X-135232976Y-174200000D01*
X-86132976Y-198450000D02*
X-85382976Y-199200000D01*
X-35432976Y-99400000D02*
X-12300000Y-99400000D01*
X-62100000Y-174200000D02*
X-61350000Y-173450000D01*
X13650000Y-73450000D02*
X12900000Y-74200000D01*
X-35432976Y-149400000D02*
X-36182976Y-148650000D01*
X-86132976Y-123450000D02*
X-86882976Y-124200000D01*
X-11350000Y-23450000D02*
X-10600000Y-24200000D01*
X-110600000Y-149200000D02*
X-86882976Y-149200000D01*
X-135982976Y-198450000D02*
X-135232976Y-199200000D01*
X-10600000Y-49200000D02*
X12900000Y-49200000D01*
X-12300000Y-24400000D02*
X-35432976Y-24400000D01*
X14400000Y-199200000D02*
X37900000Y-199200000D01*
X-36182976Y-198650000D02*
X-35432976Y-199400000D01*
X-110600000Y-174200000D02*
X-111350000Y-173450000D01*
X-111350000Y-73450000D02*
X-110600000Y-74200000D01*
X-36182976Y-123650000D02*
X-35432976Y-124400000D01*
X12900000Y-124200000D02*
X-10600000Y-124200000D01*
X13650000Y-98450000D02*
X14400000Y-99200000D01*
X-135282976Y-74250000D02*
X-112150000Y-74250000D01*
X38650000Y-23450000D02*
X38650000Y-25017024D01*
X-36732976Y-149200000D02*
X-36182976Y-148650000D01*
X-135982976Y-98450000D02*
X-135232976Y-99200000D01*
X14400000Y-149200000D02*
X37900000Y-149200000D01*
X-135232976Y-149200000D02*
X-135982976Y-148450000D01*
X-10600000Y-149200000D02*
X12900000Y-149200000D01*
X13650000Y-173450000D02*
X14400000Y-174200000D01*
X-86882976Y-149200000D02*
X-86132976Y-148450000D01*
X38650000Y-198450000D02*
X40350000Y-200150000D01*
X37900000Y-124200000D02*
X38650000Y-123450000D01*
X-86882976Y-199200000D02*
X-86132976Y-198450000D01*
X37900000Y-174200000D02*
X38650000Y-173450000D01*
X-10600000Y-174200000D02*
X-11350000Y-173450000D01*
X-35432976Y-199400000D02*
X-12300000Y-199400000D01*
X-85382976Y-24200000D02*
X-86132976Y-23450000D01*
X-110600000Y-74200000D02*
X-86882976Y-74200000D01*
X14400000Y-99200000D02*
X37900000Y-99200000D01*
X13650000Y-148450000D02*
X14400000Y-149200000D01*
X-60600000Y-99200000D02*
X-61350000Y-98450000D01*
X-111350000Y-198450000D02*
X-110600000Y-199200000D01*
X-85382976Y-149200000D02*
X-86132976Y-148450000D01*
X-110600000Y-124200000D02*
X-111350000Y-123450000D01*
X-10600000Y-124200000D02*
X-11350000Y-123450000D01*
X-11350000Y-23450000D02*
X-12300000Y-24400000D01*
X-12300000Y-124400000D02*
X-11350000Y-123450000D01*
X-36182976Y-198650000D02*
X-36732976Y-199200000D01*
X-86882976Y-49200000D02*
X-110600000Y-49200000D01*
X-111350000Y-48450000D02*
X-112100000Y-49200000D01*
X12900000Y-174200000D02*
X-10600000Y-174200000D01*
X-111350000Y-148450000D02*
X-112100000Y-149200000D01*
X-60600000Y-49200000D02*
X-61350000Y-48450000D01*
X-37082976Y-24550000D02*
X-36182976Y-23650000D01*
X-135232976Y-174200000D02*
X-135982976Y-173450000D01*
X-35432976Y-24400000D02*
X-36182976Y-23650000D01*
X-85382976Y-99200000D02*
X-62100000Y-99200000D01*
X-86882976Y-124200000D02*
X-110600000Y-124200000D01*
X-35432976Y-124400000D02*
X-12300000Y-124400000D01*
X14400000Y-74200000D02*
X13650000Y-73450000D01*
X-36182976Y-123650000D02*
X-36732976Y-124200000D01*
X-62100000Y-99200000D02*
X-61350000Y-98450000D01*
X-35432976Y-49400000D02*
X-36182976Y-48650000D01*
X-12300000Y-74400000D02*
X-11350000Y-73450000D01*
X-36732976Y-174200000D02*
X-60600000Y-174200000D01*
X-62100000Y-199200000D02*
X-61350000Y-198450000D01*
X38650000Y-23450000D02*
X40250000Y-25050000D01*
X-86882976Y-99200000D02*
X-110600000Y-99200000D01*
X-10600000Y-74200000D02*
X-11350000Y-73450000D01*
X12900000Y-199200000D02*
X13650000Y-198450000D01*
X-85382976Y-49200000D02*
X-86132976Y-48450000D01*
X-35432976Y-74400000D02*
X-12300000Y-74400000D01*
X-36182976Y-48650000D02*
X-36732976Y-49200000D01*
X-62100000Y-49200000D02*
X-85382976Y-49200000D01*
X-86132976Y-98450000D02*
X-86882976Y-99200000D01*
X-86132976Y-48450000D02*
X-86882976Y-49200000D01*
X-112100000Y-49200000D02*
X-135182976Y-49200000D01*
X-112100000Y-199200000D02*
X-111350000Y-198450000D01*
X-87532976Y-24850000D02*
X-86132976Y-23450000D01*
X-110600000Y-99200000D02*
X-111350000Y-98450000D01*
X-61350000Y-48450000D02*
X-62100000Y-49200000D01*
X12900000Y-49200000D02*
X13650000Y-48450000D01*
X-85382976Y-174200000D02*
X-62100000Y-174200000D01*
X-86132976Y-173450000D02*
X-85382976Y-174200000D01*
X-12300000Y-199400000D02*
X-11350000Y-198450000D01*
X-11350000Y-148450000D02*
X-12300000Y-149400000D01*
X-36732976Y-199200000D02*
X-60600000Y-199200000D01*
X-136032976Y-73500000D02*
X-135282976Y-74250000D01*
X14400000Y-124200000D02*
X37900000Y-124200000D01*
X-12300000Y-99400000D02*
X-11350000Y-98450000D01*
X40350000Y-200150000D02*
X46417024Y-200150000D01*
X-86132976Y-123450000D02*
X-85382976Y-124200000D01*
X-61350000Y-148450000D02*
X-60600000Y-149200000D01*
X-111350000Y-23450000D02*
X-112250000Y-24350000D01*
X14400000Y-174200000D02*
X37900000Y-174200000D01*
X-111350000Y-173450000D02*
X-112100000Y-174200000D01*
X-36182976Y-73650000D02*
X-35432976Y-74400000D01*
X37900000Y-74200000D02*
X14400000Y-74200000D01*
X-60600000Y-74200000D02*
X-36732976Y-74200000D01*
X-135232976Y-99200000D02*
X-112100000Y-99200000D01*
X13650000Y-48450000D02*
X14400000Y-49200000D01*
X-111350000Y-23450000D02*
X-109950000Y-24850000D01*
X-112150000Y-74250000D02*
X-111350000Y-73450000D01*
X14400000Y-24200000D02*
X37900000Y-24200000D01*
X12900000Y-74200000D02*
X-10600000Y-74200000D01*
X37900000Y-49200000D02*
X38650000Y-48450000D01*
X-85382976Y-199200000D02*
X-62100000Y-199200000D01*
X13650000Y-98450000D02*
X12900000Y-99200000D01*
X37900000Y-24200000D02*
X38650000Y-23450000D01*
X-11350000Y-48450000D02*
X-10600000Y-49200000D01*
X-61350000Y-73450000D02*
X-60600000Y-74200000D01*
X40250000Y-25050000D02*
X46317024Y-25050000D01*
X-112250000Y-24350000D02*
X-135150000Y-24350000D01*
X-60600000Y-149200000D02*
X-36732976Y-149200000D01*
X-36182976Y-173650000D02*
X-36732976Y-174200000D01*
X38650000Y-25017024D02*
X38617024Y-25050000D01*
X12900000Y-149200000D02*
X13650000Y-148450000D01*
X-11350000Y-148450000D02*
X-10600000Y-149200000D01*
X-10600000Y-24200000D02*
X12900000Y-24200000D01*
X38650000Y-73450000D02*
X37900000Y-74200000D01*
X13650000Y-123450000D02*
X12900000Y-124200000D01*
X37900000Y-149200000D02*
X38650000Y-148450000D01*
X-61350000Y-148450000D02*
X-62100000Y-149200000D01*
X-12300000Y-174400000D02*
X-11350000Y-173450000D01*
X-10600000Y-99200000D02*
X-11350000Y-98450000D01*
X-86882976Y-174200000D02*
X-110600000Y-174200000D01*
X-60600000Y-199200000D02*
X-61350000Y-198450000D01*
X-36182976Y-98650000D02*
X-35432976Y-99400000D01*
X-61350000Y-23450000D02*
X-60250000Y-24550000D01*
X-135182976Y-49200000D02*
X-135932976Y-48450000D01*
X-12300000Y-149400000D02*
X-35432976Y-149400000D01*
X-85382976Y-124200000D02*
X-62100000Y-124200000D01*
X-36182976Y-98650000D02*
X-36732976Y-99200000D01*
X-110600000Y-199200000D02*
X-86882976Y-199200000D01*
X-60250000Y-24550000D02*
X-37082976Y-24550000D01*
X-62100000Y-124200000D02*
X-61350000Y-123450000D01*
%TO.N,Net-(D4-DOUT)*%
X-135982976Y-118550000D02*
X-135982976Y-101750000D01*
X-131082976Y-123450000D02*
X-135982976Y-118550000D01*
%TO.N,GND*%
X-32032976Y-126200000D02*
X-55900000Y-126200000D01*
X217975000Y-135985001D02*
X217975000Y-136722500D01*
X246500000Y-151360000D02*
X188080000Y-151360000D01*
X-30332976Y-101000000D02*
X-7200000Y-101000000D01*
X-6450000Y-26750000D02*
X-5700000Y-26000000D01*
X17800000Y-201000000D02*
X18550000Y-201750000D01*
X217674999Y-135685000D02*
X217975000Y-135985001D01*
X18550000Y-126750000D02*
X19300000Y-126000000D01*
X-107200000Y-201000000D02*
X-106450000Y-201750000D01*
X43550000Y-26750000D02*
X43550000Y-28417024D01*
X42800000Y-126000000D02*
X43550000Y-126750000D01*
X19300000Y-176000000D02*
X42800000Y-176000000D01*
X19300000Y-26000000D02*
X42800000Y-26000000D01*
X18550000Y-176750000D02*
X19300000Y-176000000D01*
X-5700000Y-126000000D02*
X-6450000Y-126750000D01*
X43550000Y-101750000D02*
X42800000Y-101000000D01*
X-134232976Y-26900000D02*
X-131000000Y-26900000D01*
X-131082976Y-126750000D02*
X-130332976Y-126000000D01*
X17800000Y-151000000D02*
X18550000Y-151750000D01*
X-56450000Y-101750000D02*
X-55900000Y-101200000D01*
X-81982976Y-151000000D02*
X-81232976Y-151750000D01*
X-106450000Y-151750000D02*
X-105700000Y-151000000D01*
X211275001Y-135685000D02*
X217674999Y-135685000D01*
X18550000Y-101750000D02*
X17800000Y-101000000D01*
X-105700000Y-151000000D02*
X-81982976Y-151000000D01*
X210975000Y-136722500D02*
X210975000Y-135985001D01*
X-130332976Y-101000000D02*
X-131082976Y-101750000D01*
X-29882976Y-25550000D02*
X-7650000Y-25550000D01*
X-32032976Y-176200000D02*
X-31282976Y-176950000D01*
X186980000Y-150260000D02*
X187580002Y-150260000D01*
X-80482976Y-151000000D02*
X-57200000Y-151000000D01*
X19300000Y-201000000D02*
X42800000Y-201000000D01*
X43550000Y-28417024D02*
X43517024Y-28450000D01*
X19300000Y-101000000D02*
X18550000Y-101750000D01*
X-7200000Y-201000000D02*
X-6450000Y-201750000D01*
X252225000Y-141490000D02*
X252145000Y-141410000D01*
X-5700000Y-201000000D02*
X17800000Y-201000000D01*
X188080000Y-151360000D02*
X186980000Y-150260000D01*
X252225000Y-134340000D02*
X256025000Y-134340000D01*
X-106450000Y-176750000D02*
X-105700000Y-176000000D01*
X-57200000Y-51000000D02*
X-80482976Y-51000000D01*
X-131082976Y-151750000D02*
X-130332976Y-151000000D01*
X-55550000Y-200850000D02*
X-32382976Y-200850000D01*
X210893456Y-135685000D02*
X210975000Y-135766544D01*
X-6450000Y-201750000D02*
X-5700000Y-201000000D01*
X-6450000Y-151750000D02*
X-5700000Y-151000000D01*
X-30332976Y-76000000D02*
X-31282976Y-76950000D01*
X-81232976Y-101750000D02*
X-80482976Y-101000000D01*
X-31282976Y-126950000D02*
X-32032976Y-126200000D01*
X-81982976Y-126000000D02*
X-81232976Y-126750000D01*
X42800000Y-176000000D02*
X43550000Y-176750000D01*
X42800000Y-51000000D02*
X19300000Y-51000000D01*
X-131132976Y-76800000D02*
X-130332976Y-76000000D01*
X-55900000Y-101200000D02*
X-32032976Y-101200000D01*
X17800000Y-176000000D02*
X18550000Y-176750000D01*
X203975000Y-135985001D02*
X204275001Y-135685000D01*
X-55900000Y-76200000D02*
X-32032976Y-76200000D01*
X-81232976Y-51750000D02*
X-81982976Y-51000000D01*
X42800000Y-26000000D02*
X43550000Y-26750000D01*
X18550000Y-76750000D02*
X19300000Y-76000000D01*
X-106450000Y-26750000D02*
X-105700000Y-26000000D01*
X-130332976Y-151000000D02*
X-107200000Y-151000000D01*
X18550000Y-201750000D02*
X19300000Y-201000000D01*
X-55900000Y-51200000D02*
X-56450000Y-51750000D01*
X-31282976Y-201950000D02*
X-30332976Y-201000000D01*
X204275001Y-135685000D02*
X210893456Y-135685000D01*
X-106450000Y-101750000D02*
X-107200000Y-101000000D01*
X-130100000Y-26000000D02*
X-107200000Y-26000000D01*
X-107200000Y-101000000D02*
X-130332976Y-101000000D01*
X-30332976Y-201000000D02*
X-7200000Y-201000000D01*
X-5700000Y-176000000D02*
X17800000Y-176000000D01*
X-81232976Y-176750000D02*
X-80482976Y-176000000D01*
X42800000Y-201000000D02*
X43550000Y-201750000D01*
X-81232976Y-151750000D02*
X-80482976Y-151000000D01*
X-105700000Y-101000000D02*
X-106450000Y-101750000D01*
X187580002Y-150260000D02*
X201117502Y-136722500D01*
X-105700000Y-126000000D02*
X-81982976Y-126000000D01*
X-131082976Y-201750000D02*
X-132482976Y-200350000D01*
X246500000Y-142935000D02*
X246500000Y-151360000D01*
X-31282976Y-26950000D02*
X-29882976Y-25550000D01*
X42800000Y-151000000D02*
X43550000Y-151750000D01*
X-81982976Y-51000000D02*
X-105700000Y-51000000D01*
X19300000Y-51000000D02*
X18550000Y-51750000D01*
X-56450000Y-51750000D02*
X-57200000Y-51000000D01*
X42800000Y-101000000D02*
X19300000Y-101000000D01*
X-32382976Y-200850000D02*
X-31282976Y-201950000D01*
X-81982976Y-101000000D02*
X-105700000Y-101000000D01*
X-32032976Y-51200000D02*
X-55900000Y-51200000D01*
X-106450000Y-76750000D02*
X-105700000Y-76000000D01*
X-105700000Y-76000000D02*
X-81982976Y-76000000D01*
X-81982976Y-201000000D02*
X-81232976Y-201750000D01*
X-107200000Y-51000000D02*
X-130282976Y-51000000D01*
X-138682976Y-25250000D02*
X-135882976Y-25250000D01*
X-56450000Y-26750000D02*
X-55900000Y-26200000D01*
X-6450000Y-51750000D02*
X-7200000Y-51000000D01*
X-30332976Y-126000000D02*
X-7200000Y-126000000D01*
X-80482976Y-201000000D02*
X-57200000Y-201000000D01*
X-80482976Y-51000000D02*
X-81232976Y-51750000D01*
X-5700000Y-76000000D02*
X17800000Y-76000000D01*
X-81232976Y-201750000D02*
X-80482976Y-201000000D01*
X-130332976Y-76000000D02*
X-107200000Y-76000000D01*
X240525000Y-136960000D02*
X240525000Y-140040000D01*
X140900000Y-174160000D02*
X163080000Y-174160000D01*
X-81232976Y-26750000D02*
X-80482976Y-26000000D01*
X-131000000Y-26900000D02*
X-130100000Y-26000000D01*
X210975000Y-135985001D02*
X211275001Y-135685000D01*
X-32032976Y-101200000D02*
X-31282976Y-101950000D01*
X42800000Y-76000000D02*
X43550000Y-76750000D01*
X163080000Y-174160000D02*
X186980000Y-150260000D01*
X-105700000Y-176000000D02*
X-81982976Y-176000000D01*
X-7200000Y-51000000D02*
X-30332976Y-51000000D01*
X256025000Y-134340000D02*
X256025000Y-142980000D01*
X18550000Y-126750000D02*
X17800000Y-126000000D01*
X-57200000Y-126000000D02*
X-56450000Y-126750000D01*
X-107200000Y-126000000D02*
X-106450000Y-126750000D01*
X-31282976Y-126950000D02*
X-30332976Y-126000000D01*
X18550000Y-151750000D02*
X19300000Y-151000000D01*
X-32032976Y-151200000D02*
X-31282976Y-151950000D01*
X-55900000Y-126200000D02*
X-56450000Y-126750000D01*
X-105700000Y-26000000D02*
X-81982976Y-26000000D01*
X-56450000Y-76750000D02*
X-55900000Y-76200000D01*
X-55900000Y-151200000D02*
X-32032976Y-151200000D01*
X-7200000Y-176000000D02*
X-6450000Y-176750000D01*
X-7200000Y-151000000D02*
X-6450000Y-151750000D01*
X-56450000Y-151750000D02*
X-55900000Y-151200000D01*
X-107200000Y-151000000D02*
X-106450000Y-151750000D01*
X-55900000Y-26200000D02*
X-32032976Y-26200000D01*
X19300000Y-76000000D02*
X42800000Y-76000000D01*
X-6450000Y-76750000D02*
X-5700000Y-76000000D01*
X-6450000Y-76750000D02*
X-7200000Y-76000000D01*
X-130332976Y-176000000D02*
X-107200000Y-176000000D01*
X-5700000Y-51000000D02*
X-6450000Y-51750000D01*
X-81232976Y-76750000D02*
X-80482976Y-76000000D01*
X252225000Y-142980000D02*
X252225000Y-141490000D01*
X43550000Y-51750000D02*
X42800000Y-51000000D01*
X-107200000Y-26000000D02*
X-106450000Y-26750000D01*
X-30332976Y-51000000D02*
X-31282976Y-51950000D01*
X-57200000Y-201000000D02*
X-56450000Y-201750000D01*
X-6450000Y-176750000D02*
X-5700000Y-176000000D01*
X240525000Y-136960000D02*
X246500000Y-142935000D01*
X252145000Y-135910000D02*
X252145000Y-134420000D01*
X-32032976Y-76200000D02*
X-31282976Y-76950000D01*
X17800000Y-26000000D02*
X18550000Y-26750000D01*
X256025000Y-142980000D02*
X252225000Y-142980000D01*
X-80482976Y-176000000D02*
X-57200000Y-176000000D01*
X-80482976Y-76000000D02*
X-57200000Y-76000000D01*
X-106450000Y-126750000D02*
X-105700000Y-126000000D01*
X-130332976Y-126000000D02*
X-107200000Y-126000000D01*
X17800000Y-76000000D02*
X18550000Y-76750000D01*
X-105700000Y-201000000D02*
X-81982976Y-201000000D01*
X-130282976Y-51000000D02*
X-131032976Y-51750000D01*
X18550000Y-51750000D02*
X17800000Y-51000000D01*
X203975000Y-136722500D02*
X203975000Y-135985001D01*
X-5700000Y-26000000D02*
X17800000Y-26000000D01*
X17800000Y-126000000D02*
X-5700000Y-126000000D01*
X-81982976Y-26000000D02*
X-81232976Y-26750000D01*
X-32032976Y-26200000D02*
X-31282976Y-26950000D01*
X70459566Y-25859566D02*
X70359566Y-25759566D01*
X-57200000Y-26000000D02*
X-56450000Y-26750000D01*
X-7200000Y-101000000D02*
X-6450000Y-101750000D01*
X-107200000Y-176000000D02*
X-106450000Y-176750000D01*
X201117502Y-136722500D02*
X203975000Y-136722500D01*
X17800000Y-101000000D02*
X-5700000Y-101000000D01*
X-7200000Y-126000000D02*
X-6450000Y-126750000D01*
X-105700000Y-51000000D02*
X-106450000Y-51750000D01*
X-57200000Y-101000000D02*
X-56450000Y-101750000D01*
X-106450000Y-201750000D02*
X-105700000Y-201000000D01*
X-31282976Y-176950000D02*
X-30332976Y-176000000D01*
X19300000Y-151000000D02*
X42800000Y-151000000D01*
X240525000Y-140040000D02*
X240505000Y-140060000D01*
X-81232976Y-126750000D02*
X-80482976Y-126000000D01*
X-131082976Y-176750000D02*
X-130332976Y-176000000D01*
X-7650000Y-25550000D02*
X-6450000Y-26750000D01*
X210975000Y-135766544D02*
X210975000Y-136722500D01*
X-30332976Y-151000000D02*
X-7200000Y-151000000D01*
X-57200000Y-176000000D02*
X-56450000Y-176750000D01*
X-130332976Y-201000000D02*
X-107200000Y-201000000D01*
X17800000Y-51000000D02*
X-5700000Y-51000000D01*
X-5700000Y-151000000D02*
X17800000Y-151000000D01*
X-56450000Y-201750000D02*
X-55550000Y-200850000D01*
X-81232976Y-101750000D02*
X-81982976Y-101000000D01*
X-80482976Y-126000000D02*
X-57200000Y-126000000D01*
X-55900000Y-176200000D02*
X-32032976Y-176200000D01*
X18550000Y-26750000D02*
X19300000Y-26000000D01*
X-107200000Y-76000000D02*
X-106450000Y-76750000D01*
X252145000Y-134420000D02*
X252225000Y-134340000D01*
X-81982976Y-176000000D02*
X-81232976Y-176750000D01*
X-7200000Y-76000000D02*
X-30332976Y-76000000D01*
X-57200000Y-151000000D02*
X-56450000Y-151750000D01*
X-31282976Y-151950000D02*
X-30332976Y-151000000D01*
X-31282976Y-51950000D02*
X-32032976Y-51200000D01*
X-80482976Y-26000000D02*
X-57200000Y-26000000D01*
X-81982976Y-76000000D02*
X-81232976Y-76750000D01*
X-30332976Y-176000000D02*
X-7200000Y-176000000D01*
X-5700000Y-101000000D02*
X-6450000Y-101750000D01*
X-31282976Y-101950000D02*
X-30332976Y-101000000D01*
X-131082976Y-201750000D02*
X-130332976Y-201000000D01*
X-135882976Y-25250000D02*
X-134232976Y-26900000D01*
X19300000Y-126000000D02*
X42800000Y-126000000D01*
X-106450000Y-51750000D02*
X-107200000Y-51000000D01*
X-56450000Y-176750000D02*
X-55900000Y-176200000D01*
X-132482976Y-200350000D02*
X-138582976Y-200350000D01*
X-57200000Y-76000000D02*
X-56450000Y-76750000D01*
X-80482976Y-101000000D02*
X-57200000Y-101000000D01*
%TO.N,Net-(D3-DOUT)*%
X-136032976Y-76800000D02*
X-131082976Y-81750000D01*
X-131082976Y-81750000D02*
X-131082976Y-98450000D01*
%TO.N,Net-(D36-DOUT)*%
X-31282976Y-123650000D02*
X-36182976Y-118750000D01*
X-36182976Y-118750000D02*
X-36182976Y-101950000D01*
%TO.N,Net-(D35-DOUT)*%
X-36182976Y-76950000D02*
X-31282976Y-81850000D01*
X-31282976Y-81850000D02*
X-31282976Y-98650000D01*
%TO.N,Net-(D59-DOUT)*%
X43550000Y-81650000D02*
X43550000Y-98450000D01*
X38650000Y-76750000D02*
X43550000Y-81650000D01*
%TO.N,Net-(D58-DOUT)*%
X38650000Y-68550000D02*
X38650000Y-51750000D01*
X43550000Y-73450000D02*
X38650000Y-68550000D01*
%TO.N,Net-(D64-DOUT)*%
X38650000Y-201750000D02*
X32617024Y-201750000D01*
X32617024Y-201750000D02*
X32417024Y-201950000D01*
%TO.N,Net-(D63-DOUT)*%
X43550000Y-181650000D02*
X43550000Y-198450000D01*
X38650000Y-176750000D02*
X43550000Y-181650000D01*
%TO.N,/3.3v*%
X209556544Y-132035000D02*
X210725000Y-132035000D01*
X222793456Y-132035000D02*
X223175000Y-131653456D01*
X218275001Y-132035000D02*
X222793456Y-132035000D01*
X204275001Y-132035000D02*
X208793456Y-132035000D01*
X217975000Y-131734999D02*
X218275001Y-132035000D01*
X210975000Y-131734999D02*
X211275001Y-132035000D01*
X208793456Y-132035000D02*
X209175000Y-131653456D01*
X215793456Y-132035000D02*
X216175000Y-131653456D01*
X210975000Y-130997500D02*
X210975000Y-131734999D01*
X217975000Y-130997500D02*
X217975000Y-131734999D01*
X165054314Y-171620000D02*
X165707157Y-170967157D01*
X210975000Y-131785000D02*
X210975000Y-130997500D01*
X216556544Y-132035000D02*
X216175000Y-131653456D01*
X211275001Y-132035000D02*
X215793456Y-132035000D01*
X203975000Y-130997500D02*
X203975000Y-131734999D01*
X217975000Y-131734999D02*
X217674999Y-132035000D01*
X140900000Y-171620000D02*
X165054314Y-171620000D01*
X165707157Y-170967157D02*
X165707157Y-169265343D01*
X216175000Y-131653456D02*
X216175000Y-130997500D01*
X223175000Y-131653456D02*
X223175000Y-130997500D01*
X210725000Y-132035000D02*
X210975000Y-131785000D01*
X165707157Y-169265343D02*
X203975000Y-130997500D01*
X187590000Y-112390000D02*
X187590000Y-130997500D01*
X209175000Y-130997500D02*
X209175000Y-131653456D01*
X203975000Y-131734999D02*
X204275001Y-132035000D01*
X209175000Y-131653456D02*
X209556544Y-132035000D01*
X217674999Y-132035000D02*
X216556544Y-132035000D01*
X187590000Y-130997500D02*
X203975000Y-130997500D01*
%TO.N,/~{BUSY_L}*%
X221875000Y-129885000D02*
X221900000Y-129860000D01*
X195210000Y-129750000D02*
X195210000Y-112390000D01*
X195200000Y-129760000D02*
X195210000Y-129750000D01*
X221875000Y-130997500D02*
X221875000Y-129885000D01*
%TO.N,/~{INT_L}*%
X197750000Y-129010000D02*
X197750000Y-112390000D01*
X221225000Y-129285000D02*
X221200000Y-129260000D01*
X197700000Y-129260000D02*
X197700000Y-129060000D01*
X221225000Y-130997500D02*
X221225000Y-129285000D01*
X197700000Y-129060000D02*
X197750000Y-129010000D01*
%TO.N,/~{OE_L}*%
X220575000Y-128670421D02*
X220585421Y-128660000D01*
X220575000Y-130997500D02*
X220575000Y-128670421D01*
X200290000Y-128650000D02*
X200290000Y-112390000D01*
X200300000Y-128660000D02*
X200290000Y-128650000D01*
%TO.N,/A0_L*%
X202830000Y-128230000D02*
X202830000Y-112390000D01*
X219925000Y-130997500D02*
X219925000Y-128310000D01*
X202800000Y-128260000D02*
X202830000Y-128230000D01*
X219925000Y-128310000D02*
X219875000Y-128260000D01*
%TO.N,/A1_L*%
X219275000Y-116135000D02*
X215530000Y-112390000D01*
X219275000Y-130997500D02*
X219275000Y-116135000D01*
%TO.N,/A2_L*%
X223150000Y-118410000D02*
X223150000Y-112390000D01*
X218625000Y-130997500D02*
X218625000Y-122810000D01*
X218625000Y-122810000D02*
X218600000Y-122785000D01*
X223111092Y-118448908D02*
X223150000Y-118410000D01*
%TO.N,Net-(U3-A2_L)*%
X218625000Y-142185000D02*
X226700000Y-150260000D01*
X226700000Y-150260000D02*
X227620000Y-150260000D01*
X218625000Y-136722500D02*
X218625000Y-142185000D01*
%TO.N,Net-(U3-A1_L)*%
X229300000Y-150260000D02*
X230160000Y-150260000D01*
X219275000Y-140235000D02*
X229300000Y-150260000D01*
X219275000Y-136722500D02*
X219275000Y-140235000D01*
%TO.N,Net-(U3-A0_L)*%
X228782843Y-149177157D02*
X228800000Y-149160000D01*
X231600000Y-149160000D02*
X232700000Y-150260000D01*
X219925000Y-140319314D02*
X228782843Y-149177157D01*
X228800000Y-149160000D02*
X231600000Y-149160000D01*
X219925000Y-136722500D02*
X219925000Y-140319314D01*
%TO.N,Net-(U3-~{OE_L})*%
X233474314Y-148494314D02*
X235240000Y-150260000D01*
X220575000Y-140403628D02*
X228665686Y-148494314D01*
X220575000Y-136722500D02*
X220575000Y-140403628D01*
X228665686Y-148494314D02*
X233474314Y-148494314D01*
%TO.N,Net-(U3-~{INT_L})*%
X235614314Y-148094314D02*
X237780000Y-150260000D01*
X221225000Y-136722500D02*
X221225000Y-140487942D01*
X221225000Y-140487942D02*
X228831372Y-148094314D01*
X228831372Y-148094314D02*
X235614314Y-148094314D01*
%TO.N,Net-(U3-~{BUSY_L})*%
X221875000Y-136722500D02*
X221875000Y-140572256D01*
X237754314Y-147694314D02*
X240320000Y-150260000D01*
X221875000Y-140572256D02*
X228997058Y-147694314D01*
X228997058Y-147694314D02*
X237754314Y-147694314D01*
%TO.N,Net-(U3-~{RW_L})*%
X229162744Y-147294314D02*
X239894314Y-147294314D01*
X222525000Y-136722500D02*
X222525000Y-140656570D01*
X222525000Y-140656570D02*
X229162744Y-147294314D01*
X239894314Y-147294314D02*
X242860000Y-150260000D01*
%TO.N,/5V*%
X209175000Y-138335000D02*
X209200000Y-138360000D01*
X253045000Y-139880000D02*
X253045000Y-137440000D01*
X238390000Y-123985000D02*
X238390000Y-112390000D01*
X252745000Y-137140000D02*
X252145000Y-137140000D01*
X252745000Y-140180000D02*
X253045000Y-139880000D01*
X216200000Y-136747500D02*
X216175000Y-136722500D01*
X223225000Y-136772500D02*
X223175000Y-136722500D01*
X253045000Y-137440000D02*
X252745000Y-137140000D01*
X251545000Y-137140000D02*
X238390000Y-123985000D01*
X251075000Y-151504880D02*
X251075000Y-140650000D01*
X252145000Y-140180000D02*
X252745000Y-140180000D01*
X251545000Y-140180000D02*
X252145000Y-140180000D01*
X251075000Y-140650000D02*
X251545000Y-140180000D01*
X238390000Y-123985000D02*
X235256544Y-123985000D01*
X254959566Y-155389446D02*
X251075000Y-151504880D01*
X252145000Y-137140000D02*
X251545000Y-137140000D01*
X235256544Y-123985000D02*
X223175000Y-136066544D01*
X209175000Y-136722500D02*
X209175000Y-138335000D01*
X254959566Y-155940434D02*
X245400000Y-165500000D01*
X223225000Y-138360000D02*
X223225000Y-136772500D01*
X223175000Y-136066544D02*
X223175000Y-136722500D01*
X216200000Y-138360000D02*
X216200000Y-136747500D01*
X254959566Y-155389446D02*
X254959566Y-155940434D01*
%TO.N,Net-(U3-~{CE_L})*%
X223825000Y-141390884D02*
X229328430Y-146894314D01*
X242034314Y-146894314D02*
X245400000Y-150260000D01*
X223825000Y-136722500D02*
X223825000Y-141390884D01*
X229328430Y-146894314D02*
X242034314Y-146894314D01*
%TO.N,/A8_L*%
X205325000Y-127860000D02*
X205325000Y-127635000D01*
X205370000Y-127590000D02*
X205370000Y-112390000D01*
X205325000Y-127635000D02*
X205370000Y-127590000D01*
X212925000Y-127885000D02*
X212900000Y-127860000D01*
X212925000Y-130997500D02*
X212925000Y-127885000D01*
%TO.N,/A9_L*%
X212275000Y-130997500D02*
X212275000Y-127285000D01*
X212275000Y-127285000D02*
X212300000Y-127260000D01*
X207000000Y-127260000D02*
X207000000Y-113300000D01*
X207000000Y-113300000D02*
X207910000Y-112390000D01*
%TO.N,/IO0_L*%
X209825000Y-130997500D02*
X209825000Y-119785000D01*
X209825000Y-119785000D02*
X209600000Y-119560000D01*
%TO.N,/IO1_L*%
X208525000Y-130997500D02*
X208525000Y-129032055D01*
X208525000Y-129032055D02*
X209000000Y-128557055D01*
X209000000Y-128557055D02*
X209000000Y-118857438D01*
%TO.N,/A3_L*%
X216825000Y-130997500D02*
X216825000Y-122810000D01*
X216825000Y-122810000D02*
X216800000Y-122785000D01*
X225690000Y-117950000D02*
X225690000Y-112390000D01*
X225700000Y-117960000D02*
X225690000Y-117950000D01*
%TO.N,/A4_L*%
X228230000Y-127730000D02*
X228230000Y-112390000D01*
X215525000Y-127885000D02*
X215500000Y-127860000D01*
X228200000Y-127760000D02*
X228230000Y-127730000D01*
X215525000Y-130997500D02*
X215525000Y-127885000D01*
%TO.N,/A5_L*%
X214875000Y-130997500D02*
X214875000Y-127285000D01*
X230700000Y-127060000D02*
X230770000Y-126990000D01*
X230770000Y-126990000D02*
X230770000Y-112390000D01*
X214875000Y-127285000D02*
X214900000Y-127260000D01*
%TO.N,/A6_L*%
X214225000Y-130997500D02*
X214225000Y-126785000D01*
X233316507Y-125076507D02*
X233310000Y-125070000D01*
X214225000Y-126785000D02*
X214200000Y-126760000D01*
X233310000Y-125070000D02*
X233310000Y-112390000D01*
%TO.N,/A7_L*%
X235850000Y-123335000D02*
X235850000Y-112390000D01*
X213600000Y-130972500D02*
X213600000Y-124760000D01*
X235800000Y-123385000D02*
X235850000Y-123335000D01*
X213575000Y-130997500D02*
X213600000Y-130972500D01*
%TO.N,Net-(J5-Pin_1)*%
X232700000Y-172080000D02*
X232220000Y-172560000D01*
X232700000Y-165500000D02*
X232700000Y-172080000D01*
%TO.N,Net-(J5-Pin_2)*%
X235240000Y-165500000D02*
X235240000Y-172080000D01*
X235240000Y-172080000D02*
X234760000Y-172560000D01*
%TO.N,Net-(J5-Pin_3)*%
X237780000Y-165500000D02*
X237780000Y-172080000D01*
X237780000Y-172080000D02*
X237300000Y-172560000D01*
%TO.N,Net-(J5-Pin_4)*%
X240320000Y-165500000D02*
X240320000Y-172080000D01*
X240320000Y-172080000D02*
X239840000Y-172560000D01*
%TO.N,Net-(J5-Pin_5)*%
X242860000Y-172080000D02*
X242380000Y-172560000D01*
X242860000Y-165500000D02*
X242860000Y-172080000D01*
%TO.N,Net-(D32-DOUT)*%
X-61350000Y-201750000D02*
X-58882976Y-201750000D01*
%TO.N,Net-(D31-DOUT)*%
X-56450000Y-181650000D02*
X-56450000Y-198450000D01*
X-61350000Y-176750000D02*
X-56450000Y-181650000D01*
%TO.N,Net-(D18-DOUT)*%
X-81232976Y-73450000D02*
X-86132976Y-68550000D01*
X-86132976Y-68550000D02*
X-86132976Y-51750000D01*
%TO.N,Net-(D17-DOUT)*%
X-81232976Y-31650000D02*
X-81232976Y-48450000D01*
X-86132976Y-26750000D02*
X-81232976Y-31650000D01*
%TO.N,Net-(D27-DOUT)*%
X-56450000Y-81650000D02*
X-56450000Y-98450000D01*
X-61350000Y-76750000D02*
X-56450000Y-81650000D01*
%TO.N,Net-(D26-DOUT)*%
X-61350000Y-68550000D02*
X-61350000Y-51750000D01*
X-56450000Y-73450000D02*
X-61350000Y-68550000D01*
%TO.N,Net-(D24-DOUT)*%
X-86132976Y-201750000D02*
X-83682976Y-201750000D01*
%TO.N,Net-(D23-DOUT)*%
X-81232976Y-181650000D02*
X-81232976Y-198450000D01*
X-86132976Y-176750000D02*
X-81232976Y-181650000D01*
%TO.N,Net-(J10-CC1)*%
X249025000Y-139160000D02*
X252145000Y-139160000D01*
X248125000Y-140060000D02*
X249025000Y-139160000D01*
%TO.N,Net-(J10-CC2)*%
X249345000Y-138160000D02*
X248145000Y-136960000D01*
X252145000Y-138160000D02*
X249345000Y-138160000D01*
%TO.N,Net-(D11-DOUT)*%
X-106450000Y-81650000D02*
X-106450000Y-98450000D01*
X-111350000Y-76750000D02*
X-106450000Y-81650000D01*
%TO.N,Net-(D10-DOUT)*%
X-111350000Y-68550000D02*
X-111350000Y-51750000D01*
X-106450000Y-73450000D02*
X-111350000Y-68550000D01*
%TO.N,Net-(D40-DOUT)*%
X-33682976Y-201800000D02*
X-33832976Y-201950000D01*
X-33832976Y-201950000D02*
X-36182976Y-201950000D01*
X-33682976Y-201450000D02*
X-33682976Y-201800000D01*
%TO.N,Net-(D39-DOUT)*%
X-36182976Y-176950000D02*
X-31282976Y-181850000D01*
X-31282976Y-181850000D02*
X-31282976Y-198650000D01*
%TO.N,Net-(D19-DOUT)*%
X-81232976Y-81650000D02*
X-81232976Y-98450000D01*
X-86132976Y-76750000D02*
X-81232976Y-81650000D01*
%TO.N,Net-(D43-DOUT)*%
X-11350000Y-76750000D02*
X-6450000Y-81650000D01*
X-6450000Y-81650000D02*
X-6450000Y-98450000D01*
%TO.N,Net-(D42-DOUT)*%
X-11350000Y-68550000D02*
X-11350000Y-51750000D01*
X-6450000Y-73450000D02*
X-11350000Y-68550000D01*
%TO.N,Net-(D44-DOUT)*%
X-6450000Y-123450000D02*
X-11350000Y-118550000D01*
X-11350000Y-118550000D02*
X-11350000Y-101750000D01*
%TO.N,Net-(D48-DOUT)*%
X-8982976Y-201750000D02*
X-11350000Y-201750000D01*
X-8882976Y-201600000D02*
X-8882976Y-201650000D01*
X-8882976Y-201650000D02*
X-8982976Y-201750000D01*
%TO.N,Net-(D47-DOUT)*%
X-11350000Y-176750000D02*
X-6450000Y-181650000D01*
X-6450000Y-181650000D02*
X-6450000Y-198450000D01*
%TO.N,Net-(D46-DOUT)*%
X-11350000Y-168550000D02*
X-11350000Y-151750000D01*
X-6450000Y-173450000D02*
X-11350000Y-168550000D01*
%TO.N,Net-(D54-DOUT)*%
X18550000Y-173450000D02*
X13650000Y-168550000D01*
X13650000Y-168550000D02*
X13650000Y-151750000D01*
%TO.N,Net-(D53-DOUT)*%
X18550000Y-131650000D02*
X18550000Y-148450000D01*
X13650000Y-126750000D02*
X18550000Y-131650000D01*
%TO.N,Net-(D21-DOUT)*%
X-81232976Y-131650000D02*
X-81232976Y-148450000D01*
X-86132976Y-126750000D02*
X-81232976Y-131650000D01*
%TO.N,Net-(D20-DOUT)*%
X-86132976Y-118550000D02*
X-86132976Y-101750000D01*
X-81232976Y-123450000D02*
X-86132976Y-118550000D01*
%TO.N,Net-(D1-DIN)*%
X-131000000Y-23600000D02*
X-134032976Y-23600000D01*
X-49082976Y-202350000D02*
X-46882976Y-204550000D01*
X-134032976Y-23600000D02*
X-134082976Y-23550000D01*
X-49582976Y-202350000D02*
X-49082976Y-202350000D01*
%TO.N,Net-(D10-DIN)*%
X-106450000Y-31650000D02*
X-106450000Y-48450000D01*
X-111350000Y-26750000D02*
X-106450000Y-31650000D01*
%TO.N,Net-(D8-DOUT)*%
X-135982976Y-201750000D02*
X-133582976Y-201750000D01*
%TO.N,Net-(D50-DOUT)*%
X18550000Y-73450000D02*
X13650000Y-68550000D01*
X13650000Y-68550000D02*
X13650000Y-51750000D01*
%TO.N,Net-(D49-DOUT)*%
X13650000Y-26750000D02*
X18550000Y-31650000D01*
X18550000Y-31650000D02*
X18550000Y-48450000D01*
%TO.N,Net-(D34-DOUT)*%
X-36182976Y-68750000D02*
X-36182976Y-51950000D01*
X-31282976Y-73650000D02*
X-36182976Y-68750000D01*
%TO.N,Net-(D41-DOUT)*%
X-6450000Y-31650000D02*
X-6450000Y-48450000D01*
X-11350000Y-26750000D02*
X-6450000Y-31650000D01*
%TO.N,Net-(D60-DOUT)*%
X38650000Y-118550000D02*
X38650000Y-101750000D01*
X43550000Y-123450000D02*
X38650000Y-118550000D01*
%TO.N,Net-(D2-DOUT)*%
X-135932976Y-68700000D02*
X-135932976Y-51750000D01*
X-131132976Y-73500000D02*
X-135932976Y-68700000D01*
%TO.N,Net-(D45-DOUT)*%
X-6450000Y-131650000D02*
X-6450000Y-148450000D01*
X-11350000Y-126750000D02*
X-6450000Y-131650000D01*
%TO.N,Net-(D30-DOUT)*%
X-61350000Y-168550000D02*
X-61350000Y-151750000D01*
X-56450000Y-173450000D02*
X-61350000Y-168550000D01*
%TO.N,Net-(D29-DOUT)*%
X-56450000Y-131650000D02*
X-56450000Y-148450000D01*
X-61350000Y-126750000D02*
X-56450000Y-131650000D01*
%TO.N,Net-(D22-DOUT)*%
X-81232976Y-173450000D02*
X-86132976Y-168550000D01*
X-86132976Y-168550000D02*
X-86132976Y-151750000D01*
%TO.N,Net-(D12-DOUT)*%
X-106450000Y-123450000D02*
X-111350000Y-118550000D01*
X-111350000Y-118550000D02*
X-111350000Y-101750000D01*
%TO.N,Net-(J12-Pin_1)*%
X186980000Y-165500000D02*
X186980000Y-170060000D01*
X186980000Y-170060000D02*
X184480000Y-172560000D01*
%TO.N,Net-(J12-Pin_2)*%
X189520000Y-170060000D02*
X187020000Y-172560000D01*
X189520000Y-165500000D02*
X189520000Y-170060000D01*
%TO.N,Net-(J12-Pin_3)*%
X192060000Y-170060000D02*
X189560000Y-172560000D01*
X192060000Y-165500000D02*
X192060000Y-170060000D01*
%TO.N,Net-(J12-Pin_4)*%
X194600000Y-165500000D02*
X194600000Y-170060000D01*
X194600000Y-170060000D02*
X192100000Y-172560000D01*
%TO.N,Net-(J12-Pin_5)*%
X197140000Y-170060000D02*
X194640000Y-172560000D01*
X197140000Y-165500000D02*
X197140000Y-170060000D01*
%TO.N,Net-(J12-Pin_6)*%
X199680000Y-165500000D02*
X199680000Y-170060000D01*
X199680000Y-170060000D02*
X197180000Y-172560000D01*
%TO.N,Net-(J12-Pin_7)*%
X202220000Y-170060000D02*
X199720000Y-172560000D01*
X202220000Y-165500000D02*
X202220000Y-170060000D01*
%TO.N,Net-(J12-Pin_8)*%
X204760000Y-165500000D02*
X204760000Y-170060000D01*
X204760000Y-170060000D02*
X202260000Y-172560000D01*
%TO.N,Net-(D16-DOUT)*%
X-108982976Y-201750000D02*
X-111350000Y-201750000D01*
X-108882976Y-201600000D02*
X-108882976Y-201650000D01*
X-108882976Y-201650000D02*
X-108982976Y-201750000D01*
%TO.N,Net-(D15-DOUT)*%
X-106450000Y-181650000D02*
X-106450000Y-198450000D01*
X-111350000Y-176750000D02*
X-106450000Y-181650000D01*
%TO.N,Net-(D25-DOUT)*%
X-56450000Y-31650000D02*
X-56450000Y-48450000D01*
X-61350000Y-26750000D02*
X-56450000Y-31650000D01*
%TO.N,Net-(D33-DOUT)*%
X-36182976Y-26950000D02*
X-31282976Y-31850000D01*
X-31282976Y-31850000D02*
X-31282976Y-48650000D01*
%TO.N,Net-(U3-IO7_L)*%
X202620000Y-137760000D02*
X204324999Y-137760000D01*
X190120000Y-150260000D02*
X202620000Y-137760000D01*
X204625000Y-137459999D02*
X204625000Y-136722500D01*
X204324999Y-137760000D02*
X204625000Y-137459999D01*
X189520000Y-150260000D02*
X190120000Y-150260000D01*
%TO.N,Net-(U3-IO6_L)*%
X193075000Y-150260000D02*
X193500000Y-149835000D01*
X194144365Y-149160000D02*
X194175000Y-149160000D01*
X193500000Y-149804365D02*
X194144365Y-149160000D01*
X192060000Y-150260000D02*
X193075000Y-150260000D01*
X205275000Y-138060000D02*
X205275000Y-136722500D01*
X194175000Y-149160000D02*
X205275000Y-138060000D01*
X193500000Y-149835000D02*
X193500000Y-149804365D01*
%TO.N,Net-(U3-IO5_L)*%
X194600000Y-150260000D02*
X195200000Y-150260000D01*
X195200000Y-150260000D02*
X205925000Y-139535000D01*
X205925000Y-139535000D02*
X205925000Y-136722500D01*
%TO.N,Net-(U3-IO4_L)*%
X197140000Y-150260000D02*
X197740002Y-150260000D01*
X197740002Y-150260000D02*
X206575000Y-141425002D01*
X206575000Y-141425002D02*
X206575000Y-136722500D01*
%TO.N,Net-(U3-IO3_L)*%
X207225000Y-143315000D02*
X207225000Y-136722500D01*
X199680000Y-150260000D02*
X200280000Y-150260000D01*
X200280000Y-150260000D02*
X207225000Y-143315000D01*
%TO.N,Net-(U3-IO2_L)*%
X202220000Y-150260000D02*
X202820000Y-150260000D01*
X207875000Y-145205000D02*
X207875000Y-136722500D01*
X202820000Y-150260000D02*
X207875000Y-145205000D01*
%TO.N,Net-(U3-IO1_L)*%
X208525000Y-136722500D02*
X208525000Y-147095000D01*
X205360000Y-150260000D02*
X204760000Y-150260000D01*
X208525000Y-147095000D02*
X205360000Y-150260000D01*
%TO.N,Net-(U3-IO0_L)*%
X209825000Y-148335000D02*
X207900000Y-150260000D01*
X207900000Y-150260000D02*
X207300000Y-150260000D01*
X209825000Y-136722500D02*
X209825000Y-148335000D01*
%TO.N,Net-(D56-DOUT)*%
X16117024Y-201650000D02*
X16017024Y-201750000D01*
X16117024Y-201600000D02*
X16117024Y-201650000D01*
X16017024Y-201750000D02*
X13650000Y-201750000D01*
%TO.N,Net-(D55-DOUT)*%
X18550000Y-181650000D02*
X18550000Y-198450000D01*
X13650000Y-176750000D02*
X18550000Y-181650000D01*
%TO.N,Net-(D38-DOUT)*%
X-36182976Y-168750000D02*
X-36182976Y-151950000D01*
X-31282976Y-173650000D02*
X-36182976Y-168750000D01*
%TO.N,Net-(D51-DOUT)*%
X18550000Y-81650000D02*
X18550000Y-98450000D01*
X13650000Y-76750000D02*
X18550000Y-81650000D01*
%TO.N,Net-(D6-DOUT)*%
X-131082976Y-173450000D02*
X-135982976Y-168550000D01*
X-135982976Y-168550000D02*
X-135982976Y-151750000D01*
%TO.N,Net-(D5-DOUT)*%
X-135982976Y-126750000D02*
X-131082976Y-131650000D01*
X-131082976Y-131650000D02*
X-131082976Y-148450000D01*
%TO.N,Net-(D14-DOUT)*%
X-106450000Y-173450000D02*
X-111350000Y-168550000D01*
X-111350000Y-168550000D02*
X-111350000Y-151750000D01*
%TO.N,Net-(D13-DOUT)*%
X-106450000Y-131650000D02*
X-106450000Y-148450000D01*
X-111350000Y-126750000D02*
X-106450000Y-131650000D01*
%TO.N,Net-(D28-DOUT)*%
X-61350000Y-118550000D02*
X-61350000Y-101750000D01*
X-56450000Y-123450000D02*
X-61350000Y-118550000D01*
%TO.N,Net-(D57-DOUT)*%
X38650000Y-26750000D02*
X41317024Y-29417024D01*
X41317024Y-29417024D02*
X41317024Y-46217024D01*
X41317024Y-46217024D02*
X43550000Y-48450000D01*
%TO.N,Net-(D7-DOUT)*%
X-135982976Y-176750000D02*
X-131082976Y-181650000D01*
X-131082976Y-181650000D02*
X-131082976Y-198450000D01*
%TO.N,Net-(D62-DOUT)*%
X43550000Y-173450000D02*
X38650000Y-168550000D01*
X38650000Y-168550000D02*
X38650000Y-151750000D01*
%TO.N,Net-(D61-DOUT)*%
X43550000Y-131650000D02*
X43550000Y-148450000D01*
X38650000Y-126750000D02*
X43550000Y-131650000D01*
%TO.N,Net-(D1-DOUT)*%
X-135900000Y-26900000D02*
X-131032976Y-31767024D01*
X-131032976Y-31767024D02*
X-131032976Y-48450000D01*
%TO.N,Net-(U3-A9_L)*%
X212275000Y-147825000D02*
X209840000Y-150260000D01*
X212275000Y-136722500D02*
X212275000Y-147825000D01*
%TO.N,Net-(U3-A8_L)*%
X212925000Y-149715000D02*
X212925000Y-136722500D01*
X212380000Y-150260000D02*
X212925000Y-149715000D01*
%TO.N,Net-(U3-A7_L)*%
X213575000Y-148915000D02*
X213575000Y-136722500D01*
X214920000Y-150260000D02*
X213575000Y-148915000D01*
%TO.N,Net-(U3-A6_L)*%
X214225000Y-147025000D02*
X214225000Y-136722500D01*
X217460000Y-150260000D02*
X214225000Y-147025000D01*
%TO.N,Net-(U3-A5_L)*%
X220000000Y-150260000D02*
X214875000Y-145135000D01*
X214875000Y-145135000D02*
X214875000Y-136722500D01*
%TO.N,Net-(U3-A4_L)*%
X215525000Y-143245000D02*
X215525000Y-136722500D01*
X222540000Y-150260000D02*
X215525000Y-143245000D01*
%TO.N,Net-(U3-A3_L)*%
X224200000Y-150260000D02*
X216825000Y-142885000D01*
X216825000Y-142885000D02*
X216825000Y-136722500D01*
X225080000Y-150260000D02*
X224200000Y-150260000D01*
%TO.N,Net-(D37-DOUT)*%
X-36182976Y-126950000D02*
X-31282976Y-131850000D01*
X-31282976Y-131850000D02*
X-31282976Y-148650000D01*
%TO.N,Net-(D52-DOUT)*%
X18550000Y-123450000D02*
X13650000Y-118550000D01*
X13650000Y-118550000D02*
X13650000Y-101750000D01*
%TD*%
M02*
