%TF.GenerationSoftware,KiCad,Pcbnew,10.0.3*%
%TF.CreationDate,2026-06-16T09:32:00+08:00*%
%TF.ProjectId,LED_RAM,4c45445f-5241-44d2-9e6b-696361645f70,rev?*%
%TF.SameCoordinates,Original*%
%TF.FileFunction,Copper,L2,Bot*%
%TF.FilePolarity,Positive*%
%FSLAX46Y46*%
G04 Gerber Fmt 4.6, Leading zero omitted, Abs format (unit mm)*
G04 Created by KiCad (PCBNEW 10.0.3) date 2026-06-16 09:32:00*
%MOMM*%
%LPD*%
G01*
G04 APERTURE LIST*
G04 Aperture macros list*
%AMRoundRect*
0 Rectangle with rounded corners*
0 $1 Rounding radius*
0 $2 $3 $4 $5 $6 $7 $8 $9 X,Y pos of 4 corners*
0 Add a 4 corners polygon primitive as box body*
4,1,4,$2,$3,$4,$5,$6,$7,$8,$9,$2,$3,0*
0 Add four circle primitives for the rounded corners*
1,1,$1+$1,$2,$3*
1,1,$1+$1,$4,$5*
1,1,$1+$1,$6,$7*
1,1,$1+$1,$8,$9*
0 Add four rect primitives between the rounded corners*
20,1,$1+$1,$2,$3,$4,$5,0*
20,1,$1+$1,$4,$5,$6,$7,0*
20,1,$1+$1,$6,$7,$8,$9,0*
20,1,$1+$1,$8,$9,$2,$3,0*%
G04 Aperture macros list end*
%TA.AperFunction,ComponentPad*%
%ADD10R,1.700000X1.700000*%
%TD*%
%TA.AperFunction,ComponentPad*%
%ADD11C,1.700000*%
%TD*%
%TA.AperFunction,ComponentPad*%
%ADD12O,1.700000X1.100000*%
%TD*%
%TA.AperFunction,ComponentPad*%
%ADD13RoundRect,0.170000X0.680000X-0.680000X0.680000X0.680000X-0.680000X0.680000X-0.680000X-0.680000X0*%
%TD*%
%TA.AperFunction,ComponentPad*%
%ADD14C,1.600000*%
%TD*%
%TA.AperFunction,ComponentPad*%
%ADD15R,1.600000X1.600000*%
%TD*%
%TA.AperFunction,ComponentPad*%
%ADD16O,1.600000X1.600000*%
%TD*%
%TA.AperFunction,ViaPad*%
%ADD17C,0.600000*%
%TD*%
%TA.AperFunction,Conductor*%
%ADD18C,0.200000*%
%TD*%
G04 APERTURE END LIST*
D10*
%TO.P,,1,Pin_1_1*%
%TO.N,GND*%
X70000000Y-79960000D03*
%TD*%
%TO.P,J9,1,Pin_1_1*%
%TO.N,/5V*%
X255000000Y-79760000D03*
%TD*%
%TO.P,J13,1,Pin_1_1*%
%TO.N,Net-(J13-Pin_1)*%
X240950000Y-80310000D03*
D11*
%TO.P,J13,2,Pin_2_2*%
%TO.N,Net-(J13-Pin_2)*%
X238410000Y-80310000D03*
%TO.P,J13,3,Pin_3_3*%
%TO.N,Net-(J13-Pin_3)*%
X235870000Y-80310000D03*
%TO.P,J13,4,Pin_4_4*%
%TO.N,Net-(J13-Pin_4)*%
X233330000Y-80310000D03*
%TO.P,J13,5,Pin_5_5*%
%TO.N,Net-(J13-Pin_5)*%
X230790000Y-80310000D03*
%TO.P,J13,6,Pin_6_6*%
%TO.N,/IO7_L*%
X228250000Y-80310000D03*
%TO.P,J13,7,Pin_7_7*%
%TO.N,Net-(J13-Pin_7)*%
X225710000Y-80310000D03*
%TO.P,J13,8,Pin_8_8*%
%TO.N,/SDA*%
X223170000Y-80310000D03*
%TO.P,J13,9,Pin_9_9*%
%TO.N,Net-(J13-Pin_9)*%
X220630000Y-80310000D03*
%TO.P,J13,10,Pin_10_10*%
%TO.N,Net-(J13-Pin_10)*%
X218090000Y-80310000D03*
%TO.P,J13,11,Pin_11_11*%
%TO.N,Net-(J13-Pin_11)*%
X215550000Y-80310000D03*
%TO.P,J13,12,Pin_12_12*%
%TO.N,Net-(J13-Pin_12)*%
X213010000Y-80310000D03*
%TO.P,J13,13,Pin_13_13*%
%TO.N,/IO2_L*%
X210470000Y-80310000D03*
%TO.P,J13,14,Pin_14_14*%
%TO.N,/IO3_L*%
X207930000Y-80310000D03*
%TO.P,J13,15,Pin_15_15*%
%TO.N,/IO4_L*%
X205390000Y-80310000D03*
%TO.P,J13,16,Pin_16_16*%
%TO.N,/IO5_L*%
X202850000Y-80310000D03*
%TO.P,J13,17,Pin_17_17*%
%TO.N,/IO6_L*%
X200310000Y-80310000D03*
%TO.P,J13,18,Pin_18_18*%
%TO.N,/~{RW_L}*%
X197770000Y-80310000D03*
%TO.P,J13,19,Pin_19_19*%
%TO.N,/~{CE_L}*%
X195230000Y-80310000D03*
%TO.P,J13,20,Pin_20_20*%
%TO.N,Net-(J13-Pin_20)*%
X192690000Y-80310000D03*
%TO.P,J13,21,Pin_21_21*%
%TO.N,Net-(J13-Pin_21)*%
X190150000Y-80310000D03*
%TO.P,J13,22,Pin_22_22*%
%TO.N,Net-(J13-Pin_22)*%
X187610000Y-80310000D03*
%TD*%
D10*
%TO.P,J6,1,Pin_1_1*%
%TO.N,Net-(J6-Pin_1)*%
X205800000Y-172560000D03*
D11*
%TO.P,J6,2,Pin_2_2*%
%TO.N,Net-(J6-Pin_2)*%
X208340000Y-172560000D03*
%TO.P,J6,3,Pin_3_3*%
%TO.N,Net-(J6-Pin_3)*%
X210880000Y-172560000D03*
%TO.P,J6,4,Pin_4_4*%
%TO.N,Net-(J6-Pin_4)*%
X213420000Y-172560000D03*
%TO.P,J6,5,Pin_5_5*%
%TO.N,Net-(J6-Pin_5)*%
X215960000Y-172560000D03*
%TO.P,J6,6,Pin_6_6*%
%TO.N,Net-(J6-Pin_6)*%
X218500000Y-172560000D03*
%TO.P,J6,7,Pin_7_7*%
%TO.N,Net-(J6-Pin_7)*%
X221040000Y-172560000D03*
%TO.P,J6,8,Pin_8_8*%
%TO.N,Net-(J6-Pin_8)*%
X223580000Y-172560000D03*
%TO.P,J6,9,Pin_9_9*%
%TO.N,Net-(J6-Pin_9)*%
X226120000Y-172560000D03*
%TO.P,J6,10,Pin_10_10*%
%TO.N,Net-(J6-Pin_10)*%
X228660000Y-172560000D03*
%TD*%
D10*
%TO.P,J2,1,Pin_1_1*%
%TO.N,+5V*%
X46417024Y-200150000D03*
%TD*%
%TO.P,J16,1,Pin_1_1*%
%TO.N,/3.3v*%
X187590000Y-107800000D03*
D11*
%TO.P,J16,2,Pin_2_2*%
%TO.N,Net-(J15-Pin_2)*%
X190130000Y-107800000D03*
%TO.P,J16,3,Pin_3_3*%
%TO.N,Net-(J15-Pin_3)*%
X192670000Y-107800000D03*
%TO.P,J16,4,Pin_4_4*%
%TO.N,/~{BUSY_L}*%
X195210000Y-107800000D03*
%TO.P,J16,5,Pin_5_5*%
%TO.N,/~{INT_L}*%
X197750000Y-107800000D03*
%TO.P,J16,6,Pin_6_6*%
%TO.N,/~{OE_L}*%
X200290000Y-107800000D03*
%TO.P,J16,7,Pin_7_7*%
%TO.N,/A0_L*%
X202830000Y-107800000D03*
%TO.P,J16,8,Pin_8_8*%
%TO.N,/A8_L*%
X205370000Y-107800000D03*
%TO.P,J16,9,Pin_9_9*%
%TO.N,/A9_L*%
X207910000Y-107800000D03*
%TO.P,J16,10,Pin_10_10*%
%TO.N,/IO0_L*%
X210450000Y-107800000D03*
%TO.P,J16,11,Pin_11_11*%
%TO.N,/IO1_L*%
X212990000Y-107800000D03*
%TO.P,J16,12,Pin_12_12*%
%TO.N,/A1_L*%
X215530000Y-107800000D03*
%TO.P,J16,13,Pin_13_13*%
%TO.N,Net-(J15-Pin_13)*%
X218070000Y-107800000D03*
%TO.P,J16,14,Pin_14_14*%
%TO.N,/SCL*%
X220610000Y-107800000D03*
%TO.P,J16,15,Pin_15_15*%
%TO.N,/A2_L*%
X223150000Y-107800000D03*
%TO.P,J16,16,Pin_16_16*%
%TO.N,/A3_L*%
X225690000Y-107800000D03*
%TO.P,J16,17,Pin_17_17*%
%TO.N,/A4_L*%
X228230000Y-107800000D03*
%TO.P,J16,18,Pin_18_18*%
%TO.N,/A5_L*%
X230770000Y-107800000D03*
%TO.P,J16,19,Pin_19_19*%
%TO.N,/A6_L*%
X233310000Y-107800000D03*
%TO.P,J16,20,Pin_20_20*%
%TO.N,/A7_L*%
X235850000Y-107800000D03*
%TO.P,J16,21,Pin_21_21*%
%TO.N,/5V*%
X238390000Y-107800000D03*
%TO.P,J16,22,Pin_22_22*%
%TO.N,Net-(J15-Pin_22)*%
X240930000Y-107800000D03*
%TD*%
D10*
%TO.P,J5,1,Pin_1_1*%
%TO.N,Net-(J5-Pin_1)*%
X232220000Y-172560000D03*
D11*
%TO.P,J5,2,Pin_2_2*%
%TO.N,Net-(J5-Pin_2)*%
X234760000Y-172560000D03*
%TO.P,J5,3,Pin_3_3*%
%TO.N,Net-(J5-Pin_3)*%
X237300000Y-172560000D03*
%TO.P,J5,4,Pin_4_4*%
%TO.N,Net-(J5-Pin_4)*%
X239840000Y-172560000D03*
%TO.P,J5,5,Pin_5_5*%
%TO.N,Net-(J5-Pin_5)*%
X242380000Y-172560000D03*
%TD*%
D10*
%TO.P,J15,1,Pin_1_1*%
%TO.N,/3.3v*%
X187590000Y-112390000D03*
D11*
%TO.P,J15,2,Pin_2_2*%
%TO.N,Net-(J15-Pin_2)*%
X190130000Y-112390000D03*
%TO.P,J15,3,Pin_3_3*%
%TO.N,Net-(J15-Pin_3)*%
X192670000Y-112390000D03*
%TO.P,J15,4,Pin_4_4*%
%TO.N,/~{BUSY_L}*%
X195210000Y-112390000D03*
%TO.P,J15,5,Pin_5_5*%
%TO.N,/~{INT_L}*%
X197750000Y-112390000D03*
%TO.P,J15,6,Pin_6_6*%
%TO.N,/~{OE_L}*%
X200290000Y-112390000D03*
%TO.P,J15,7,Pin_7_7*%
%TO.N,/A0_L*%
X202830000Y-112390000D03*
%TO.P,J15,8,Pin_8_8*%
%TO.N,/A8_L*%
X205370000Y-112390000D03*
%TO.P,J15,9,Pin_9_9*%
%TO.N,/A9_L*%
X207910000Y-112390000D03*
%TO.P,J15,10,Pin_10_10*%
%TO.N,/IO0_L*%
X210450000Y-112390000D03*
%TO.P,J15,11,Pin_11_11*%
%TO.N,/IO1_L*%
X212990000Y-112390000D03*
%TO.P,J15,12,Pin_12_12*%
%TO.N,/A1_L*%
X215530000Y-112390000D03*
%TO.P,J15,13,Pin_13_13*%
%TO.N,Net-(J15-Pin_13)*%
X218070000Y-112390000D03*
%TO.P,J15,14,Pin_14_14*%
%TO.N,/SCL*%
X220610000Y-112390000D03*
%TO.P,J15,15,Pin_15_15*%
%TO.N,/A2_L*%
X223150000Y-112390000D03*
%TO.P,J15,16,Pin_16_16*%
%TO.N,/A3_L*%
X225690000Y-112390000D03*
%TO.P,J15,17,Pin_17_17*%
%TO.N,/A4_L*%
X228230000Y-112390000D03*
%TO.P,J15,18,Pin_18_18*%
%TO.N,/A5_L*%
X230770000Y-112390000D03*
%TO.P,J15,19,Pin_19_19*%
%TO.N,/A6_L*%
X233310000Y-112390000D03*
%TO.P,J15,20,Pin_20_20*%
%TO.N,/A7_L*%
X235850000Y-112390000D03*
%TO.P,J15,21,Pin_21_21*%
%TO.N,/5V*%
X238390000Y-112390000D03*
%TO.P,J15,22,Pin_22_22*%
%TO.N,Net-(J15-Pin_22)*%
X240930000Y-112390000D03*
%TD*%
D12*
%TO.P,J10,SH,SHIELD_SH*%
%TO.N,GND*%
X252225000Y-142980000D03*
X256025000Y-142980000D03*
X252225000Y-134340000D03*
X256025000Y-134340000D03*
%TD*%
D10*
%TO.P,J1,1,Pin_1_1*%
%TO.N,Net-(D1-DIN)*%
X-46882976Y-204550000D03*
%TD*%
%TO.P,J8,1,Pin_1_1*%
%TO.N,GND*%
X69959566Y-155589446D03*
%TD*%
%TO.P,J3,1,Pin_1_1*%
%TO.N,GND*%
X-138682976Y-25250000D03*
%TD*%
%TO.P,J2,1,Pin_1_1*%
%TO.N,+5V*%
X46317024Y-25050000D03*
%TD*%
%TO.P,J7,1,Pin_1_1*%
%TO.N,Net-(J13-Pin_7)*%
X161659566Y-159789446D03*
%TD*%
D13*
%TO.P,U2,1,GND_1*%
%TO.N,GND*%
X140900000Y-174160000D03*
D11*
%TO.P,U2,2,VCC_2*%
%TO.N,/3.3v*%
X140900000Y-171620000D03*
%TO.P,U2,3,SCL_3*%
%TO.N,/SCL*%
X140900000Y-169080000D03*
%TO.P,U2,4,SDA_4*%
%TO.N,/SDA*%
X140900000Y-166540000D03*
%TD*%
D10*
%TO.P,J12,1,Pin_1_1*%
%TO.N,Net-(J12-Pin_1)*%
X184480000Y-172560000D03*
D11*
%TO.P,J12,2,Pin_2_2*%
%TO.N,Net-(J12-Pin_2)*%
X187020000Y-172560000D03*
%TO.P,J12,3,Pin_3_3*%
%TO.N,Net-(J12-Pin_3)*%
X189560000Y-172560000D03*
%TO.P,J12,4,Pin_4_4*%
%TO.N,Net-(J12-Pin_4)*%
X192100000Y-172560000D03*
%TO.P,J12,5,Pin_5_5*%
%TO.N,Net-(J12-Pin_5)*%
X194640000Y-172560000D03*
%TO.P,J12,6,Pin_6_6*%
%TO.N,Net-(J12-Pin_6)*%
X197180000Y-172560000D03*
%TO.P,J12,7,Pin_7_7*%
%TO.N,Net-(J12-Pin_7)*%
X199720000Y-172560000D03*
%TO.P,J12,8,Pin_8_8*%
%TO.N,Net-(J12-Pin_8)*%
X202260000Y-172560000D03*
%TD*%
D14*
%TO.P,R1,1*%
%TO.N,GND*%
X240525000Y-136960000D03*
%TO.P,R1,2*%
%TO.N,Net-(J10-CC2)*%
X248145000Y-136960000D03*
%TD*%
D10*
%TO.P,J4,1,Pin_1_1*%
%TO.N,Net-(D64-DOUT)*%
X-50482976Y-204550000D03*
%TD*%
%TO.P,J9,1,Pin_1_1*%
%TO.N,/5V*%
X254959566Y-155389446D03*
%TD*%
D13*
%TO.P,U1,1,GND_1*%
%TO.N,GND*%
X81100000Y-174500000D03*
D11*
%TO.P,U1,2,VCC_2*%
%TO.N,/3.3v*%
X81100000Y-171960000D03*
%TO.P,U1,3,SCL_3*%
%TO.N,/SCL*%
X81100000Y-169420000D03*
%TO.P,U1,4,SDA_4*%
%TO.N,/SDA*%
X81100000Y-166880000D03*
%TD*%
D15*
%TO.P,U3,1,~{CE_L}_1*%
%TO.N,Net-(U3-~{CE_L})*%
X245400000Y-150260000D03*
D16*
%TO.P,U3,2,~{RW_L}_2*%
%TO.N,Net-(U3-~{RW_L})*%
X242860000Y-150260000D03*
%TO.P,U3,3,~{BUSY_L}_3*%
%TO.N,Net-(U3-~{BUSY_L})*%
X240320000Y-150260000D03*
%TO.P,U3,4,~{INT_L}_4*%
%TO.N,Net-(U3-~{INT_L})*%
X237780000Y-150260000D03*
%TO.P,U3,5,~{OE_L}_5*%
%TO.N,Net-(U3-~{OE_L})*%
X235240000Y-150260000D03*
%TO.P,U3,6,A0_L_6*%
%TO.N,Net-(U3-A0_L)*%
X232700000Y-150260000D03*
%TO.P,U3,7,A1_L_7*%
%TO.N,Net-(U3-A1_L)*%
X230160000Y-150260000D03*
%TO.P,U3,8,A2_L_8*%
%TO.N,Net-(U3-A2_L)*%
X227620000Y-150260000D03*
%TO.P,U3,9,A3_L_9*%
%TO.N,Net-(U3-A3_L)*%
X225080000Y-150260000D03*
%TO.P,U3,10,A4_L_10*%
%TO.N,Net-(U3-A4_L)*%
X222540000Y-150260000D03*
%TO.P,U3,11,A5_L_11*%
%TO.N,Net-(U3-A5_L)*%
X220000000Y-150260000D03*
%TO.P,U3,12,A6_L_12*%
%TO.N,Net-(U3-A6_L)*%
X217460000Y-150260000D03*
%TO.P,U3,13,A7_L_13*%
%TO.N,Net-(U3-A7_L)*%
X214920000Y-150260000D03*
%TO.P,U3,14,A8_L_14*%
%TO.N,Net-(U3-A8_L)*%
X212380000Y-150260000D03*
%TO.P,U3,15,A9_L_15*%
%TO.N,Net-(U3-A9_L)*%
X209840000Y-150260000D03*
%TO.P,U3,16,IO0_L_16*%
%TO.N,Net-(U3-IO0_L)*%
X207300000Y-150260000D03*
%TO.P,U3,17,IO1_L_17*%
%TO.N,Net-(U3-IO1_L)*%
X204760000Y-150260000D03*
%TO.P,U3,18,IO2_L_18*%
%TO.N,Net-(U3-IO2_L)*%
X202220000Y-150260000D03*
%TO.P,U3,19,IO3_L_19*%
%TO.N,Net-(U3-IO3_L)*%
X199680000Y-150260000D03*
%TO.P,U3,20,IO4_L_20*%
%TO.N,Net-(U3-IO4_L)*%
X197140000Y-150260000D03*
%TO.P,U3,21,IO5_L_21*%
%TO.N,Net-(U3-IO5_L)*%
X194600000Y-150260000D03*
%TO.P,U3,22,IO6_L_22*%
%TO.N,Net-(U3-IO6_L)*%
X192060000Y-150260000D03*
%TO.P,U3,23,IO7_L_23*%
%TO.N,Net-(U3-IO7_L)*%
X189520000Y-150260000D03*
%TO.P,U3,24,GND_24*%
%TO.N,GND*%
X186980000Y-150260000D03*
%TO.P,U3,25,IO7_R_25*%
%TO.N,Net-(J12-Pin_1)*%
X186980000Y-165500000D03*
%TO.P,U3,26,IO6_R_26*%
%TO.N,Net-(J12-Pin_2)*%
X189520000Y-165500000D03*
%TO.P,U3,27,IO5_R_27*%
%TO.N,Net-(J12-Pin_3)*%
X192060000Y-165500000D03*
%TO.P,U3,28,IO4_R_28*%
%TO.N,Net-(J12-Pin_4)*%
X194600000Y-165500000D03*
%TO.P,U3,29,IO3_R_29*%
%TO.N,Net-(J12-Pin_5)*%
X197140000Y-165500000D03*
%TO.P,U3,30,IO2_R_30*%
%TO.N,Net-(J12-Pin_6)*%
X199680000Y-165500000D03*
%TO.P,U3,31,IO1_R_31*%
%TO.N,Net-(J12-Pin_7)*%
X202220000Y-165500000D03*
%TO.P,U3,32,IO0_R_32*%
%TO.N,Net-(J12-Pin_8)*%
X204760000Y-165500000D03*
%TO.P,U3,33,A9_R_33*%
%TO.N,Net-(J6-Pin_1)*%
X207300000Y-165500000D03*
%TO.P,U3,34,A8_R_34*%
%TO.N,Net-(J6-Pin_2)*%
X209840000Y-165500000D03*
%TO.P,U3,35,A7_R_35*%
%TO.N,Net-(J6-Pin_3)*%
X212380000Y-165500000D03*
%TO.P,U3,36,A6_R_36*%
%TO.N,Net-(J6-Pin_4)*%
X214920000Y-165500000D03*
%TO.P,U3,37,A5_R_37*%
%TO.N,Net-(J6-Pin_5)*%
X217460000Y-165500000D03*
%TO.P,U3,38,A4_R_38*%
%TO.N,Net-(J6-Pin_6)*%
X220000000Y-165500000D03*
%TO.P,U3,39,A3_R_39*%
%TO.N,Net-(J6-Pin_7)*%
X222540000Y-165500000D03*
%TO.P,U3,40,A2_R_40*%
%TO.N,Net-(J6-Pin_8)*%
X225080000Y-165500000D03*
%TO.P,U3,41,A1_R_41*%
%TO.N,Net-(J6-Pin_9)*%
X227620000Y-165500000D03*
%TO.P,U3,42,A0_R_42*%
%TO.N,Net-(J6-Pin_10)*%
X230160000Y-165500000D03*
%TO.P,U3,43,~{OE_R}_43*%
%TO.N,Net-(J5-Pin_1)*%
X232700000Y-165500000D03*
%TO.P,U3,44,~{INT_R}_44*%
%TO.N,Net-(J5-Pin_2)*%
X235240000Y-165500000D03*
%TO.P,U3,45,~{BUSY_R}_45*%
%TO.N,Net-(J5-Pin_3)*%
X237780000Y-165500000D03*
%TO.P,U3,46,~{RW_R}_46*%
%TO.N,Net-(J5-Pin_4)*%
X240320000Y-165500000D03*
%TO.P,U3,47,~{CE_R}_47*%
%TO.N,Net-(J5-Pin_5)*%
X242860000Y-165500000D03*
%TO.P,U3,48,VCC_48*%
%TO.N,/5V*%
X245400000Y-165500000D03*
%TD*%
D10*
%TO.P,J14,1,Pin_1_1*%
%TO.N,Net-(J13-Pin_1)*%
X240950000Y-84900000D03*
D11*
%TO.P,J14,2,Pin_2_2*%
%TO.N,Net-(J13-Pin_2)*%
X238410000Y-84900000D03*
%TO.P,J14,3,Pin_3_3*%
%TO.N,Net-(J13-Pin_3)*%
X235870000Y-84900000D03*
%TO.P,J14,4,Pin_4_4*%
%TO.N,Net-(J13-Pin_4)*%
X233330000Y-84900000D03*
%TO.P,J14,5,Pin_5_5*%
%TO.N,Net-(J13-Pin_5)*%
X230790000Y-84900000D03*
%TO.P,J14,6,Pin_6_6*%
%TO.N,/IO7_L*%
X228250000Y-84900000D03*
%TO.P,J14,7,Pin_7_7*%
%TO.N,Net-(J13-Pin_7)*%
X225710000Y-84900000D03*
%TO.P,J14,8,Pin_8_8*%
%TO.N,/SDA*%
X223170000Y-84900000D03*
%TO.P,J14,9,Pin_9_9*%
%TO.N,Net-(J13-Pin_9)*%
X220630000Y-84900000D03*
%TO.P,J14,10,Pin_10_10*%
%TO.N,Net-(J13-Pin_10)*%
X218090000Y-84900000D03*
%TO.P,J14,11,Pin_11_11*%
%TO.N,Net-(J13-Pin_11)*%
X215550000Y-84900000D03*
%TO.P,J14,12,Pin_12_12*%
%TO.N,Net-(J13-Pin_12)*%
X213010000Y-84900000D03*
%TO.P,J14,13,Pin_13_13*%
%TO.N,/IO2_L*%
X210470000Y-84900000D03*
%TO.P,J14,14,Pin_14_14*%
%TO.N,/IO3_L*%
X207930000Y-84900000D03*
%TO.P,J14,15,Pin_15_15*%
%TO.N,/IO4_L*%
X205390000Y-84900000D03*
%TO.P,J14,16,Pin_16_16*%
%TO.N,/IO5_L*%
X202850000Y-84900000D03*
%TO.P,J14,17,Pin_17_17*%
%TO.N,/IO6_L*%
X200310000Y-84900000D03*
%TO.P,J14,18,Pin_18_18*%
%TO.N,/~{RW_L}*%
X197770000Y-84900000D03*
%TO.P,J14,19,Pin_19_19*%
%TO.N,/~{CE_L}*%
X195230000Y-84900000D03*
%TO.P,J14,20,Pin_20_20*%
%TO.N,Net-(J13-Pin_20)*%
X192690000Y-84900000D03*
%TO.P,J14,21,Pin_21_21*%
%TO.N,Net-(J13-Pin_21)*%
X190150000Y-84900000D03*
%TO.P,J14,22,Pin_22_22*%
%TO.N,Net-(J13-Pin_22)*%
X187610000Y-84900000D03*
%TD*%
D14*
%TO.P,R2,1*%
%TO.N,GND*%
X240505000Y-140060000D03*
%TO.P,R2,2*%
%TO.N,Net-(J10-CC1)*%
X248125000Y-140060000D03*
%TD*%
D10*
%TO.P,J3,1,Pin_1_1*%
%TO.N,GND*%
X-138582976Y-200350000D03*
%TD*%
D17*
%TO.N,/~{RW_L}*%
X222524265Y-119884265D03*
%TO.N,+5V*%
X38650000Y-148450000D03*
X38650000Y-173450000D03*
X38650000Y-48450000D03*
X38617024Y-25050000D03*
X38650000Y-198450000D03*
X38650000Y-73450000D03*
X38650000Y-123450000D03*
X38650000Y-98450000D03*
%TO.N,GND*%
X43550000Y-51750000D03*
X43550000Y-151750000D03*
X43550000Y-126750000D03*
X43517024Y-28450000D03*
X43550000Y-76750000D03*
X43550000Y-101750000D03*
X43550000Y-176750000D03*
X43550000Y-201750000D03*
%TO.N,Net-(D64-DOUT)*%
X32417024Y-201950000D03*
%TO.N,/~{BUSY_L}*%
X195200000Y-129760000D03*
X221900000Y-129860000D03*
%TO.N,/~{INT_L}*%
X197700000Y-129260000D03*
X221200000Y-129260000D03*
%TO.N,/~{OE_L}*%
X200300000Y-128660000D03*
X220585421Y-128660000D03*
%TO.N,/A0_L*%
X219875000Y-128260000D03*
X202800000Y-128260000D03*
%TO.N,/A2_L*%
X218600000Y-122785000D03*
X223111092Y-118448908D03*
%TO.N,/5V*%
X216200000Y-138360000D03*
X209200000Y-138360000D03*
X223225000Y-138360000D03*
%TO.N,/A8_L*%
X212900000Y-127860000D03*
X205325000Y-127860000D03*
%TO.N,/A9_L*%
X212300000Y-127260000D03*
X207000000Y-127260000D03*
%TO.N,/IO0_L*%
X209600000Y-119560000D03*
%TO.N,/IO1_L*%
X209000000Y-118857438D03*
%TO.N,/A3_L*%
X216800000Y-122785000D03*
X225700000Y-117960000D03*
%TO.N,/A4_L*%
X228200000Y-127760000D03*
X215500000Y-127860000D03*
%TO.N,/A5_L*%
X230700000Y-127060000D03*
X214900000Y-127260000D03*
%TO.N,/A6_L*%
X214200000Y-126760000D03*
X233316507Y-125076507D03*
%TO.N,/A7_L*%
X235800000Y-123385000D03*
X213600000Y-124760000D03*
%TO.N,Net-(D32-DOUT)*%
X-58882976Y-201750000D03*
X-31282976Y-23650000D03*
%TO.N,Net-(D24-DOUT)*%
X-83682976Y-201750000D03*
X-56450000Y-23450000D03*
%TO.N,Net-(D40-DOUT)*%
X-33682976Y-201450000D03*
X-6450000Y-23450000D03*
%TO.N,Net-(D48-DOUT)*%
X-8882976Y-201600000D03*
X18550000Y-23450000D03*
%TO.N,Net-(D1-DIN)*%
X-134082976Y-23550000D03*
X-49582976Y-202350000D03*
%TO.N,Net-(D8-DOUT)*%
X-133582976Y-201750000D03*
X-106450000Y-23450000D03*
%TO.N,Net-(D16-DOUT)*%
X-81232976Y-23450000D03*
X-108882976Y-201600000D03*
%TO.N,Net-(D56-DOUT)*%
X43550000Y-23450000D03*
X16117024Y-201600000D03*
%TD*%
%TO.N,Net-(J13-Pin_1)*%
D18*
X240950000Y-80310000D02*
X240950000Y-84900000D01*
%TO.N,Net-(J13-Pin_2)*%
X238410000Y-80310000D02*
X238410000Y-84900000D01*
%TO.N,Net-(J13-Pin_3)*%
X235870000Y-80310000D02*
X235870000Y-84900000D01*
%TO.N,Net-(J13-Pin_4)*%
X233330000Y-80310000D02*
X233330000Y-84900000D01*
%TO.N,Net-(J13-Pin_5)*%
X230790000Y-80310000D02*
X230790000Y-84900000D01*
%TO.N,/IO7_L*%
X228250000Y-80310000D02*
X228250000Y-84900000D01*
%TO.N,Net-(J13-Pin_7)*%
X225710000Y-80310000D02*
X225710000Y-84900000D01*
%TO.N,/SDA*%
X140900000Y-166540000D02*
X81440000Y-166540000D01*
X178700000Y-101760000D02*
X206310000Y-101760000D01*
X140900000Y-166540000D02*
X140900000Y-139560000D01*
X206310000Y-101760000D02*
X223170000Y-84900000D01*
X81440000Y-166540000D02*
X81100000Y-166880000D01*
X140900000Y-139560000D02*
X178700000Y-101760000D01*
X223170000Y-80310000D02*
X223170000Y-84900000D01*
%TO.N,Net-(J13-Pin_9)*%
X220630000Y-80310000D02*
X220630000Y-84900000D01*
%TO.N,Net-(J13-Pin_10)*%
X218090000Y-80310000D02*
X218090000Y-84900000D01*
%TO.N,Net-(J13-Pin_11)*%
X215550000Y-80310000D02*
X215550000Y-84900000D01*
%TO.N,Net-(J13-Pin_12)*%
X213010000Y-80310000D02*
X213010000Y-84900000D01*
%TO.N,/IO2_L*%
X210470000Y-80310000D02*
X210470000Y-84900000D01*
%TO.N,/IO3_L*%
X207930000Y-80310000D02*
X207930000Y-84900000D01*
%TO.N,/IO4_L*%
X205390000Y-80310000D02*
X205390000Y-84900000D01*
%TO.N,/IO5_L*%
X202850000Y-80310000D02*
X202850000Y-84900000D01*
%TO.N,/IO6_L*%
X200310000Y-80310000D02*
X200310000Y-84900000D01*
%TO.N,/~{RW_L}*%
X222524265Y-119884265D02*
X224624264Y-119884265D01*
X224624264Y-119884265D02*
X226860000Y-117648529D01*
X198920000Y-79160000D02*
X197770000Y-80310000D01*
X197770000Y-80310000D02*
X197770000Y-84900000D01*
X226860000Y-117648529D02*
X226860000Y-79833654D01*
X226186346Y-79160000D02*
X198920000Y-79160000D01*
X226860000Y-79833654D02*
X226186346Y-79160000D01*
%TO.N,/~{CE_L}*%
X195230000Y-80310000D02*
X195230000Y-84900000D01*
%TO.N,Net-(J13-Pin_20)*%
X192690000Y-80310000D02*
X192690000Y-84900000D01*
%TO.N,Net-(J13-Pin_21)*%
X190150000Y-80310000D02*
X190150000Y-84900000D01*
%TO.N,Net-(J13-Pin_22)*%
X187610000Y-80310000D02*
X187610000Y-84900000D01*
%TO.N,+5V*%
X38650000Y-148450000D02*
X38650000Y-173450000D01*
X38617024Y-25050000D02*
X38617024Y-48417024D01*
X38617024Y-123482976D02*
X38617024Y-148417024D01*
X38650000Y-48450000D02*
X38650000Y-73450000D01*
X38650000Y-123450000D02*
X38617024Y-123482976D01*
X38650000Y-73450000D02*
X38650000Y-98450000D01*
X38650000Y-98450000D02*
X38650000Y-123450000D01*
X38617024Y-148417024D02*
X38650000Y-148450000D01*
X38617024Y-48417024D02*
X38650000Y-48450000D01*
X38650000Y-173450000D02*
X38650000Y-198450000D01*
%TO.N,GND*%
X43550000Y-51750000D02*
X43550000Y-76750000D01*
X69959566Y-163359566D02*
X81100000Y-174500000D01*
X81440000Y-174160000D02*
X81100000Y-174500000D01*
X140900000Y-174160000D02*
X81440000Y-174160000D01*
X43550000Y-176750000D02*
X43550000Y-201750000D01*
X43550000Y-126750000D02*
X43550000Y-151750000D01*
X43517024Y-28450000D02*
X43317024Y-28650000D01*
X69959566Y-155589446D02*
X69959566Y-163359566D01*
X43550000Y-101750000D02*
X43550000Y-126750000D01*
X43550000Y-151750000D02*
X43550000Y-176750000D01*
X240525000Y-136960000D02*
X243145000Y-134340000D01*
X43317024Y-51517024D02*
X43550000Y-51750000D01*
X43317024Y-28650000D02*
X43317024Y-51517024D01*
X43550000Y-76750000D02*
X43550000Y-101750000D01*
X243145000Y-134340000D02*
X252225000Y-134340000D01*
%TO.N,Net-(D64-DOUT)*%
X32417024Y-201950000D02*
X32167024Y-202200000D01*
X-48132976Y-202200000D02*
X-50482976Y-204550000D01*
X32167024Y-202200000D02*
X-48132976Y-202200000D01*
%TO.N,/3.3v*%
X81440000Y-171620000D02*
X81100000Y-171960000D01*
X187590000Y-107800000D02*
X187590000Y-112390000D01*
X140900000Y-171620000D02*
X81440000Y-171620000D01*
%TO.N,/~{BUSY_L}*%
X195210000Y-107800000D02*
X195210000Y-112390000D01*
X195300000Y-129860000D02*
X195200000Y-129760000D01*
X221900000Y-129860000D02*
X195300000Y-129860000D01*
%TO.N,/~{INT_L}*%
X221200000Y-129260000D02*
X197700000Y-129260000D01*
X197750000Y-107800000D02*
X197750000Y-112390000D01*
%TO.N,/~{OE_L}*%
X220385421Y-128860000D02*
X200500000Y-128860000D01*
X220585421Y-128660000D02*
X220385421Y-128860000D01*
X200500000Y-128860000D02*
X200300000Y-128660000D01*
X200290000Y-107800000D02*
X200290000Y-112390000D01*
%TO.N,/A0_L*%
X202830000Y-107800000D02*
X202830000Y-112390000D01*
X203000000Y-128460000D02*
X202800000Y-128260000D01*
X219875000Y-128260000D02*
X219675000Y-128460000D01*
X219675000Y-128460000D02*
X203000000Y-128460000D01*
%TO.N,/A1_L*%
X215530000Y-107800000D02*
X215530000Y-112390000D01*
%TO.N,/A2_L*%
X218600000Y-122785000D02*
X218775000Y-122785000D01*
X223150000Y-107800000D02*
X223150000Y-112390000D01*
X218775000Y-122785000D02*
X223111092Y-118448908D01*
%TO.N,/5V*%
X216200000Y-138360000D02*
X223225000Y-138360000D01*
X238390000Y-107800000D02*
X238390000Y-112390000D01*
X209200000Y-138360000D02*
X216200000Y-138360000D01*
%TO.N,Net-(J15-Pin_2)*%
X190130000Y-107800000D02*
X190130000Y-112390000D01*
%TO.N,Net-(J15-Pin_3)*%
X192670000Y-107800000D02*
X192670000Y-112390000D01*
%TO.N,/A8_L*%
X205370000Y-107800000D02*
X205370000Y-112390000D01*
X212900000Y-127860000D02*
X205325000Y-127860000D01*
%TO.N,/A9_L*%
X212300000Y-127260000D02*
X207000000Y-127260000D01*
X207910000Y-107800000D02*
X207910000Y-112390000D01*
%TO.N,/IO0_L*%
X210450000Y-107800000D02*
X210450000Y-112390000D01*
X208400000Y-119105967D02*
X208400000Y-114440000D01*
X208854033Y-119560000D02*
X208400000Y-119105967D01*
X208400000Y-114440000D02*
X210450000Y-112390000D01*
X209600000Y-119560000D02*
X208854033Y-119560000D01*
%TO.N,/IO1_L*%
X209000000Y-116380000D02*
X212990000Y-112390000D01*
X212990000Y-107800000D02*
X212990000Y-112390000D01*
X209000000Y-118857438D02*
X209000000Y-116380000D01*
%TO.N,Net-(J15-Pin_13)*%
X218070000Y-107800000D02*
X218070000Y-112390000D01*
%TO.N,/SCL*%
X219370000Y-106560000D02*
X220610000Y-107800000D01*
X142200000Y-167780000D02*
X142200000Y-140060000D01*
X140900000Y-169080000D02*
X81440000Y-169080000D01*
X220610000Y-107800000D02*
X220610000Y-112390000D01*
X142200000Y-140060000D02*
X175700000Y-106560000D01*
X81440000Y-169080000D02*
X81100000Y-169420000D01*
X140900000Y-169080000D02*
X142200000Y-167780000D01*
X175700000Y-106560000D02*
X219370000Y-106560000D01*
%TO.N,/A3_L*%
X225690000Y-107800000D02*
X225690000Y-112390000D01*
X216800000Y-122785000D02*
X221736092Y-117848908D01*
X225588908Y-117848908D02*
X225700000Y-117960000D01*
X221736092Y-117848908D02*
X225588908Y-117848908D01*
%TO.N,/A4_L*%
X228230000Y-107800000D02*
X228230000Y-112390000D01*
X228100000Y-127660000D02*
X228200000Y-127760000D01*
X215700000Y-127660000D02*
X228100000Y-127660000D01*
X215500000Y-127860000D02*
X215700000Y-127660000D01*
%TO.N,/A5_L*%
X230641051Y-127001051D02*
X230700000Y-127060000D01*
X215158949Y-127001051D02*
X230641051Y-127001051D01*
X230770000Y-107800000D02*
X230770000Y-112390000D01*
X214900000Y-127260000D02*
X215158949Y-127001051D01*
%TO.N,/A6_L*%
X215883493Y-125076507D02*
X233316507Y-125076507D01*
X233310000Y-107800000D02*
X233310000Y-112390000D01*
X214200000Y-126760000D02*
X215883493Y-125076507D01*
%TO.N,/A7_L*%
X213600000Y-124760000D02*
X214975000Y-123385000D01*
X214975000Y-123385000D02*
X235800000Y-123385000D01*
X235850000Y-107800000D02*
X235850000Y-112390000D01*
%TO.N,Net-(J15-Pin_22)*%
X240930000Y-107800000D02*
X240930000Y-112390000D01*
%TO.N,Net-(D32-DOUT)*%
X-58882976Y-30517424D02*
X-52015552Y-23650000D01*
X-58882976Y-201750000D02*
X-58882976Y-30517424D01*
X-52015552Y-23650000D02*
X-31282976Y-23650000D01*
%TO.N,Net-(D24-DOUT)*%
X-83682976Y-30917424D02*
X-76215552Y-23450000D01*
X-83682976Y-201750000D02*
X-83682976Y-30917424D01*
X-76215552Y-23450000D02*
X-56450000Y-23450000D01*
%TO.N,Net-(D40-DOUT)*%
X-33682976Y-30917424D02*
X-26215552Y-23450000D01*
X-33682976Y-201450000D02*
X-33682976Y-30917424D01*
X-26215552Y-23450000D02*
X-6450000Y-23450000D01*
%TO.N,Net-(D48-DOUT)*%
X-8882976Y-201600000D02*
X-8882976Y-30517424D01*
X-1815552Y-23450000D02*
X18550000Y-23450000D01*
X-8882976Y-30517424D02*
X-1815552Y-23450000D01*
%TO.N,Net-(D1-DIN)*%
X-49632976Y-202400000D02*
X-49582976Y-202350000D01*
X-134182976Y-23650000D02*
X-134182976Y-201998529D01*
X-134182976Y-201998529D02*
X-133781505Y-202400000D01*
X-134082976Y-23550000D02*
X-134182976Y-23650000D01*
X-133781505Y-202400000D02*
X-49632976Y-202400000D01*
%TO.N,Net-(D8-DOUT)*%
X-133582976Y-201750000D02*
X-133582976Y-28150000D01*
X-128882976Y-23450000D02*
X-106450000Y-23450000D01*
X-133582976Y-28150000D02*
X-128882976Y-23450000D01*
%TO.N,Net-(D16-DOUT)*%
X-108882976Y-27850000D02*
X-104482976Y-23450000D01*
X-108882976Y-201600000D02*
X-108882976Y-27850000D01*
X-104482976Y-23450000D02*
X-81232976Y-23450000D01*
%TO.N,Net-(D56-DOUT)*%
X16117024Y-30567424D02*
X23234448Y-23450000D01*
X23234448Y-23450000D02*
X43550000Y-23450000D01*
X16117024Y-201600000D02*
X16117024Y-30567424D01*
%TD*%
M02*
